G04 #@! TF.FileFunction,Copper,L3,Inr,Signal*
%FSLAX46Y46*%
G04 Gerber Fmt 4.6, Leading zero omitted, Abs format (unit mm)*
G04 Created by KiCad (PCBNEW 4.0.5) date 2017 September 25, Monday 02:54:35*
%MOMM*%
%LPD*%
G01*
G04 APERTURE LIST*
%ADD10C,0.100000*%
%ADD11C,0.150000*%
%ADD12C,0.300000*%
%ADD13C,0.400000*%
%ADD14C,0.609600*%
%ADD15R,1.524000X1.524000*%
%ADD16C,1.524000*%
%ADD17C,1.408000*%
%ADD18C,1.800000*%
%ADD19C,5.080000*%
%ADD20C,0.508000*%
%ADD21C,0.330200*%
%ADD22C,0.304800*%
G04 APERTURE END LIST*
D10*
D11*
X57800000Y-83000000D02*
X57800000Y-115000000D01*
X165800000Y-115000000D01*
X165800000Y-83000000D01*
X57800000Y-83000000D01*
D10*
D11*
X10000000Y-10000000D02*
X10000000Y-117000000D01*
X167800000Y-117000000D01*
X167800000Y-10000000D01*
X10000000Y-10000000D01*
D10*
D11*
X12000000Y-12000000D02*
X12000000Y-115000000D01*
X165800000Y-115000000D01*
X165800000Y-12000000D01*
X12000000Y-12000000D01*
D10*
D11*
X60000000Y-12000000D02*
X60000000Y-10000000D01*
D10*
D11*
X110000000Y-12000000D02*
X110000000Y-10000000D01*
D10*
D11*
X160000000Y-12000000D02*
X160000000Y-10000000D01*
D10*
D11*
X35990476Y-11588095D02*
X35247619Y-11588095D01*
X35619048Y-11588095D02*
X35619048Y-10288095D01*
X35495238Y-10473810D01*
X35371429Y-10597619D01*
X35247619Y-10659524D01*
D10*
D11*
X85247619Y-10411905D02*
X85309524Y-10350000D01*
X85433333Y-10288095D01*
X85742857Y-10288095D01*
X85866667Y-10350000D01*
X85928571Y-10411905D01*
X85990476Y-10535714D01*
X85990476Y-10659524D01*
X85928571Y-10845238D01*
X85185714Y-11588095D01*
X85990476Y-11588095D01*
D10*
D11*
X135185714Y-10288095D02*
X135990476Y-10288095D01*
X135557143Y-10783333D01*
X135742857Y-10783333D01*
X135866667Y-10845238D01*
X135928571Y-10907143D01*
X135990476Y-11030952D01*
X135990476Y-11340476D01*
X135928571Y-11464286D01*
X135866667Y-11526190D01*
X135742857Y-11588095D01*
X135371429Y-11588095D01*
X135247619Y-11526190D01*
X135185714Y-11464286D01*
D10*
D11*
X60000000Y-115000000D02*
X60000000Y-117000000D01*
D10*
D11*
X110000000Y-115000000D02*
X110000000Y-117000000D01*
D10*
D11*
X160000000Y-115000000D02*
X160000000Y-117000000D01*
D10*
D11*
X35990476Y-116588095D02*
X35247619Y-116588095D01*
X35619048Y-116588095D02*
X35619048Y-115288095D01*
X35495238Y-115473810D01*
X35371429Y-115597619D01*
X35247619Y-115659524D01*
D10*
D11*
X85247619Y-115411905D02*
X85309524Y-115350000D01*
X85433333Y-115288095D01*
X85742857Y-115288095D01*
X85866667Y-115350000D01*
X85928571Y-115411905D01*
X85990476Y-115535714D01*
X85990476Y-115659524D01*
X85928571Y-115845238D01*
X85185714Y-116588095D01*
X85990476Y-116588095D01*
D10*
D11*
X135185714Y-115288095D02*
X135990476Y-115288095D01*
X135557143Y-115783333D01*
X135742857Y-115783333D01*
X135866667Y-115845238D01*
X135928571Y-115907143D01*
X135990476Y-116030952D01*
X135990476Y-116340476D01*
X135928571Y-116464286D01*
X135866667Y-116526190D01*
X135742857Y-116588095D01*
X135371429Y-116588095D01*
X135247619Y-116526190D01*
X135185714Y-116464286D01*
D10*
D11*
X10000000Y-60000000D02*
X12000000Y-60000000D01*
D10*
D11*
X10000000Y-110000000D02*
X12000000Y-110000000D01*
D10*
D11*
X10690476Y-35216667D02*
X11309524Y-35216667D01*
X10566667Y-35588095D02*
X11000000Y-34288095D01*
X11433333Y-35588095D01*
D10*
D11*
X11092857Y-84907143D02*
X11278571Y-84969048D01*
X11340476Y-85030952D01*
X11402381Y-85154762D01*
X11402381Y-85340476D01*
X11340476Y-85464286D01*
X11278571Y-85526190D01*
X11154762Y-85588095D01*
X10659524Y-85588095D01*
X10659524Y-84288095D01*
X11092857Y-84288095D01*
X11216667Y-84350000D01*
X11278571Y-84411905D01*
X11340476Y-84535714D01*
X11340476Y-84659524D01*
X11278571Y-84783333D01*
X11216667Y-84845238D01*
X11092857Y-84907143D01*
X10659524Y-84907143D01*
D10*
D11*
X167800000Y-60000000D02*
X165800000Y-60000000D01*
D10*
D11*
X167800000Y-110000000D02*
X165800000Y-110000000D01*
D10*
D11*
X166490476Y-35216667D02*
X167109524Y-35216667D01*
X166366667Y-35588095D02*
X166800000Y-34288095D01*
X167233333Y-35588095D01*
D10*
D11*
X166892857Y-84907143D02*
X167078571Y-84969048D01*
X167140476Y-85030952D01*
X167202381Y-85154762D01*
X167202381Y-85340476D01*
X167140476Y-85464286D01*
X167078571Y-85526190D01*
X166954762Y-85588095D01*
X166459524Y-85588095D01*
X166459524Y-84288095D01*
X166892857Y-84288095D01*
X167016667Y-84350000D01*
X167078571Y-84411905D01*
X167140476Y-84535714D01*
X167140476Y-84659524D01*
X167078571Y-84783333D01*
X167016667Y-84845238D01*
X166892857Y-84907143D01*
X166459524Y-84907143D01*
D10*
D11*
X81157143Y-110778571D02*
X81157143Y-109278571D01*
X81514286Y-109278571D01*
X81728571Y-109350000D01*
X81871429Y-109492857D01*
X81942857Y-109635714D01*
X82014286Y-109921429D01*
X82014286Y-110135714D01*
X81942857Y-110421429D01*
X81871429Y-110564286D01*
X81728571Y-110707143D01*
X81514286Y-110778571D01*
X81157143Y-110778571D01*
X83300000Y-110778571D02*
X83300000Y-109992857D01*
X83228571Y-109850000D01*
X83085714Y-109778571D01*
X82800000Y-109778571D01*
X82657143Y-109850000D01*
X83300000Y-110707143D02*
X83157143Y-110778571D01*
X82800000Y-110778571D01*
X82657143Y-110707143D01*
X82585714Y-110564286D01*
X82585714Y-110421429D01*
X82657143Y-110278571D01*
X82800000Y-110207143D01*
X83157143Y-110207143D01*
X83300000Y-110135714D01*
X83800000Y-109778571D02*
X84371429Y-109778571D01*
X84014286Y-109278571D02*
X84014286Y-110564286D01*
X84085714Y-110707143D01*
X84228572Y-110778571D01*
X84371429Y-110778571D01*
X85442857Y-110707143D02*
X85300000Y-110778571D01*
X85014286Y-110778571D01*
X84871429Y-110707143D01*
X84800000Y-110564286D01*
X84800000Y-109992857D01*
X84871429Y-109850000D01*
X85014286Y-109778571D01*
X85300000Y-109778571D01*
X85442857Y-109850000D01*
X85514286Y-109992857D01*
X85514286Y-110135714D01*
X84800000Y-110278571D01*
X86157143Y-110635714D02*
X86228571Y-110707143D01*
X86157143Y-110778571D01*
X86085714Y-110707143D01*
X86157143Y-110635714D01*
X86157143Y-110778571D01*
X86157143Y-109850000D02*
X86228571Y-109921429D01*
X86157143Y-109992857D01*
X86085714Y-109921429D01*
X86157143Y-109850000D01*
X86157143Y-109992857D01*
D10*
D11*
X57800000Y-111500000D02*
X165800000Y-111500000D01*
D10*
D11*
X59157143Y-113578571D02*
X59157143Y-112078571D01*
X60014286Y-113578571D02*
X59371429Y-112721429D01*
X60014286Y-112078571D02*
X59157143Y-112935714D01*
X60657143Y-113578571D02*
X60657143Y-112578571D01*
X60657143Y-112078571D02*
X60585714Y-112150000D01*
X60657143Y-112221429D01*
X60728571Y-112150000D01*
X60657143Y-112078571D01*
X60657143Y-112221429D01*
X62228572Y-113435714D02*
X62157143Y-113507143D01*
X61942857Y-113578571D01*
X61800000Y-113578571D01*
X61585715Y-113507143D01*
X61442857Y-113364286D01*
X61371429Y-113221429D01*
X61300000Y-112935714D01*
X61300000Y-112721429D01*
X61371429Y-112435714D01*
X61442857Y-112292857D01*
X61585715Y-112150000D01*
X61800000Y-112078571D01*
X61942857Y-112078571D01*
X62157143Y-112150000D01*
X62228572Y-112221429D01*
X63514286Y-113578571D02*
X63514286Y-112792857D01*
X63442857Y-112650000D01*
X63300000Y-112578571D01*
X63014286Y-112578571D01*
X62871429Y-112650000D01*
X63514286Y-113507143D02*
X63371429Y-113578571D01*
X63014286Y-113578571D01*
X62871429Y-113507143D01*
X62800000Y-113364286D01*
X62800000Y-113221429D01*
X62871429Y-113078571D01*
X63014286Y-113007143D01*
X63371429Y-113007143D01*
X63514286Y-112935714D01*
X64871429Y-113578571D02*
X64871429Y-112078571D01*
X64871429Y-113507143D02*
X64728572Y-113578571D01*
X64442858Y-113578571D01*
X64300000Y-113507143D01*
X64228572Y-113435714D01*
X64157143Y-113292857D01*
X64157143Y-112864286D01*
X64228572Y-112721429D01*
X64300000Y-112650000D01*
X64442858Y-112578571D01*
X64728572Y-112578571D01*
X64871429Y-112650000D01*
X66728572Y-112792857D02*
X67228572Y-112792857D01*
X67442858Y-113578571D02*
X66728572Y-113578571D01*
X66728572Y-112078571D01*
X67442858Y-112078571D01*
X68085715Y-113435714D02*
X68157143Y-113507143D01*
X68085715Y-113578571D01*
X68014286Y-113507143D01*
X68085715Y-113435714D01*
X68085715Y-113578571D01*
X68800001Y-113578571D02*
X68800001Y-112078571D01*
X69157144Y-112078571D01*
X69371429Y-112150000D01*
X69514287Y-112292857D01*
X69585715Y-112435714D01*
X69657144Y-112721429D01*
X69657144Y-112935714D01*
X69585715Y-113221429D01*
X69514287Y-113364286D01*
X69371429Y-113507143D01*
X69157144Y-113578571D01*
X68800001Y-113578571D01*
X70300001Y-113435714D02*
X70371429Y-113507143D01*
X70300001Y-113578571D01*
X70228572Y-113507143D01*
X70300001Y-113435714D01*
X70300001Y-113578571D01*
X70942858Y-113150000D02*
X71657144Y-113150000D01*
X70800001Y-113578571D02*
X71300001Y-112078571D01*
X71800001Y-113578571D01*
X72300001Y-113435714D02*
X72371429Y-113507143D01*
X72300001Y-113578571D01*
X72228572Y-113507143D01*
X72300001Y-113435714D01*
X72300001Y-113578571D01*
X75300001Y-113578571D02*
X75300001Y-112078571D01*
X75442858Y-113007143D02*
X75871429Y-113578571D01*
X75871429Y-112578571D02*
X75300001Y-113150000D01*
X76514287Y-113578571D02*
X76514287Y-112578571D01*
X76514287Y-112078571D02*
X76442858Y-112150000D01*
X76514287Y-112221429D01*
X76585715Y-112150000D01*
X76514287Y-112078571D01*
X76514287Y-112221429D01*
X77871430Y-113507143D02*
X77728573Y-113578571D01*
X77442859Y-113578571D01*
X77300001Y-113507143D01*
X77228573Y-113435714D01*
X77157144Y-113292857D01*
X77157144Y-112864286D01*
X77228573Y-112721429D01*
X77300001Y-112650000D01*
X77442859Y-112578571D01*
X77728573Y-112578571D01*
X77871430Y-112650000D01*
X79157144Y-113578571D02*
X79157144Y-112792857D01*
X79085715Y-112650000D01*
X78942858Y-112578571D01*
X78657144Y-112578571D01*
X78514287Y-112650000D01*
X79157144Y-113507143D02*
X79014287Y-113578571D01*
X78657144Y-113578571D01*
X78514287Y-113507143D01*
X78442858Y-113364286D01*
X78442858Y-113221429D01*
X78514287Y-113078571D01*
X78657144Y-113007143D01*
X79014287Y-113007143D01*
X79157144Y-112935714D01*
X80514287Y-113578571D02*
X80514287Y-112078571D01*
X80514287Y-113507143D02*
X80371430Y-113578571D01*
X80085716Y-113578571D01*
X79942858Y-113507143D01*
X79871430Y-113435714D01*
X79800001Y-113292857D01*
X79800001Y-112864286D01*
X79871430Y-112721429D01*
X79942858Y-112650000D01*
X80085716Y-112578571D01*
X80371430Y-112578571D01*
X80514287Y-112650000D01*
X83014287Y-112578571D02*
X83014287Y-113578571D01*
X82657144Y-112007143D02*
X82300001Y-113078571D01*
X83228573Y-113078571D01*
X83800001Y-113435714D02*
X83871429Y-113507143D01*
X83800001Y-113578571D01*
X83728572Y-113507143D01*
X83800001Y-113435714D01*
X83800001Y-113578571D01*
X84800001Y-112078571D02*
X84942858Y-112078571D01*
X85085715Y-112150000D01*
X85157144Y-112221429D01*
X85228573Y-112364286D01*
X85300001Y-112650000D01*
X85300001Y-113007143D01*
X85228573Y-113292857D01*
X85157144Y-113435714D01*
X85085715Y-113507143D01*
X84942858Y-113578571D01*
X84800001Y-113578571D01*
X84657144Y-113507143D01*
X84585715Y-113435714D01*
X84514287Y-113292857D01*
X84442858Y-113007143D01*
X84442858Y-112650000D01*
X84514287Y-112364286D01*
X84585715Y-112221429D01*
X84657144Y-112150000D01*
X84800001Y-112078571D01*
X85942858Y-113435714D02*
X86014286Y-113507143D01*
X85942858Y-113578571D01*
X85871429Y-113507143D01*
X85942858Y-113435714D01*
X85942858Y-113578571D01*
X87371430Y-112078571D02*
X86657144Y-112078571D01*
X86585715Y-112792857D01*
X86657144Y-112721429D01*
X86800001Y-112650000D01*
X87157144Y-112650000D01*
X87300001Y-112721429D01*
X87371430Y-112792857D01*
X87442858Y-112935714D01*
X87442858Y-113292857D01*
X87371430Y-113435714D01*
X87300001Y-113507143D01*
X87157144Y-113578571D01*
X86800001Y-113578571D01*
X86657144Y-113507143D01*
X86585715Y-113435714D01*
D10*
D11*
X57800000Y-108500000D02*
X165800000Y-108500000D01*
D10*
D12*
X145014286Y-110778571D02*
X144514286Y-110064286D01*
X144157143Y-110778571D02*
X144157143Y-109278571D01*
X144728571Y-109278571D01*
X144871429Y-109350000D01*
X144942857Y-109421429D01*
X145014286Y-109564286D01*
X145014286Y-109778571D01*
X144942857Y-109921429D01*
X144871429Y-109992857D01*
X144728571Y-110064286D01*
X144157143Y-110064286D01*
X146228571Y-110707143D02*
X146085714Y-110778571D01*
X145800000Y-110778571D01*
X145657143Y-110707143D01*
X145585714Y-110564286D01*
X145585714Y-109992857D01*
X145657143Y-109850000D01*
X145800000Y-109778571D01*
X146085714Y-109778571D01*
X146228571Y-109850000D01*
X146300000Y-109992857D01*
X146300000Y-110135714D01*
X145585714Y-110278571D01*
X146800000Y-109778571D02*
X147157143Y-110778571D01*
X147514285Y-109778571D01*
X148085714Y-110635714D02*
X148157142Y-110707143D01*
X148085714Y-110778571D01*
X148014285Y-110707143D01*
X148085714Y-110635714D01*
X148085714Y-110778571D01*
X148085714Y-109850000D02*
X148157142Y-109921429D01*
X148085714Y-109992857D01*
X148014285Y-109921429D01*
X148085714Y-109850000D01*
X148085714Y-109992857D01*
D10*
D11*
X59085714Y-110707143D02*
X59300000Y-110778571D01*
X59657143Y-110778571D01*
X59800000Y-110707143D01*
X59871429Y-110635714D01*
X59942857Y-110492857D01*
X59942857Y-110350000D01*
X59871429Y-110207143D01*
X59800000Y-110135714D01*
X59657143Y-110064286D01*
X59371429Y-109992857D01*
X59228571Y-109921429D01*
X59157143Y-109850000D01*
X59085714Y-109707143D01*
X59085714Y-109564286D01*
X59157143Y-109421429D01*
X59228571Y-109350000D01*
X59371429Y-109278571D01*
X59728571Y-109278571D01*
X59942857Y-109350000D01*
X60585714Y-110778571D02*
X60585714Y-109778571D01*
X60585714Y-109278571D02*
X60514285Y-109350000D01*
X60585714Y-109421429D01*
X60657142Y-109350000D01*
X60585714Y-109278571D01*
X60585714Y-109421429D01*
X61157143Y-109778571D02*
X61942857Y-109778571D01*
X61157143Y-110778571D01*
X61942857Y-110778571D01*
X63085714Y-110707143D02*
X62942857Y-110778571D01*
X62657143Y-110778571D01*
X62514286Y-110707143D01*
X62442857Y-110564286D01*
X62442857Y-109992857D01*
X62514286Y-109850000D01*
X62657143Y-109778571D01*
X62942857Y-109778571D01*
X63085714Y-109850000D01*
X63157143Y-109992857D01*
X63157143Y-110135714D01*
X62442857Y-110278571D01*
X63800000Y-110635714D02*
X63871428Y-110707143D01*
X63800000Y-110778571D01*
X63728571Y-110707143D01*
X63800000Y-110635714D01*
X63800000Y-110778571D01*
X63800000Y-109850000D02*
X63871428Y-109921429D01*
X63800000Y-109992857D01*
X63728571Y-109921429D01*
X63800000Y-109850000D01*
X63800000Y-109992857D01*
X65657143Y-109278571D02*
X65657143Y-110492857D01*
X65728571Y-110635714D01*
X65800000Y-110707143D01*
X65942857Y-110778571D01*
X66228571Y-110778571D01*
X66371429Y-110707143D01*
X66442857Y-110635714D01*
X66514286Y-110492857D01*
X66514286Y-109278571D01*
X67157143Y-110707143D02*
X67300000Y-110778571D01*
X67585715Y-110778571D01*
X67728572Y-110707143D01*
X67800000Y-110564286D01*
X67800000Y-110492857D01*
X67728572Y-110350000D01*
X67585715Y-110278571D01*
X67371429Y-110278571D01*
X67228572Y-110207143D01*
X67157143Y-110064286D01*
X67157143Y-109992857D01*
X67228572Y-109850000D01*
X67371429Y-109778571D01*
X67585715Y-109778571D01*
X67728572Y-109850000D01*
X69014286Y-110707143D02*
X68871429Y-110778571D01*
X68585715Y-110778571D01*
X68442858Y-110707143D01*
X68371429Y-110564286D01*
X68371429Y-109992857D01*
X68442858Y-109850000D01*
X68585715Y-109778571D01*
X68871429Y-109778571D01*
X69014286Y-109850000D01*
X69085715Y-109992857D01*
X69085715Y-110135714D01*
X68371429Y-110278571D01*
X69728572Y-110778571D02*
X69728572Y-109778571D01*
X69728572Y-110064286D02*
X69800000Y-109921429D01*
X69871429Y-109850000D01*
X70014286Y-109778571D01*
X70157143Y-109778571D01*
D10*
D11*
X144157143Y-113578571D02*
X144157143Y-112078571D01*
X145514286Y-113578571D02*
X145514286Y-112078571D01*
X145514286Y-113507143D02*
X145371429Y-113578571D01*
X145085715Y-113578571D01*
X144942857Y-113507143D01*
X144871429Y-113435714D01*
X144800000Y-113292857D01*
X144800000Y-112864286D01*
X144871429Y-112721429D01*
X144942857Y-112650000D01*
X145085715Y-112578571D01*
X145371429Y-112578571D01*
X145514286Y-112650000D01*
X146228572Y-113435714D02*
X146300000Y-113507143D01*
X146228572Y-113578571D01*
X146157143Y-113507143D01*
X146228572Y-113435714D01*
X146228572Y-113578571D01*
X146228572Y-112650000D02*
X146300000Y-112721429D01*
X146228572Y-112792857D01*
X146157143Y-112721429D01*
X146228572Y-112650000D01*
X146228572Y-112792857D01*
X148871429Y-113578571D02*
X148014286Y-113578571D01*
X148442858Y-113578571D02*
X148442858Y-112078571D01*
X148300001Y-112292857D01*
X148157143Y-112435714D01*
X148014286Y-112507143D01*
X150585714Y-112007143D02*
X149300000Y-113935714D01*
X151871429Y-113578571D02*
X151014286Y-113578571D01*
X151442858Y-113578571D02*
X151442858Y-112078571D01*
X151300001Y-112292857D01*
X151157143Y-112435714D01*
X151014286Y-112507143D01*
D10*
D11*
X57800000Y-104500000D02*
X165800000Y-104500000D01*
D10*
D13*
X59252381Y-105204762D02*
X60395238Y-105204762D01*
X59573810Y-107204762D02*
X59823810Y-105204762D01*
X60811905Y-107204762D02*
X60978571Y-105871429D01*
X61061905Y-105204762D02*
X60954762Y-105300000D01*
X61038095Y-105395238D01*
X61145239Y-105300000D01*
X61061905Y-105204762D01*
X61038095Y-105395238D01*
X61645238Y-105871429D02*
X62407143Y-105871429D01*
X62014286Y-105204762D02*
X61800000Y-106919048D01*
X61871430Y-107109524D01*
X62050001Y-107204762D01*
X62240477Y-107204762D01*
X63192858Y-107204762D02*
X63014287Y-107109524D01*
X62942857Y-106919048D01*
X63157143Y-105204762D01*
X64728572Y-107109524D02*
X64526191Y-107204762D01*
X64145239Y-107204762D01*
X63966667Y-107109524D01*
X63895238Y-106919048D01*
X63990476Y-106157143D01*
X64109524Y-105966667D01*
X64311905Y-105871429D01*
X64692857Y-105871429D01*
X64871429Y-105966667D01*
X64942857Y-106157143D01*
X64919048Y-106347619D01*
X63942857Y-106538095D01*
X65692857Y-107014286D02*
X65776192Y-107109524D01*
X65669048Y-107204762D01*
X65585715Y-107109524D01*
X65692857Y-107014286D01*
X65669048Y-107204762D01*
X65823810Y-105966667D02*
X65907144Y-106061905D01*
X65800000Y-106157143D01*
X65716667Y-106061905D01*
X65823810Y-105966667D01*
X65800000Y-106157143D01*
D10*
D11*
X59657143Y-102592857D02*
X59157143Y-102592857D01*
X59157143Y-103378571D02*
X59157143Y-101878571D01*
X59871429Y-101878571D01*
X60442857Y-103378571D02*
X60442857Y-102378571D01*
X60442857Y-101878571D02*
X60371428Y-101950000D01*
X60442857Y-102021429D01*
X60514285Y-101950000D01*
X60442857Y-101878571D01*
X60442857Y-102021429D01*
X61371429Y-103378571D02*
X61228571Y-103307143D01*
X61157143Y-103164286D01*
X61157143Y-101878571D01*
X62514285Y-103307143D02*
X62371428Y-103378571D01*
X62085714Y-103378571D01*
X61942857Y-103307143D01*
X61871428Y-103164286D01*
X61871428Y-102592857D01*
X61942857Y-102450000D01*
X62085714Y-102378571D01*
X62371428Y-102378571D01*
X62514285Y-102450000D01*
X62585714Y-102592857D01*
X62585714Y-102735714D01*
X61871428Y-102878571D01*
X63228571Y-103235714D02*
X63299999Y-103307143D01*
X63228571Y-103378571D01*
X63157142Y-103307143D01*
X63228571Y-103235714D01*
X63228571Y-103378571D01*
X63228571Y-102450000D02*
X63299999Y-102521429D01*
X63228571Y-102592857D01*
X63157142Y-102521429D01*
X63228571Y-102450000D01*
X63228571Y-102592857D01*
X65085714Y-103378571D02*
X65085714Y-101878571D01*
X65942857Y-103378571D01*
X65942857Y-101878571D01*
X66657143Y-103378571D02*
X66657143Y-102378571D01*
X66657143Y-101878571D02*
X66585714Y-101950000D01*
X66657143Y-102021429D01*
X66728571Y-101950000D01*
X66657143Y-101878571D01*
X66657143Y-102021429D01*
X68014286Y-102378571D02*
X68014286Y-103592857D01*
X67942857Y-103735714D01*
X67871429Y-103807143D01*
X67728572Y-103878571D01*
X67514286Y-103878571D01*
X67371429Y-103807143D01*
X68014286Y-103307143D02*
X67871429Y-103378571D01*
X67585715Y-103378571D01*
X67442857Y-103307143D01*
X67371429Y-103235714D01*
X67300000Y-103092857D01*
X67300000Y-102664286D01*
X67371429Y-102521429D01*
X67442857Y-102450000D01*
X67585715Y-102378571D01*
X67871429Y-102378571D01*
X68014286Y-102450000D01*
X69371429Y-102378571D02*
X69371429Y-103378571D01*
X68728572Y-102378571D02*
X68728572Y-103164286D01*
X68800000Y-103307143D01*
X68942858Y-103378571D01*
X69157143Y-103378571D01*
X69300000Y-103307143D01*
X69371429Y-103235714D01*
X70085715Y-102378571D02*
X70085715Y-103378571D01*
X70085715Y-102521429D02*
X70157143Y-102450000D01*
X70300001Y-102378571D01*
X70514286Y-102378571D01*
X70657143Y-102450000D01*
X70728572Y-102592857D01*
X70728572Y-103378571D01*
X71442858Y-103235714D02*
X71514286Y-103307143D01*
X71442858Y-103378571D01*
X71371429Y-103307143D01*
X71442858Y-103235714D01*
X71442858Y-103378571D01*
X72157144Y-103378571D02*
X72157144Y-101878571D01*
X72300001Y-102807143D02*
X72728572Y-103378571D01*
X72728572Y-102378571D02*
X72157144Y-102950000D01*
X73371430Y-103378571D02*
X73371430Y-102378571D01*
X73371430Y-101878571D02*
X73300001Y-101950000D01*
X73371430Y-102021429D01*
X73442858Y-101950000D01*
X73371430Y-101878571D01*
X73371430Y-102021429D01*
X74728573Y-103307143D02*
X74585716Y-103378571D01*
X74300002Y-103378571D01*
X74157144Y-103307143D01*
X74085716Y-103235714D01*
X74014287Y-103092857D01*
X74014287Y-102664286D01*
X74085716Y-102521429D01*
X74157144Y-102450000D01*
X74300002Y-102378571D01*
X74585716Y-102378571D01*
X74728573Y-102450000D01*
X76014287Y-103378571D02*
X76014287Y-102592857D01*
X75942858Y-102450000D01*
X75800001Y-102378571D01*
X75514287Y-102378571D01*
X75371430Y-102450000D01*
X76014287Y-103307143D02*
X75871430Y-103378571D01*
X75514287Y-103378571D01*
X75371430Y-103307143D01*
X75300001Y-103164286D01*
X75300001Y-103021429D01*
X75371430Y-102878571D01*
X75514287Y-102807143D01*
X75871430Y-102807143D01*
X76014287Y-102735714D01*
X77371430Y-103378571D02*
X77371430Y-101878571D01*
X77371430Y-103307143D02*
X77228573Y-103378571D01*
X76942859Y-103378571D01*
X76800001Y-103307143D01*
X76728573Y-103235714D01*
X76657144Y-103092857D01*
X76657144Y-102664286D01*
X76728573Y-102521429D01*
X76800001Y-102450000D01*
X76942859Y-102378571D01*
X77228573Y-102378571D01*
X77371430Y-102450000D01*
X77728573Y-103521429D02*
X78871430Y-103521429D01*
X79228573Y-102378571D02*
X79228573Y-103878571D01*
X79228573Y-102450000D02*
X79371430Y-102378571D01*
X79657144Y-102378571D01*
X79800001Y-102450000D01*
X79871430Y-102521429D01*
X79942859Y-102664286D01*
X79942859Y-103092857D01*
X79871430Y-103235714D01*
X79800001Y-103307143D01*
X79657144Y-103378571D01*
X79371430Y-103378571D01*
X79228573Y-103307143D01*
X81228573Y-103307143D02*
X81085716Y-103378571D01*
X80800002Y-103378571D01*
X80657144Y-103307143D01*
X80585716Y-103235714D01*
X80514287Y-103092857D01*
X80514287Y-102664286D01*
X80585716Y-102521429D01*
X80657144Y-102450000D01*
X80800002Y-102378571D01*
X81085716Y-102378571D01*
X81228573Y-102450000D01*
X81871430Y-103378571D02*
X81871430Y-101878571D01*
X81871430Y-102450000D02*
X82014287Y-102378571D01*
X82300001Y-102378571D01*
X82442858Y-102450000D01*
X82514287Y-102521429D01*
X82585716Y-102664286D01*
X82585716Y-103092857D01*
X82514287Y-103235714D01*
X82442858Y-103307143D01*
X82300001Y-103378571D01*
X82014287Y-103378571D01*
X81871430Y-103307143D01*
D10*
D11*
X57800000Y-98500000D02*
X165800000Y-98500000D01*
D10*
D11*
X59085714Y-100607143D02*
X59300000Y-100678571D01*
X59657143Y-100678571D01*
X59800000Y-100607143D01*
X59871429Y-100535714D01*
X59942857Y-100392857D01*
X59942857Y-100250000D01*
X59871429Y-100107143D01*
X59800000Y-100035714D01*
X59657143Y-99964286D01*
X59371429Y-99892857D01*
X59228571Y-99821429D01*
X59157143Y-99750000D01*
X59085714Y-99607143D01*
X59085714Y-99464286D01*
X59157143Y-99321429D01*
X59228571Y-99250000D01*
X59371429Y-99178571D01*
X59728571Y-99178571D01*
X59942857Y-99250000D01*
X60585714Y-100678571D02*
X60585714Y-99178571D01*
X61228571Y-100678571D02*
X61228571Y-99892857D01*
X61157142Y-99750000D01*
X61014285Y-99678571D01*
X60800000Y-99678571D01*
X60657142Y-99750000D01*
X60585714Y-99821429D01*
X62514285Y-100607143D02*
X62371428Y-100678571D01*
X62085714Y-100678571D01*
X61942857Y-100607143D01*
X61871428Y-100464286D01*
X61871428Y-99892857D01*
X61942857Y-99750000D01*
X62085714Y-99678571D01*
X62371428Y-99678571D01*
X62514285Y-99750000D01*
X62585714Y-99892857D01*
X62585714Y-100035714D01*
X61871428Y-100178571D01*
X63799999Y-100607143D02*
X63657142Y-100678571D01*
X63371428Y-100678571D01*
X63228571Y-100607143D01*
X63157142Y-100464286D01*
X63157142Y-99892857D01*
X63228571Y-99750000D01*
X63371428Y-99678571D01*
X63657142Y-99678571D01*
X63799999Y-99750000D01*
X63871428Y-99892857D01*
X63871428Y-100035714D01*
X63157142Y-100178571D01*
X64299999Y-99678571D02*
X64871428Y-99678571D01*
X64514285Y-99178571D02*
X64514285Y-100464286D01*
X64585713Y-100607143D01*
X64728571Y-100678571D01*
X64871428Y-100678571D01*
X65371428Y-100535714D02*
X65442856Y-100607143D01*
X65371428Y-100678571D01*
X65299999Y-100607143D01*
X65371428Y-100535714D01*
X65371428Y-100678571D01*
X65371428Y-99750000D02*
X65442856Y-99821429D01*
X65371428Y-99892857D01*
X65299999Y-99821429D01*
X65371428Y-99750000D01*
X65371428Y-99892857D01*
D10*
D11*
X77800000Y-108500000D02*
X77800000Y-111500000D01*
D10*
D11*
X141800000Y-108500000D02*
X141800000Y-115000000D01*
D14*
X63512700Y-37846000D03*
X64935100Y-37846000D03*
X66205100Y-37846000D03*
X63652400Y-32804100D03*
X64935100Y-32804100D03*
X66179700Y-32829500D03*
X63703200Y-59067700D03*
X65087500Y-59131200D03*
X63792100Y-64109600D03*
X65112900Y-64109600D03*
X66344800Y-64109600D03*
X66382900Y-59156600D03*
X69316600Y-69151500D03*
X69532500Y-70192900D03*
X70307200Y-71120000D03*
X71628000Y-71259700D03*
X73177400Y-69176900D03*
D15*
X114706400Y-66382900D03*
D16*
X112166400Y-66382900D03*
X114706400Y-63842900D03*
X112166400Y-63842900D03*
X114706400Y-61302900D03*
X112166400Y-61302900D03*
X114706400Y-58762900D03*
X112166400Y-58762900D03*
D15*
X109004100Y-69583300D03*
D16*
X109004100Y-72123300D03*
X106464100Y-69583300D03*
X106464100Y-72123300D03*
X103924100Y-69583300D03*
X103924100Y-72123300D03*
X101384100Y-69583300D03*
X101384100Y-72123300D03*
X98844100Y-69583300D03*
X98844100Y-72123300D03*
D17*
X112501700Y-35243900D03*
X112501700Y-30243900D03*
D18*
X115201700Y-36243900D03*
X115201700Y-29243900D03*
D19*
X65709800Y-70878700D03*
D20*
X67564000Y-70878700D03*
X65684400Y-69024500D03*
X65684400Y-72834500D03*
X67056000Y-72250300D03*
X64287400Y-69634100D03*
X64338200Y-72301100D03*
X63855600Y-70878700D03*
X67056000Y-69532500D03*
D19*
X65709800Y-28143200D03*
D20*
X67564000Y-28143200D03*
X65684400Y-26289000D03*
X65684400Y-30099000D03*
X67056000Y-29514800D03*
X64287400Y-26898600D03*
X64338200Y-29565600D03*
X63855600Y-28143200D03*
X67056000Y-26797000D03*
D19*
X113499900Y-70904100D03*
D20*
X115354100Y-70904100D03*
X113474500Y-69049900D03*
X113474500Y-72859900D03*
X114846100Y-72275700D03*
X112077500Y-69659500D03*
X112128300Y-72326500D03*
X111645700Y-70904100D03*
X114846100Y-69557900D03*
D19*
X108254800Y-27825700D03*
D20*
X110109000Y-27825700D03*
X108229400Y-25971500D03*
X108229400Y-29781500D03*
X109601000Y-29197300D03*
X106832400Y-26581100D03*
X106883200Y-29248100D03*
X106400600Y-27825700D03*
X109601000Y-26479500D03*
D14*
X72936100Y-71247000D03*
X74206100Y-71247000D03*
X75476100Y-71247000D03*
X76746100Y-71247000D03*
X78016100Y-71247000D03*
X79286100Y-71247000D03*
X80556100Y-71247000D03*
X81826100Y-71247000D03*
X83096100Y-71247000D03*
X84366100Y-71247000D03*
X85636100Y-71247000D03*
X86906100Y-71247000D03*
X88176100Y-71247000D03*
X75717400Y-69176900D03*
X82067400Y-69176900D03*
X80797400Y-69176900D03*
X74447400Y-69176900D03*
X76987400Y-69176900D03*
X78257400Y-69176900D03*
X79527400Y-69176900D03*
X71297800Y-68795900D03*
X71259700Y-67310000D03*
X71272400Y-66230500D03*
X69202300Y-68046600D03*
X69202300Y-66776600D03*
X69202300Y-65506600D03*
X69202300Y-64236600D03*
X69469000Y-57531000D03*
X69469000Y-56261000D03*
X69469000Y-54991000D03*
X69469000Y-52451000D03*
X69469000Y-51181000D03*
X69469000Y-49911000D03*
X69469000Y-48641000D03*
X71005700Y-49098200D03*
X71005700Y-56718200D03*
X71005700Y-55448200D03*
X71005700Y-54178200D03*
X71005700Y-52908200D03*
X71005700Y-51638200D03*
X71005700Y-50368200D03*
X69227700Y-44310300D03*
X69227700Y-43040300D03*
X69227700Y-41770300D03*
X69227700Y-40500300D03*
X69227700Y-39230300D03*
X71005700Y-40970200D03*
X71005700Y-42240200D03*
X71005700Y-43510200D03*
X71005700Y-44780200D03*
X71310500Y-39890700D03*
X71081900Y-37706300D03*
X72390000Y-37719000D03*
X72275700Y-39471600D03*
X73266300Y-39471600D03*
X76022200Y-37807900D03*
X76542900Y-37134800D03*
X76136500Y-36461700D03*
X78016100Y-36131500D03*
X78155800Y-36906200D03*
X69545200Y-36017200D03*
X68275200Y-36017199D03*
X68897500Y-34480500D03*
X67627500Y-34480499D03*
X85979000Y-37909500D03*
X85979000Y-39179500D03*
X85979000Y-40449500D03*
X85979000Y-41719500D03*
X87249000Y-37909500D03*
X87249000Y-39179500D03*
X87249000Y-40449500D03*
X87249000Y-41719500D03*
X88519000Y-37909500D03*
X88519000Y-39179500D03*
X88519000Y-40449500D03*
X88519000Y-41719500D03*
X89789000Y-37909500D03*
X89789000Y-39179500D03*
X89789000Y-40449500D03*
X89789000Y-41719500D03*
X100977700Y-58331100D03*
X100977700Y-59601100D03*
X100977700Y-60871100D03*
X102247700Y-58331100D03*
X102247700Y-59601100D03*
X102247700Y-60871100D03*
X103517700Y-58331100D03*
X103517700Y-59601100D03*
X103517700Y-60871100D03*
X69469000Y-53721000D03*
X83921600Y-25387309D03*
X81371705Y-25387987D03*
X77895270Y-40322310D03*
X88595200Y-45796200D03*
X87204479Y-25951560D03*
X94436294Y-28132896D03*
X111760000Y-45783500D03*
X84340700Y-33167281D03*
X85792130Y-33601979D03*
X86688055Y-33616825D03*
X87173589Y-33142326D03*
X73428797Y-41892291D03*
X88646000Y-49644300D03*
X81513680Y-39245540D03*
D20*
X89763600Y-33401000D03*
D14*
X90360500Y-33976256D03*
X90754200Y-34497462D03*
X93408500Y-38932686D03*
X93409821Y-41650165D03*
X82778600Y-45542200D03*
X89763600Y-28359100D03*
X92329000Y-28359100D03*
X79654400Y-31572200D03*
X100147120Y-38920420D03*
X96822260Y-43365420D03*
X74580957Y-37417394D03*
X79734016Y-45257798D03*
X81626673Y-33417612D03*
X79462285Y-32675828D03*
X87358998Y-45681687D03*
X98452560Y-59243423D03*
X97586800Y-55219591D03*
X106241919Y-50306743D03*
X107604715Y-48693388D03*
X68217603Y-62964098D03*
X82803278Y-33374878D03*
X106093457Y-25298409D03*
X110959900Y-30924500D03*
X94348309Y-68694300D03*
X75389023Y-33724932D03*
X104851200Y-29502100D03*
X78723942Y-41356229D03*
X86702900Y-46875700D03*
X91593588Y-51576904D03*
X78191334Y-45379639D03*
X105544914Y-61285401D03*
X100639229Y-66124471D03*
X107567388Y-42547878D03*
X114757200Y-44284900D03*
X114769900Y-42405300D03*
X107340400Y-52311300D03*
X86720068Y-47650929D03*
X86772678Y-48781695D03*
X76771491Y-56965682D03*
X106420572Y-41541629D03*
X95639194Y-54961720D03*
X108496100Y-55003700D03*
X108851700Y-63195200D03*
X105460800Y-69608700D03*
X102908100Y-69596000D03*
X97205800Y-66573400D03*
X69037200Y-27724100D03*
D20*
X74686923Y-30732223D03*
X79616300Y-25971500D03*
X90512900Y-25920700D03*
D14*
X82207100Y-25958800D03*
X84709000Y-25946100D03*
X79241211Y-36487771D03*
X114642900Y-46697900D03*
X84747100Y-69202300D03*
X83388200Y-69202300D03*
X72181791Y-42852403D03*
X71678800Y-48463200D03*
X71678800Y-45466000D03*
X78473300Y-48196500D03*
X79705200Y-48183800D03*
X80878680Y-46926500D03*
X80878680Y-48186340D03*
X80878680Y-49430940D03*
X91605100Y-54368700D03*
X93586300Y-50723800D03*
X93548200Y-49466500D03*
X93522800Y-47752000D03*
X93522800Y-46443900D03*
X87541100Y-50215800D03*
X86677500Y-52235100D03*
X86677500Y-53949600D03*
X86677500Y-55422800D03*
X81747360Y-54033420D03*
X79669640Y-55359300D03*
X81346040Y-59738260D03*
X82092800Y-58547000D03*
X92430600Y-69570600D03*
X78719680Y-40434260D03*
X78727300Y-39243000D03*
X85445799Y-44548713D03*
X84505800Y-43141900D03*
X91695649Y-36699809D03*
X68249800Y-60248800D03*
X71361300Y-59118500D03*
X72199500Y-59194700D03*
X72301100Y-57746900D03*
X71010949Y-65173017D03*
X98513900Y-66586100D03*
X95669100Y-66509900D03*
X108813600Y-61988700D03*
X107480100Y-66141600D03*
X106095800Y-66141600D03*
X104724200Y-66141600D03*
X103339900Y-66141600D03*
X101981000Y-66116200D03*
X97599500Y-53924200D03*
X97586800Y-56642000D03*
X107746800Y-35140900D03*
X111455200Y-42697400D03*
X102082600Y-37617400D03*
X102082600Y-36322000D03*
X79616300Y-27190700D03*
X79616300Y-28397200D03*
X82194400Y-28384500D03*
X82207100Y-27190700D03*
X84772500Y-28397200D03*
X84709000Y-27152600D03*
X90525600Y-27127200D03*
X80314800Y-36461700D03*
X80302100Y-35242500D03*
X88049100Y-28892500D03*
X88061800Y-30137100D03*
X88061800Y-31381700D03*
X90639900Y-28892500D03*
X90639900Y-30137100D03*
X90639900Y-31381700D03*
X93141800Y-31381700D03*
X93141800Y-30149800D03*
X93141800Y-28930600D03*
X97835720Y-33535620D03*
X95758000Y-36309300D03*
X95755460Y-35026600D03*
X99250500Y-40944800D03*
X97965260Y-40934640D03*
X96665199Y-40948059D03*
X99763580Y-44625260D03*
X99761040Y-43367960D03*
X99758500Y-42113200D03*
X98849180Y-46103540D03*
X98831400Y-47353220D03*
X76880720Y-45354240D03*
X103471162Y-54788586D03*
X103976429Y-46723464D03*
X106117758Y-46735165D03*
X100191580Y-51275841D03*
X110109000Y-50812700D03*
X102830131Y-55477206D03*
X72847200Y-36309300D03*
X99521863Y-25984376D03*
X115062000Y-49568100D03*
X109131100Y-47459900D03*
X109220000Y-45593000D03*
D20*
X72809421Y-60998266D03*
D14*
X101384100Y-25298409D03*
X82245200Y-39743380D03*
X111088718Y-67688069D03*
X99764581Y-62455522D03*
X98922003Y-62779805D03*
X98515466Y-60555855D03*
X114668300Y-55930800D03*
X106412261Y-67825303D03*
X98452559Y-57698473D03*
X94576900Y-60439300D03*
X106349800Y-52285900D03*
X107530909Y-54978300D03*
X111039736Y-65155871D03*
X106260900Y-61036200D03*
X94861380Y-39644320D03*
X103954904Y-52039739D03*
X105321100Y-56045100D03*
X105321100Y-58888500D03*
D20*
X94254320Y-40162480D03*
D14*
X106255486Y-60158757D03*
D20*
X93657420Y-40637460D03*
D14*
X104057027Y-56228827D03*
X110832541Y-62922231D03*
X93116400Y-62331600D03*
D20*
X73228200Y-62306200D03*
D14*
X95807241Y-54145732D03*
X97675623Y-52552997D03*
X105052517Y-55234183D03*
X104533700Y-57061100D03*
D20*
X73228200Y-61645800D03*
D14*
X107165120Y-70933248D03*
X97225873Y-70771104D03*
X96930777Y-68092880D03*
X97866200Y-63715900D03*
X101389866Y-63680848D03*
X82852260Y-62981840D03*
X107980270Y-54030467D03*
X83045300Y-39243000D03*
X101626768Y-54861480D03*
X99517200Y-55283100D03*
X102012477Y-55518664D03*
X99580700Y-53911500D03*
X72986900Y-28422600D03*
X94856300Y-72250300D03*
X105100807Y-62224369D03*
X99987100Y-63474600D03*
X95669100Y-64135000D03*
X97586800Y-59855100D03*
X104192437Y-35376094D03*
X108419900Y-33959800D03*
D21*
X82432111Y-45888689D02*
X79214111Y-45888689D01*
X82778600Y-45542200D02*
X82432111Y-45888689D01*
X79214111Y-45888689D02*
X79004330Y-45678908D01*
X79004330Y-45678908D02*
X79004330Y-45050311D01*
X79004330Y-45050311D02*
X77172119Y-43218100D01*
X83382271Y-35356800D02*
X82327128Y-34301657D01*
X82327128Y-34301657D02*
X80986502Y-34301657D01*
X80468268Y-32386068D02*
X79908399Y-31826199D01*
X80986502Y-34301657D02*
X80468268Y-33783423D01*
X80468268Y-33783423D02*
X80468268Y-32386068D01*
X79908399Y-31826199D02*
X79654400Y-31572200D01*
X82778600Y-45542200D02*
X86278299Y-45542200D01*
X87044128Y-46308029D02*
X87852084Y-46308029D01*
X86278299Y-45542200D02*
X87044128Y-46308029D01*
X87852084Y-46308029D02*
X87989434Y-46170679D01*
D22*
X87985392Y-46178762D02*
X88367954Y-45796200D01*
X88367954Y-45796200D02*
X88595200Y-45796200D01*
D21*
X77895270Y-40753362D02*
X77895270Y-40322310D01*
X77172119Y-43218100D02*
X77895270Y-42494949D01*
X77895270Y-42494949D02*
X77895270Y-40753362D01*
D22*
X89277718Y-45782268D02*
X89263786Y-45796200D01*
X89263786Y-45796200D02*
X88595200Y-45796200D01*
D21*
X100506330Y-38920420D02*
X100147120Y-38920420D01*
X104896920Y-38920420D02*
X100506330Y-38920420D01*
X111760000Y-45783500D02*
X104896920Y-38920420D01*
X93409821Y-41650165D02*
X95107005Y-41650165D01*
X95107005Y-41650165D02*
X96822260Y-43365420D01*
X83382271Y-35356800D02*
X83382271Y-37376949D01*
X83382271Y-34822619D02*
X83382271Y-35356800D01*
X77172119Y-43218100D02*
X75846310Y-41892291D01*
X75846310Y-41892291D02*
X73788007Y-41892291D01*
X73788007Y-41892291D02*
X73428797Y-41892291D01*
X84340700Y-33167281D02*
X84340700Y-33864190D01*
X84340700Y-33864190D02*
X83382271Y-34822619D01*
X83382271Y-37376949D02*
X81513680Y-39245540D01*
D22*
X85792130Y-33601979D02*
X84775398Y-33601979D01*
X84775398Y-33601979D02*
X84340700Y-33167281D01*
D21*
X86688055Y-33616825D02*
X85806976Y-33616825D01*
X85806976Y-33616825D02*
X85792130Y-33601979D01*
X86699090Y-33616825D02*
X86688055Y-33616825D01*
X87173589Y-33142326D02*
X86699090Y-33616825D01*
X87432263Y-33401000D02*
X87427588Y-33396325D01*
X89763600Y-33401000D02*
X87432263Y-33401000D01*
X87427588Y-33396325D02*
X87173589Y-33142326D01*
X90360500Y-33976256D02*
X90338856Y-33976256D01*
X90338856Y-33976256D02*
X89763600Y-33401000D01*
X90754200Y-34497462D02*
X90754200Y-34369956D01*
X90754200Y-34369956D02*
X90360500Y-33976256D01*
X93408500Y-37151762D02*
X90754200Y-34497462D01*
X93408500Y-38932686D02*
X93408500Y-37151762D01*
X93409821Y-41650165D02*
X93085919Y-41326263D01*
X93085919Y-41326263D02*
X93085919Y-39255267D01*
X93085919Y-39255267D02*
X93408500Y-38932686D01*
X89277718Y-45782268D02*
X93409821Y-41650165D01*
D22*
X72809421Y-60998266D02*
X74493470Y-60998266D01*
X77881101Y-57610635D02*
X77881101Y-56190259D01*
X74493470Y-60998266D02*
X77881101Y-57610635D01*
X77881101Y-56190259D02*
X85848475Y-48222885D01*
X85848475Y-48222885D02*
X87090887Y-48222885D01*
X87090887Y-48222885D02*
X87365198Y-48497196D01*
X87365198Y-48497196D02*
X106859362Y-48497196D01*
X106859362Y-48497196D02*
X107896658Y-47459900D01*
D21*
X99775862Y-26238375D02*
X99521863Y-25984376D01*
X115423436Y-41885949D02*
X99775862Y-26238375D01*
X115423436Y-49206664D02*
X115423436Y-41885949D01*
X115062000Y-49568100D02*
X115423436Y-49206664D01*
X109131100Y-47459900D02*
X109131100Y-45681900D01*
X109131100Y-45681900D02*
X109220000Y-45593000D01*
X111429800Y-50812700D02*
X113817400Y-50812700D01*
X113817400Y-50812700D02*
X115062000Y-49568100D01*
X110921800Y-50304700D02*
X111429800Y-50812700D01*
X110921800Y-49542700D02*
X110921800Y-50304700D01*
X109385099Y-48005999D02*
X110921800Y-49542700D01*
X109131100Y-47459900D02*
X109385099Y-47713899D01*
X109385099Y-47713899D02*
X109385099Y-48005999D01*
X107896658Y-47459900D02*
X109131100Y-47459900D01*
X106412261Y-67825303D02*
X100875725Y-67825303D01*
X100875725Y-67825303D02*
X99217610Y-66167188D01*
X99217610Y-63078012D02*
X98922003Y-62782405D01*
X99217610Y-66167188D02*
X99217610Y-63078012D01*
X98922003Y-62782405D02*
X98922003Y-62779805D01*
D22*
X98515466Y-62373268D02*
X98617204Y-62475006D01*
X98515466Y-60555855D02*
X98515466Y-62373268D01*
X98617204Y-62475006D02*
X98922003Y-62779805D01*
X98820265Y-60251056D02*
X98515466Y-60555855D01*
X105277085Y-54146650D02*
X102159596Y-57264139D01*
X105968800Y-53582795D02*
X105404945Y-54146650D01*
X105404945Y-54146650D02*
X105277085Y-54146650D01*
X105968800Y-53403500D02*
X105968800Y-53582795D01*
X99776281Y-57942628D02*
X99776281Y-59295040D01*
X102159596Y-57264139D02*
X100454770Y-57264139D01*
X100454770Y-57264139D02*
X99776281Y-57942628D01*
X99776281Y-59295040D02*
X98820265Y-60251056D01*
D21*
X112255300Y-53403500D02*
X114668300Y-55816500D01*
X114668300Y-55816500D02*
X114668300Y-55930800D01*
X105968800Y-53403500D02*
X112255300Y-53403500D01*
D22*
X104669755Y-62224369D02*
X105100807Y-62224369D01*
X101237331Y-62224369D02*
X104669755Y-62224369D01*
X99987100Y-63474600D02*
X101237331Y-62224369D01*
M02*
