G04 #@! TF.FileFunction,Copper,L2,Inr,Signal*
%FSLAX46Y46*%
G04 Gerber Fmt 4.6, Leading zero omitted, Abs format (unit mm)*
G04 Created by KiCad (PCBNEW 4.0.5) date 2017 September 25, Monday 02:54:35*
%MOMM*%
%LPD*%
G01*
G04 APERTURE LIST*
%ADD10C,0.100000*%
%ADD11C,0.150000*%
%ADD12C,0.300000*%
%ADD13C,0.400000*%
%ADD14C,0.609600*%
%ADD15R,1.524000X1.524000*%
%ADD16C,1.524000*%
%ADD17C,1.408000*%
%ADD18C,1.800000*%
%ADD19C,5.080000*%
%ADD20C,0.508000*%
%ADD21C,0.330200*%
%ADD22C,0.254000*%
G04 APERTURE END LIST*
D10*
D11*
X57800000Y-83000000D02*
X57800000Y-115000000D01*
X165800000Y-115000000D01*
X165800000Y-83000000D01*
X57800000Y-83000000D01*
D10*
D11*
X10000000Y-10000000D02*
X10000000Y-117000000D01*
X167800000Y-117000000D01*
X167800000Y-10000000D01*
X10000000Y-10000000D01*
D10*
D11*
X12000000Y-12000000D02*
X12000000Y-115000000D01*
X165800000Y-115000000D01*
X165800000Y-12000000D01*
X12000000Y-12000000D01*
D10*
D11*
X60000000Y-12000000D02*
X60000000Y-10000000D01*
D10*
D11*
X110000000Y-12000000D02*
X110000000Y-10000000D01*
D10*
D11*
X160000000Y-12000000D02*
X160000000Y-10000000D01*
D10*
D11*
X35990476Y-11588095D02*
X35247619Y-11588095D01*
X35619048Y-11588095D02*
X35619048Y-10288095D01*
X35495238Y-10473810D01*
X35371429Y-10597619D01*
X35247619Y-10659524D01*
D10*
D11*
X85247619Y-10411905D02*
X85309524Y-10350000D01*
X85433333Y-10288095D01*
X85742857Y-10288095D01*
X85866667Y-10350000D01*
X85928571Y-10411905D01*
X85990476Y-10535714D01*
X85990476Y-10659524D01*
X85928571Y-10845238D01*
X85185714Y-11588095D01*
X85990476Y-11588095D01*
D10*
D11*
X135185714Y-10288095D02*
X135990476Y-10288095D01*
X135557143Y-10783333D01*
X135742857Y-10783333D01*
X135866667Y-10845238D01*
X135928571Y-10907143D01*
X135990476Y-11030952D01*
X135990476Y-11340476D01*
X135928571Y-11464286D01*
X135866667Y-11526190D01*
X135742857Y-11588095D01*
X135371429Y-11588095D01*
X135247619Y-11526190D01*
X135185714Y-11464286D01*
D10*
D11*
X60000000Y-115000000D02*
X60000000Y-117000000D01*
D10*
D11*
X110000000Y-115000000D02*
X110000000Y-117000000D01*
D10*
D11*
X160000000Y-115000000D02*
X160000000Y-117000000D01*
D10*
D11*
X35990476Y-116588095D02*
X35247619Y-116588095D01*
X35619048Y-116588095D02*
X35619048Y-115288095D01*
X35495238Y-115473810D01*
X35371429Y-115597619D01*
X35247619Y-115659524D01*
D10*
D11*
X85247619Y-115411905D02*
X85309524Y-115350000D01*
X85433333Y-115288095D01*
X85742857Y-115288095D01*
X85866667Y-115350000D01*
X85928571Y-115411905D01*
X85990476Y-115535714D01*
X85990476Y-115659524D01*
X85928571Y-115845238D01*
X85185714Y-116588095D01*
X85990476Y-116588095D01*
D10*
D11*
X135185714Y-115288095D02*
X135990476Y-115288095D01*
X135557143Y-115783333D01*
X135742857Y-115783333D01*
X135866667Y-115845238D01*
X135928571Y-115907143D01*
X135990476Y-116030952D01*
X135990476Y-116340476D01*
X135928571Y-116464286D01*
X135866667Y-116526190D01*
X135742857Y-116588095D01*
X135371429Y-116588095D01*
X135247619Y-116526190D01*
X135185714Y-116464286D01*
D10*
D11*
X10000000Y-60000000D02*
X12000000Y-60000000D01*
D10*
D11*
X10000000Y-110000000D02*
X12000000Y-110000000D01*
D10*
D11*
X10690476Y-35216667D02*
X11309524Y-35216667D01*
X10566667Y-35588095D02*
X11000000Y-34288095D01*
X11433333Y-35588095D01*
D10*
D11*
X11092857Y-84907143D02*
X11278571Y-84969048D01*
X11340476Y-85030952D01*
X11402381Y-85154762D01*
X11402381Y-85340476D01*
X11340476Y-85464286D01*
X11278571Y-85526190D01*
X11154762Y-85588095D01*
X10659524Y-85588095D01*
X10659524Y-84288095D01*
X11092857Y-84288095D01*
X11216667Y-84350000D01*
X11278571Y-84411905D01*
X11340476Y-84535714D01*
X11340476Y-84659524D01*
X11278571Y-84783333D01*
X11216667Y-84845238D01*
X11092857Y-84907143D01*
X10659524Y-84907143D01*
D10*
D11*
X167800000Y-60000000D02*
X165800000Y-60000000D01*
D10*
D11*
X167800000Y-110000000D02*
X165800000Y-110000000D01*
D10*
D11*
X166490476Y-35216667D02*
X167109524Y-35216667D01*
X166366667Y-35588095D02*
X166800000Y-34288095D01*
X167233333Y-35588095D01*
D10*
D11*
X166892857Y-84907143D02*
X167078571Y-84969048D01*
X167140476Y-85030952D01*
X167202381Y-85154762D01*
X167202381Y-85340476D01*
X167140476Y-85464286D01*
X167078571Y-85526190D01*
X166954762Y-85588095D01*
X166459524Y-85588095D01*
X166459524Y-84288095D01*
X166892857Y-84288095D01*
X167016667Y-84350000D01*
X167078571Y-84411905D01*
X167140476Y-84535714D01*
X167140476Y-84659524D01*
X167078571Y-84783333D01*
X167016667Y-84845238D01*
X166892857Y-84907143D01*
X166459524Y-84907143D01*
D10*
D11*
X81157143Y-110778571D02*
X81157143Y-109278571D01*
X81514286Y-109278571D01*
X81728571Y-109350000D01*
X81871429Y-109492857D01*
X81942857Y-109635714D01*
X82014286Y-109921429D01*
X82014286Y-110135714D01*
X81942857Y-110421429D01*
X81871429Y-110564286D01*
X81728571Y-110707143D01*
X81514286Y-110778571D01*
X81157143Y-110778571D01*
X83300000Y-110778571D02*
X83300000Y-109992857D01*
X83228571Y-109850000D01*
X83085714Y-109778571D01*
X82800000Y-109778571D01*
X82657143Y-109850000D01*
X83300000Y-110707143D02*
X83157143Y-110778571D01*
X82800000Y-110778571D01*
X82657143Y-110707143D01*
X82585714Y-110564286D01*
X82585714Y-110421429D01*
X82657143Y-110278571D01*
X82800000Y-110207143D01*
X83157143Y-110207143D01*
X83300000Y-110135714D01*
X83800000Y-109778571D02*
X84371429Y-109778571D01*
X84014286Y-109278571D02*
X84014286Y-110564286D01*
X84085714Y-110707143D01*
X84228572Y-110778571D01*
X84371429Y-110778571D01*
X85442857Y-110707143D02*
X85300000Y-110778571D01*
X85014286Y-110778571D01*
X84871429Y-110707143D01*
X84800000Y-110564286D01*
X84800000Y-109992857D01*
X84871429Y-109850000D01*
X85014286Y-109778571D01*
X85300000Y-109778571D01*
X85442857Y-109850000D01*
X85514286Y-109992857D01*
X85514286Y-110135714D01*
X84800000Y-110278571D01*
X86157143Y-110635714D02*
X86228571Y-110707143D01*
X86157143Y-110778571D01*
X86085714Y-110707143D01*
X86157143Y-110635714D01*
X86157143Y-110778571D01*
X86157143Y-109850000D02*
X86228571Y-109921429D01*
X86157143Y-109992857D01*
X86085714Y-109921429D01*
X86157143Y-109850000D01*
X86157143Y-109992857D01*
D10*
D11*
X57800000Y-111500000D02*
X165800000Y-111500000D01*
D10*
D11*
X59157143Y-113578571D02*
X59157143Y-112078571D01*
X60014286Y-113578571D02*
X59371429Y-112721429D01*
X60014286Y-112078571D02*
X59157143Y-112935714D01*
X60657143Y-113578571D02*
X60657143Y-112578571D01*
X60657143Y-112078571D02*
X60585714Y-112150000D01*
X60657143Y-112221429D01*
X60728571Y-112150000D01*
X60657143Y-112078571D01*
X60657143Y-112221429D01*
X62228572Y-113435714D02*
X62157143Y-113507143D01*
X61942857Y-113578571D01*
X61800000Y-113578571D01*
X61585715Y-113507143D01*
X61442857Y-113364286D01*
X61371429Y-113221429D01*
X61300000Y-112935714D01*
X61300000Y-112721429D01*
X61371429Y-112435714D01*
X61442857Y-112292857D01*
X61585715Y-112150000D01*
X61800000Y-112078571D01*
X61942857Y-112078571D01*
X62157143Y-112150000D01*
X62228572Y-112221429D01*
X63514286Y-113578571D02*
X63514286Y-112792857D01*
X63442857Y-112650000D01*
X63300000Y-112578571D01*
X63014286Y-112578571D01*
X62871429Y-112650000D01*
X63514286Y-113507143D02*
X63371429Y-113578571D01*
X63014286Y-113578571D01*
X62871429Y-113507143D01*
X62800000Y-113364286D01*
X62800000Y-113221429D01*
X62871429Y-113078571D01*
X63014286Y-113007143D01*
X63371429Y-113007143D01*
X63514286Y-112935714D01*
X64871429Y-113578571D02*
X64871429Y-112078571D01*
X64871429Y-113507143D02*
X64728572Y-113578571D01*
X64442858Y-113578571D01*
X64300000Y-113507143D01*
X64228572Y-113435714D01*
X64157143Y-113292857D01*
X64157143Y-112864286D01*
X64228572Y-112721429D01*
X64300000Y-112650000D01*
X64442858Y-112578571D01*
X64728572Y-112578571D01*
X64871429Y-112650000D01*
X66728572Y-112792857D02*
X67228572Y-112792857D01*
X67442858Y-113578571D02*
X66728572Y-113578571D01*
X66728572Y-112078571D01*
X67442858Y-112078571D01*
X68085715Y-113435714D02*
X68157143Y-113507143D01*
X68085715Y-113578571D01*
X68014286Y-113507143D01*
X68085715Y-113435714D01*
X68085715Y-113578571D01*
X68800001Y-113578571D02*
X68800001Y-112078571D01*
X69157144Y-112078571D01*
X69371429Y-112150000D01*
X69514287Y-112292857D01*
X69585715Y-112435714D01*
X69657144Y-112721429D01*
X69657144Y-112935714D01*
X69585715Y-113221429D01*
X69514287Y-113364286D01*
X69371429Y-113507143D01*
X69157144Y-113578571D01*
X68800001Y-113578571D01*
X70300001Y-113435714D02*
X70371429Y-113507143D01*
X70300001Y-113578571D01*
X70228572Y-113507143D01*
X70300001Y-113435714D01*
X70300001Y-113578571D01*
X70942858Y-113150000D02*
X71657144Y-113150000D01*
X70800001Y-113578571D02*
X71300001Y-112078571D01*
X71800001Y-113578571D01*
X72300001Y-113435714D02*
X72371429Y-113507143D01*
X72300001Y-113578571D01*
X72228572Y-113507143D01*
X72300001Y-113435714D01*
X72300001Y-113578571D01*
X75300001Y-113578571D02*
X75300001Y-112078571D01*
X75442858Y-113007143D02*
X75871429Y-113578571D01*
X75871429Y-112578571D02*
X75300001Y-113150000D01*
X76514287Y-113578571D02*
X76514287Y-112578571D01*
X76514287Y-112078571D02*
X76442858Y-112150000D01*
X76514287Y-112221429D01*
X76585715Y-112150000D01*
X76514287Y-112078571D01*
X76514287Y-112221429D01*
X77871430Y-113507143D02*
X77728573Y-113578571D01*
X77442859Y-113578571D01*
X77300001Y-113507143D01*
X77228573Y-113435714D01*
X77157144Y-113292857D01*
X77157144Y-112864286D01*
X77228573Y-112721429D01*
X77300001Y-112650000D01*
X77442859Y-112578571D01*
X77728573Y-112578571D01*
X77871430Y-112650000D01*
X79157144Y-113578571D02*
X79157144Y-112792857D01*
X79085715Y-112650000D01*
X78942858Y-112578571D01*
X78657144Y-112578571D01*
X78514287Y-112650000D01*
X79157144Y-113507143D02*
X79014287Y-113578571D01*
X78657144Y-113578571D01*
X78514287Y-113507143D01*
X78442858Y-113364286D01*
X78442858Y-113221429D01*
X78514287Y-113078571D01*
X78657144Y-113007143D01*
X79014287Y-113007143D01*
X79157144Y-112935714D01*
X80514287Y-113578571D02*
X80514287Y-112078571D01*
X80514287Y-113507143D02*
X80371430Y-113578571D01*
X80085716Y-113578571D01*
X79942858Y-113507143D01*
X79871430Y-113435714D01*
X79800001Y-113292857D01*
X79800001Y-112864286D01*
X79871430Y-112721429D01*
X79942858Y-112650000D01*
X80085716Y-112578571D01*
X80371430Y-112578571D01*
X80514287Y-112650000D01*
X83014287Y-112578571D02*
X83014287Y-113578571D01*
X82657144Y-112007143D02*
X82300001Y-113078571D01*
X83228573Y-113078571D01*
X83800001Y-113435714D02*
X83871429Y-113507143D01*
X83800001Y-113578571D01*
X83728572Y-113507143D01*
X83800001Y-113435714D01*
X83800001Y-113578571D01*
X84800001Y-112078571D02*
X84942858Y-112078571D01*
X85085715Y-112150000D01*
X85157144Y-112221429D01*
X85228573Y-112364286D01*
X85300001Y-112650000D01*
X85300001Y-113007143D01*
X85228573Y-113292857D01*
X85157144Y-113435714D01*
X85085715Y-113507143D01*
X84942858Y-113578571D01*
X84800001Y-113578571D01*
X84657144Y-113507143D01*
X84585715Y-113435714D01*
X84514287Y-113292857D01*
X84442858Y-113007143D01*
X84442858Y-112650000D01*
X84514287Y-112364286D01*
X84585715Y-112221429D01*
X84657144Y-112150000D01*
X84800001Y-112078571D01*
X85942858Y-113435714D02*
X86014286Y-113507143D01*
X85942858Y-113578571D01*
X85871429Y-113507143D01*
X85942858Y-113435714D01*
X85942858Y-113578571D01*
X87371430Y-112078571D02*
X86657144Y-112078571D01*
X86585715Y-112792857D01*
X86657144Y-112721429D01*
X86800001Y-112650000D01*
X87157144Y-112650000D01*
X87300001Y-112721429D01*
X87371430Y-112792857D01*
X87442858Y-112935714D01*
X87442858Y-113292857D01*
X87371430Y-113435714D01*
X87300001Y-113507143D01*
X87157144Y-113578571D01*
X86800001Y-113578571D01*
X86657144Y-113507143D01*
X86585715Y-113435714D01*
D10*
D11*
X57800000Y-108500000D02*
X165800000Y-108500000D01*
D10*
D12*
X145014286Y-110778571D02*
X144514286Y-110064286D01*
X144157143Y-110778571D02*
X144157143Y-109278571D01*
X144728571Y-109278571D01*
X144871429Y-109350000D01*
X144942857Y-109421429D01*
X145014286Y-109564286D01*
X145014286Y-109778571D01*
X144942857Y-109921429D01*
X144871429Y-109992857D01*
X144728571Y-110064286D01*
X144157143Y-110064286D01*
X146228571Y-110707143D02*
X146085714Y-110778571D01*
X145800000Y-110778571D01*
X145657143Y-110707143D01*
X145585714Y-110564286D01*
X145585714Y-109992857D01*
X145657143Y-109850000D01*
X145800000Y-109778571D01*
X146085714Y-109778571D01*
X146228571Y-109850000D01*
X146300000Y-109992857D01*
X146300000Y-110135714D01*
X145585714Y-110278571D01*
X146800000Y-109778571D02*
X147157143Y-110778571D01*
X147514285Y-109778571D01*
X148085714Y-110635714D02*
X148157142Y-110707143D01*
X148085714Y-110778571D01*
X148014285Y-110707143D01*
X148085714Y-110635714D01*
X148085714Y-110778571D01*
X148085714Y-109850000D02*
X148157142Y-109921429D01*
X148085714Y-109992857D01*
X148014285Y-109921429D01*
X148085714Y-109850000D01*
X148085714Y-109992857D01*
D10*
D11*
X59085714Y-110707143D02*
X59300000Y-110778571D01*
X59657143Y-110778571D01*
X59800000Y-110707143D01*
X59871429Y-110635714D01*
X59942857Y-110492857D01*
X59942857Y-110350000D01*
X59871429Y-110207143D01*
X59800000Y-110135714D01*
X59657143Y-110064286D01*
X59371429Y-109992857D01*
X59228571Y-109921429D01*
X59157143Y-109850000D01*
X59085714Y-109707143D01*
X59085714Y-109564286D01*
X59157143Y-109421429D01*
X59228571Y-109350000D01*
X59371429Y-109278571D01*
X59728571Y-109278571D01*
X59942857Y-109350000D01*
X60585714Y-110778571D02*
X60585714Y-109778571D01*
X60585714Y-109278571D02*
X60514285Y-109350000D01*
X60585714Y-109421429D01*
X60657142Y-109350000D01*
X60585714Y-109278571D01*
X60585714Y-109421429D01*
X61157143Y-109778571D02*
X61942857Y-109778571D01*
X61157143Y-110778571D01*
X61942857Y-110778571D01*
X63085714Y-110707143D02*
X62942857Y-110778571D01*
X62657143Y-110778571D01*
X62514286Y-110707143D01*
X62442857Y-110564286D01*
X62442857Y-109992857D01*
X62514286Y-109850000D01*
X62657143Y-109778571D01*
X62942857Y-109778571D01*
X63085714Y-109850000D01*
X63157143Y-109992857D01*
X63157143Y-110135714D01*
X62442857Y-110278571D01*
X63800000Y-110635714D02*
X63871428Y-110707143D01*
X63800000Y-110778571D01*
X63728571Y-110707143D01*
X63800000Y-110635714D01*
X63800000Y-110778571D01*
X63800000Y-109850000D02*
X63871428Y-109921429D01*
X63800000Y-109992857D01*
X63728571Y-109921429D01*
X63800000Y-109850000D01*
X63800000Y-109992857D01*
X65657143Y-109278571D02*
X65657143Y-110492857D01*
X65728571Y-110635714D01*
X65800000Y-110707143D01*
X65942857Y-110778571D01*
X66228571Y-110778571D01*
X66371429Y-110707143D01*
X66442857Y-110635714D01*
X66514286Y-110492857D01*
X66514286Y-109278571D01*
X67157143Y-110707143D02*
X67300000Y-110778571D01*
X67585715Y-110778571D01*
X67728572Y-110707143D01*
X67800000Y-110564286D01*
X67800000Y-110492857D01*
X67728572Y-110350000D01*
X67585715Y-110278571D01*
X67371429Y-110278571D01*
X67228572Y-110207143D01*
X67157143Y-110064286D01*
X67157143Y-109992857D01*
X67228572Y-109850000D01*
X67371429Y-109778571D01*
X67585715Y-109778571D01*
X67728572Y-109850000D01*
X69014286Y-110707143D02*
X68871429Y-110778571D01*
X68585715Y-110778571D01*
X68442858Y-110707143D01*
X68371429Y-110564286D01*
X68371429Y-109992857D01*
X68442858Y-109850000D01*
X68585715Y-109778571D01*
X68871429Y-109778571D01*
X69014286Y-109850000D01*
X69085715Y-109992857D01*
X69085715Y-110135714D01*
X68371429Y-110278571D01*
X69728572Y-110778571D02*
X69728572Y-109778571D01*
X69728572Y-110064286D02*
X69800000Y-109921429D01*
X69871429Y-109850000D01*
X70014286Y-109778571D01*
X70157143Y-109778571D01*
D10*
D11*
X144157143Y-113578571D02*
X144157143Y-112078571D01*
X145514286Y-113578571D02*
X145514286Y-112078571D01*
X145514286Y-113507143D02*
X145371429Y-113578571D01*
X145085715Y-113578571D01*
X144942857Y-113507143D01*
X144871429Y-113435714D01*
X144800000Y-113292857D01*
X144800000Y-112864286D01*
X144871429Y-112721429D01*
X144942857Y-112650000D01*
X145085715Y-112578571D01*
X145371429Y-112578571D01*
X145514286Y-112650000D01*
X146228572Y-113435714D02*
X146300000Y-113507143D01*
X146228572Y-113578571D01*
X146157143Y-113507143D01*
X146228572Y-113435714D01*
X146228572Y-113578571D01*
X146228572Y-112650000D02*
X146300000Y-112721429D01*
X146228572Y-112792857D01*
X146157143Y-112721429D01*
X146228572Y-112650000D01*
X146228572Y-112792857D01*
X148871429Y-113578571D02*
X148014286Y-113578571D01*
X148442858Y-113578571D02*
X148442858Y-112078571D01*
X148300001Y-112292857D01*
X148157143Y-112435714D01*
X148014286Y-112507143D01*
X150585714Y-112007143D02*
X149300000Y-113935714D01*
X151871429Y-113578571D02*
X151014286Y-113578571D01*
X151442858Y-113578571D02*
X151442858Y-112078571D01*
X151300001Y-112292857D01*
X151157143Y-112435714D01*
X151014286Y-112507143D01*
D10*
D11*
X57800000Y-104500000D02*
X165800000Y-104500000D01*
D10*
D13*
X59252381Y-105204762D02*
X60395238Y-105204762D01*
X59573810Y-107204762D02*
X59823810Y-105204762D01*
X60811905Y-107204762D02*
X60978571Y-105871429D01*
X61061905Y-105204762D02*
X60954762Y-105300000D01*
X61038095Y-105395238D01*
X61145239Y-105300000D01*
X61061905Y-105204762D01*
X61038095Y-105395238D01*
X61645238Y-105871429D02*
X62407143Y-105871429D01*
X62014286Y-105204762D02*
X61800000Y-106919048D01*
X61871430Y-107109524D01*
X62050001Y-107204762D01*
X62240477Y-107204762D01*
X63192858Y-107204762D02*
X63014287Y-107109524D01*
X62942857Y-106919048D01*
X63157143Y-105204762D01*
X64728572Y-107109524D02*
X64526191Y-107204762D01*
X64145239Y-107204762D01*
X63966667Y-107109524D01*
X63895238Y-106919048D01*
X63990476Y-106157143D01*
X64109524Y-105966667D01*
X64311905Y-105871429D01*
X64692857Y-105871429D01*
X64871429Y-105966667D01*
X64942857Y-106157143D01*
X64919048Y-106347619D01*
X63942857Y-106538095D01*
X65692857Y-107014286D02*
X65776192Y-107109524D01*
X65669048Y-107204762D01*
X65585715Y-107109524D01*
X65692857Y-107014286D01*
X65669048Y-107204762D01*
X65823810Y-105966667D02*
X65907144Y-106061905D01*
X65800000Y-106157143D01*
X65716667Y-106061905D01*
X65823810Y-105966667D01*
X65800000Y-106157143D01*
D10*
D11*
X59657143Y-102592857D02*
X59157143Y-102592857D01*
X59157143Y-103378571D02*
X59157143Y-101878571D01*
X59871429Y-101878571D01*
X60442857Y-103378571D02*
X60442857Y-102378571D01*
X60442857Y-101878571D02*
X60371428Y-101950000D01*
X60442857Y-102021429D01*
X60514285Y-101950000D01*
X60442857Y-101878571D01*
X60442857Y-102021429D01*
X61371429Y-103378571D02*
X61228571Y-103307143D01*
X61157143Y-103164286D01*
X61157143Y-101878571D01*
X62514285Y-103307143D02*
X62371428Y-103378571D01*
X62085714Y-103378571D01*
X61942857Y-103307143D01*
X61871428Y-103164286D01*
X61871428Y-102592857D01*
X61942857Y-102450000D01*
X62085714Y-102378571D01*
X62371428Y-102378571D01*
X62514285Y-102450000D01*
X62585714Y-102592857D01*
X62585714Y-102735714D01*
X61871428Y-102878571D01*
X63228571Y-103235714D02*
X63299999Y-103307143D01*
X63228571Y-103378571D01*
X63157142Y-103307143D01*
X63228571Y-103235714D01*
X63228571Y-103378571D01*
X63228571Y-102450000D02*
X63299999Y-102521429D01*
X63228571Y-102592857D01*
X63157142Y-102521429D01*
X63228571Y-102450000D01*
X63228571Y-102592857D01*
X65085714Y-103378571D02*
X65085714Y-101878571D01*
X65942857Y-103378571D01*
X65942857Y-101878571D01*
X66657143Y-103378571D02*
X66657143Y-102378571D01*
X66657143Y-101878571D02*
X66585714Y-101950000D01*
X66657143Y-102021429D01*
X66728571Y-101950000D01*
X66657143Y-101878571D01*
X66657143Y-102021429D01*
X68014286Y-102378571D02*
X68014286Y-103592857D01*
X67942857Y-103735714D01*
X67871429Y-103807143D01*
X67728572Y-103878571D01*
X67514286Y-103878571D01*
X67371429Y-103807143D01*
X68014286Y-103307143D02*
X67871429Y-103378571D01*
X67585715Y-103378571D01*
X67442857Y-103307143D01*
X67371429Y-103235714D01*
X67300000Y-103092857D01*
X67300000Y-102664286D01*
X67371429Y-102521429D01*
X67442857Y-102450000D01*
X67585715Y-102378571D01*
X67871429Y-102378571D01*
X68014286Y-102450000D01*
X69371429Y-102378571D02*
X69371429Y-103378571D01*
X68728572Y-102378571D02*
X68728572Y-103164286D01*
X68800000Y-103307143D01*
X68942858Y-103378571D01*
X69157143Y-103378571D01*
X69300000Y-103307143D01*
X69371429Y-103235714D01*
X70085715Y-102378571D02*
X70085715Y-103378571D01*
X70085715Y-102521429D02*
X70157143Y-102450000D01*
X70300001Y-102378571D01*
X70514286Y-102378571D01*
X70657143Y-102450000D01*
X70728572Y-102592857D01*
X70728572Y-103378571D01*
X71442858Y-103235714D02*
X71514286Y-103307143D01*
X71442858Y-103378571D01*
X71371429Y-103307143D01*
X71442858Y-103235714D01*
X71442858Y-103378571D01*
X72157144Y-103378571D02*
X72157144Y-101878571D01*
X72300001Y-102807143D02*
X72728572Y-103378571D01*
X72728572Y-102378571D02*
X72157144Y-102950000D01*
X73371430Y-103378571D02*
X73371430Y-102378571D01*
X73371430Y-101878571D02*
X73300001Y-101950000D01*
X73371430Y-102021429D01*
X73442858Y-101950000D01*
X73371430Y-101878571D01*
X73371430Y-102021429D01*
X74728573Y-103307143D02*
X74585716Y-103378571D01*
X74300002Y-103378571D01*
X74157144Y-103307143D01*
X74085716Y-103235714D01*
X74014287Y-103092857D01*
X74014287Y-102664286D01*
X74085716Y-102521429D01*
X74157144Y-102450000D01*
X74300002Y-102378571D01*
X74585716Y-102378571D01*
X74728573Y-102450000D01*
X76014287Y-103378571D02*
X76014287Y-102592857D01*
X75942858Y-102450000D01*
X75800001Y-102378571D01*
X75514287Y-102378571D01*
X75371430Y-102450000D01*
X76014287Y-103307143D02*
X75871430Y-103378571D01*
X75514287Y-103378571D01*
X75371430Y-103307143D01*
X75300001Y-103164286D01*
X75300001Y-103021429D01*
X75371430Y-102878571D01*
X75514287Y-102807143D01*
X75871430Y-102807143D01*
X76014287Y-102735714D01*
X77371430Y-103378571D02*
X77371430Y-101878571D01*
X77371430Y-103307143D02*
X77228573Y-103378571D01*
X76942859Y-103378571D01*
X76800001Y-103307143D01*
X76728573Y-103235714D01*
X76657144Y-103092857D01*
X76657144Y-102664286D01*
X76728573Y-102521429D01*
X76800001Y-102450000D01*
X76942859Y-102378571D01*
X77228573Y-102378571D01*
X77371430Y-102450000D01*
X77728573Y-103521429D02*
X78871430Y-103521429D01*
X79228573Y-102378571D02*
X79228573Y-103878571D01*
X79228573Y-102450000D02*
X79371430Y-102378571D01*
X79657144Y-102378571D01*
X79800001Y-102450000D01*
X79871430Y-102521429D01*
X79942859Y-102664286D01*
X79942859Y-103092857D01*
X79871430Y-103235714D01*
X79800001Y-103307143D01*
X79657144Y-103378571D01*
X79371430Y-103378571D01*
X79228573Y-103307143D01*
X81228573Y-103307143D02*
X81085716Y-103378571D01*
X80800002Y-103378571D01*
X80657144Y-103307143D01*
X80585716Y-103235714D01*
X80514287Y-103092857D01*
X80514287Y-102664286D01*
X80585716Y-102521429D01*
X80657144Y-102450000D01*
X80800002Y-102378571D01*
X81085716Y-102378571D01*
X81228573Y-102450000D01*
X81871430Y-103378571D02*
X81871430Y-101878571D01*
X81871430Y-102450000D02*
X82014287Y-102378571D01*
X82300001Y-102378571D01*
X82442858Y-102450000D01*
X82514287Y-102521429D01*
X82585716Y-102664286D01*
X82585716Y-103092857D01*
X82514287Y-103235714D01*
X82442858Y-103307143D01*
X82300001Y-103378571D01*
X82014287Y-103378571D01*
X81871430Y-103307143D01*
D10*
D11*
X57800000Y-98500000D02*
X165800000Y-98500000D01*
D10*
D11*
X59085714Y-100607143D02*
X59300000Y-100678571D01*
X59657143Y-100678571D01*
X59800000Y-100607143D01*
X59871429Y-100535714D01*
X59942857Y-100392857D01*
X59942857Y-100250000D01*
X59871429Y-100107143D01*
X59800000Y-100035714D01*
X59657143Y-99964286D01*
X59371429Y-99892857D01*
X59228571Y-99821429D01*
X59157143Y-99750000D01*
X59085714Y-99607143D01*
X59085714Y-99464286D01*
X59157143Y-99321429D01*
X59228571Y-99250000D01*
X59371429Y-99178571D01*
X59728571Y-99178571D01*
X59942857Y-99250000D01*
X60585714Y-100678571D02*
X60585714Y-99178571D01*
X61228571Y-100678571D02*
X61228571Y-99892857D01*
X61157142Y-99750000D01*
X61014285Y-99678571D01*
X60800000Y-99678571D01*
X60657142Y-99750000D01*
X60585714Y-99821429D01*
X62514285Y-100607143D02*
X62371428Y-100678571D01*
X62085714Y-100678571D01*
X61942857Y-100607143D01*
X61871428Y-100464286D01*
X61871428Y-99892857D01*
X61942857Y-99750000D01*
X62085714Y-99678571D01*
X62371428Y-99678571D01*
X62514285Y-99750000D01*
X62585714Y-99892857D01*
X62585714Y-100035714D01*
X61871428Y-100178571D01*
X63799999Y-100607143D02*
X63657142Y-100678571D01*
X63371428Y-100678571D01*
X63228571Y-100607143D01*
X63157142Y-100464286D01*
X63157142Y-99892857D01*
X63228571Y-99750000D01*
X63371428Y-99678571D01*
X63657142Y-99678571D01*
X63799999Y-99750000D01*
X63871428Y-99892857D01*
X63871428Y-100035714D01*
X63157142Y-100178571D01*
X64299999Y-99678571D02*
X64871428Y-99678571D01*
X64514285Y-99178571D02*
X64514285Y-100464286D01*
X64585713Y-100607143D01*
X64728571Y-100678571D01*
X64871428Y-100678571D01*
X65371428Y-100535714D02*
X65442856Y-100607143D01*
X65371428Y-100678571D01*
X65299999Y-100607143D01*
X65371428Y-100535714D01*
X65371428Y-100678571D01*
X65371428Y-99750000D02*
X65442856Y-99821429D01*
X65371428Y-99892857D01*
X65299999Y-99821429D01*
X65371428Y-99750000D01*
X65371428Y-99892857D01*
D10*
D11*
X77800000Y-108500000D02*
X77800000Y-111500000D01*
D10*
D11*
X141800000Y-108500000D02*
X141800000Y-115000000D01*
D14*
X63512700Y-37846000D03*
X64935100Y-37846000D03*
X66205100Y-37846000D03*
X63652400Y-32804100D03*
X64935100Y-32804100D03*
X66179700Y-32829500D03*
X63703200Y-59067700D03*
X65087500Y-59131200D03*
X63792100Y-64109600D03*
X65112900Y-64109600D03*
X66344800Y-64109600D03*
X66382900Y-59156600D03*
X69316600Y-69151500D03*
X69532500Y-70192900D03*
X70307200Y-71120000D03*
X71628000Y-71259700D03*
X73177400Y-69176900D03*
D15*
X114706400Y-66382900D03*
D16*
X112166400Y-66382900D03*
X114706400Y-63842900D03*
X112166400Y-63842900D03*
X114706400Y-61302900D03*
X112166400Y-61302900D03*
X114706400Y-58762900D03*
X112166400Y-58762900D03*
D15*
X109004100Y-69583300D03*
D16*
X109004100Y-72123300D03*
X106464100Y-69583300D03*
X106464100Y-72123300D03*
X103924100Y-69583300D03*
X103924100Y-72123300D03*
X101384100Y-69583300D03*
X101384100Y-72123300D03*
X98844100Y-69583300D03*
X98844100Y-72123300D03*
D17*
X112501700Y-35243900D03*
X112501700Y-30243900D03*
D18*
X115201700Y-36243900D03*
X115201700Y-29243900D03*
D19*
X65709800Y-70878700D03*
D20*
X67564000Y-70878700D03*
X65684400Y-69024500D03*
X65684400Y-72834500D03*
X67056000Y-72250300D03*
X64287400Y-69634100D03*
X64338200Y-72301100D03*
X63855600Y-70878700D03*
X67056000Y-69532500D03*
D19*
X65709800Y-28143200D03*
D20*
X67564000Y-28143200D03*
X65684400Y-26289000D03*
X65684400Y-30099000D03*
X67056000Y-29514800D03*
X64287400Y-26898600D03*
X64338200Y-29565600D03*
X63855600Y-28143200D03*
X67056000Y-26797000D03*
D19*
X113499900Y-70904100D03*
D20*
X115354100Y-70904100D03*
X113474500Y-69049900D03*
X113474500Y-72859900D03*
X114846100Y-72275700D03*
X112077500Y-69659500D03*
X112128300Y-72326500D03*
X111645700Y-70904100D03*
X114846100Y-69557900D03*
D19*
X108254800Y-27825700D03*
D20*
X110109000Y-27825700D03*
X108229400Y-25971500D03*
X108229400Y-29781500D03*
X109601000Y-29197300D03*
X106832400Y-26581100D03*
X106883200Y-29248100D03*
X106400600Y-27825700D03*
X109601000Y-26479500D03*
D14*
X72936100Y-71247000D03*
X74206100Y-71247000D03*
X75476100Y-71247000D03*
X76746100Y-71247000D03*
X78016100Y-71247000D03*
X79286100Y-71247000D03*
X80556100Y-71247000D03*
X81826100Y-71247000D03*
X83096100Y-71247000D03*
X84366100Y-71247000D03*
X85636100Y-71247000D03*
X86906100Y-71247000D03*
X88176100Y-71247000D03*
X75717400Y-69176900D03*
X82067400Y-69176900D03*
X80797400Y-69176900D03*
X74447400Y-69176900D03*
X76987400Y-69176900D03*
X78257400Y-69176900D03*
X79527400Y-69176900D03*
X71297800Y-68795900D03*
X71259700Y-67310000D03*
X71272400Y-66230500D03*
X69202300Y-68046600D03*
X69202300Y-66776600D03*
X69202300Y-65506600D03*
X69202300Y-64236600D03*
X69469000Y-57531000D03*
X69469000Y-56261000D03*
X69469000Y-54991000D03*
X69469000Y-52451000D03*
X69469000Y-51181000D03*
X69469000Y-49911000D03*
X69469000Y-48641000D03*
X71005700Y-49098200D03*
X71005700Y-56718200D03*
X71005700Y-55448200D03*
X71005700Y-54178200D03*
X71005700Y-52908200D03*
X71005700Y-51638200D03*
X71005700Y-50368200D03*
X69227700Y-44310300D03*
X69227700Y-43040300D03*
X69227700Y-41770300D03*
X69227700Y-40500300D03*
X69227700Y-39230300D03*
X71005700Y-40970200D03*
X71005700Y-42240200D03*
X71005700Y-43510200D03*
X71005700Y-44780200D03*
X71310500Y-39890700D03*
X71081900Y-37706300D03*
X72390000Y-37719000D03*
X72275700Y-39471600D03*
X73266300Y-39471600D03*
X76022200Y-37807900D03*
X76542900Y-37134800D03*
X76136500Y-36461700D03*
X78016100Y-36131500D03*
X78155800Y-36906200D03*
X69545200Y-36017200D03*
X68275200Y-36017199D03*
X68897500Y-34480500D03*
X67627500Y-34480499D03*
X85979000Y-37909500D03*
X85979000Y-39179500D03*
X85979000Y-40449500D03*
X85979000Y-41719500D03*
X87249000Y-37909500D03*
X87249000Y-39179500D03*
X87249000Y-40449500D03*
X87249000Y-41719500D03*
X88519000Y-37909500D03*
X88519000Y-39179500D03*
X88519000Y-40449500D03*
X88519000Y-41719500D03*
X89789000Y-37909500D03*
X89789000Y-39179500D03*
X89789000Y-40449500D03*
X89789000Y-41719500D03*
X100977700Y-58331100D03*
X100977700Y-59601100D03*
X100977700Y-60871100D03*
X102247700Y-58331100D03*
X102247700Y-59601100D03*
X102247700Y-60871100D03*
X103517700Y-58331100D03*
X103517700Y-59601100D03*
X103517700Y-60871100D03*
X69469000Y-53721000D03*
X83921600Y-25387309D03*
X81371705Y-25387987D03*
X77895270Y-40322310D03*
X88595200Y-45796200D03*
X87204479Y-25951560D03*
X94436294Y-28132896D03*
X111760000Y-45783500D03*
X84340700Y-33167281D03*
X85792130Y-33601979D03*
X86688055Y-33616825D03*
X87173589Y-33142326D03*
X73428797Y-41892291D03*
X88646000Y-49644300D03*
X81513680Y-39245540D03*
D20*
X89763600Y-33401000D03*
D14*
X90360500Y-33976256D03*
X90754200Y-34497462D03*
X93408500Y-38932686D03*
X93409821Y-41650165D03*
X82778600Y-45542200D03*
X89763600Y-28359100D03*
X92329000Y-28359100D03*
X79654400Y-31572200D03*
X100147120Y-38920420D03*
X96822260Y-43365420D03*
X74580957Y-37417394D03*
X79734016Y-45257798D03*
X81626673Y-33417612D03*
X79462285Y-32675828D03*
X87358998Y-45681687D03*
X98452560Y-59243423D03*
X97586800Y-55219591D03*
X106241919Y-50306743D03*
X107604715Y-48693388D03*
X68217603Y-62964098D03*
X82803278Y-33374878D03*
X106093457Y-25298409D03*
X110959900Y-30924500D03*
X94348309Y-68694300D03*
X75389023Y-33724932D03*
X104851200Y-29502100D03*
X78723942Y-41356229D03*
X86702900Y-46875700D03*
X91593588Y-51576904D03*
X78191334Y-45379639D03*
X105544914Y-61285401D03*
X100639229Y-66124471D03*
X107567388Y-42547878D03*
X114757200Y-44284900D03*
X114769900Y-42405300D03*
X107340400Y-52311300D03*
X86720068Y-47650929D03*
X86772678Y-48781695D03*
X76771491Y-56965682D03*
X106420572Y-41541629D03*
X95639194Y-54961720D03*
X108496100Y-55003700D03*
X108851700Y-63195200D03*
X105460800Y-69608700D03*
X102908100Y-69596000D03*
X97205800Y-66573400D03*
X69037200Y-27724100D03*
D20*
X74686923Y-30732223D03*
X79616300Y-25971500D03*
X90512900Y-25920700D03*
D14*
X82207100Y-25958800D03*
X84709000Y-25946100D03*
X79241211Y-36487771D03*
X114642900Y-46697900D03*
X84747100Y-69202300D03*
X83388200Y-69202300D03*
X72181791Y-42852403D03*
X71678800Y-48463200D03*
X71678800Y-45466000D03*
X78473300Y-48196500D03*
X79705200Y-48183800D03*
X80878680Y-46926500D03*
X80878680Y-48186340D03*
X80878680Y-49430940D03*
X91605100Y-54368700D03*
X93586300Y-50723800D03*
X93548200Y-49466500D03*
X93522800Y-47752000D03*
X93522800Y-46443900D03*
X87541100Y-50215800D03*
X86677500Y-52235100D03*
X86677500Y-53949600D03*
X86677500Y-55422800D03*
X81747360Y-54033420D03*
X79669640Y-55359300D03*
X81346040Y-59738260D03*
X82092800Y-58547000D03*
X92430600Y-69570600D03*
X78719680Y-40434260D03*
X78727300Y-39243000D03*
X85445799Y-44548713D03*
X84505800Y-43141900D03*
X91695649Y-36699809D03*
X68249800Y-60248800D03*
X71361300Y-59118500D03*
X72199500Y-59194700D03*
X72301100Y-57746900D03*
X71010949Y-65173017D03*
X98513900Y-66586100D03*
X95669100Y-66509900D03*
X108813600Y-61988700D03*
X107480100Y-66141600D03*
X106095800Y-66141600D03*
X104724200Y-66141600D03*
X103339900Y-66141600D03*
X101981000Y-66116200D03*
X97599500Y-53924200D03*
X97586800Y-56642000D03*
X107746800Y-35140900D03*
X111455200Y-42697400D03*
X102082600Y-37617400D03*
X102082600Y-36322000D03*
X79616300Y-27190700D03*
X79616300Y-28397200D03*
X82194400Y-28384500D03*
X82207100Y-27190700D03*
X84772500Y-28397200D03*
X84709000Y-27152600D03*
X90525600Y-27127200D03*
X80314800Y-36461700D03*
X80302100Y-35242500D03*
X88049100Y-28892500D03*
X88061800Y-30137100D03*
X88061800Y-31381700D03*
X90639900Y-28892500D03*
X90639900Y-30137100D03*
X90639900Y-31381700D03*
X93141800Y-31381700D03*
X93141800Y-30149800D03*
X93141800Y-28930600D03*
X97835720Y-33535620D03*
X95758000Y-36309300D03*
X95755460Y-35026600D03*
X99250500Y-40944800D03*
X97965260Y-40934640D03*
X96665199Y-40948059D03*
X99763580Y-44625260D03*
X99761040Y-43367960D03*
X99758500Y-42113200D03*
X98849180Y-46103540D03*
X98831400Y-47353220D03*
X76880720Y-45354240D03*
X103471162Y-54788586D03*
X103976429Y-46723464D03*
X106117758Y-46735165D03*
X100191580Y-51275841D03*
X110109000Y-50812700D03*
X102830131Y-55477206D03*
X72847200Y-36309300D03*
X99521863Y-25984376D03*
X115062000Y-49568100D03*
X109131100Y-47459900D03*
X109220000Y-45593000D03*
D20*
X72809421Y-60998266D03*
D14*
X101384100Y-25298409D03*
X82245200Y-39743380D03*
X111088718Y-67688069D03*
X99764581Y-62455522D03*
X98922003Y-62779805D03*
X98515466Y-60555855D03*
X114668300Y-55930800D03*
X106412261Y-67825303D03*
X98452559Y-57698473D03*
X94576900Y-60439300D03*
X106349800Y-52285900D03*
X107530909Y-54978300D03*
X111039736Y-65155871D03*
X106260900Y-61036200D03*
X94861380Y-39644320D03*
X103954904Y-52039739D03*
X105321100Y-56045100D03*
X105321100Y-58888500D03*
D20*
X94254320Y-40162480D03*
D14*
X106255486Y-60158757D03*
D20*
X93657420Y-40637460D03*
D14*
X104057027Y-56228827D03*
X110832541Y-62922231D03*
X93116400Y-62331600D03*
D20*
X73228200Y-62306200D03*
D14*
X95807241Y-54145732D03*
X97675623Y-52552997D03*
X105052517Y-55234183D03*
X104533700Y-57061100D03*
D20*
X73228200Y-61645800D03*
D14*
X107165120Y-70933248D03*
X97225873Y-70771104D03*
X96930777Y-68092880D03*
X97866200Y-63715900D03*
X101389866Y-63680848D03*
X82852260Y-62981840D03*
X107980270Y-54030467D03*
X83045300Y-39243000D03*
X101626768Y-54861480D03*
X99517200Y-55283100D03*
X102012477Y-55518664D03*
X99580700Y-53911500D03*
X72986900Y-28422600D03*
X94856300Y-72250300D03*
X105100807Y-62224369D03*
X99987100Y-63474600D03*
X95669100Y-64135000D03*
X97586800Y-59855100D03*
X104192437Y-35376094D03*
X108419900Y-33959800D03*
D21*
X110540800Y-67983100D02*
X110540800Y-68413060D01*
X110540800Y-68413060D02*
X113196940Y-71069200D01*
X113196940Y-71069200D02*
X113626900Y-71069200D01*
X112204500Y-69824600D02*
X112382300Y-69824600D01*
X112382300Y-69824600D02*
X113626900Y-71069200D01*
X113601500Y-69215000D02*
X113601500Y-71043800D01*
X113601500Y-71043800D02*
X113626900Y-71069200D01*
X115481100Y-71069200D02*
X113626900Y-71069200D01*
X114973100Y-69723000D02*
X113626900Y-71069200D01*
D22*
G36*
X80840046Y-24590799D02*
X80575446Y-24854938D01*
X80432068Y-25200229D01*
X80431742Y-25574105D01*
X80574517Y-25919646D01*
X80838656Y-26184246D01*
X81183947Y-26327624D01*
X81557823Y-26327950D01*
X81903364Y-26185175D01*
X82167964Y-25921036D01*
X82311342Y-25575745D01*
X82311668Y-25201869D01*
X82168893Y-24856328D01*
X81904754Y-24591728D01*
X81802094Y-24549100D01*
X83489219Y-24549100D01*
X83389941Y-24590121D01*
X83125341Y-24854260D01*
X82981963Y-25199551D01*
X82981637Y-25573427D01*
X83124412Y-25918968D01*
X83388551Y-26183568D01*
X83733842Y-26326946D01*
X84107718Y-26327272D01*
X84453259Y-26184497D01*
X84500159Y-26137678D01*
X86264516Y-26137678D01*
X86407291Y-26483219D01*
X86671430Y-26747819D01*
X87016721Y-26891197D01*
X87390597Y-26891523D01*
X87736138Y-26748748D01*
X88000738Y-26484609D01*
X88131170Y-26170494D01*
X98581900Y-26170494D01*
X98724675Y-26516035D01*
X98988814Y-26780635D01*
X99334105Y-26924013D01*
X99707981Y-26924339D01*
X100053522Y-26781564D01*
X100318122Y-26517425D01*
X100461500Y-26172134D01*
X100461826Y-25798258D01*
X100319051Y-25452717D01*
X100054912Y-25188117D01*
X99709621Y-25044739D01*
X99335745Y-25044413D01*
X98990204Y-25187188D01*
X98725604Y-25451327D01*
X98582226Y-25796618D01*
X98581900Y-26170494D01*
X88131170Y-26170494D01*
X88144116Y-26139318D01*
X88144442Y-25765442D01*
X88001667Y-25419901D01*
X87737528Y-25155301D01*
X87392237Y-25011923D01*
X87018361Y-25011597D01*
X86672820Y-25154372D01*
X86408220Y-25418511D01*
X86264842Y-25763802D01*
X86264516Y-26137678D01*
X84500159Y-26137678D01*
X84717859Y-25920358D01*
X84861237Y-25575067D01*
X84861563Y-25201191D01*
X84718788Y-24855650D01*
X84454649Y-24591050D01*
X84353622Y-24549100D01*
X100804478Y-24549100D01*
X100587841Y-24765360D01*
X100444463Y-25110651D01*
X100444137Y-25484527D01*
X100586912Y-25830068D01*
X100851051Y-26094668D01*
X101196342Y-26238046D01*
X101570218Y-26238372D01*
X101915759Y-26095597D01*
X102180359Y-25831458D01*
X102292681Y-25560956D01*
X106169662Y-25560956D01*
X106407017Y-25798311D01*
X106401205Y-25970300D01*
X106832400Y-26401495D01*
X106846543Y-26387353D01*
X107026148Y-26566958D01*
X107012005Y-26581100D01*
X107443200Y-27012295D01*
X107615188Y-27006483D01*
X108254800Y-27646095D01*
X110032195Y-25868700D01*
X110032195Y-25868699D01*
X110339938Y-25560956D01*
X110053369Y-25134116D01*
X108886437Y-24650718D01*
X107623343Y-24650682D01*
X106456383Y-25134015D01*
X106456231Y-25134116D01*
X106169662Y-25560956D01*
X102292681Y-25560956D01*
X102323737Y-25486167D01*
X102324063Y-25112291D01*
X102181288Y-24766750D01*
X101964017Y-24549100D01*
X115900495Y-24549100D01*
X115908250Y-27875211D01*
X115508370Y-27709167D01*
X114897709Y-27708635D01*
X114333329Y-27941832D01*
X113901149Y-28373257D01*
X113666967Y-28937230D01*
X113666435Y-29547891D01*
X113899632Y-30112271D01*
X114331057Y-30544451D01*
X114895030Y-30778633D01*
X115505691Y-30779165D01*
X115914627Y-30610196D01*
X115924587Y-34881995D01*
X115508370Y-34709167D01*
X114897709Y-34708635D01*
X114333329Y-34941832D01*
X113901149Y-35373257D01*
X113666967Y-35937230D01*
X113666435Y-36547891D01*
X113899632Y-37112271D01*
X114331057Y-37544451D01*
X114895030Y-37778633D01*
X115505691Y-37779165D01*
X115930933Y-37603459D01*
X115958148Y-49275943D01*
X115859188Y-49036441D01*
X115595049Y-48771841D01*
X115249758Y-48628463D01*
X114875882Y-48628137D01*
X114530341Y-48770912D01*
X114265741Y-49035051D01*
X114122363Y-49380342D01*
X114122037Y-49754218D01*
X114264812Y-50099759D01*
X114528951Y-50364359D01*
X114874242Y-50507737D01*
X115248118Y-50508063D01*
X115593659Y-50365288D01*
X115858259Y-50101149D01*
X115959504Y-49857325D01*
X115978919Y-58184386D01*
X115891410Y-57972597D01*
X115498770Y-57579271D01*
X114985500Y-57366143D01*
X114429739Y-57365658D01*
X113916097Y-57577890D01*
X113522771Y-57970530D01*
X113436451Y-58178412D01*
X113351410Y-57972597D01*
X112958770Y-57579271D01*
X112445500Y-57366143D01*
X111889739Y-57365658D01*
X111376097Y-57577890D01*
X110982771Y-57970530D01*
X110769643Y-58483800D01*
X110769158Y-59039561D01*
X110981390Y-59553203D01*
X111374030Y-59946529D01*
X111581912Y-60032849D01*
X111376097Y-60117890D01*
X110982771Y-60510530D01*
X110769643Y-61023800D01*
X110769158Y-61579561D01*
X110935657Y-61982520D01*
X110646423Y-61982268D01*
X110300882Y-62125043D01*
X110036282Y-62389182D01*
X109892904Y-62734473D01*
X109892578Y-63108349D01*
X110035353Y-63453890D01*
X110299492Y-63718490D01*
X110644783Y-63861868D01*
X110769383Y-63861977D01*
X110769158Y-64119561D01*
X110815479Y-64231667D01*
X110508077Y-64358683D01*
X110243477Y-64622822D01*
X110100099Y-64968113D01*
X110099773Y-65341989D01*
X110242548Y-65687530D01*
X110506687Y-65952130D01*
X110784688Y-66067567D01*
X110769643Y-66103800D01*
X110769158Y-66659561D01*
X110819868Y-66782290D01*
X110557059Y-66890881D01*
X110292459Y-67155020D01*
X110149081Y-67500311D01*
X110148755Y-67874187D01*
X110291530Y-68219728D01*
X110555669Y-68484328D01*
X110900960Y-68627706D01*
X111201456Y-68627968D01*
X111122808Y-68706616D01*
X111235155Y-68818963D01*
X110808316Y-69105531D01*
X110413540Y-70058528D01*
X110413540Y-68821300D01*
X110369262Y-68585983D01*
X110230190Y-68369859D01*
X110017990Y-68224869D01*
X109766100Y-68173860D01*
X108242100Y-68173860D01*
X108006783Y-68218138D01*
X107790659Y-68357210D01*
X107645669Y-68569410D01*
X107594660Y-68821300D01*
X107594660Y-68825816D01*
X107444313Y-68782692D01*
X106643705Y-69583300D01*
X106657848Y-69597443D01*
X106478243Y-69777048D01*
X106464100Y-69762905D01*
X105663492Y-70563513D01*
X105732957Y-70805697D01*
X105873418Y-70855809D01*
X105673797Y-70938290D01*
X105280471Y-71330930D01*
X105194151Y-71538812D01*
X105109110Y-71332997D01*
X104716470Y-70939671D01*
X104524373Y-70859905D01*
X104655243Y-70805697D01*
X104724708Y-70563513D01*
X103924100Y-69762905D01*
X103123492Y-70563513D01*
X103192957Y-70805697D01*
X103333418Y-70855809D01*
X103133797Y-70938290D01*
X102740471Y-71330930D01*
X102654151Y-71538812D01*
X102569110Y-71332997D01*
X102176470Y-70939671D01*
X101968588Y-70853351D01*
X102174403Y-70768310D01*
X102567729Y-70375670D01*
X102647495Y-70183573D01*
X102701703Y-70314443D01*
X102943887Y-70383908D01*
X103744495Y-69583300D01*
X104103705Y-69583300D01*
X104904313Y-70383908D01*
X105146497Y-70314443D01*
X105190553Y-70190956D01*
X105241703Y-70314443D01*
X105483887Y-70383908D01*
X106284495Y-69583300D01*
X105483887Y-68782692D01*
X105241703Y-68852157D01*
X105197647Y-68975644D01*
X105146497Y-68852157D01*
X104904313Y-68782692D01*
X104103705Y-69583300D01*
X103744495Y-69583300D01*
X102943887Y-68782692D01*
X102701703Y-68852157D01*
X102651591Y-68992618D01*
X102569110Y-68792997D01*
X102379532Y-68603087D01*
X103123492Y-68603087D01*
X103924100Y-69403695D01*
X104724708Y-68603087D01*
X104655243Y-68360903D01*
X104131798Y-68174156D01*
X103576732Y-68201938D01*
X103192957Y-68360903D01*
X103123492Y-68603087D01*
X102379532Y-68603087D01*
X102176470Y-68399671D01*
X101663200Y-68186543D01*
X101107439Y-68186058D01*
X100593797Y-68398290D01*
X100200471Y-68790930D01*
X100114151Y-68998812D01*
X100029110Y-68792997D01*
X99636470Y-68399671D01*
X99123200Y-68186543D01*
X98567439Y-68186058D01*
X98053797Y-68398290D01*
X97660471Y-68790930D01*
X97447343Y-69304200D01*
X97446871Y-69845269D01*
X97413631Y-69831467D01*
X97039755Y-69831141D01*
X96694214Y-69973916D01*
X96429614Y-70238055D01*
X96286236Y-70583346D01*
X96285910Y-70957222D01*
X96428685Y-71302763D01*
X96692824Y-71567363D01*
X97038115Y-71710741D01*
X97411991Y-71711067D01*
X97521395Y-71665862D01*
X97447343Y-71844200D01*
X97446858Y-72399961D01*
X97659090Y-72913603D01*
X97911346Y-73166300D01*
X95100413Y-73166300D01*
X95387959Y-73047488D01*
X95652559Y-72783349D01*
X95795937Y-72438058D01*
X95796263Y-72064182D01*
X95653488Y-71718641D01*
X95389349Y-71454041D01*
X95044058Y-71310663D01*
X94670182Y-71310337D01*
X94324641Y-71453112D01*
X94060041Y-71717251D01*
X93916663Y-72062542D01*
X93916337Y-72436418D01*
X94059112Y-72781959D01*
X94323251Y-73046559D01*
X94611618Y-73166300D01*
X67779593Y-73166300D01*
X67794938Y-73143444D01*
X65709800Y-71058305D01*
X65695658Y-71072448D01*
X65516052Y-70892842D01*
X65530195Y-70878700D01*
X65889405Y-70878700D01*
X66625635Y-71614930D01*
X66624805Y-71639500D01*
X67056000Y-72070695D01*
X67068700Y-72057995D01*
X67248305Y-72237600D01*
X67235605Y-72250300D01*
X67666800Y-72681495D01*
X67691371Y-72680665D01*
X67974544Y-72963838D01*
X68401384Y-72677269D01*
X68884782Y-71510337D01*
X68884818Y-70247243D01*
X68401485Y-69080283D01*
X68401384Y-69080131D01*
X67974544Y-68793562D01*
X67666801Y-69101305D01*
X67235605Y-69532500D01*
X65889405Y-70878700D01*
X65530195Y-70878700D01*
X65516052Y-70864558D01*
X65695658Y-70684953D01*
X65709800Y-70699095D01*
X67487195Y-68921700D01*
X67487195Y-68921699D01*
X67794938Y-68613956D01*
X67570057Y-68278998D01*
X95990814Y-68278998D01*
X96133589Y-68624539D01*
X96397728Y-68889139D01*
X96743019Y-69032517D01*
X97116895Y-69032843D01*
X97462436Y-68890068D01*
X97727036Y-68625929D01*
X97870414Y-68280638D01*
X97870648Y-68011421D01*
X105472298Y-68011421D01*
X105615073Y-68356962D01*
X105707524Y-68449574D01*
X105663492Y-68603087D01*
X106464100Y-69403695D01*
X107264708Y-68603087D01*
X107197630Y-68369223D01*
X107208520Y-68358352D01*
X107351898Y-68013061D01*
X107352224Y-67639185D01*
X107209449Y-67293644D01*
X106945310Y-67029044D01*
X106600019Y-66885666D01*
X106226143Y-66885340D01*
X105880602Y-67028115D01*
X105616002Y-67292254D01*
X105472624Y-67637545D01*
X105472298Y-68011421D01*
X97870648Y-68011421D01*
X97870740Y-67906762D01*
X97727965Y-67561221D01*
X97463826Y-67296621D01*
X97118535Y-67153243D01*
X96744659Y-67152917D01*
X96399118Y-67295692D01*
X96134518Y-67559831D01*
X95991140Y-67905122D01*
X95990814Y-68278998D01*
X67570057Y-68278998D01*
X67508369Y-68187116D01*
X66341437Y-67703718D01*
X65078343Y-67703682D01*
X63911383Y-68187015D01*
X63911231Y-68187116D01*
X63624663Y-68613955D01*
X63512316Y-68501608D01*
X63484338Y-68529586D01*
X63483272Y-64321118D01*
X94729137Y-64321118D01*
X94871912Y-64666659D01*
X95136051Y-64931259D01*
X95481342Y-65074637D01*
X95855218Y-65074963D01*
X96200759Y-64932188D01*
X96465359Y-64668049D01*
X96608737Y-64322758D01*
X96609063Y-63948882D01*
X96589700Y-63902018D01*
X96926237Y-63902018D01*
X97069012Y-64247559D01*
X97333151Y-64512159D01*
X97678442Y-64655537D01*
X98052318Y-64655863D01*
X98397859Y-64513088D01*
X98662459Y-64248949D01*
X98805837Y-63903658D01*
X98805998Y-63719505D01*
X99071523Y-63719736D01*
X99189912Y-64006259D01*
X99454051Y-64270859D01*
X99799342Y-64414237D01*
X100173218Y-64414563D01*
X100518759Y-64271788D01*
X100588434Y-64202235D01*
X100592678Y-64212507D01*
X100856817Y-64477107D01*
X101202108Y-64620485D01*
X101575984Y-64620811D01*
X101921525Y-64478036D01*
X102186125Y-64213897D01*
X102329503Y-63868606D01*
X102329829Y-63494730D01*
X102187054Y-63149189D01*
X101922915Y-62884589D01*
X101577624Y-62741211D01*
X101203748Y-62740885D01*
X100858207Y-62883660D01*
X100788532Y-62953213D01*
X100784288Y-62942941D01*
X100639863Y-62798264D01*
X100704218Y-62643280D01*
X100704420Y-62410487D01*
X104160844Y-62410487D01*
X104303619Y-62756028D01*
X104567758Y-63020628D01*
X104913049Y-63164006D01*
X105286925Y-63164332D01*
X105632466Y-63021557D01*
X105897066Y-62757418D01*
X106040444Y-62412127D01*
X106040770Y-62038251D01*
X106002935Y-61946685D01*
X106073142Y-61975837D01*
X106447018Y-61976163D01*
X106792559Y-61833388D01*
X107057159Y-61569249D01*
X107200537Y-61223958D01*
X107200863Y-60850082D01*
X107093708Y-60590748D01*
X107195123Y-60346515D01*
X107195449Y-59972639D01*
X107052674Y-59627098D01*
X106788535Y-59362498D01*
X106443244Y-59219120D01*
X106201503Y-59218909D01*
X106260737Y-59076258D01*
X106261063Y-58702382D01*
X106118288Y-58356841D01*
X105854149Y-58092241D01*
X105508858Y-57948863D01*
X105134982Y-57948537D01*
X104789441Y-58091312D01*
X104524841Y-58355451D01*
X104381463Y-58700742D01*
X104381137Y-59074618D01*
X104523912Y-59420159D01*
X104788051Y-59684759D01*
X105133342Y-59828137D01*
X105375083Y-59828348D01*
X105315849Y-59970999D01*
X105315523Y-60344875D01*
X105422678Y-60604209D01*
X105321263Y-60848442D01*
X105320937Y-61222318D01*
X105358772Y-61313884D01*
X105288565Y-61284732D01*
X104914689Y-61284406D01*
X104569148Y-61427181D01*
X104304548Y-61691320D01*
X104161170Y-62036611D01*
X104160844Y-62410487D01*
X100704420Y-62410487D01*
X100704544Y-62269404D01*
X100561769Y-61923863D01*
X100297630Y-61659263D01*
X99952339Y-61515885D01*
X99578463Y-61515559D01*
X99232922Y-61658334D01*
X99050822Y-61840117D01*
X98735885Y-61839842D01*
X98390344Y-61982617D01*
X98125744Y-62246756D01*
X97982366Y-62592047D01*
X97982205Y-62776200D01*
X97680082Y-62775937D01*
X97334541Y-62918712D01*
X97069941Y-63182851D01*
X96926563Y-63528142D01*
X96926237Y-63902018D01*
X96589700Y-63902018D01*
X96466288Y-63603341D01*
X96202149Y-63338741D01*
X95856858Y-63195363D01*
X95482982Y-63195037D01*
X95137441Y-63337812D01*
X94872841Y-63601951D01*
X94729463Y-63947242D01*
X94729137Y-64321118D01*
X63483272Y-64321118D01*
X63482474Y-61174323D01*
X71920267Y-61174323D01*
X72055324Y-61501186D01*
X72305185Y-61751484D01*
X72339095Y-61765565D01*
X72339046Y-61821857D01*
X72402726Y-61975975D01*
X72339354Y-62128591D01*
X72339046Y-62482257D01*
X72474103Y-62809120D01*
X72723964Y-63059418D01*
X73050591Y-63195046D01*
X73404257Y-63195354D01*
X73470560Y-63167958D01*
X81912297Y-63167958D01*
X82055072Y-63513499D01*
X82319211Y-63778099D01*
X82664502Y-63921477D01*
X83038378Y-63921803D01*
X83383919Y-63779028D01*
X83648519Y-63514889D01*
X83791897Y-63169598D01*
X83792223Y-62795722D01*
X83677354Y-62517718D01*
X92176437Y-62517718D01*
X92319212Y-62863259D01*
X92583351Y-63127859D01*
X92928642Y-63271237D01*
X93302518Y-63271563D01*
X93648059Y-63128788D01*
X93912659Y-62864649D01*
X94056037Y-62519358D01*
X94056363Y-62145482D01*
X93913588Y-61799941D01*
X93649449Y-61535341D01*
X93304158Y-61391963D01*
X92930282Y-61391637D01*
X92584741Y-61534412D01*
X92320141Y-61798551D01*
X92176763Y-62143842D01*
X92176437Y-62517718D01*
X83677354Y-62517718D01*
X83649448Y-62450181D01*
X83385309Y-62185581D01*
X83040018Y-62042203D01*
X82666142Y-62041877D01*
X82320601Y-62184652D01*
X82056001Y-62448791D01*
X81912623Y-62794082D01*
X81912297Y-63167958D01*
X73470560Y-63167958D01*
X73731120Y-63060297D01*
X73981418Y-62810436D01*
X74117046Y-62483809D01*
X74117354Y-62130143D01*
X74053674Y-61976025D01*
X74117046Y-61823409D01*
X74117354Y-61469743D01*
X73982297Y-61142880D01*
X73732436Y-60892582D01*
X73698526Y-60878501D01*
X73698575Y-60822209D01*
X73617263Y-60625418D01*
X93636937Y-60625418D01*
X93779712Y-60970959D01*
X94043851Y-61235559D01*
X94389142Y-61378937D01*
X94763018Y-61379263D01*
X95108559Y-61236488D01*
X95373159Y-60972349D01*
X95516537Y-60627058D01*
X95516863Y-60253182D01*
X95429282Y-60041218D01*
X96646837Y-60041218D01*
X96789612Y-60386759D01*
X97053751Y-60651359D01*
X97399042Y-60794737D01*
X97597376Y-60794910D01*
X97718278Y-61087514D01*
X97982417Y-61352114D01*
X98327708Y-61495492D01*
X98701584Y-61495818D01*
X99047125Y-61353043D01*
X99311725Y-61088904D01*
X99455103Y-60743613D01*
X99455429Y-60369737D01*
X99312654Y-60024196D01*
X99048515Y-59759596D01*
X98703224Y-59616218D01*
X98504890Y-59616045D01*
X98383988Y-59323441D01*
X98119849Y-59058841D01*
X97774558Y-58915463D01*
X97400682Y-58915137D01*
X97055141Y-59057912D01*
X96790541Y-59322051D01*
X96647163Y-59667342D01*
X96646837Y-60041218D01*
X95429282Y-60041218D01*
X95374088Y-59907641D01*
X95109949Y-59643041D01*
X94764658Y-59499663D01*
X94390782Y-59499337D01*
X94045241Y-59642112D01*
X93780641Y-59906251D01*
X93637263Y-60251542D01*
X93636937Y-60625418D01*
X73617263Y-60625418D01*
X73563518Y-60495346D01*
X73313657Y-60245048D01*
X72987030Y-60109420D01*
X72633364Y-60109112D01*
X72306501Y-60244169D01*
X72056203Y-60494030D01*
X71920575Y-60820657D01*
X71920267Y-61174323D01*
X63482474Y-61174323D01*
X63481641Y-57884591D01*
X97512596Y-57884591D01*
X97655371Y-58230132D01*
X97919510Y-58494732D01*
X98264801Y-58638110D01*
X98638677Y-58638436D01*
X98984218Y-58495661D01*
X99248818Y-58231522D01*
X99392196Y-57886231D01*
X99392522Y-57512355D01*
X99249747Y-57166814D01*
X98985608Y-56902214D01*
X98640317Y-56758836D01*
X98266441Y-56758510D01*
X97920900Y-56901285D01*
X97656300Y-57165424D01*
X97512922Y-57510715D01*
X97512596Y-57884591D01*
X63481641Y-57884591D01*
X63481029Y-55469218D01*
X98577237Y-55469218D01*
X98720012Y-55814759D01*
X98984151Y-56079359D01*
X99329442Y-56222737D01*
X99703318Y-56223063D01*
X100048859Y-56080288D01*
X100313459Y-55816149D01*
X100456837Y-55470858D01*
X100457163Y-55096982D01*
X100436758Y-55047598D01*
X100686805Y-55047598D01*
X100829580Y-55393139D01*
X101072573Y-55636557D01*
X101072514Y-55704782D01*
X101215289Y-56050323D01*
X101479428Y-56314923D01*
X101824719Y-56458301D01*
X102198595Y-56458627D01*
X102471469Y-56345877D01*
X102642373Y-56416843D01*
X103016249Y-56417169D01*
X103117098Y-56375499D01*
X103117064Y-56414945D01*
X103259839Y-56760486D01*
X103523978Y-57025086D01*
X103593905Y-57054123D01*
X103593737Y-57247218D01*
X103736512Y-57592759D01*
X104000651Y-57857359D01*
X104345942Y-58000737D01*
X104719818Y-58001063D01*
X105065359Y-57858288D01*
X105329959Y-57594149D01*
X105473337Y-57248858D01*
X105473567Y-56985034D01*
X105507218Y-56985063D01*
X105852759Y-56842288D01*
X106117359Y-56578149D01*
X106260737Y-56232858D01*
X106260838Y-56116918D01*
X113728337Y-56116918D01*
X113871112Y-56462459D01*
X114135251Y-56727059D01*
X114480542Y-56870437D01*
X114854418Y-56870763D01*
X115199959Y-56727988D01*
X115464559Y-56463849D01*
X115607937Y-56118558D01*
X115608263Y-55744682D01*
X115465488Y-55399141D01*
X115201349Y-55134541D01*
X114856058Y-54991163D01*
X114482182Y-54990837D01*
X114136641Y-55133612D01*
X113872041Y-55397751D01*
X113728663Y-55743042D01*
X113728337Y-56116918D01*
X106260838Y-56116918D01*
X106261063Y-55858982D01*
X106118288Y-55513441D01*
X105992184Y-55387117D01*
X105992378Y-55164418D01*
X106590946Y-55164418D01*
X106733721Y-55509959D01*
X106997860Y-55774559D01*
X107343151Y-55917937D01*
X107717027Y-55918263D01*
X108062568Y-55775488D01*
X108327168Y-55511349D01*
X108470546Y-55166058D01*
X108470826Y-54844638D01*
X108511929Y-54827655D01*
X108776529Y-54563516D01*
X108919907Y-54218225D01*
X108920233Y-53844349D01*
X108777458Y-53498808D01*
X108513319Y-53234208D01*
X108168028Y-53090830D01*
X107794152Y-53090504D01*
X107448611Y-53233279D01*
X107184011Y-53497418D01*
X107040633Y-53842709D01*
X107040353Y-54164129D01*
X106999250Y-54181112D01*
X106734650Y-54445251D01*
X106591272Y-54790542D01*
X106590946Y-55164418D01*
X105992378Y-55164418D01*
X105992480Y-55048065D01*
X105849705Y-54702524D01*
X105585566Y-54437924D01*
X105240275Y-54294546D01*
X104866399Y-54294220D01*
X104520858Y-54436995D01*
X104394763Y-54562870D01*
X104268350Y-54256927D01*
X104004211Y-53992327D01*
X103658920Y-53848949D01*
X103285044Y-53848623D01*
X102939503Y-53991398D01*
X102674903Y-54255537D01*
X102540099Y-54580179D01*
X102529254Y-54584661D01*
X102423956Y-54329821D01*
X102159817Y-54065221D01*
X101814526Y-53921843D01*
X101440650Y-53921517D01*
X101095109Y-54064292D01*
X100830509Y-54328431D01*
X100687131Y-54673722D01*
X100686805Y-55047598D01*
X100436758Y-55047598D01*
X100314388Y-54751441D01*
X100192173Y-54629013D01*
X100376959Y-54444549D01*
X100520337Y-54099258D01*
X100520663Y-53725382D01*
X100377888Y-53379841D01*
X100113749Y-53115241D01*
X99768458Y-52971863D01*
X99394582Y-52971537D01*
X99049041Y-53114312D01*
X98784441Y-53378451D01*
X98641063Y-53723742D01*
X98640737Y-54097618D01*
X98783512Y-54443159D01*
X98905727Y-54565587D01*
X98720941Y-54750051D01*
X98577563Y-55095342D01*
X98577237Y-55469218D01*
X63481029Y-55469218D01*
X63480740Y-54331850D01*
X94867278Y-54331850D01*
X95010053Y-54677391D01*
X95274192Y-54941991D01*
X95619483Y-55085369D01*
X95993359Y-55085695D01*
X96338900Y-54942920D01*
X96603500Y-54678781D01*
X96746878Y-54333490D01*
X96747204Y-53959614D01*
X96604429Y-53614073D01*
X96340290Y-53349473D01*
X95994999Y-53206095D01*
X95621123Y-53205769D01*
X95275582Y-53348544D01*
X95010982Y-53612683D01*
X94867604Y-53957974D01*
X94867278Y-54331850D01*
X63480740Y-54331850D01*
X63480337Y-52739115D01*
X96735660Y-52739115D01*
X96878435Y-53084656D01*
X97142574Y-53349256D01*
X97487865Y-53492634D01*
X97861741Y-53492960D01*
X98207282Y-53350185D01*
X98471882Y-53086046D01*
X98615260Y-52740755D01*
X98615586Y-52366879D01*
X98557317Y-52225857D01*
X103014941Y-52225857D01*
X103157716Y-52571398D01*
X103421855Y-52835998D01*
X103767146Y-52979376D01*
X104141022Y-52979702D01*
X104486563Y-52836927D01*
X104751163Y-52572788D01*
X104793006Y-52472018D01*
X105409837Y-52472018D01*
X105552612Y-52817559D01*
X105816751Y-53082159D01*
X106162042Y-53225537D01*
X106535918Y-53225863D01*
X106881459Y-53083088D01*
X107146059Y-52818949D01*
X107289437Y-52473658D01*
X107289763Y-52099782D01*
X107146988Y-51754241D01*
X106882849Y-51489641D01*
X106537558Y-51346263D01*
X106163682Y-51345937D01*
X105818141Y-51488712D01*
X105553541Y-51752851D01*
X105410163Y-52098142D01*
X105409837Y-52472018D01*
X104793006Y-52472018D01*
X104894541Y-52227497D01*
X104894867Y-51853621D01*
X104752092Y-51508080D01*
X104487953Y-51243480D01*
X104142662Y-51100102D01*
X103768786Y-51099776D01*
X103423245Y-51242551D01*
X103158645Y-51506690D01*
X103015267Y-51851981D01*
X103014941Y-52225857D01*
X98557317Y-52225857D01*
X98472811Y-52021338D01*
X98208672Y-51756738D01*
X97863381Y-51613360D01*
X97489505Y-51613034D01*
X97143964Y-51755809D01*
X96879364Y-52019948D01*
X96735986Y-52365239D01*
X96735660Y-52739115D01*
X63480337Y-52739115D01*
X63480013Y-51461959D01*
X99251617Y-51461959D01*
X99394392Y-51807500D01*
X99658531Y-52072100D01*
X100003822Y-52215478D01*
X100377698Y-52215804D01*
X100723239Y-52073029D01*
X100987839Y-51808890D01*
X101131217Y-51463599D01*
X101131543Y-51089723D01*
X101093982Y-50998818D01*
X109169037Y-50998818D01*
X109311812Y-51344359D01*
X109575951Y-51608959D01*
X109921242Y-51752337D01*
X110295118Y-51752663D01*
X110640659Y-51609888D01*
X110905259Y-51345749D01*
X111048637Y-51000458D01*
X111048963Y-50626582D01*
X110906188Y-50281041D01*
X110642049Y-50016441D01*
X110296758Y-49873063D01*
X109922882Y-49872737D01*
X109577341Y-50015512D01*
X109312741Y-50279651D01*
X109169363Y-50624942D01*
X109169037Y-50998818D01*
X101093982Y-50998818D01*
X100988768Y-50744182D01*
X100724629Y-50479582D01*
X100379338Y-50336204D01*
X100005462Y-50335878D01*
X99659921Y-50478653D01*
X99395321Y-50742792D01*
X99251943Y-51088083D01*
X99251617Y-51461959D01*
X63480013Y-51461959D01*
X63479599Y-49830418D01*
X87706037Y-49830418D01*
X87848812Y-50175959D01*
X88112951Y-50440559D01*
X88458242Y-50583937D01*
X88832118Y-50584263D01*
X89177659Y-50441488D01*
X89442259Y-50177349D01*
X89585637Y-49832058D01*
X89585963Y-49458182D01*
X89443188Y-49112641D01*
X89179049Y-48848041D01*
X88833758Y-48704663D01*
X88459882Y-48704337D01*
X88114341Y-48847112D01*
X87849741Y-49111251D01*
X87706363Y-49456542D01*
X87706037Y-49830418D01*
X63479599Y-49830418D01*
X63478859Y-46909582D01*
X103036466Y-46909582D01*
X103179241Y-47255123D01*
X103443380Y-47519723D01*
X103788671Y-47663101D01*
X104162547Y-47663427D01*
X104508088Y-47520652D01*
X104772688Y-47256513D01*
X104911888Y-46921283D01*
X105177795Y-46921283D01*
X105320570Y-47266824D01*
X105584709Y-47531424D01*
X105930000Y-47674802D01*
X106303876Y-47675128D01*
X106374327Y-47646018D01*
X108191137Y-47646018D01*
X108333912Y-47991559D01*
X108598051Y-48256159D01*
X108943342Y-48399537D01*
X109317218Y-48399863D01*
X109662759Y-48257088D01*
X109927359Y-47992949D01*
X110070737Y-47647658D01*
X110071063Y-47273782D01*
X109928288Y-46928241D01*
X109664149Y-46663641D01*
X109349324Y-46532913D01*
X109406118Y-46532963D01*
X109751659Y-46390188D01*
X110016259Y-46126049D01*
X110081215Y-45969618D01*
X110820037Y-45969618D01*
X110962812Y-46315159D01*
X111226951Y-46579759D01*
X111572242Y-46723137D01*
X111946118Y-46723463D01*
X112291659Y-46580688D01*
X112556259Y-46316549D01*
X112699637Y-45971258D01*
X112699963Y-45597382D01*
X112557188Y-45251841D01*
X112293049Y-44987241D01*
X111947758Y-44843863D01*
X111573882Y-44843537D01*
X111228341Y-44986312D01*
X110963741Y-45250451D01*
X110820363Y-45595742D01*
X110820037Y-45969618D01*
X110081215Y-45969618D01*
X110159637Y-45780758D01*
X110159963Y-45406882D01*
X110017188Y-45061341D01*
X109753049Y-44796741D01*
X109407758Y-44653363D01*
X109033882Y-44653037D01*
X108688341Y-44795812D01*
X108423741Y-45059951D01*
X108280363Y-45405242D01*
X108280037Y-45779118D01*
X108422812Y-46124659D01*
X108686951Y-46389259D01*
X109001776Y-46519987D01*
X108944982Y-46519937D01*
X108599441Y-46662712D01*
X108334841Y-46926851D01*
X108191463Y-47272142D01*
X108191137Y-47646018D01*
X106374327Y-47646018D01*
X106649417Y-47532353D01*
X106914017Y-47268214D01*
X107057395Y-46922923D01*
X107057721Y-46549047D01*
X106914946Y-46203506D01*
X106650807Y-45938906D01*
X106305516Y-45795528D01*
X105931640Y-45795202D01*
X105586099Y-45937977D01*
X105321499Y-46202116D01*
X105178121Y-46547407D01*
X105177795Y-46921283D01*
X104911888Y-46921283D01*
X104916066Y-46911222D01*
X104916392Y-46537346D01*
X104773617Y-46191805D01*
X104509478Y-45927205D01*
X104164187Y-45783827D01*
X103790311Y-45783501D01*
X103444770Y-45926276D01*
X103180170Y-46190415D01*
X103036792Y-46535706D01*
X103036466Y-46909582D01*
X63478859Y-46909582D01*
X63478559Y-45728318D01*
X81838637Y-45728318D01*
X81981412Y-46073859D01*
X82245551Y-46338459D01*
X82590842Y-46481837D01*
X82964718Y-46482163D01*
X83310259Y-46339388D01*
X83574859Y-46075249D01*
X83613447Y-45982318D01*
X87655237Y-45982318D01*
X87798012Y-46327859D01*
X88062151Y-46592459D01*
X88407442Y-46735837D01*
X88781318Y-46736163D01*
X89126859Y-46593388D01*
X89391459Y-46329249D01*
X89534837Y-45983958D01*
X89535163Y-45610082D01*
X89392388Y-45264541D01*
X89128249Y-44999941D01*
X88782958Y-44856563D01*
X88409082Y-44856237D01*
X88063541Y-44999012D01*
X87798941Y-45263151D01*
X87655563Y-45608442D01*
X87655237Y-45982318D01*
X83613447Y-45982318D01*
X83718237Y-45729958D01*
X83718563Y-45356082D01*
X83575788Y-45010541D01*
X83311649Y-44745941D01*
X82966358Y-44602563D01*
X82592482Y-44602237D01*
X82246941Y-44745012D01*
X81982341Y-45009151D01*
X81838963Y-45354442D01*
X81838637Y-45728318D01*
X63478559Y-45728318D01*
X63478007Y-43551538D01*
X95882297Y-43551538D01*
X96025072Y-43897079D01*
X96289211Y-44161679D01*
X96634502Y-44305057D01*
X97008378Y-44305383D01*
X97353919Y-44162608D01*
X97618519Y-43898469D01*
X97761897Y-43553178D01*
X97762223Y-43179302D01*
X97619448Y-42833761D01*
X97355309Y-42569161D01*
X97010018Y-42425783D01*
X96636142Y-42425457D01*
X96290601Y-42568232D01*
X96026001Y-42832371D01*
X95882623Y-43177662D01*
X95882297Y-43551538D01*
X63478007Y-43551538D01*
X63477633Y-42078409D01*
X72488834Y-42078409D01*
X72631609Y-42423950D01*
X72895748Y-42688550D01*
X73241039Y-42831928D01*
X73614915Y-42832254D01*
X73960456Y-42689479D01*
X74225056Y-42425340D01*
X74368434Y-42080049D01*
X74368760Y-41706173D01*
X74225985Y-41360632D01*
X73961846Y-41096032D01*
X73616555Y-40952654D01*
X73242679Y-40952328D01*
X72897138Y-41095103D01*
X72632538Y-41359242D01*
X72489160Y-41704533D01*
X72488834Y-42078409D01*
X63477633Y-42078409D01*
X63477235Y-40508428D01*
X76955307Y-40508428D01*
X77098082Y-40853969D01*
X77362221Y-41118569D01*
X77707512Y-41261947D01*
X78081388Y-41262273D01*
X78426929Y-41119498D01*
X78691529Y-40855359D01*
X78834907Y-40510068D01*
X78835233Y-40136192D01*
X78692458Y-39790651D01*
X78428319Y-39526051D01*
X78200997Y-39431658D01*
X80573717Y-39431658D01*
X80716492Y-39777199D01*
X80980631Y-40041799D01*
X81325922Y-40185177D01*
X81410912Y-40185251D01*
X81448012Y-40275039D01*
X81712151Y-40539639D01*
X82057442Y-40683017D01*
X82431318Y-40683343D01*
X82776859Y-40540568D01*
X83041459Y-40276429D01*
X83080324Y-40182831D01*
X83231418Y-40182963D01*
X83576959Y-40040188D01*
X83841559Y-39776049D01*
X83984937Y-39430758D01*
X83985209Y-39118804D01*
X92468537Y-39118804D01*
X92611312Y-39464345D01*
X92875451Y-39728945D01*
X93201029Y-39864138D01*
X93154500Y-39883363D01*
X92904202Y-40133224D01*
X92768574Y-40459851D01*
X92768266Y-40813517D01*
X92811901Y-40919122D01*
X92613562Y-41117116D01*
X92470184Y-41462407D01*
X92469858Y-41836283D01*
X92612633Y-42181824D01*
X92876772Y-42446424D01*
X93222063Y-42589802D01*
X93595939Y-42590128D01*
X93941480Y-42447353D01*
X94206080Y-42183214D01*
X94349458Y-41837923D01*
X94349784Y-41464047D01*
X94273257Y-41278837D01*
X94410638Y-41141696D01*
X94451692Y-41042827D01*
X94757240Y-40916577D01*
X95007538Y-40666716D01*
X95041769Y-40584278D01*
X95047498Y-40584283D01*
X95393039Y-40441508D01*
X95657639Y-40177369D01*
X95801017Y-39832078D01*
X95801343Y-39458202D01*
X95658568Y-39112661D01*
X95652456Y-39106538D01*
X99207157Y-39106538D01*
X99349932Y-39452079D01*
X99614071Y-39716679D01*
X99959362Y-39860057D01*
X100333238Y-39860383D01*
X100678779Y-39717608D01*
X100943379Y-39453469D01*
X101086757Y-39108178D01*
X101087083Y-38734302D01*
X100944308Y-38388761D01*
X100680169Y-38124161D01*
X100334878Y-37980783D01*
X99961002Y-37980457D01*
X99615461Y-38123232D01*
X99350861Y-38387371D01*
X99207483Y-38732662D01*
X99207157Y-39106538D01*
X95652456Y-39106538D01*
X95394429Y-38848061D01*
X95049138Y-38704683D01*
X94675262Y-38704357D01*
X94348382Y-38839421D01*
X94348463Y-38746568D01*
X94205688Y-38401027D01*
X93941549Y-38136427D01*
X93596258Y-37993049D01*
X93222382Y-37992723D01*
X92876841Y-38135498D01*
X92612241Y-38399637D01*
X92468863Y-38744928D01*
X92468537Y-39118804D01*
X83985209Y-39118804D01*
X83985263Y-39056882D01*
X83842488Y-38711341D01*
X83578349Y-38446741D01*
X83233058Y-38303363D01*
X82859182Y-38303037D01*
X82513641Y-38445812D01*
X82278043Y-38680999D01*
X82046729Y-38449281D01*
X81701438Y-38305903D01*
X81327562Y-38305577D01*
X80982021Y-38448352D01*
X80717421Y-38712491D01*
X80574043Y-39057782D01*
X80573717Y-39431658D01*
X78200997Y-39431658D01*
X78083028Y-39382673D01*
X77709152Y-39382347D01*
X77363611Y-39525122D01*
X77099011Y-39789261D01*
X76955633Y-40134552D01*
X76955307Y-40508428D01*
X63477235Y-40508428D01*
X63476217Y-36495418D01*
X71907237Y-36495418D01*
X72050012Y-36840959D01*
X72314151Y-37105559D01*
X72659442Y-37248937D01*
X73033318Y-37249263D01*
X73378859Y-37106488D01*
X73643459Y-36842349D01*
X73786837Y-36497058D01*
X73787163Y-36123182D01*
X73644388Y-35777641D01*
X73429335Y-35562212D01*
X103252474Y-35562212D01*
X103395249Y-35907753D01*
X103659388Y-36172353D01*
X104004679Y-36315731D01*
X104378555Y-36316057D01*
X104724096Y-36173282D01*
X104988696Y-35909143D01*
X105132074Y-35563852D01*
X105132121Y-35509075D01*
X111162468Y-35509075D01*
X111365889Y-36001392D01*
X111742227Y-36378387D01*
X112234188Y-36582667D01*
X112766875Y-36583132D01*
X113259192Y-36379711D01*
X113636187Y-36003373D01*
X113840467Y-35511412D01*
X113840932Y-34978725D01*
X113637511Y-34486408D01*
X113261173Y-34109413D01*
X112769212Y-33905133D01*
X112236525Y-33904668D01*
X111744208Y-34108089D01*
X111367213Y-34484427D01*
X111162933Y-34976388D01*
X111162468Y-35509075D01*
X105132121Y-35509075D01*
X105132400Y-35189976D01*
X104989625Y-34844435D01*
X104725486Y-34579835D01*
X104380195Y-34436457D01*
X104006319Y-34436131D01*
X103660778Y-34578906D01*
X103396178Y-34843045D01*
X103252800Y-35188336D01*
X103252474Y-35562212D01*
X73429335Y-35562212D01*
X73380249Y-35513041D01*
X73034958Y-35369663D01*
X72661082Y-35369337D01*
X72315541Y-35512112D01*
X72050941Y-35776251D01*
X71907563Y-36121542D01*
X71907237Y-36495418D01*
X63476217Y-36495418D01*
X63475421Y-33353399D01*
X83400737Y-33353399D01*
X83543512Y-33698940D01*
X83807651Y-33963540D01*
X84152942Y-34106918D01*
X84526818Y-34107244D01*
X84872359Y-33964469D01*
X84909658Y-33927235D01*
X84994942Y-34133638D01*
X85259081Y-34398238D01*
X85604372Y-34541616D01*
X85978248Y-34541942D01*
X86222390Y-34441064D01*
X86500297Y-34556462D01*
X86874173Y-34556788D01*
X87219714Y-34414013D01*
X87484314Y-34149874D01*
X87543997Y-34006142D01*
X87705248Y-33939514D01*
X87969848Y-33675375D01*
X88010673Y-33577057D01*
X88874446Y-33577057D01*
X89009503Y-33903920D01*
X89259364Y-34154218D01*
X89449849Y-34233315D01*
X89563312Y-34507915D01*
X89827451Y-34772515D01*
X89855858Y-34784311D01*
X89957012Y-35029121D01*
X90221151Y-35293721D01*
X90566442Y-35437099D01*
X90940318Y-35437425D01*
X91285859Y-35294650D01*
X91550459Y-35030511D01*
X91693837Y-34685220D01*
X91694163Y-34311344D01*
X91625811Y-34145918D01*
X107479937Y-34145918D01*
X107622712Y-34491459D01*
X107886851Y-34756059D01*
X108232142Y-34899437D01*
X108606018Y-34899763D01*
X108951559Y-34756988D01*
X109216159Y-34492849D01*
X109359537Y-34147558D01*
X109359863Y-33773682D01*
X109217088Y-33428141D01*
X108952949Y-33163541D01*
X108607658Y-33020163D01*
X108233782Y-33019837D01*
X107888241Y-33162612D01*
X107623641Y-33426751D01*
X107480263Y-33772042D01*
X107479937Y-34145918D01*
X91625811Y-34145918D01*
X91551388Y-33965803D01*
X91287249Y-33701203D01*
X91258842Y-33689407D01*
X91157688Y-33444597D01*
X90893549Y-33179997D01*
X90580466Y-33049993D01*
X90517697Y-32898080D01*
X90267836Y-32647782D01*
X89941209Y-32512154D01*
X89587543Y-32511846D01*
X89260680Y-32646903D01*
X89010382Y-32896764D01*
X88874754Y-33223391D01*
X88874446Y-33577057D01*
X88010673Y-33577057D01*
X88113226Y-33330084D01*
X88113552Y-32956208D01*
X87970777Y-32610667D01*
X87706638Y-32346067D01*
X87361347Y-32202689D01*
X86987471Y-32202363D01*
X86641930Y-32345138D01*
X86377330Y-32609277D01*
X86317647Y-32753009D01*
X86257795Y-32777740D01*
X85979888Y-32662342D01*
X85606012Y-32662016D01*
X85260471Y-32804791D01*
X85223172Y-32842025D01*
X85137888Y-32635622D01*
X84873749Y-32371022D01*
X84528458Y-32227644D01*
X84154582Y-32227318D01*
X83809041Y-32370093D01*
X83544441Y-32634232D01*
X83401063Y-32979523D01*
X83400737Y-33353399D01*
X63475421Y-33353399D01*
X63475016Y-31758318D01*
X78714437Y-31758318D01*
X78857212Y-32103859D01*
X79121351Y-32368459D01*
X79466642Y-32511837D01*
X79840518Y-32512163D01*
X80186059Y-32369388D01*
X80450659Y-32105249D01*
X80594037Y-31759958D01*
X80594363Y-31386082D01*
X80451588Y-31040541D01*
X80187449Y-30775941D01*
X79842158Y-30632563D01*
X79468282Y-30632237D01*
X79122741Y-30775012D01*
X78858141Y-31039151D01*
X78714763Y-31384442D01*
X78714437Y-31758318D01*
X63475016Y-31758318D01*
X63474692Y-30482668D01*
X63512316Y-30520292D01*
X63624663Y-30407945D01*
X63911231Y-30834784D01*
X65078163Y-31318182D01*
X66341257Y-31318218D01*
X67508217Y-30834885D01*
X67508369Y-30834784D01*
X67794938Y-30407944D01*
X65709800Y-28322805D01*
X65695658Y-28336948D01*
X65516052Y-28157342D01*
X65530195Y-28143200D01*
X65889405Y-28143200D01*
X66625635Y-28879430D01*
X66624805Y-28904000D01*
X67056000Y-29335195D01*
X67068700Y-29322495D01*
X67248305Y-29502100D01*
X67235605Y-29514800D01*
X67666800Y-29945995D01*
X67691371Y-29945165D01*
X67974544Y-30228338D01*
X68179934Y-30090444D01*
X106169662Y-30090444D01*
X106456231Y-30517284D01*
X107623163Y-31000682D01*
X108886257Y-31000718D01*
X110053217Y-30517385D01*
X110053369Y-30517284D01*
X110058880Y-30509075D01*
X111162468Y-30509075D01*
X111365889Y-31001392D01*
X111742227Y-31378387D01*
X112234188Y-31582667D01*
X112766875Y-31583132D01*
X113259192Y-31379711D01*
X113636187Y-31003373D01*
X113840467Y-30511412D01*
X113840932Y-29978725D01*
X113637511Y-29486408D01*
X113261173Y-29109413D01*
X112769212Y-28905133D01*
X112236525Y-28904668D01*
X111744208Y-29108089D01*
X111367213Y-29484427D01*
X111162933Y-29976388D01*
X111162468Y-30509075D01*
X110058880Y-30509075D01*
X110339938Y-30090444D01*
X108254800Y-28005305D01*
X106169662Y-30090444D01*
X68179934Y-30090444D01*
X68401384Y-29941769D01*
X68884782Y-28774837D01*
X68884786Y-28608718D01*
X72046937Y-28608718D01*
X72189712Y-28954259D01*
X72453851Y-29218859D01*
X72799142Y-29362237D01*
X73173018Y-29362563D01*
X73518559Y-29219788D01*
X73783159Y-28955649D01*
X73926537Y-28610358D01*
X73926593Y-28545218D01*
X88823637Y-28545218D01*
X88966412Y-28890759D01*
X89230551Y-29155359D01*
X89575842Y-29298737D01*
X89949718Y-29299063D01*
X90295259Y-29156288D01*
X90559859Y-28892149D01*
X90703237Y-28546858D01*
X90703238Y-28545218D01*
X91389037Y-28545218D01*
X91531812Y-28890759D01*
X91795951Y-29155359D01*
X92141242Y-29298737D01*
X92515118Y-29299063D01*
X92860659Y-29156288D01*
X93125259Y-28892149D01*
X93268637Y-28546858D01*
X93268835Y-28319014D01*
X93496331Y-28319014D01*
X93639106Y-28664555D01*
X93903245Y-28929155D01*
X94248536Y-29072533D01*
X94622412Y-29072859D01*
X94967953Y-28930084D01*
X95232553Y-28665945D01*
X95319249Y-28457157D01*
X105079782Y-28457157D01*
X105563115Y-29624117D01*
X105563216Y-29624269D01*
X105990056Y-29910838D01*
X106223260Y-29677634D01*
X106272400Y-29679295D01*
X106703595Y-29248100D01*
X106689453Y-29233958D01*
X106869058Y-29054353D01*
X106883200Y-29068495D01*
X107314395Y-28637300D01*
X107312734Y-28588160D01*
X108075195Y-27825700D01*
X108434405Y-27825700D01*
X109170635Y-28561930D01*
X109169805Y-28586500D01*
X109601000Y-29017695D01*
X109613700Y-29004995D01*
X109793305Y-29184600D01*
X109780605Y-29197300D01*
X110211800Y-29628495D01*
X110236371Y-29627665D01*
X110519544Y-29910838D01*
X110946384Y-29624269D01*
X111429782Y-28457337D01*
X111429818Y-27194243D01*
X110946485Y-26027283D01*
X110946384Y-26027131D01*
X110519544Y-25740562D01*
X110211801Y-26048305D01*
X109780605Y-26479500D01*
X108434405Y-27825700D01*
X108075195Y-27825700D01*
X105990056Y-25740562D01*
X105563216Y-26027131D01*
X105079818Y-27194063D01*
X105079782Y-28457157D01*
X95319249Y-28457157D01*
X95375931Y-28320654D01*
X95376257Y-27946778D01*
X95233482Y-27601237D01*
X94969343Y-27336637D01*
X94624052Y-27193259D01*
X94250176Y-27192933D01*
X93904635Y-27335708D01*
X93640035Y-27599847D01*
X93496657Y-27945138D01*
X93496331Y-28319014D01*
X93268835Y-28319014D01*
X93268963Y-28172982D01*
X93126188Y-27827441D01*
X92862049Y-27562841D01*
X92516758Y-27419463D01*
X92142882Y-27419137D01*
X91797341Y-27561912D01*
X91532741Y-27826051D01*
X91389363Y-28171342D01*
X91389037Y-28545218D01*
X90703238Y-28545218D01*
X90703563Y-28172982D01*
X90560788Y-27827441D01*
X90296649Y-27562841D01*
X89951358Y-27419463D01*
X89577482Y-27419137D01*
X89231941Y-27561912D01*
X88967341Y-27826051D01*
X88823963Y-28171342D01*
X88823637Y-28545218D01*
X73926593Y-28545218D01*
X73926863Y-28236482D01*
X73784088Y-27890941D01*
X73519949Y-27626341D01*
X73174658Y-27482963D01*
X72800782Y-27482637D01*
X72455241Y-27625412D01*
X72190641Y-27889551D01*
X72047263Y-28234842D01*
X72046937Y-28608718D01*
X68884786Y-28608718D01*
X68884818Y-27511743D01*
X68401485Y-26344783D01*
X68401384Y-26344631D01*
X67974544Y-26058062D01*
X67666801Y-26365805D01*
X67235605Y-26797000D01*
X65889405Y-28143200D01*
X65530195Y-28143200D01*
X65516052Y-28129058D01*
X65695658Y-27949453D01*
X65709800Y-27963595D01*
X67487195Y-26186200D01*
X67487195Y-26186199D01*
X67794938Y-25878456D01*
X67508369Y-25451616D01*
X66341437Y-24968218D01*
X65078343Y-24968182D01*
X63911383Y-25451515D01*
X63911231Y-25451616D01*
X63624663Y-25878455D01*
X63512316Y-25766108D01*
X63473506Y-25804918D01*
X63473187Y-24549100D01*
X80940965Y-24549100D01*
X80840046Y-24590799D01*
X80840046Y-24590799D01*
G37*
X80840046Y-24590799D02*
X80575446Y-24854938D01*
X80432068Y-25200229D01*
X80431742Y-25574105D01*
X80574517Y-25919646D01*
X80838656Y-26184246D01*
X81183947Y-26327624D01*
X81557823Y-26327950D01*
X81903364Y-26185175D01*
X82167964Y-25921036D01*
X82311342Y-25575745D01*
X82311668Y-25201869D01*
X82168893Y-24856328D01*
X81904754Y-24591728D01*
X81802094Y-24549100D01*
X83489219Y-24549100D01*
X83389941Y-24590121D01*
X83125341Y-24854260D01*
X82981963Y-25199551D01*
X82981637Y-25573427D01*
X83124412Y-25918968D01*
X83388551Y-26183568D01*
X83733842Y-26326946D01*
X84107718Y-26327272D01*
X84453259Y-26184497D01*
X84500159Y-26137678D01*
X86264516Y-26137678D01*
X86407291Y-26483219D01*
X86671430Y-26747819D01*
X87016721Y-26891197D01*
X87390597Y-26891523D01*
X87736138Y-26748748D01*
X88000738Y-26484609D01*
X88131170Y-26170494D01*
X98581900Y-26170494D01*
X98724675Y-26516035D01*
X98988814Y-26780635D01*
X99334105Y-26924013D01*
X99707981Y-26924339D01*
X100053522Y-26781564D01*
X100318122Y-26517425D01*
X100461500Y-26172134D01*
X100461826Y-25798258D01*
X100319051Y-25452717D01*
X100054912Y-25188117D01*
X99709621Y-25044739D01*
X99335745Y-25044413D01*
X98990204Y-25187188D01*
X98725604Y-25451327D01*
X98582226Y-25796618D01*
X98581900Y-26170494D01*
X88131170Y-26170494D01*
X88144116Y-26139318D01*
X88144442Y-25765442D01*
X88001667Y-25419901D01*
X87737528Y-25155301D01*
X87392237Y-25011923D01*
X87018361Y-25011597D01*
X86672820Y-25154372D01*
X86408220Y-25418511D01*
X86264842Y-25763802D01*
X86264516Y-26137678D01*
X84500159Y-26137678D01*
X84717859Y-25920358D01*
X84861237Y-25575067D01*
X84861563Y-25201191D01*
X84718788Y-24855650D01*
X84454649Y-24591050D01*
X84353622Y-24549100D01*
X100804478Y-24549100D01*
X100587841Y-24765360D01*
X100444463Y-25110651D01*
X100444137Y-25484527D01*
X100586912Y-25830068D01*
X100851051Y-26094668D01*
X101196342Y-26238046D01*
X101570218Y-26238372D01*
X101915759Y-26095597D01*
X102180359Y-25831458D01*
X102292681Y-25560956D01*
X106169662Y-25560956D01*
X106407017Y-25798311D01*
X106401205Y-25970300D01*
X106832400Y-26401495D01*
X106846543Y-26387353D01*
X107026148Y-26566958D01*
X107012005Y-26581100D01*
X107443200Y-27012295D01*
X107615188Y-27006483D01*
X108254800Y-27646095D01*
X110032195Y-25868700D01*
X110032195Y-25868699D01*
X110339938Y-25560956D01*
X110053369Y-25134116D01*
X108886437Y-24650718D01*
X107623343Y-24650682D01*
X106456383Y-25134015D01*
X106456231Y-25134116D01*
X106169662Y-25560956D01*
X102292681Y-25560956D01*
X102323737Y-25486167D01*
X102324063Y-25112291D01*
X102181288Y-24766750D01*
X101964017Y-24549100D01*
X115900495Y-24549100D01*
X115908250Y-27875211D01*
X115508370Y-27709167D01*
X114897709Y-27708635D01*
X114333329Y-27941832D01*
X113901149Y-28373257D01*
X113666967Y-28937230D01*
X113666435Y-29547891D01*
X113899632Y-30112271D01*
X114331057Y-30544451D01*
X114895030Y-30778633D01*
X115505691Y-30779165D01*
X115914627Y-30610196D01*
X115924587Y-34881995D01*
X115508370Y-34709167D01*
X114897709Y-34708635D01*
X114333329Y-34941832D01*
X113901149Y-35373257D01*
X113666967Y-35937230D01*
X113666435Y-36547891D01*
X113899632Y-37112271D01*
X114331057Y-37544451D01*
X114895030Y-37778633D01*
X115505691Y-37779165D01*
X115930933Y-37603459D01*
X115958148Y-49275943D01*
X115859188Y-49036441D01*
X115595049Y-48771841D01*
X115249758Y-48628463D01*
X114875882Y-48628137D01*
X114530341Y-48770912D01*
X114265741Y-49035051D01*
X114122363Y-49380342D01*
X114122037Y-49754218D01*
X114264812Y-50099759D01*
X114528951Y-50364359D01*
X114874242Y-50507737D01*
X115248118Y-50508063D01*
X115593659Y-50365288D01*
X115858259Y-50101149D01*
X115959504Y-49857325D01*
X115978919Y-58184386D01*
X115891410Y-57972597D01*
X115498770Y-57579271D01*
X114985500Y-57366143D01*
X114429739Y-57365658D01*
X113916097Y-57577890D01*
X113522771Y-57970530D01*
X113436451Y-58178412D01*
X113351410Y-57972597D01*
X112958770Y-57579271D01*
X112445500Y-57366143D01*
X111889739Y-57365658D01*
X111376097Y-57577890D01*
X110982771Y-57970530D01*
X110769643Y-58483800D01*
X110769158Y-59039561D01*
X110981390Y-59553203D01*
X111374030Y-59946529D01*
X111581912Y-60032849D01*
X111376097Y-60117890D01*
X110982771Y-60510530D01*
X110769643Y-61023800D01*
X110769158Y-61579561D01*
X110935657Y-61982520D01*
X110646423Y-61982268D01*
X110300882Y-62125043D01*
X110036282Y-62389182D01*
X109892904Y-62734473D01*
X109892578Y-63108349D01*
X110035353Y-63453890D01*
X110299492Y-63718490D01*
X110644783Y-63861868D01*
X110769383Y-63861977D01*
X110769158Y-64119561D01*
X110815479Y-64231667D01*
X110508077Y-64358683D01*
X110243477Y-64622822D01*
X110100099Y-64968113D01*
X110099773Y-65341989D01*
X110242548Y-65687530D01*
X110506687Y-65952130D01*
X110784688Y-66067567D01*
X110769643Y-66103800D01*
X110769158Y-66659561D01*
X110819868Y-66782290D01*
X110557059Y-66890881D01*
X110292459Y-67155020D01*
X110149081Y-67500311D01*
X110148755Y-67874187D01*
X110291530Y-68219728D01*
X110555669Y-68484328D01*
X110900960Y-68627706D01*
X111201456Y-68627968D01*
X111122808Y-68706616D01*
X111235155Y-68818963D01*
X110808316Y-69105531D01*
X110413540Y-70058528D01*
X110413540Y-68821300D01*
X110369262Y-68585983D01*
X110230190Y-68369859D01*
X110017990Y-68224869D01*
X109766100Y-68173860D01*
X108242100Y-68173860D01*
X108006783Y-68218138D01*
X107790659Y-68357210D01*
X107645669Y-68569410D01*
X107594660Y-68821300D01*
X107594660Y-68825816D01*
X107444313Y-68782692D01*
X106643705Y-69583300D01*
X106657848Y-69597443D01*
X106478243Y-69777048D01*
X106464100Y-69762905D01*
X105663492Y-70563513D01*
X105732957Y-70805697D01*
X105873418Y-70855809D01*
X105673797Y-70938290D01*
X105280471Y-71330930D01*
X105194151Y-71538812D01*
X105109110Y-71332997D01*
X104716470Y-70939671D01*
X104524373Y-70859905D01*
X104655243Y-70805697D01*
X104724708Y-70563513D01*
X103924100Y-69762905D01*
X103123492Y-70563513D01*
X103192957Y-70805697D01*
X103333418Y-70855809D01*
X103133797Y-70938290D01*
X102740471Y-71330930D01*
X102654151Y-71538812D01*
X102569110Y-71332997D01*
X102176470Y-70939671D01*
X101968588Y-70853351D01*
X102174403Y-70768310D01*
X102567729Y-70375670D01*
X102647495Y-70183573D01*
X102701703Y-70314443D01*
X102943887Y-70383908D01*
X103744495Y-69583300D01*
X104103705Y-69583300D01*
X104904313Y-70383908D01*
X105146497Y-70314443D01*
X105190553Y-70190956D01*
X105241703Y-70314443D01*
X105483887Y-70383908D01*
X106284495Y-69583300D01*
X105483887Y-68782692D01*
X105241703Y-68852157D01*
X105197647Y-68975644D01*
X105146497Y-68852157D01*
X104904313Y-68782692D01*
X104103705Y-69583300D01*
X103744495Y-69583300D01*
X102943887Y-68782692D01*
X102701703Y-68852157D01*
X102651591Y-68992618D01*
X102569110Y-68792997D01*
X102379532Y-68603087D01*
X103123492Y-68603087D01*
X103924100Y-69403695D01*
X104724708Y-68603087D01*
X104655243Y-68360903D01*
X104131798Y-68174156D01*
X103576732Y-68201938D01*
X103192957Y-68360903D01*
X103123492Y-68603087D01*
X102379532Y-68603087D01*
X102176470Y-68399671D01*
X101663200Y-68186543D01*
X101107439Y-68186058D01*
X100593797Y-68398290D01*
X100200471Y-68790930D01*
X100114151Y-68998812D01*
X100029110Y-68792997D01*
X99636470Y-68399671D01*
X99123200Y-68186543D01*
X98567439Y-68186058D01*
X98053797Y-68398290D01*
X97660471Y-68790930D01*
X97447343Y-69304200D01*
X97446871Y-69845269D01*
X97413631Y-69831467D01*
X97039755Y-69831141D01*
X96694214Y-69973916D01*
X96429614Y-70238055D01*
X96286236Y-70583346D01*
X96285910Y-70957222D01*
X96428685Y-71302763D01*
X96692824Y-71567363D01*
X97038115Y-71710741D01*
X97411991Y-71711067D01*
X97521395Y-71665862D01*
X97447343Y-71844200D01*
X97446858Y-72399961D01*
X97659090Y-72913603D01*
X97911346Y-73166300D01*
X95100413Y-73166300D01*
X95387959Y-73047488D01*
X95652559Y-72783349D01*
X95795937Y-72438058D01*
X95796263Y-72064182D01*
X95653488Y-71718641D01*
X95389349Y-71454041D01*
X95044058Y-71310663D01*
X94670182Y-71310337D01*
X94324641Y-71453112D01*
X94060041Y-71717251D01*
X93916663Y-72062542D01*
X93916337Y-72436418D01*
X94059112Y-72781959D01*
X94323251Y-73046559D01*
X94611618Y-73166300D01*
X67779593Y-73166300D01*
X67794938Y-73143444D01*
X65709800Y-71058305D01*
X65695658Y-71072448D01*
X65516052Y-70892842D01*
X65530195Y-70878700D01*
X65889405Y-70878700D01*
X66625635Y-71614930D01*
X66624805Y-71639500D01*
X67056000Y-72070695D01*
X67068700Y-72057995D01*
X67248305Y-72237600D01*
X67235605Y-72250300D01*
X67666800Y-72681495D01*
X67691371Y-72680665D01*
X67974544Y-72963838D01*
X68401384Y-72677269D01*
X68884782Y-71510337D01*
X68884818Y-70247243D01*
X68401485Y-69080283D01*
X68401384Y-69080131D01*
X67974544Y-68793562D01*
X67666801Y-69101305D01*
X67235605Y-69532500D01*
X65889405Y-70878700D01*
X65530195Y-70878700D01*
X65516052Y-70864558D01*
X65695658Y-70684953D01*
X65709800Y-70699095D01*
X67487195Y-68921700D01*
X67487195Y-68921699D01*
X67794938Y-68613956D01*
X67570057Y-68278998D01*
X95990814Y-68278998D01*
X96133589Y-68624539D01*
X96397728Y-68889139D01*
X96743019Y-69032517D01*
X97116895Y-69032843D01*
X97462436Y-68890068D01*
X97727036Y-68625929D01*
X97870414Y-68280638D01*
X97870648Y-68011421D01*
X105472298Y-68011421D01*
X105615073Y-68356962D01*
X105707524Y-68449574D01*
X105663492Y-68603087D01*
X106464100Y-69403695D01*
X107264708Y-68603087D01*
X107197630Y-68369223D01*
X107208520Y-68358352D01*
X107351898Y-68013061D01*
X107352224Y-67639185D01*
X107209449Y-67293644D01*
X106945310Y-67029044D01*
X106600019Y-66885666D01*
X106226143Y-66885340D01*
X105880602Y-67028115D01*
X105616002Y-67292254D01*
X105472624Y-67637545D01*
X105472298Y-68011421D01*
X97870648Y-68011421D01*
X97870740Y-67906762D01*
X97727965Y-67561221D01*
X97463826Y-67296621D01*
X97118535Y-67153243D01*
X96744659Y-67152917D01*
X96399118Y-67295692D01*
X96134518Y-67559831D01*
X95991140Y-67905122D01*
X95990814Y-68278998D01*
X67570057Y-68278998D01*
X67508369Y-68187116D01*
X66341437Y-67703718D01*
X65078343Y-67703682D01*
X63911383Y-68187015D01*
X63911231Y-68187116D01*
X63624663Y-68613955D01*
X63512316Y-68501608D01*
X63484338Y-68529586D01*
X63483272Y-64321118D01*
X94729137Y-64321118D01*
X94871912Y-64666659D01*
X95136051Y-64931259D01*
X95481342Y-65074637D01*
X95855218Y-65074963D01*
X96200759Y-64932188D01*
X96465359Y-64668049D01*
X96608737Y-64322758D01*
X96609063Y-63948882D01*
X96589700Y-63902018D01*
X96926237Y-63902018D01*
X97069012Y-64247559D01*
X97333151Y-64512159D01*
X97678442Y-64655537D01*
X98052318Y-64655863D01*
X98397859Y-64513088D01*
X98662459Y-64248949D01*
X98805837Y-63903658D01*
X98805998Y-63719505D01*
X99071523Y-63719736D01*
X99189912Y-64006259D01*
X99454051Y-64270859D01*
X99799342Y-64414237D01*
X100173218Y-64414563D01*
X100518759Y-64271788D01*
X100588434Y-64202235D01*
X100592678Y-64212507D01*
X100856817Y-64477107D01*
X101202108Y-64620485D01*
X101575984Y-64620811D01*
X101921525Y-64478036D01*
X102186125Y-64213897D01*
X102329503Y-63868606D01*
X102329829Y-63494730D01*
X102187054Y-63149189D01*
X101922915Y-62884589D01*
X101577624Y-62741211D01*
X101203748Y-62740885D01*
X100858207Y-62883660D01*
X100788532Y-62953213D01*
X100784288Y-62942941D01*
X100639863Y-62798264D01*
X100704218Y-62643280D01*
X100704420Y-62410487D01*
X104160844Y-62410487D01*
X104303619Y-62756028D01*
X104567758Y-63020628D01*
X104913049Y-63164006D01*
X105286925Y-63164332D01*
X105632466Y-63021557D01*
X105897066Y-62757418D01*
X106040444Y-62412127D01*
X106040770Y-62038251D01*
X106002935Y-61946685D01*
X106073142Y-61975837D01*
X106447018Y-61976163D01*
X106792559Y-61833388D01*
X107057159Y-61569249D01*
X107200537Y-61223958D01*
X107200863Y-60850082D01*
X107093708Y-60590748D01*
X107195123Y-60346515D01*
X107195449Y-59972639D01*
X107052674Y-59627098D01*
X106788535Y-59362498D01*
X106443244Y-59219120D01*
X106201503Y-59218909D01*
X106260737Y-59076258D01*
X106261063Y-58702382D01*
X106118288Y-58356841D01*
X105854149Y-58092241D01*
X105508858Y-57948863D01*
X105134982Y-57948537D01*
X104789441Y-58091312D01*
X104524841Y-58355451D01*
X104381463Y-58700742D01*
X104381137Y-59074618D01*
X104523912Y-59420159D01*
X104788051Y-59684759D01*
X105133342Y-59828137D01*
X105375083Y-59828348D01*
X105315849Y-59970999D01*
X105315523Y-60344875D01*
X105422678Y-60604209D01*
X105321263Y-60848442D01*
X105320937Y-61222318D01*
X105358772Y-61313884D01*
X105288565Y-61284732D01*
X104914689Y-61284406D01*
X104569148Y-61427181D01*
X104304548Y-61691320D01*
X104161170Y-62036611D01*
X104160844Y-62410487D01*
X100704420Y-62410487D01*
X100704544Y-62269404D01*
X100561769Y-61923863D01*
X100297630Y-61659263D01*
X99952339Y-61515885D01*
X99578463Y-61515559D01*
X99232922Y-61658334D01*
X99050822Y-61840117D01*
X98735885Y-61839842D01*
X98390344Y-61982617D01*
X98125744Y-62246756D01*
X97982366Y-62592047D01*
X97982205Y-62776200D01*
X97680082Y-62775937D01*
X97334541Y-62918712D01*
X97069941Y-63182851D01*
X96926563Y-63528142D01*
X96926237Y-63902018D01*
X96589700Y-63902018D01*
X96466288Y-63603341D01*
X96202149Y-63338741D01*
X95856858Y-63195363D01*
X95482982Y-63195037D01*
X95137441Y-63337812D01*
X94872841Y-63601951D01*
X94729463Y-63947242D01*
X94729137Y-64321118D01*
X63483272Y-64321118D01*
X63482474Y-61174323D01*
X71920267Y-61174323D01*
X72055324Y-61501186D01*
X72305185Y-61751484D01*
X72339095Y-61765565D01*
X72339046Y-61821857D01*
X72402726Y-61975975D01*
X72339354Y-62128591D01*
X72339046Y-62482257D01*
X72474103Y-62809120D01*
X72723964Y-63059418D01*
X73050591Y-63195046D01*
X73404257Y-63195354D01*
X73470560Y-63167958D01*
X81912297Y-63167958D01*
X82055072Y-63513499D01*
X82319211Y-63778099D01*
X82664502Y-63921477D01*
X83038378Y-63921803D01*
X83383919Y-63779028D01*
X83648519Y-63514889D01*
X83791897Y-63169598D01*
X83792223Y-62795722D01*
X83677354Y-62517718D01*
X92176437Y-62517718D01*
X92319212Y-62863259D01*
X92583351Y-63127859D01*
X92928642Y-63271237D01*
X93302518Y-63271563D01*
X93648059Y-63128788D01*
X93912659Y-62864649D01*
X94056037Y-62519358D01*
X94056363Y-62145482D01*
X93913588Y-61799941D01*
X93649449Y-61535341D01*
X93304158Y-61391963D01*
X92930282Y-61391637D01*
X92584741Y-61534412D01*
X92320141Y-61798551D01*
X92176763Y-62143842D01*
X92176437Y-62517718D01*
X83677354Y-62517718D01*
X83649448Y-62450181D01*
X83385309Y-62185581D01*
X83040018Y-62042203D01*
X82666142Y-62041877D01*
X82320601Y-62184652D01*
X82056001Y-62448791D01*
X81912623Y-62794082D01*
X81912297Y-63167958D01*
X73470560Y-63167958D01*
X73731120Y-63060297D01*
X73981418Y-62810436D01*
X74117046Y-62483809D01*
X74117354Y-62130143D01*
X74053674Y-61976025D01*
X74117046Y-61823409D01*
X74117354Y-61469743D01*
X73982297Y-61142880D01*
X73732436Y-60892582D01*
X73698526Y-60878501D01*
X73698575Y-60822209D01*
X73617263Y-60625418D01*
X93636937Y-60625418D01*
X93779712Y-60970959D01*
X94043851Y-61235559D01*
X94389142Y-61378937D01*
X94763018Y-61379263D01*
X95108559Y-61236488D01*
X95373159Y-60972349D01*
X95516537Y-60627058D01*
X95516863Y-60253182D01*
X95429282Y-60041218D01*
X96646837Y-60041218D01*
X96789612Y-60386759D01*
X97053751Y-60651359D01*
X97399042Y-60794737D01*
X97597376Y-60794910D01*
X97718278Y-61087514D01*
X97982417Y-61352114D01*
X98327708Y-61495492D01*
X98701584Y-61495818D01*
X99047125Y-61353043D01*
X99311725Y-61088904D01*
X99455103Y-60743613D01*
X99455429Y-60369737D01*
X99312654Y-60024196D01*
X99048515Y-59759596D01*
X98703224Y-59616218D01*
X98504890Y-59616045D01*
X98383988Y-59323441D01*
X98119849Y-59058841D01*
X97774558Y-58915463D01*
X97400682Y-58915137D01*
X97055141Y-59057912D01*
X96790541Y-59322051D01*
X96647163Y-59667342D01*
X96646837Y-60041218D01*
X95429282Y-60041218D01*
X95374088Y-59907641D01*
X95109949Y-59643041D01*
X94764658Y-59499663D01*
X94390782Y-59499337D01*
X94045241Y-59642112D01*
X93780641Y-59906251D01*
X93637263Y-60251542D01*
X93636937Y-60625418D01*
X73617263Y-60625418D01*
X73563518Y-60495346D01*
X73313657Y-60245048D01*
X72987030Y-60109420D01*
X72633364Y-60109112D01*
X72306501Y-60244169D01*
X72056203Y-60494030D01*
X71920575Y-60820657D01*
X71920267Y-61174323D01*
X63482474Y-61174323D01*
X63481641Y-57884591D01*
X97512596Y-57884591D01*
X97655371Y-58230132D01*
X97919510Y-58494732D01*
X98264801Y-58638110D01*
X98638677Y-58638436D01*
X98984218Y-58495661D01*
X99248818Y-58231522D01*
X99392196Y-57886231D01*
X99392522Y-57512355D01*
X99249747Y-57166814D01*
X98985608Y-56902214D01*
X98640317Y-56758836D01*
X98266441Y-56758510D01*
X97920900Y-56901285D01*
X97656300Y-57165424D01*
X97512922Y-57510715D01*
X97512596Y-57884591D01*
X63481641Y-57884591D01*
X63481029Y-55469218D01*
X98577237Y-55469218D01*
X98720012Y-55814759D01*
X98984151Y-56079359D01*
X99329442Y-56222737D01*
X99703318Y-56223063D01*
X100048859Y-56080288D01*
X100313459Y-55816149D01*
X100456837Y-55470858D01*
X100457163Y-55096982D01*
X100436758Y-55047598D01*
X100686805Y-55047598D01*
X100829580Y-55393139D01*
X101072573Y-55636557D01*
X101072514Y-55704782D01*
X101215289Y-56050323D01*
X101479428Y-56314923D01*
X101824719Y-56458301D01*
X102198595Y-56458627D01*
X102471469Y-56345877D01*
X102642373Y-56416843D01*
X103016249Y-56417169D01*
X103117098Y-56375499D01*
X103117064Y-56414945D01*
X103259839Y-56760486D01*
X103523978Y-57025086D01*
X103593905Y-57054123D01*
X103593737Y-57247218D01*
X103736512Y-57592759D01*
X104000651Y-57857359D01*
X104345942Y-58000737D01*
X104719818Y-58001063D01*
X105065359Y-57858288D01*
X105329959Y-57594149D01*
X105473337Y-57248858D01*
X105473567Y-56985034D01*
X105507218Y-56985063D01*
X105852759Y-56842288D01*
X106117359Y-56578149D01*
X106260737Y-56232858D01*
X106260838Y-56116918D01*
X113728337Y-56116918D01*
X113871112Y-56462459D01*
X114135251Y-56727059D01*
X114480542Y-56870437D01*
X114854418Y-56870763D01*
X115199959Y-56727988D01*
X115464559Y-56463849D01*
X115607937Y-56118558D01*
X115608263Y-55744682D01*
X115465488Y-55399141D01*
X115201349Y-55134541D01*
X114856058Y-54991163D01*
X114482182Y-54990837D01*
X114136641Y-55133612D01*
X113872041Y-55397751D01*
X113728663Y-55743042D01*
X113728337Y-56116918D01*
X106260838Y-56116918D01*
X106261063Y-55858982D01*
X106118288Y-55513441D01*
X105992184Y-55387117D01*
X105992378Y-55164418D01*
X106590946Y-55164418D01*
X106733721Y-55509959D01*
X106997860Y-55774559D01*
X107343151Y-55917937D01*
X107717027Y-55918263D01*
X108062568Y-55775488D01*
X108327168Y-55511349D01*
X108470546Y-55166058D01*
X108470826Y-54844638D01*
X108511929Y-54827655D01*
X108776529Y-54563516D01*
X108919907Y-54218225D01*
X108920233Y-53844349D01*
X108777458Y-53498808D01*
X108513319Y-53234208D01*
X108168028Y-53090830D01*
X107794152Y-53090504D01*
X107448611Y-53233279D01*
X107184011Y-53497418D01*
X107040633Y-53842709D01*
X107040353Y-54164129D01*
X106999250Y-54181112D01*
X106734650Y-54445251D01*
X106591272Y-54790542D01*
X106590946Y-55164418D01*
X105992378Y-55164418D01*
X105992480Y-55048065D01*
X105849705Y-54702524D01*
X105585566Y-54437924D01*
X105240275Y-54294546D01*
X104866399Y-54294220D01*
X104520858Y-54436995D01*
X104394763Y-54562870D01*
X104268350Y-54256927D01*
X104004211Y-53992327D01*
X103658920Y-53848949D01*
X103285044Y-53848623D01*
X102939503Y-53991398D01*
X102674903Y-54255537D01*
X102540099Y-54580179D01*
X102529254Y-54584661D01*
X102423956Y-54329821D01*
X102159817Y-54065221D01*
X101814526Y-53921843D01*
X101440650Y-53921517D01*
X101095109Y-54064292D01*
X100830509Y-54328431D01*
X100687131Y-54673722D01*
X100686805Y-55047598D01*
X100436758Y-55047598D01*
X100314388Y-54751441D01*
X100192173Y-54629013D01*
X100376959Y-54444549D01*
X100520337Y-54099258D01*
X100520663Y-53725382D01*
X100377888Y-53379841D01*
X100113749Y-53115241D01*
X99768458Y-52971863D01*
X99394582Y-52971537D01*
X99049041Y-53114312D01*
X98784441Y-53378451D01*
X98641063Y-53723742D01*
X98640737Y-54097618D01*
X98783512Y-54443159D01*
X98905727Y-54565587D01*
X98720941Y-54750051D01*
X98577563Y-55095342D01*
X98577237Y-55469218D01*
X63481029Y-55469218D01*
X63480740Y-54331850D01*
X94867278Y-54331850D01*
X95010053Y-54677391D01*
X95274192Y-54941991D01*
X95619483Y-55085369D01*
X95993359Y-55085695D01*
X96338900Y-54942920D01*
X96603500Y-54678781D01*
X96746878Y-54333490D01*
X96747204Y-53959614D01*
X96604429Y-53614073D01*
X96340290Y-53349473D01*
X95994999Y-53206095D01*
X95621123Y-53205769D01*
X95275582Y-53348544D01*
X95010982Y-53612683D01*
X94867604Y-53957974D01*
X94867278Y-54331850D01*
X63480740Y-54331850D01*
X63480337Y-52739115D01*
X96735660Y-52739115D01*
X96878435Y-53084656D01*
X97142574Y-53349256D01*
X97487865Y-53492634D01*
X97861741Y-53492960D01*
X98207282Y-53350185D01*
X98471882Y-53086046D01*
X98615260Y-52740755D01*
X98615586Y-52366879D01*
X98557317Y-52225857D01*
X103014941Y-52225857D01*
X103157716Y-52571398D01*
X103421855Y-52835998D01*
X103767146Y-52979376D01*
X104141022Y-52979702D01*
X104486563Y-52836927D01*
X104751163Y-52572788D01*
X104793006Y-52472018D01*
X105409837Y-52472018D01*
X105552612Y-52817559D01*
X105816751Y-53082159D01*
X106162042Y-53225537D01*
X106535918Y-53225863D01*
X106881459Y-53083088D01*
X107146059Y-52818949D01*
X107289437Y-52473658D01*
X107289763Y-52099782D01*
X107146988Y-51754241D01*
X106882849Y-51489641D01*
X106537558Y-51346263D01*
X106163682Y-51345937D01*
X105818141Y-51488712D01*
X105553541Y-51752851D01*
X105410163Y-52098142D01*
X105409837Y-52472018D01*
X104793006Y-52472018D01*
X104894541Y-52227497D01*
X104894867Y-51853621D01*
X104752092Y-51508080D01*
X104487953Y-51243480D01*
X104142662Y-51100102D01*
X103768786Y-51099776D01*
X103423245Y-51242551D01*
X103158645Y-51506690D01*
X103015267Y-51851981D01*
X103014941Y-52225857D01*
X98557317Y-52225857D01*
X98472811Y-52021338D01*
X98208672Y-51756738D01*
X97863381Y-51613360D01*
X97489505Y-51613034D01*
X97143964Y-51755809D01*
X96879364Y-52019948D01*
X96735986Y-52365239D01*
X96735660Y-52739115D01*
X63480337Y-52739115D01*
X63480013Y-51461959D01*
X99251617Y-51461959D01*
X99394392Y-51807500D01*
X99658531Y-52072100D01*
X100003822Y-52215478D01*
X100377698Y-52215804D01*
X100723239Y-52073029D01*
X100987839Y-51808890D01*
X101131217Y-51463599D01*
X101131543Y-51089723D01*
X101093982Y-50998818D01*
X109169037Y-50998818D01*
X109311812Y-51344359D01*
X109575951Y-51608959D01*
X109921242Y-51752337D01*
X110295118Y-51752663D01*
X110640659Y-51609888D01*
X110905259Y-51345749D01*
X111048637Y-51000458D01*
X111048963Y-50626582D01*
X110906188Y-50281041D01*
X110642049Y-50016441D01*
X110296758Y-49873063D01*
X109922882Y-49872737D01*
X109577341Y-50015512D01*
X109312741Y-50279651D01*
X109169363Y-50624942D01*
X109169037Y-50998818D01*
X101093982Y-50998818D01*
X100988768Y-50744182D01*
X100724629Y-50479582D01*
X100379338Y-50336204D01*
X100005462Y-50335878D01*
X99659921Y-50478653D01*
X99395321Y-50742792D01*
X99251943Y-51088083D01*
X99251617Y-51461959D01*
X63480013Y-51461959D01*
X63479599Y-49830418D01*
X87706037Y-49830418D01*
X87848812Y-50175959D01*
X88112951Y-50440559D01*
X88458242Y-50583937D01*
X88832118Y-50584263D01*
X89177659Y-50441488D01*
X89442259Y-50177349D01*
X89585637Y-49832058D01*
X89585963Y-49458182D01*
X89443188Y-49112641D01*
X89179049Y-48848041D01*
X88833758Y-48704663D01*
X88459882Y-48704337D01*
X88114341Y-48847112D01*
X87849741Y-49111251D01*
X87706363Y-49456542D01*
X87706037Y-49830418D01*
X63479599Y-49830418D01*
X63478859Y-46909582D01*
X103036466Y-46909582D01*
X103179241Y-47255123D01*
X103443380Y-47519723D01*
X103788671Y-47663101D01*
X104162547Y-47663427D01*
X104508088Y-47520652D01*
X104772688Y-47256513D01*
X104911888Y-46921283D01*
X105177795Y-46921283D01*
X105320570Y-47266824D01*
X105584709Y-47531424D01*
X105930000Y-47674802D01*
X106303876Y-47675128D01*
X106374327Y-47646018D01*
X108191137Y-47646018D01*
X108333912Y-47991559D01*
X108598051Y-48256159D01*
X108943342Y-48399537D01*
X109317218Y-48399863D01*
X109662759Y-48257088D01*
X109927359Y-47992949D01*
X110070737Y-47647658D01*
X110071063Y-47273782D01*
X109928288Y-46928241D01*
X109664149Y-46663641D01*
X109349324Y-46532913D01*
X109406118Y-46532963D01*
X109751659Y-46390188D01*
X110016259Y-46126049D01*
X110081215Y-45969618D01*
X110820037Y-45969618D01*
X110962812Y-46315159D01*
X111226951Y-46579759D01*
X111572242Y-46723137D01*
X111946118Y-46723463D01*
X112291659Y-46580688D01*
X112556259Y-46316549D01*
X112699637Y-45971258D01*
X112699963Y-45597382D01*
X112557188Y-45251841D01*
X112293049Y-44987241D01*
X111947758Y-44843863D01*
X111573882Y-44843537D01*
X111228341Y-44986312D01*
X110963741Y-45250451D01*
X110820363Y-45595742D01*
X110820037Y-45969618D01*
X110081215Y-45969618D01*
X110159637Y-45780758D01*
X110159963Y-45406882D01*
X110017188Y-45061341D01*
X109753049Y-44796741D01*
X109407758Y-44653363D01*
X109033882Y-44653037D01*
X108688341Y-44795812D01*
X108423741Y-45059951D01*
X108280363Y-45405242D01*
X108280037Y-45779118D01*
X108422812Y-46124659D01*
X108686951Y-46389259D01*
X109001776Y-46519987D01*
X108944982Y-46519937D01*
X108599441Y-46662712D01*
X108334841Y-46926851D01*
X108191463Y-47272142D01*
X108191137Y-47646018D01*
X106374327Y-47646018D01*
X106649417Y-47532353D01*
X106914017Y-47268214D01*
X107057395Y-46922923D01*
X107057721Y-46549047D01*
X106914946Y-46203506D01*
X106650807Y-45938906D01*
X106305516Y-45795528D01*
X105931640Y-45795202D01*
X105586099Y-45937977D01*
X105321499Y-46202116D01*
X105178121Y-46547407D01*
X105177795Y-46921283D01*
X104911888Y-46921283D01*
X104916066Y-46911222D01*
X104916392Y-46537346D01*
X104773617Y-46191805D01*
X104509478Y-45927205D01*
X104164187Y-45783827D01*
X103790311Y-45783501D01*
X103444770Y-45926276D01*
X103180170Y-46190415D01*
X103036792Y-46535706D01*
X103036466Y-46909582D01*
X63478859Y-46909582D01*
X63478559Y-45728318D01*
X81838637Y-45728318D01*
X81981412Y-46073859D01*
X82245551Y-46338459D01*
X82590842Y-46481837D01*
X82964718Y-46482163D01*
X83310259Y-46339388D01*
X83574859Y-46075249D01*
X83613447Y-45982318D01*
X87655237Y-45982318D01*
X87798012Y-46327859D01*
X88062151Y-46592459D01*
X88407442Y-46735837D01*
X88781318Y-46736163D01*
X89126859Y-46593388D01*
X89391459Y-46329249D01*
X89534837Y-45983958D01*
X89535163Y-45610082D01*
X89392388Y-45264541D01*
X89128249Y-44999941D01*
X88782958Y-44856563D01*
X88409082Y-44856237D01*
X88063541Y-44999012D01*
X87798941Y-45263151D01*
X87655563Y-45608442D01*
X87655237Y-45982318D01*
X83613447Y-45982318D01*
X83718237Y-45729958D01*
X83718563Y-45356082D01*
X83575788Y-45010541D01*
X83311649Y-44745941D01*
X82966358Y-44602563D01*
X82592482Y-44602237D01*
X82246941Y-44745012D01*
X81982341Y-45009151D01*
X81838963Y-45354442D01*
X81838637Y-45728318D01*
X63478559Y-45728318D01*
X63478007Y-43551538D01*
X95882297Y-43551538D01*
X96025072Y-43897079D01*
X96289211Y-44161679D01*
X96634502Y-44305057D01*
X97008378Y-44305383D01*
X97353919Y-44162608D01*
X97618519Y-43898469D01*
X97761897Y-43553178D01*
X97762223Y-43179302D01*
X97619448Y-42833761D01*
X97355309Y-42569161D01*
X97010018Y-42425783D01*
X96636142Y-42425457D01*
X96290601Y-42568232D01*
X96026001Y-42832371D01*
X95882623Y-43177662D01*
X95882297Y-43551538D01*
X63478007Y-43551538D01*
X63477633Y-42078409D01*
X72488834Y-42078409D01*
X72631609Y-42423950D01*
X72895748Y-42688550D01*
X73241039Y-42831928D01*
X73614915Y-42832254D01*
X73960456Y-42689479D01*
X74225056Y-42425340D01*
X74368434Y-42080049D01*
X74368760Y-41706173D01*
X74225985Y-41360632D01*
X73961846Y-41096032D01*
X73616555Y-40952654D01*
X73242679Y-40952328D01*
X72897138Y-41095103D01*
X72632538Y-41359242D01*
X72489160Y-41704533D01*
X72488834Y-42078409D01*
X63477633Y-42078409D01*
X63477235Y-40508428D01*
X76955307Y-40508428D01*
X77098082Y-40853969D01*
X77362221Y-41118569D01*
X77707512Y-41261947D01*
X78081388Y-41262273D01*
X78426929Y-41119498D01*
X78691529Y-40855359D01*
X78834907Y-40510068D01*
X78835233Y-40136192D01*
X78692458Y-39790651D01*
X78428319Y-39526051D01*
X78200997Y-39431658D01*
X80573717Y-39431658D01*
X80716492Y-39777199D01*
X80980631Y-40041799D01*
X81325922Y-40185177D01*
X81410912Y-40185251D01*
X81448012Y-40275039D01*
X81712151Y-40539639D01*
X82057442Y-40683017D01*
X82431318Y-40683343D01*
X82776859Y-40540568D01*
X83041459Y-40276429D01*
X83080324Y-40182831D01*
X83231418Y-40182963D01*
X83576959Y-40040188D01*
X83841559Y-39776049D01*
X83984937Y-39430758D01*
X83985209Y-39118804D01*
X92468537Y-39118804D01*
X92611312Y-39464345D01*
X92875451Y-39728945D01*
X93201029Y-39864138D01*
X93154500Y-39883363D01*
X92904202Y-40133224D01*
X92768574Y-40459851D01*
X92768266Y-40813517D01*
X92811901Y-40919122D01*
X92613562Y-41117116D01*
X92470184Y-41462407D01*
X92469858Y-41836283D01*
X92612633Y-42181824D01*
X92876772Y-42446424D01*
X93222063Y-42589802D01*
X93595939Y-42590128D01*
X93941480Y-42447353D01*
X94206080Y-42183214D01*
X94349458Y-41837923D01*
X94349784Y-41464047D01*
X94273257Y-41278837D01*
X94410638Y-41141696D01*
X94451692Y-41042827D01*
X94757240Y-40916577D01*
X95007538Y-40666716D01*
X95041769Y-40584278D01*
X95047498Y-40584283D01*
X95393039Y-40441508D01*
X95657639Y-40177369D01*
X95801017Y-39832078D01*
X95801343Y-39458202D01*
X95658568Y-39112661D01*
X95652456Y-39106538D01*
X99207157Y-39106538D01*
X99349932Y-39452079D01*
X99614071Y-39716679D01*
X99959362Y-39860057D01*
X100333238Y-39860383D01*
X100678779Y-39717608D01*
X100943379Y-39453469D01*
X101086757Y-39108178D01*
X101087083Y-38734302D01*
X100944308Y-38388761D01*
X100680169Y-38124161D01*
X100334878Y-37980783D01*
X99961002Y-37980457D01*
X99615461Y-38123232D01*
X99350861Y-38387371D01*
X99207483Y-38732662D01*
X99207157Y-39106538D01*
X95652456Y-39106538D01*
X95394429Y-38848061D01*
X95049138Y-38704683D01*
X94675262Y-38704357D01*
X94348382Y-38839421D01*
X94348463Y-38746568D01*
X94205688Y-38401027D01*
X93941549Y-38136427D01*
X93596258Y-37993049D01*
X93222382Y-37992723D01*
X92876841Y-38135498D01*
X92612241Y-38399637D01*
X92468863Y-38744928D01*
X92468537Y-39118804D01*
X83985209Y-39118804D01*
X83985263Y-39056882D01*
X83842488Y-38711341D01*
X83578349Y-38446741D01*
X83233058Y-38303363D01*
X82859182Y-38303037D01*
X82513641Y-38445812D01*
X82278043Y-38680999D01*
X82046729Y-38449281D01*
X81701438Y-38305903D01*
X81327562Y-38305577D01*
X80982021Y-38448352D01*
X80717421Y-38712491D01*
X80574043Y-39057782D01*
X80573717Y-39431658D01*
X78200997Y-39431658D01*
X78083028Y-39382673D01*
X77709152Y-39382347D01*
X77363611Y-39525122D01*
X77099011Y-39789261D01*
X76955633Y-40134552D01*
X76955307Y-40508428D01*
X63477235Y-40508428D01*
X63476217Y-36495418D01*
X71907237Y-36495418D01*
X72050012Y-36840959D01*
X72314151Y-37105559D01*
X72659442Y-37248937D01*
X73033318Y-37249263D01*
X73378859Y-37106488D01*
X73643459Y-36842349D01*
X73786837Y-36497058D01*
X73787163Y-36123182D01*
X73644388Y-35777641D01*
X73429335Y-35562212D01*
X103252474Y-35562212D01*
X103395249Y-35907753D01*
X103659388Y-36172353D01*
X104004679Y-36315731D01*
X104378555Y-36316057D01*
X104724096Y-36173282D01*
X104988696Y-35909143D01*
X105132074Y-35563852D01*
X105132121Y-35509075D01*
X111162468Y-35509075D01*
X111365889Y-36001392D01*
X111742227Y-36378387D01*
X112234188Y-36582667D01*
X112766875Y-36583132D01*
X113259192Y-36379711D01*
X113636187Y-36003373D01*
X113840467Y-35511412D01*
X113840932Y-34978725D01*
X113637511Y-34486408D01*
X113261173Y-34109413D01*
X112769212Y-33905133D01*
X112236525Y-33904668D01*
X111744208Y-34108089D01*
X111367213Y-34484427D01*
X111162933Y-34976388D01*
X111162468Y-35509075D01*
X105132121Y-35509075D01*
X105132400Y-35189976D01*
X104989625Y-34844435D01*
X104725486Y-34579835D01*
X104380195Y-34436457D01*
X104006319Y-34436131D01*
X103660778Y-34578906D01*
X103396178Y-34843045D01*
X103252800Y-35188336D01*
X103252474Y-35562212D01*
X73429335Y-35562212D01*
X73380249Y-35513041D01*
X73034958Y-35369663D01*
X72661082Y-35369337D01*
X72315541Y-35512112D01*
X72050941Y-35776251D01*
X71907563Y-36121542D01*
X71907237Y-36495418D01*
X63476217Y-36495418D01*
X63475421Y-33353399D01*
X83400737Y-33353399D01*
X83543512Y-33698940D01*
X83807651Y-33963540D01*
X84152942Y-34106918D01*
X84526818Y-34107244D01*
X84872359Y-33964469D01*
X84909658Y-33927235D01*
X84994942Y-34133638D01*
X85259081Y-34398238D01*
X85604372Y-34541616D01*
X85978248Y-34541942D01*
X86222390Y-34441064D01*
X86500297Y-34556462D01*
X86874173Y-34556788D01*
X87219714Y-34414013D01*
X87484314Y-34149874D01*
X87543997Y-34006142D01*
X87705248Y-33939514D01*
X87969848Y-33675375D01*
X88010673Y-33577057D01*
X88874446Y-33577057D01*
X89009503Y-33903920D01*
X89259364Y-34154218D01*
X89449849Y-34233315D01*
X89563312Y-34507915D01*
X89827451Y-34772515D01*
X89855858Y-34784311D01*
X89957012Y-35029121D01*
X90221151Y-35293721D01*
X90566442Y-35437099D01*
X90940318Y-35437425D01*
X91285859Y-35294650D01*
X91550459Y-35030511D01*
X91693837Y-34685220D01*
X91694163Y-34311344D01*
X91625811Y-34145918D01*
X107479937Y-34145918D01*
X107622712Y-34491459D01*
X107886851Y-34756059D01*
X108232142Y-34899437D01*
X108606018Y-34899763D01*
X108951559Y-34756988D01*
X109216159Y-34492849D01*
X109359537Y-34147558D01*
X109359863Y-33773682D01*
X109217088Y-33428141D01*
X108952949Y-33163541D01*
X108607658Y-33020163D01*
X108233782Y-33019837D01*
X107888241Y-33162612D01*
X107623641Y-33426751D01*
X107480263Y-33772042D01*
X107479937Y-34145918D01*
X91625811Y-34145918D01*
X91551388Y-33965803D01*
X91287249Y-33701203D01*
X91258842Y-33689407D01*
X91157688Y-33444597D01*
X90893549Y-33179997D01*
X90580466Y-33049993D01*
X90517697Y-32898080D01*
X90267836Y-32647782D01*
X89941209Y-32512154D01*
X89587543Y-32511846D01*
X89260680Y-32646903D01*
X89010382Y-32896764D01*
X88874754Y-33223391D01*
X88874446Y-33577057D01*
X88010673Y-33577057D01*
X88113226Y-33330084D01*
X88113552Y-32956208D01*
X87970777Y-32610667D01*
X87706638Y-32346067D01*
X87361347Y-32202689D01*
X86987471Y-32202363D01*
X86641930Y-32345138D01*
X86377330Y-32609277D01*
X86317647Y-32753009D01*
X86257795Y-32777740D01*
X85979888Y-32662342D01*
X85606012Y-32662016D01*
X85260471Y-32804791D01*
X85223172Y-32842025D01*
X85137888Y-32635622D01*
X84873749Y-32371022D01*
X84528458Y-32227644D01*
X84154582Y-32227318D01*
X83809041Y-32370093D01*
X83544441Y-32634232D01*
X83401063Y-32979523D01*
X83400737Y-33353399D01*
X63475421Y-33353399D01*
X63475016Y-31758318D01*
X78714437Y-31758318D01*
X78857212Y-32103859D01*
X79121351Y-32368459D01*
X79466642Y-32511837D01*
X79840518Y-32512163D01*
X80186059Y-32369388D01*
X80450659Y-32105249D01*
X80594037Y-31759958D01*
X80594363Y-31386082D01*
X80451588Y-31040541D01*
X80187449Y-30775941D01*
X79842158Y-30632563D01*
X79468282Y-30632237D01*
X79122741Y-30775012D01*
X78858141Y-31039151D01*
X78714763Y-31384442D01*
X78714437Y-31758318D01*
X63475016Y-31758318D01*
X63474692Y-30482668D01*
X63512316Y-30520292D01*
X63624663Y-30407945D01*
X63911231Y-30834784D01*
X65078163Y-31318182D01*
X66341257Y-31318218D01*
X67508217Y-30834885D01*
X67508369Y-30834784D01*
X67794938Y-30407944D01*
X65709800Y-28322805D01*
X65695658Y-28336948D01*
X65516052Y-28157342D01*
X65530195Y-28143200D01*
X65889405Y-28143200D01*
X66625635Y-28879430D01*
X66624805Y-28904000D01*
X67056000Y-29335195D01*
X67068700Y-29322495D01*
X67248305Y-29502100D01*
X67235605Y-29514800D01*
X67666800Y-29945995D01*
X67691371Y-29945165D01*
X67974544Y-30228338D01*
X68179934Y-30090444D01*
X106169662Y-30090444D01*
X106456231Y-30517284D01*
X107623163Y-31000682D01*
X108886257Y-31000718D01*
X110053217Y-30517385D01*
X110053369Y-30517284D01*
X110058880Y-30509075D01*
X111162468Y-30509075D01*
X111365889Y-31001392D01*
X111742227Y-31378387D01*
X112234188Y-31582667D01*
X112766875Y-31583132D01*
X113259192Y-31379711D01*
X113636187Y-31003373D01*
X113840467Y-30511412D01*
X113840932Y-29978725D01*
X113637511Y-29486408D01*
X113261173Y-29109413D01*
X112769212Y-28905133D01*
X112236525Y-28904668D01*
X111744208Y-29108089D01*
X111367213Y-29484427D01*
X111162933Y-29976388D01*
X111162468Y-30509075D01*
X110058880Y-30509075D01*
X110339938Y-30090444D01*
X108254800Y-28005305D01*
X106169662Y-30090444D01*
X68179934Y-30090444D01*
X68401384Y-29941769D01*
X68884782Y-28774837D01*
X68884786Y-28608718D01*
X72046937Y-28608718D01*
X72189712Y-28954259D01*
X72453851Y-29218859D01*
X72799142Y-29362237D01*
X73173018Y-29362563D01*
X73518559Y-29219788D01*
X73783159Y-28955649D01*
X73926537Y-28610358D01*
X73926593Y-28545218D01*
X88823637Y-28545218D01*
X88966412Y-28890759D01*
X89230551Y-29155359D01*
X89575842Y-29298737D01*
X89949718Y-29299063D01*
X90295259Y-29156288D01*
X90559859Y-28892149D01*
X90703237Y-28546858D01*
X90703238Y-28545218D01*
X91389037Y-28545218D01*
X91531812Y-28890759D01*
X91795951Y-29155359D01*
X92141242Y-29298737D01*
X92515118Y-29299063D01*
X92860659Y-29156288D01*
X93125259Y-28892149D01*
X93268637Y-28546858D01*
X93268835Y-28319014D01*
X93496331Y-28319014D01*
X93639106Y-28664555D01*
X93903245Y-28929155D01*
X94248536Y-29072533D01*
X94622412Y-29072859D01*
X94967953Y-28930084D01*
X95232553Y-28665945D01*
X95319249Y-28457157D01*
X105079782Y-28457157D01*
X105563115Y-29624117D01*
X105563216Y-29624269D01*
X105990056Y-29910838D01*
X106223260Y-29677634D01*
X106272400Y-29679295D01*
X106703595Y-29248100D01*
X106689453Y-29233958D01*
X106869058Y-29054353D01*
X106883200Y-29068495D01*
X107314395Y-28637300D01*
X107312734Y-28588160D01*
X108075195Y-27825700D01*
X108434405Y-27825700D01*
X109170635Y-28561930D01*
X109169805Y-28586500D01*
X109601000Y-29017695D01*
X109613700Y-29004995D01*
X109793305Y-29184600D01*
X109780605Y-29197300D01*
X110211800Y-29628495D01*
X110236371Y-29627665D01*
X110519544Y-29910838D01*
X110946384Y-29624269D01*
X111429782Y-28457337D01*
X111429818Y-27194243D01*
X110946485Y-26027283D01*
X110946384Y-26027131D01*
X110519544Y-25740562D01*
X110211801Y-26048305D01*
X109780605Y-26479500D01*
X108434405Y-27825700D01*
X108075195Y-27825700D01*
X105990056Y-25740562D01*
X105563216Y-26027131D01*
X105079818Y-27194063D01*
X105079782Y-28457157D01*
X95319249Y-28457157D01*
X95375931Y-28320654D01*
X95376257Y-27946778D01*
X95233482Y-27601237D01*
X94969343Y-27336637D01*
X94624052Y-27193259D01*
X94250176Y-27192933D01*
X93904635Y-27335708D01*
X93640035Y-27599847D01*
X93496657Y-27945138D01*
X93496331Y-28319014D01*
X93268835Y-28319014D01*
X93268963Y-28172982D01*
X93126188Y-27827441D01*
X92862049Y-27562841D01*
X92516758Y-27419463D01*
X92142882Y-27419137D01*
X91797341Y-27561912D01*
X91532741Y-27826051D01*
X91389363Y-28171342D01*
X91389037Y-28545218D01*
X90703238Y-28545218D01*
X90703563Y-28172982D01*
X90560788Y-27827441D01*
X90296649Y-27562841D01*
X89951358Y-27419463D01*
X89577482Y-27419137D01*
X89231941Y-27561912D01*
X88967341Y-27826051D01*
X88823963Y-28171342D01*
X88823637Y-28545218D01*
X73926593Y-28545218D01*
X73926863Y-28236482D01*
X73784088Y-27890941D01*
X73519949Y-27626341D01*
X73174658Y-27482963D01*
X72800782Y-27482637D01*
X72455241Y-27625412D01*
X72190641Y-27889551D01*
X72047263Y-28234842D01*
X72046937Y-28608718D01*
X68884786Y-28608718D01*
X68884818Y-27511743D01*
X68401485Y-26344783D01*
X68401384Y-26344631D01*
X67974544Y-26058062D01*
X67666801Y-26365805D01*
X67235605Y-26797000D01*
X65889405Y-28143200D01*
X65530195Y-28143200D01*
X65516052Y-28129058D01*
X65695658Y-27949453D01*
X65709800Y-27963595D01*
X67487195Y-26186200D01*
X67487195Y-26186199D01*
X67794938Y-25878456D01*
X67508369Y-25451616D01*
X66341437Y-24968218D01*
X65078343Y-24968182D01*
X63911383Y-25451515D01*
X63911231Y-25451616D01*
X63624663Y-25878455D01*
X63512316Y-25766108D01*
X63473506Y-25804918D01*
X63473187Y-24549100D01*
X80940965Y-24549100D01*
X80840046Y-24590799D01*
G36*
X116003400Y-68683906D02*
X116003400Y-68979256D01*
X115764644Y-68818962D01*
X115456901Y-69126705D01*
X115025705Y-69557900D01*
X113679505Y-70904100D01*
X113693648Y-70918243D01*
X113514042Y-71097848D01*
X113499900Y-71083705D01*
X113485758Y-71097848D01*
X113306152Y-70918242D01*
X113320295Y-70904100D01*
X113306152Y-70889958D01*
X113485758Y-70710353D01*
X113499900Y-70724495D01*
X115277295Y-68947100D01*
X115277295Y-68947099D01*
X115585038Y-68639356D01*
X115298469Y-68212516D01*
X114284156Y-67792340D01*
X115468400Y-67792340D01*
X115703717Y-67748062D01*
X115919841Y-67608990D01*
X116000618Y-67490768D01*
X116003400Y-68683906D01*
X116003400Y-68683906D01*
G37*
X116003400Y-68683906D02*
X116003400Y-68979256D01*
X115764644Y-68818962D01*
X115456901Y-69126705D01*
X115025705Y-69557900D01*
X113679505Y-70904100D01*
X113693648Y-70918243D01*
X113514042Y-71097848D01*
X113499900Y-71083705D01*
X113485758Y-71097848D01*
X113306152Y-70918242D01*
X113320295Y-70904100D01*
X113306152Y-70889958D01*
X113485758Y-70710353D01*
X113499900Y-70724495D01*
X115277295Y-68947100D01*
X115277295Y-68947099D01*
X115585038Y-68639356D01*
X115298469Y-68212516D01*
X114284156Y-67792340D01*
X115468400Y-67792340D01*
X115703717Y-67748062D01*
X115919841Y-67608990D01*
X116000618Y-67490768D01*
X116003400Y-68683906D01*
M02*
