G04 #@! TF.FileFunction,Copper,L1,Top,Signal*
%FSLAX46Y46*%
G04 Gerber Fmt 4.6, Leading zero omitted, Abs format (unit mm)*
G04 Created by KiCad (PCBNEW 4.0.5) date 2017 September 25, Monday 02:54:35*
%MOMM*%
%LPD*%
G01*
G04 APERTURE LIST*
%ADD10C,0.100000*%
%ADD11C,0.150000*%
%ADD12C,0.300000*%
%ADD13C,0.400000*%
%ADD14C,0.609600*%
%ADD15R,0.400000X0.600000*%
%ADD16R,0.600000X0.400000*%
%ADD17R,0.330200X0.152400*%
%ADD18R,0.650240X0.152400*%
%ADD19R,0.152400X1.300480*%
%ADD20O,0.129540X0.500380*%
%ADD21C,0.149860*%
%ADD22R,2.159000X2.260600*%
%ADD23R,1.100000X1.250000*%
%ADD24R,1.524000X1.524000*%
%ADD25C,1.524000*%
%ADD26R,0.760000X1.650000*%
%ADD27R,0.650000X1.060000*%
%ADD28R,0.550000X0.800000*%
%ADD29R,0.865000X0.800000*%
%ADD30R,0.250000X0.700000*%
%ADD31R,0.700000X0.250000*%
%ADD32R,0.825000X0.825000*%
%ADD33R,3.200000X3.200000*%
%ADD34R,0.300000X0.800000*%
%ADD35R,0.800000X0.300000*%
%ADD36R,0.600000X0.500000*%
%ADD37R,0.500000X0.600000*%
%ADD38R,0.700000X1.000000*%
%ADD39R,0.700000X0.600000*%
%ADD40R,1.350000X0.450000*%
%ADD41C,1.408000*%
%ADD42C,1.800000*%
%ADD43R,1.550000X1.500000*%
%ADD44C,5.080000*%
%ADD45C,0.508000*%
%ADD46R,1.600000X1.300000*%
%ADD47R,1.500000X1.500000*%
%ADD48R,4.064000X1.524000*%
%ADD49R,4.064000X1.270000*%
%ADD50R,0.320000X0.600000*%
%ADD51R,0.320000X0.700000*%
%ADD52R,0.600000X0.320000*%
%ADD53R,0.700000X0.320000*%
%ADD54R,5.100000X5.100000*%
%ADD55R,2.514600X1.524000*%
%ADD56C,0.152400*%
%ADD57C,0.431800*%
%ADD58C,0.304800*%
%ADD59C,0.330200*%
%ADD60C,0.203200*%
%ADD61C,0.254000*%
%ADD62C,0.177800*%
%ADD63C,0.381000*%
%ADD64C,0.279400*%
G04 APERTURE END LIST*
D10*
D11*
X57800000Y-83000000D02*
X57800000Y-115000000D01*
X165800000Y-115000000D01*
X165800000Y-83000000D01*
X57800000Y-83000000D01*
D10*
D11*
X10000000Y-10000000D02*
X10000000Y-117000000D01*
X167800000Y-117000000D01*
X167800000Y-10000000D01*
X10000000Y-10000000D01*
D10*
D11*
X12000000Y-12000000D02*
X12000000Y-115000000D01*
X165800000Y-115000000D01*
X165800000Y-12000000D01*
X12000000Y-12000000D01*
D10*
D11*
X60000000Y-12000000D02*
X60000000Y-10000000D01*
D10*
D11*
X110000000Y-12000000D02*
X110000000Y-10000000D01*
D10*
D11*
X160000000Y-12000000D02*
X160000000Y-10000000D01*
D10*
D11*
X35990476Y-11588095D02*
X35247619Y-11588095D01*
X35619048Y-11588095D02*
X35619048Y-10288095D01*
X35495238Y-10473810D01*
X35371429Y-10597619D01*
X35247619Y-10659524D01*
D10*
D11*
X85247619Y-10411905D02*
X85309524Y-10350000D01*
X85433333Y-10288095D01*
X85742857Y-10288095D01*
X85866667Y-10350000D01*
X85928571Y-10411905D01*
X85990476Y-10535714D01*
X85990476Y-10659524D01*
X85928571Y-10845238D01*
X85185714Y-11588095D01*
X85990476Y-11588095D01*
D10*
D11*
X135185714Y-10288095D02*
X135990476Y-10288095D01*
X135557143Y-10783333D01*
X135742857Y-10783333D01*
X135866667Y-10845238D01*
X135928571Y-10907143D01*
X135990476Y-11030952D01*
X135990476Y-11340476D01*
X135928571Y-11464286D01*
X135866667Y-11526190D01*
X135742857Y-11588095D01*
X135371429Y-11588095D01*
X135247619Y-11526190D01*
X135185714Y-11464286D01*
D10*
D11*
X60000000Y-115000000D02*
X60000000Y-117000000D01*
D10*
D11*
X110000000Y-115000000D02*
X110000000Y-117000000D01*
D10*
D11*
X160000000Y-115000000D02*
X160000000Y-117000000D01*
D10*
D11*
X35990476Y-116588095D02*
X35247619Y-116588095D01*
X35619048Y-116588095D02*
X35619048Y-115288095D01*
X35495238Y-115473810D01*
X35371429Y-115597619D01*
X35247619Y-115659524D01*
D10*
D11*
X85247619Y-115411905D02*
X85309524Y-115350000D01*
X85433333Y-115288095D01*
X85742857Y-115288095D01*
X85866667Y-115350000D01*
X85928571Y-115411905D01*
X85990476Y-115535714D01*
X85990476Y-115659524D01*
X85928571Y-115845238D01*
X85185714Y-116588095D01*
X85990476Y-116588095D01*
D10*
D11*
X135185714Y-115288095D02*
X135990476Y-115288095D01*
X135557143Y-115783333D01*
X135742857Y-115783333D01*
X135866667Y-115845238D01*
X135928571Y-115907143D01*
X135990476Y-116030952D01*
X135990476Y-116340476D01*
X135928571Y-116464286D01*
X135866667Y-116526190D01*
X135742857Y-116588095D01*
X135371429Y-116588095D01*
X135247619Y-116526190D01*
X135185714Y-116464286D01*
D10*
D11*
X10000000Y-60000000D02*
X12000000Y-60000000D01*
D10*
D11*
X10000000Y-110000000D02*
X12000000Y-110000000D01*
D10*
D11*
X10690476Y-35216667D02*
X11309524Y-35216667D01*
X10566667Y-35588095D02*
X11000000Y-34288095D01*
X11433333Y-35588095D01*
D10*
D11*
X11092857Y-84907143D02*
X11278571Y-84969048D01*
X11340476Y-85030952D01*
X11402381Y-85154762D01*
X11402381Y-85340476D01*
X11340476Y-85464286D01*
X11278571Y-85526190D01*
X11154762Y-85588095D01*
X10659524Y-85588095D01*
X10659524Y-84288095D01*
X11092857Y-84288095D01*
X11216667Y-84350000D01*
X11278571Y-84411905D01*
X11340476Y-84535714D01*
X11340476Y-84659524D01*
X11278571Y-84783333D01*
X11216667Y-84845238D01*
X11092857Y-84907143D01*
X10659524Y-84907143D01*
D10*
D11*
X167800000Y-60000000D02*
X165800000Y-60000000D01*
D10*
D11*
X167800000Y-110000000D02*
X165800000Y-110000000D01*
D10*
D11*
X166490476Y-35216667D02*
X167109524Y-35216667D01*
X166366667Y-35588095D02*
X166800000Y-34288095D01*
X167233333Y-35588095D01*
D10*
D11*
X166892857Y-84907143D02*
X167078571Y-84969048D01*
X167140476Y-85030952D01*
X167202381Y-85154762D01*
X167202381Y-85340476D01*
X167140476Y-85464286D01*
X167078571Y-85526190D01*
X166954762Y-85588095D01*
X166459524Y-85588095D01*
X166459524Y-84288095D01*
X166892857Y-84288095D01*
X167016667Y-84350000D01*
X167078571Y-84411905D01*
X167140476Y-84535714D01*
X167140476Y-84659524D01*
X167078571Y-84783333D01*
X167016667Y-84845238D01*
X166892857Y-84907143D01*
X166459524Y-84907143D01*
D10*
D11*
X81157143Y-110778571D02*
X81157143Y-109278571D01*
X81514286Y-109278571D01*
X81728571Y-109350000D01*
X81871429Y-109492857D01*
X81942857Y-109635714D01*
X82014286Y-109921429D01*
X82014286Y-110135714D01*
X81942857Y-110421429D01*
X81871429Y-110564286D01*
X81728571Y-110707143D01*
X81514286Y-110778571D01*
X81157143Y-110778571D01*
X83300000Y-110778571D02*
X83300000Y-109992857D01*
X83228571Y-109850000D01*
X83085714Y-109778571D01*
X82800000Y-109778571D01*
X82657143Y-109850000D01*
X83300000Y-110707143D02*
X83157143Y-110778571D01*
X82800000Y-110778571D01*
X82657143Y-110707143D01*
X82585714Y-110564286D01*
X82585714Y-110421429D01*
X82657143Y-110278571D01*
X82800000Y-110207143D01*
X83157143Y-110207143D01*
X83300000Y-110135714D01*
X83800000Y-109778571D02*
X84371429Y-109778571D01*
X84014286Y-109278571D02*
X84014286Y-110564286D01*
X84085714Y-110707143D01*
X84228572Y-110778571D01*
X84371429Y-110778571D01*
X85442857Y-110707143D02*
X85300000Y-110778571D01*
X85014286Y-110778571D01*
X84871429Y-110707143D01*
X84800000Y-110564286D01*
X84800000Y-109992857D01*
X84871429Y-109850000D01*
X85014286Y-109778571D01*
X85300000Y-109778571D01*
X85442857Y-109850000D01*
X85514286Y-109992857D01*
X85514286Y-110135714D01*
X84800000Y-110278571D01*
X86157143Y-110635714D02*
X86228571Y-110707143D01*
X86157143Y-110778571D01*
X86085714Y-110707143D01*
X86157143Y-110635714D01*
X86157143Y-110778571D01*
X86157143Y-109850000D02*
X86228571Y-109921429D01*
X86157143Y-109992857D01*
X86085714Y-109921429D01*
X86157143Y-109850000D01*
X86157143Y-109992857D01*
D10*
D11*
X57800000Y-111500000D02*
X165800000Y-111500000D01*
D10*
D11*
X59157143Y-113578571D02*
X59157143Y-112078571D01*
X60014286Y-113578571D02*
X59371429Y-112721429D01*
X60014286Y-112078571D02*
X59157143Y-112935714D01*
X60657143Y-113578571D02*
X60657143Y-112578571D01*
X60657143Y-112078571D02*
X60585714Y-112150000D01*
X60657143Y-112221429D01*
X60728571Y-112150000D01*
X60657143Y-112078571D01*
X60657143Y-112221429D01*
X62228572Y-113435714D02*
X62157143Y-113507143D01*
X61942857Y-113578571D01*
X61800000Y-113578571D01*
X61585715Y-113507143D01*
X61442857Y-113364286D01*
X61371429Y-113221429D01*
X61300000Y-112935714D01*
X61300000Y-112721429D01*
X61371429Y-112435714D01*
X61442857Y-112292857D01*
X61585715Y-112150000D01*
X61800000Y-112078571D01*
X61942857Y-112078571D01*
X62157143Y-112150000D01*
X62228572Y-112221429D01*
X63514286Y-113578571D02*
X63514286Y-112792857D01*
X63442857Y-112650000D01*
X63300000Y-112578571D01*
X63014286Y-112578571D01*
X62871429Y-112650000D01*
X63514286Y-113507143D02*
X63371429Y-113578571D01*
X63014286Y-113578571D01*
X62871429Y-113507143D01*
X62800000Y-113364286D01*
X62800000Y-113221429D01*
X62871429Y-113078571D01*
X63014286Y-113007143D01*
X63371429Y-113007143D01*
X63514286Y-112935714D01*
X64871429Y-113578571D02*
X64871429Y-112078571D01*
X64871429Y-113507143D02*
X64728572Y-113578571D01*
X64442858Y-113578571D01*
X64300000Y-113507143D01*
X64228572Y-113435714D01*
X64157143Y-113292857D01*
X64157143Y-112864286D01*
X64228572Y-112721429D01*
X64300000Y-112650000D01*
X64442858Y-112578571D01*
X64728572Y-112578571D01*
X64871429Y-112650000D01*
X66728572Y-112792857D02*
X67228572Y-112792857D01*
X67442858Y-113578571D02*
X66728572Y-113578571D01*
X66728572Y-112078571D01*
X67442858Y-112078571D01*
X68085715Y-113435714D02*
X68157143Y-113507143D01*
X68085715Y-113578571D01*
X68014286Y-113507143D01*
X68085715Y-113435714D01*
X68085715Y-113578571D01*
X68800001Y-113578571D02*
X68800001Y-112078571D01*
X69157144Y-112078571D01*
X69371429Y-112150000D01*
X69514287Y-112292857D01*
X69585715Y-112435714D01*
X69657144Y-112721429D01*
X69657144Y-112935714D01*
X69585715Y-113221429D01*
X69514287Y-113364286D01*
X69371429Y-113507143D01*
X69157144Y-113578571D01*
X68800001Y-113578571D01*
X70300001Y-113435714D02*
X70371429Y-113507143D01*
X70300001Y-113578571D01*
X70228572Y-113507143D01*
X70300001Y-113435714D01*
X70300001Y-113578571D01*
X70942858Y-113150000D02*
X71657144Y-113150000D01*
X70800001Y-113578571D02*
X71300001Y-112078571D01*
X71800001Y-113578571D01*
X72300001Y-113435714D02*
X72371429Y-113507143D01*
X72300001Y-113578571D01*
X72228572Y-113507143D01*
X72300001Y-113435714D01*
X72300001Y-113578571D01*
X75300001Y-113578571D02*
X75300001Y-112078571D01*
X75442858Y-113007143D02*
X75871429Y-113578571D01*
X75871429Y-112578571D02*
X75300001Y-113150000D01*
X76514287Y-113578571D02*
X76514287Y-112578571D01*
X76514287Y-112078571D02*
X76442858Y-112150000D01*
X76514287Y-112221429D01*
X76585715Y-112150000D01*
X76514287Y-112078571D01*
X76514287Y-112221429D01*
X77871430Y-113507143D02*
X77728573Y-113578571D01*
X77442859Y-113578571D01*
X77300001Y-113507143D01*
X77228573Y-113435714D01*
X77157144Y-113292857D01*
X77157144Y-112864286D01*
X77228573Y-112721429D01*
X77300001Y-112650000D01*
X77442859Y-112578571D01*
X77728573Y-112578571D01*
X77871430Y-112650000D01*
X79157144Y-113578571D02*
X79157144Y-112792857D01*
X79085715Y-112650000D01*
X78942858Y-112578571D01*
X78657144Y-112578571D01*
X78514287Y-112650000D01*
X79157144Y-113507143D02*
X79014287Y-113578571D01*
X78657144Y-113578571D01*
X78514287Y-113507143D01*
X78442858Y-113364286D01*
X78442858Y-113221429D01*
X78514287Y-113078571D01*
X78657144Y-113007143D01*
X79014287Y-113007143D01*
X79157144Y-112935714D01*
X80514287Y-113578571D02*
X80514287Y-112078571D01*
X80514287Y-113507143D02*
X80371430Y-113578571D01*
X80085716Y-113578571D01*
X79942858Y-113507143D01*
X79871430Y-113435714D01*
X79800001Y-113292857D01*
X79800001Y-112864286D01*
X79871430Y-112721429D01*
X79942858Y-112650000D01*
X80085716Y-112578571D01*
X80371430Y-112578571D01*
X80514287Y-112650000D01*
X83014287Y-112578571D02*
X83014287Y-113578571D01*
X82657144Y-112007143D02*
X82300001Y-113078571D01*
X83228573Y-113078571D01*
X83800001Y-113435714D02*
X83871429Y-113507143D01*
X83800001Y-113578571D01*
X83728572Y-113507143D01*
X83800001Y-113435714D01*
X83800001Y-113578571D01*
X84800001Y-112078571D02*
X84942858Y-112078571D01*
X85085715Y-112150000D01*
X85157144Y-112221429D01*
X85228573Y-112364286D01*
X85300001Y-112650000D01*
X85300001Y-113007143D01*
X85228573Y-113292857D01*
X85157144Y-113435714D01*
X85085715Y-113507143D01*
X84942858Y-113578571D01*
X84800001Y-113578571D01*
X84657144Y-113507143D01*
X84585715Y-113435714D01*
X84514287Y-113292857D01*
X84442858Y-113007143D01*
X84442858Y-112650000D01*
X84514287Y-112364286D01*
X84585715Y-112221429D01*
X84657144Y-112150000D01*
X84800001Y-112078571D01*
X85942858Y-113435714D02*
X86014286Y-113507143D01*
X85942858Y-113578571D01*
X85871429Y-113507143D01*
X85942858Y-113435714D01*
X85942858Y-113578571D01*
X87371430Y-112078571D02*
X86657144Y-112078571D01*
X86585715Y-112792857D01*
X86657144Y-112721429D01*
X86800001Y-112650000D01*
X87157144Y-112650000D01*
X87300001Y-112721429D01*
X87371430Y-112792857D01*
X87442858Y-112935714D01*
X87442858Y-113292857D01*
X87371430Y-113435714D01*
X87300001Y-113507143D01*
X87157144Y-113578571D01*
X86800001Y-113578571D01*
X86657144Y-113507143D01*
X86585715Y-113435714D01*
D10*
D11*
X57800000Y-108500000D02*
X165800000Y-108500000D01*
D10*
D12*
X145014286Y-110778571D02*
X144514286Y-110064286D01*
X144157143Y-110778571D02*
X144157143Y-109278571D01*
X144728571Y-109278571D01*
X144871429Y-109350000D01*
X144942857Y-109421429D01*
X145014286Y-109564286D01*
X145014286Y-109778571D01*
X144942857Y-109921429D01*
X144871429Y-109992857D01*
X144728571Y-110064286D01*
X144157143Y-110064286D01*
X146228571Y-110707143D02*
X146085714Y-110778571D01*
X145800000Y-110778571D01*
X145657143Y-110707143D01*
X145585714Y-110564286D01*
X145585714Y-109992857D01*
X145657143Y-109850000D01*
X145800000Y-109778571D01*
X146085714Y-109778571D01*
X146228571Y-109850000D01*
X146300000Y-109992857D01*
X146300000Y-110135714D01*
X145585714Y-110278571D01*
X146800000Y-109778571D02*
X147157143Y-110778571D01*
X147514285Y-109778571D01*
X148085714Y-110635714D02*
X148157142Y-110707143D01*
X148085714Y-110778571D01*
X148014285Y-110707143D01*
X148085714Y-110635714D01*
X148085714Y-110778571D01*
X148085714Y-109850000D02*
X148157142Y-109921429D01*
X148085714Y-109992857D01*
X148014285Y-109921429D01*
X148085714Y-109850000D01*
X148085714Y-109992857D01*
D10*
D11*
X59085714Y-110707143D02*
X59300000Y-110778571D01*
X59657143Y-110778571D01*
X59800000Y-110707143D01*
X59871429Y-110635714D01*
X59942857Y-110492857D01*
X59942857Y-110350000D01*
X59871429Y-110207143D01*
X59800000Y-110135714D01*
X59657143Y-110064286D01*
X59371429Y-109992857D01*
X59228571Y-109921429D01*
X59157143Y-109850000D01*
X59085714Y-109707143D01*
X59085714Y-109564286D01*
X59157143Y-109421429D01*
X59228571Y-109350000D01*
X59371429Y-109278571D01*
X59728571Y-109278571D01*
X59942857Y-109350000D01*
X60585714Y-110778571D02*
X60585714Y-109778571D01*
X60585714Y-109278571D02*
X60514285Y-109350000D01*
X60585714Y-109421429D01*
X60657142Y-109350000D01*
X60585714Y-109278571D01*
X60585714Y-109421429D01*
X61157143Y-109778571D02*
X61942857Y-109778571D01*
X61157143Y-110778571D01*
X61942857Y-110778571D01*
X63085714Y-110707143D02*
X62942857Y-110778571D01*
X62657143Y-110778571D01*
X62514286Y-110707143D01*
X62442857Y-110564286D01*
X62442857Y-109992857D01*
X62514286Y-109850000D01*
X62657143Y-109778571D01*
X62942857Y-109778571D01*
X63085714Y-109850000D01*
X63157143Y-109992857D01*
X63157143Y-110135714D01*
X62442857Y-110278571D01*
X63800000Y-110635714D02*
X63871428Y-110707143D01*
X63800000Y-110778571D01*
X63728571Y-110707143D01*
X63800000Y-110635714D01*
X63800000Y-110778571D01*
X63800000Y-109850000D02*
X63871428Y-109921429D01*
X63800000Y-109992857D01*
X63728571Y-109921429D01*
X63800000Y-109850000D01*
X63800000Y-109992857D01*
X65657143Y-109278571D02*
X65657143Y-110492857D01*
X65728571Y-110635714D01*
X65800000Y-110707143D01*
X65942857Y-110778571D01*
X66228571Y-110778571D01*
X66371429Y-110707143D01*
X66442857Y-110635714D01*
X66514286Y-110492857D01*
X66514286Y-109278571D01*
X67157143Y-110707143D02*
X67300000Y-110778571D01*
X67585715Y-110778571D01*
X67728572Y-110707143D01*
X67800000Y-110564286D01*
X67800000Y-110492857D01*
X67728572Y-110350000D01*
X67585715Y-110278571D01*
X67371429Y-110278571D01*
X67228572Y-110207143D01*
X67157143Y-110064286D01*
X67157143Y-109992857D01*
X67228572Y-109850000D01*
X67371429Y-109778571D01*
X67585715Y-109778571D01*
X67728572Y-109850000D01*
X69014286Y-110707143D02*
X68871429Y-110778571D01*
X68585715Y-110778571D01*
X68442858Y-110707143D01*
X68371429Y-110564286D01*
X68371429Y-109992857D01*
X68442858Y-109850000D01*
X68585715Y-109778571D01*
X68871429Y-109778571D01*
X69014286Y-109850000D01*
X69085715Y-109992857D01*
X69085715Y-110135714D01*
X68371429Y-110278571D01*
X69728572Y-110778571D02*
X69728572Y-109778571D01*
X69728572Y-110064286D02*
X69800000Y-109921429D01*
X69871429Y-109850000D01*
X70014286Y-109778571D01*
X70157143Y-109778571D01*
D10*
D11*
X144157143Y-113578571D02*
X144157143Y-112078571D01*
X145514286Y-113578571D02*
X145514286Y-112078571D01*
X145514286Y-113507143D02*
X145371429Y-113578571D01*
X145085715Y-113578571D01*
X144942857Y-113507143D01*
X144871429Y-113435714D01*
X144800000Y-113292857D01*
X144800000Y-112864286D01*
X144871429Y-112721429D01*
X144942857Y-112650000D01*
X145085715Y-112578571D01*
X145371429Y-112578571D01*
X145514286Y-112650000D01*
X146228572Y-113435714D02*
X146300000Y-113507143D01*
X146228572Y-113578571D01*
X146157143Y-113507143D01*
X146228572Y-113435714D01*
X146228572Y-113578571D01*
X146228572Y-112650000D02*
X146300000Y-112721429D01*
X146228572Y-112792857D01*
X146157143Y-112721429D01*
X146228572Y-112650000D01*
X146228572Y-112792857D01*
X148871429Y-113578571D02*
X148014286Y-113578571D01*
X148442858Y-113578571D02*
X148442858Y-112078571D01*
X148300001Y-112292857D01*
X148157143Y-112435714D01*
X148014286Y-112507143D01*
X150585714Y-112007143D02*
X149300000Y-113935714D01*
X151871429Y-113578571D02*
X151014286Y-113578571D01*
X151442858Y-113578571D02*
X151442858Y-112078571D01*
X151300001Y-112292857D01*
X151157143Y-112435714D01*
X151014286Y-112507143D01*
D10*
D11*
X57800000Y-104500000D02*
X165800000Y-104500000D01*
D10*
D13*
X59252381Y-105204762D02*
X60395238Y-105204762D01*
X59573810Y-107204762D02*
X59823810Y-105204762D01*
X60811905Y-107204762D02*
X60978571Y-105871429D01*
X61061905Y-105204762D02*
X60954762Y-105300000D01*
X61038095Y-105395238D01*
X61145239Y-105300000D01*
X61061905Y-105204762D01*
X61038095Y-105395238D01*
X61645238Y-105871429D02*
X62407143Y-105871429D01*
X62014286Y-105204762D02*
X61800000Y-106919048D01*
X61871430Y-107109524D01*
X62050001Y-107204762D01*
X62240477Y-107204762D01*
X63192858Y-107204762D02*
X63014287Y-107109524D01*
X62942857Y-106919048D01*
X63157143Y-105204762D01*
X64728572Y-107109524D02*
X64526191Y-107204762D01*
X64145239Y-107204762D01*
X63966667Y-107109524D01*
X63895238Y-106919048D01*
X63990476Y-106157143D01*
X64109524Y-105966667D01*
X64311905Y-105871429D01*
X64692857Y-105871429D01*
X64871429Y-105966667D01*
X64942857Y-106157143D01*
X64919048Y-106347619D01*
X63942857Y-106538095D01*
X65692857Y-107014286D02*
X65776192Y-107109524D01*
X65669048Y-107204762D01*
X65585715Y-107109524D01*
X65692857Y-107014286D01*
X65669048Y-107204762D01*
X65823810Y-105966667D02*
X65907144Y-106061905D01*
X65800000Y-106157143D01*
X65716667Y-106061905D01*
X65823810Y-105966667D01*
X65800000Y-106157143D01*
D10*
D11*
X59657143Y-102592857D02*
X59157143Y-102592857D01*
X59157143Y-103378571D02*
X59157143Y-101878571D01*
X59871429Y-101878571D01*
X60442857Y-103378571D02*
X60442857Y-102378571D01*
X60442857Y-101878571D02*
X60371428Y-101950000D01*
X60442857Y-102021429D01*
X60514285Y-101950000D01*
X60442857Y-101878571D01*
X60442857Y-102021429D01*
X61371429Y-103378571D02*
X61228571Y-103307143D01*
X61157143Y-103164286D01*
X61157143Y-101878571D01*
X62514285Y-103307143D02*
X62371428Y-103378571D01*
X62085714Y-103378571D01*
X61942857Y-103307143D01*
X61871428Y-103164286D01*
X61871428Y-102592857D01*
X61942857Y-102450000D01*
X62085714Y-102378571D01*
X62371428Y-102378571D01*
X62514285Y-102450000D01*
X62585714Y-102592857D01*
X62585714Y-102735714D01*
X61871428Y-102878571D01*
X63228571Y-103235714D02*
X63299999Y-103307143D01*
X63228571Y-103378571D01*
X63157142Y-103307143D01*
X63228571Y-103235714D01*
X63228571Y-103378571D01*
X63228571Y-102450000D02*
X63299999Y-102521429D01*
X63228571Y-102592857D01*
X63157142Y-102521429D01*
X63228571Y-102450000D01*
X63228571Y-102592857D01*
X65085714Y-103378571D02*
X65085714Y-101878571D01*
X65942857Y-103378571D01*
X65942857Y-101878571D01*
X66657143Y-103378571D02*
X66657143Y-102378571D01*
X66657143Y-101878571D02*
X66585714Y-101950000D01*
X66657143Y-102021429D01*
X66728571Y-101950000D01*
X66657143Y-101878571D01*
X66657143Y-102021429D01*
X68014286Y-102378571D02*
X68014286Y-103592857D01*
X67942857Y-103735714D01*
X67871429Y-103807143D01*
X67728572Y-103878571D01*
X67514286Y-103878571D01*
X67371429Y-103807143D01*
X68014286Y-103307143D02*
X67871429Y-103378571D01*
X67585715Y-103378571D01*
X67442857Y-103307143D01*
X67371429Y-103235714D01*
X67300000Y-103092857D01*
X67300000Y-102664286D01*
X67371429Y-102521429D01*
X67442857Y-102450000D01*
X67585715Y-102378571D01*
X67871429Y-102378571D01*
X68014286Y-102450000D01*
X69371429Y-102378571D02*
X69371429Y-103378571D01*
X68728572Y-102378571D02*
X68728572Y-103164286D01*
X68800000Y-103307143D01*
X68942858Y-103378571D01*
X69157143Y-103378571D01*
X69300000Y-103307143D01*
X69371429Y-103235714D01*
X70085715Y-102378571D02*
X70085715Y-103378571D01*
X70085715Y-102521429D02*
X70157143Y-102450000D01*
X70300001Y-102378571D01*
X70514286Y-102378571D01*
X70657143Y-102450000D01*
X70728572Y-102592857D01*
X70728572Y-103378571D01*
X71442858Y-103235714D02*
X71514286Y-103307143D01*
X71442858Y-103378571D01*
X71371429Y-103307143D01*
X71442858Y-103235714D01*
X71442858Y-103378571D01*
X72157144Y-103378571D02*
X72157144Y-101878571D01*
X72300001Y-102807143D02*
X72728572Y-103378571D01*
X72728572Y-102378571D02*
X72157144Y-102950000D01*
X73371430Y-103378571D02*
X73371430Y-102378571D01*
X73371430Y-101878571D02*
X73300001Y-101950000D01*
X73371430Y-102021429D01*
X73442858Y-101950000D01*
X73371430Y-101878571D01*
X73371430Y-102021429D01*
X74728573Y-103307143D02*
X74585716Y-103378571D01*
X74300002Y-103378571D01*
X74157144Y-103307143D01*
X74085716Y-103235714D01*
X74014287Y-103092857D01*
X74014287Y-102664286D01*
X74085716Y-102521429D01*
X74157144Y-102450000D01*
X74300002Y-102378571D01*
X74585716Y-102378571D01*
X74728573Y-102450000D01*
X76014287Y-103378571D02*
X76014287Y-102592857D01*
X75942858Y-102450000D01*
X75800001Y-102378571D01*
X75514287Y-102378571D01*
X75371430Y-102450000D01*
X76014287Y-103307143D02*
X75871430Y-103378571D01*
X75514287Y-103378571D01*
X75371430Y-103307143D01*
X75300001Y-103164286D01*
X75300001Y-103021429D01*
X75371430Y-102878571D01*
X75514287Y-102807143D01*
X75871430Y-102807143D01*
X76014287Y-102735714D01*
X77371430Y-103378571D02*
X77371430Y-101878571D01*
X77371430Y-103307143D02*
X77228573Y-103378571D01*
X76942859Y-103378571D01*
X76800001Y-103307143D01*
X76728573Y-103235714D01*
X76657144Y-103092857D01*
X76657144Y-102664286D01*
X76728573Y-102521429D01*
X76800001Y-102450000D01*
X76942859Y-102378571D01*
X77228573Y-102378571D01*
X77371430Y-102450000D01*
X77728573Y-103521429D02*
X78871430Y-103521429D01*
X79228573Y-102378571D02*
X79228573Y-103878571D01*
X79228573Y-102450000D02*
X79371430Y-102378571D01*
X79657144Y-102378571D01*
X79800001Y-102450000D01*
X79871430Y-102521429D01*
X79942859Y-102664286D01*
X79942859Y-103092857D01*
X79871430Y-103235714D01*
X79800001Y-103307143D01*
X79657144Y-103378571D01*
X79371430Y-103378571D01*
X79228573Y-103307143D01*
X81228573Y-103307143D02*
X81085716Y-103378571D01*
X80800002Y-103378571D01*
X80657144Y-103307143D01*
X80585716Y-103235714D01*
X80514287Y-103092857D01*
X80514287Y-102664286D01*
X80585716Y-102521429D01*
X80657144Y-102450000D01*
X80800002Y-102378571D01*
X81085716Y-102378571D01*
X81228573Y-102450000D01*
X81871430Y-103378571D02*
X81871430Y-101878571D01*
X81871430Y-102450000D02*
X82014287Y-102378571D01*
X82300001Y-102378571D01*
X82442858Y-102450000D01*
X82514287Y-102521429D01*
X82585716Y-102664286D01*
X82585716Y-103092857D01*
X82514287Y-103235714D01*
X82442858Y-103307143D01*
X82300001Y-103378571D01*
X82014287Y-103378571D01*
X81871430Y-103307143D01*
D10*
D11*
X57800000Y-98500000D02*
X165800000Y-98500000D01*
D10*
D11*
X59085714Y-100607143D02*
X59300000Y-100678571D01*
X59657143Y-100678571D01*
X59800000Y-100607143D01*
X59871429Y-100535714D01*
X59942857Y-100392857D01*
X59942857Y-100250000D01*
X59871429Y-100107143D01*
X59800000Y-100035714D01*
X59657143Y-99964286D01*
X59371429Y-99892857D01*
X59228571Y-99821429D01*
X59157143Y-99750000D01*
X59085714Y-99607143D01*
X59085714Y-99464286D01*
X59157143Y-99321429D01*
X59228571Y-99250000D01*
X59371429Y-99178571D01*
X59728571Y-99178571D01*
X59942857Y-99250000D01*
X60585714Y-100678571D02*
X60585714Y-99178571D01*
X61228571Y-100678571D02*
X61228571Y-99892857D01*
X61157142Y-99750000D01*
X61014285Y-99678571D01*
X60800000Y-99678571D01*
X60657142Y-99750000D01*
X60585714Y-99821429D01*
X62514285Y-100607143D02*
X62371428Y-100678571D01*
X62085714Y-100678571D01*
X61942857Y-100607143D01*
X61871428Y-100464286D01*
X61871428Y-99892857D01*
X61942857Y-99750000D01*
X62085714Y-99678571D01*
X62371428Y-99678571D01*
X62514285Y-99750000D01*
X62585714Y-99892857D01*
X62585714Y-100035714D01*
X61871428Y-100178571D01*
X63799999Y-100607143D02*
X63657142Y-100678571D01*
X63371428Y-100678571D01*
X63228571Y-100607143D01*
X63157142Y-100464286D01*
X63157142Y-99892857D01*
X63228571Y-99750000D01*
X63371428Y-99678571D01*
X63657142Y-99678571D01*
X63799999Y-99750000D01*
X63871428Y-99892857D01*
X63871428Y-100035714D01*
X63157142Y-100178571D01*
X64299999Y-99678571D02*
X64871428Y-99678571D01*
X64514285Y-99178571D02*
X64514285Y-100464286D01*
X64585713Y-100607143D01*
X64728571Y-100678571D01*
X64871428Y-100678571D01*
X65371428Y-100535714D02*
X65442856Y-100607143D01*
X65371428Y-100678571D01*
X65299999Y-100607143D01*
X65371428Y-100535714D01*
X65371428Y-100678571D01*
X65371428Y-99750000D02*
X65442856Y-99821429D01*
X65371428Y-99892857D01*
X65299999Y-99821429D01*
X65371428Y-99750000D01*
X65371428Y-99892857D01*
D10*
D11*
X77800000Y-108500000D02*
X77800000Y-111500000D01*
D10*
D11*
X141800000Y-108500000D02*
X141800000Y-115000000D01*
D14*
X63512700Y-37846000D03*
X64935100Y-37846000D03*
X66205100Y-37846000D03*
X63652400Y-32804100D03*
X64935100Y-32804100D03*
X66179700Y-32829500D03*
X63703200Y-59067700D03*
X65087500Y-59131200D03*
X63792100Y-64109600D03*
X65112900Y-64109600D03*
X66344800Y-64109600D03*
X66382900Y-59156600D03*
X69316600Y-69151500D03*
X69532500Y-70192900D03*
X70307200Y-71120000D03*
X71628000Y-71259700D03*
X73177400Y-69176900D03*
D15*
X95181000Y-70180200D03*
X96081000Y-70180200D03*
X94571400Y-61137800D03*
X95471400Y-61137800D03*
X96583500Y-58559700D03*
X97483500Y-58559700D03*
X97445400Y-61137800D03*
X96545400Y-61137800D03*
X99009200Y-53924200D03*
X98109200Y-53924200D03*
X99021900Y-55283100D03*
X98121900Y-55283100D03*
X99021900Y-56654700D03*
X98121900Y-56654700D03*
D16*
X107467400Y-64643000D03*
X107467400Y-65543000D03*
X106108500Y-64643000D03*
X106108500Y-65543000D03*
X104724200Y-64643000D03*
X104724200Y-65543000D03*
X103339900Y-64643000D03*
X103339900Y-65543000D03*
X101981000Y-64655700D03*
X101981000Y-65555700D03*
X100622100Y-64655700D03*
X100622100Y-65555700D03*
D15*
X106895900Y-56959500D03*
X105995900Y-56959500D03*
X108527000Y-60109100D03*
X107627000Y-60109100D03*
X99421100Y-63487300D03*
X98521100Y-63487300D03*
X106919600Y-58356500D03*
X106019600Y-58356500D03*
X96131380Y-33535620D03*
X97031380Y-33535620D03*
X100606860Y-36329620D03*
X101506860Y-36329620D03*
X100614060Y-37627560D03*
X101514060Y-37627560D03*
X104401620Y-25252680D03*
X105301620Y-25252680D03*
D16*
X84747100Y-67482300D03*
X84747100Y-68382300D03*
X83388200Y-67482300D03*
X83388200Y-68382300D03*
D15*
X83756500Y-61963300D03*
X82856500Y-61963300D03*
X113755600Y-47434500D03*
X114655600Y-47434500D03*
X112433100Y-47447200D03*
X111533100Y-47447200D03*
D16*
X108419900Y-48341700D03*
X108419900Y-47441700D03*
X83748880Y-60642500D03*
X83748880Y-59742500D03*
X83748880Y-57412460D03*
X83748880Y-56512460D03*
D15*
X80472280Y-55359300D03*
X81372280Y-55359300D03*
D16*
X83738720Y-52783740D03*
X83738720Y-51883740D03*
X109042200Y-33961500D03*
X109042200Y-34861500D03*
D17*
X75618340Y-35593020D03*
D18*
X75458320Y-35242500D03*
D17*
X75618340Y-34891980D03*
X74648060Y-34891980D03*
X74648060Y-35242500D03*
X74648060Y-35593020D03*
D19*
X75133200Y-35242500D03*
D20*
X75067160Y-35242500D03*
D21*
X75154413Y-35419407D02*
X75330427Y-35243393D01*
X75320267Y-35241607D02*
X75144253Y-35065593D01*
D22*
X109054900Y-38900100D03*
X113931700Y-38900100D03*
D23*
X108419900Y-49942500D03*
X108419900Y-52292500D03*
X108508800Y-58477400D03*
X108508800Y-56127400D03*
X105181400Y-52241700D03*
X105181400Y-49891700D03*
X95478600Y-58572899D03*
X95478600Y-56222899D03*
D24*
X114706400Y-66382900D03*
D25*
X112166400Y-66382900D03*
X114706400Y-63842900D03*
X112166400Y-63842900D03*
X114706400Y-61302900D03*
X112166400Y-61302900D03*
X114706400Y-58762900D03*
X112166400Y-58762900D03*
D24*
X109004100Y-69583300D03*
D25*
X109004100Y-72123300D03*
X106464100Y-69583300D03*
X106464100Y-72123300D03*
X103924100Y-69583300D03*
X103924100Y-72123300D03*
X101384100Y-69583300D03*
X101384100Y-72123300D03*
X98844100Y-69583300D03*
X98844100Y-72123300D03*
D26*
X74841100Y-53390800D03*
X73571100Y-53390800D03*
X72301100Y-53390800D03*
X72301100Y-56570800D03*
X74841100Y-56570800D03*
D27*
X108430100Y-43388100D03*
X107480100Y-43388100D03*
X106530100Y-43388100D03*
X106530100Y-45588100D03*
X108430100Y-45588100D03*
D28*
X112405200Y-43389700D03*
X111455200Y-43389700D03*
X110505200Y-43389700D03*
X110505200Y-45789700D03*
X112405200Y-45789700D03*
D29*
X71674700Y-47651500D03*
X71674700Y-46201500D03*
X70209700Y-47651500D03*
X70209700Y-46201500D03*
D30*
X70198360Y-62906100D03*
X70698360Y-62906100D03*
X71198360Y-62906100D03*
D31*
X72098360Y-62006100D03*
X72098360Y-61506100D03*
X72098360Y-61006100D03*
D30*
X71198360Y-60106100D03*
X70698360Y-60106100D03*
X70198360Y-60106100D03*
D31*
X69298360Y-61006100D03*
X69298360Y-61506100D03*
X69298360Y-62006100D03*
D32*
X71110860Y-61093600D03*
X70285860Y-61093600D03*
X71110860Y-61918600D03*
X70285860Y-61918600D03*
D33*
X102222600Y-59605100D03*
D34*
X100472600Y-62005100D03*
X100972600Y-62005100D03*
X101472600Y-62005100D03*
X101972600Y-62005100D03*
X102472600Y-62005100D03*
X102972600Y-62005100D03*
X103472600Y-62005100D03*
X103972600Y-62005100D03*
D35*
X104622600Y-61355100D03*
X104622600Y-60855100D03*
X104622600Y-60355100D03*
X104622600Y-59855100D03*
X104622600Y-59355100D03*
X104622600Y-58855100D03*
X104622600Y-58355100D03*
X104622600Y-57855100D03*
D34*
X103972600Y-57205100D03*
X103472600Y-57205100D03*
X102972600Y-57205100D03*
X102472600Y-57205100D03*
X101972600Y-57205100D03*
X101472600Y-57205100D03*
X100972600Y-57205100D03*
X100472600Y-57205100D03*
D35*
X99822600Y-57855100D03*
X99822600Y-58355100D03*
X99822600Y-58855100D03*
X99822600Y-59355100D03*
X99822600Y-59855100D03*
X99822600Y-60355100D03*
X99822600Y-60855100D03*
X99822600Y-61355100D03*
D36*
X72127200Y-35242500D03*
X71027200Y-35242500D03*
X82663270Y-48175884D03*
X81563270Y-48175884D03*
X88641100Y-50927000D03*
X87541100Y-50927000D03*
X82659370Y-49433184D03*
X81559370Y-49433184D03*
X83746520Y-54033420D03*
X82646520Y-54033420D03*
D37*
X74663300Y-31526300D03*
X74663300Y-32626300D03*
X73736200Y-36314200D03*
X73736200Y-37414200D03*
D36*
X88646000Y-52235100D03*
X87546000Y-52235100D03*
X108432600Y-41541700D03*
X107332600Y-41541700D03*
X82667303Y-46922532D03*
X81567303Y-46922532D03*
X83746520Y-55359300D03*
X82646520Y-55359300D03*
X88691900Y-53949600D03*
X87591900Y-53949600D03*
X113737300Y-43383200D03*
X114837300Y-43383200D03*
X88691900Y-55422800D03*
X87591900Y-55422800D03*
X83745160Y-58574940D03*
X82645160Y-58574940D03*
X91626600Y-50723800D03*
X92726600Y-50723800D03*
X82443320Y-60647580D03*
X81343320Y-60647580D03*
X91617799Y-49466500D03*
X92717799Y-49466500D03*
D37*
X106921300Y-47519500D03*
X106921300Y-48619500D03*
D36*
X88641100Y-46393100D03*
X87541100Y-46393100D03*
X91579700Y-47752000D03*
X92679700Y-47752000D03*
X88658700Y-47650400D03*
X87558700Y-47650400D03*
X91554300Y-46443900D03*
X92654300Y-46443900D03*
X113737300Y-45085000D03*
X114837300Y-45085000D03*
X88649900Y-48768000D03*
X87549900Y-48768000D03*
X92710000Y-53632100D03*
X91610000Y-53632100D03*
X97757861Y-44626188D03*
X98857861Y-44626188D03*
D37*
X96681082Y-38931678D03*
X96681082Y-40031678D03*
X78463105Y-46367767D03*
X78463105Y-47467767D03*
X83388200Y-65112900D03*
X83388200Y-66212900D03*
X84747100Y-65105100D03*
X84747100Y-66205100D03*
D36*
X97753961Y-43368888D03*
X98853961Y-43368888D03*
D37*
X97961241Y-38931678D03*
X97961241Y-40031678D03*
D36*
X92711678Y-52380740D03*
X91611678Y-52380740D03*
D37*
X79707705Y-46367766D03*
X79707705Y-47467766D03*
D36*
X97757861Y-42111589D03*
X98857861Y-42111589D03*
D37*
X99245420Y-38921600D03*
X99245420Y-40021600D03*
X79712820Y-43348820D03*
X79712820Y-44448820D03*
X78417420Y-43348820D03*
X78417420Y-44448820D03*
D36*
X96845120Y-46103540D03*
X97945120Y-46103540D03*
D37*
X88226900Y-59720300D03*
X88226900Y-60820300D03*
X90779600Y-59724200D03*
X90779600Y-60824200D03*
D36*
X96845120Y-47355760D03*
X97945120Y-47355760D03*
X102139660Y-25252680D03*
X103239660Y-25252680D03*
D37*
X76880720Y-43347640D03*
X76880720Y-44447640D03*
D36*
X98270060Y-37632640D03*
X99370060Y-37632640D03*
X80594200Y-39243000D03*
X79494200Y-39243000D03*
X98300540Y-36337240D03*
X99400540Y-36337240D03*
X80597547Y-41846963D03*
X79497547Y-41846963D03*
D37*
X72181791Y-42072803D03*
X72181791Y-40972803D03*
X76047600Y-47501900D03*
X76047600Y-46401900D03*
X73533000Y-47493100D03*
X73533000Y-46393100D03*
D36*
X80597547Y-40424563D03*
X79497547Y-40424563D03*
X81009400Y-36461700D03*
X82109400Y-36461700D03*
X77783600Y-34163000D03*
X78883600Y-34163000D03*
X93784420Y-33540700D03*
X94884420Y-33540700D03*
D37*
X76822300Y-56222900D03*
X76822300Y-55122900D03*
D36*
X81000600Y-35242500D03*
X82100600Y-35242500D03*
X93764100Y-35026600D03*
X94864100Y-35026600D03*
X93764100Y-36309300D03*
X94864100Y-36309300D03*
X94863187Y-31381092D03*
X93763187Y-31381092D03*
D37*
X82803463Y-31580044D03*
X82803463Y-32680044D03*
D36*
X81360892Y-28400940D03*
X80260892Y-28400940D03*
X94859467Y-30156812D03*
X93759467Y-30156812D03*
D37*
X81609663Y-31580045D03*
X81609663Y-32680045D03*
D36*
X81373592Y-27194440D03*
X80273592Y-27194440D03*
X94859467Y-28924912D03*
X93759467Y-28924912D03*
D37*
X80403162Y-31580043D03*
X80403162Y-32680043D03*
D36*
X81373592Y-25975240D03*
X80273592Y-25975240D03*
X92333765Y-31375090D03*
X91233765Y-31375090D03*
X107137200Y-63207900D03*
X108237200Y-63207900D03*
X92330045Y-30133030D03*
X91230045Y-30133030D03*
X92333765Y-28883349D03*
X91233765Y-28883349D03*
X83926198Y-28386414D03*
X82826198Y-28386414D03*
X86450292Y-28394341D03*
X85350292Y-28394341D03*
X88696800Y-25920700D03*
X89796800Y-25920700D03*
X89778840Y-31379160D03*
X88678840Y-31379160D03*
X107133300Y-62001400D03*
X108233300Y-62001400D03*
X83926198Y-27179914D03*
X82826198Y-27179914D03*
X86458093Y-27149740D03*
X85358093Y-27149740D03*
X88696800Y-27127200D03*
X89796800Y-27127200D03*
X89778840Y-30139640D03*
X88678840Y-30139640D03*
X83921298Y-25960713D03*
X82821298Y-25960713D03*
X86452800Y-25933400D03*
X85352800Y-25933400D03*
X89778840Y-28892500D03*
X88678840Y-28892500D03*
D37*
X95669100Y-64778800D03*
X95669100Y-65878800D03*
X97243900Y-64791500D03*
X97243900Y-65891500D03*
X98513900Y-64791500D03*
X98513900Y-65891500D03*
D36*
X96079400Y-68694300D03*
X94979400Y-68694300D03*
D38*
X107019600Y-35154300D03*
D39*
X107019600Y-33454300D03*
X105019600Y-33454300D03*
X105019600Y-35354300D03*
D36*
X76893600Y-40970200D03*
X75793600Y-40970200D03*
X73423600Y-40970200D03*
X74523600Y-40970200D03*
D26*
X92430600Y-65212000D03*
X91160600Y-65212000D03*
X89890600Y-65212000D03*
X89890600Y-68392000D03*
X92430600Y-68392000D03*
D40*
X112526700Y-34043900D03*
X112526700Y-33393900D03*
X112526700Y-32743900D03*
X112526700Y-32093900D03*
X112526700Y-31443900D03*
D41*
X112501700Y-35243900D03*
X112501700Y-30243900D03*
D42*
X115201700Y-36243900D03*
X115201700Y-29243900D03*
D43*
X115201700Y-33743900D03*
X115201700Y-31743900D03*
X115201700Y-35793900D03*
X115201700Y-29693900D03*
D44*
X65709800Y-70878700D03*
D45*
X67564000Y-70878700D03*
X65684400Y-69024500D03*
X65684400Y-72834500D03*
X67056000Y-72250300D03*
X64287400Y-69634100D03*
X64338200Y-72301100D03*
X63855600Y-70878700D03*
X67056000Y-69532500D03*
D44*
X65709800Y-28143200D03*
D45*
X67564000Y-28143200D03*
X65684400Y-26289000D03*
X65684400Y-30099000D03*
X67056000Y-29514800D03*
X64287400Y-26898600D03*
X64338200Y-29565600D03*
X63855600Y-28143200D03*
X67056000Y-26797000D03*
D44*
X113499900Y-70904100D03*
D45*
X115354100Y-70904100D03*
X113474500Y-69049900D03*
X113474500Y-72859900D03*
X114846100Y-72275700D03*
X112077500Y-69659500D03*
X112128300Y-72326500D03*
X111645700Y-70904100D03*
X114846100Y-69557900D03*
D44*
X108254800Y-27825700D03*
D45*
X110109000Y-27825700D03*
X108229400Y-25971500D03*
X108229400Y-29781500D03*
X109601000Y-29197300D03*
X106832400Y-26581100D03*
X106883200Y-29248100D03*
X106400600Y-27825700D03*
X109601000Y-26479500D03*
D46*
X103484680Y-29507180D03*
X99484680Y-29507180D03*
X103484680Y-27007180D03*
X99484680Y-27007180D03*
D47*
X69011800Y-25831800D03*
X76758800Y-25831800D03*
D14*
X72936100Y-71247000D03*
X74206100Y-71247000D03*
X75476100Y-71247000D03*
X76746100Y-71247000D03*
X78016100Y-71247000D03*
X79286100Y-71247000D03*
X80556100Y-71247000D03*
X81826100Y-71247000D03*
X83096100Y-71247000D03*
X84366100Y-71247000D03*
X85636100Y-71247000D03*
X86906100Y-71247000D03*
X88176100Y-71247000D03*
X75717400Y-69176900D03*
X82067400Y-69176900D03*
X80797400Y-69176900D03*
X74447400Y-69176900D03*
X76987400Y-69176900D03*
X78257400Y-69176900D03*
X79527400Y-69176900D03*
X71297800Y-68795900D03*
X71259700Y-67310000D03*
X71272400Y-66230500D03*
X69202300Y-68046600D03*
X69202300Y-66776600D03*
X69202300Y-65506600D03*
X69202300Y-64236600D03*
X69469000Y-57531000D03*
X69469000Y-56261000D03*
X69469000Y-54991000D03*
X69469000Y-52451000D03*
X69469000Y-51181000D03*
X69469000Y-49911000D03*
X69469000Y-48641000D03*
X71005700Y-49098200D03*
X71005700Y-56718200D03*
X71005700Y-55448200D03*
X71005700Y-54178200D03*
X71005700Y-52908200D03*
X71005700Y-51638200D03*
X71005700Y-50368200D03*
X69227700Y-44310300D03*
X69227700Y-43040300D03*
X69227700Y-41770300D03*
X69227700Y-40500300D03*
X69227700Y-39230300D03*
X71005700Y-40970200D03*
X71005700Y-42240200D03*
X71005700Y-43510200D03*
X71005700Y-44780200D03*
X71310500Y-39890700D03*
X71081900Y-37706300D03*
X72390000Y-37719000D03*
X72275700Y-39471600D03*
X73266300Y-39471600D03*
X76022200Y-37807900D03*
X76542900Y-37134800D03*
X76136500Y-36461700D03*
X78016100Y-36131500D03*
X78155800Y-36906200D03*
X69545200Y-36017200D03*
X68275200Y-36017199D03*
X68897500Y-34480500D03*
X67627500Y-34480499D03*
X85979000Y-37909500D03*
X85979000Y-39179500D03*
X85979000Y-40449500D03*
X85979000Y-41719500D03*
X87249000Y-37909500D03*
X87249000Y-39179500D03*
X87249000Y-40449500D03*
X87249000Y-41719500D03*
X88519000Y-37909500D03*
X88519000Y-39179500D03*
X88519000Y-40449500D03*
X88519000Y-41719500D03*
X89789000Y-37909500D03*
X89789000Y-39179500D03*
X89789000Y-40449500D03*
X89789000Y-41719500D03*
X100977700Y-58331100D03*
X100977700Y-59601100D03*
X100977700Y-60871100D03*
X102247700Y-58331100D03*
X102247700Y-59601100D03*
X102247700Y-60871100D03*
X103517700Y-58331100D03*
X103517700Y-59601100D03*
X103517700Y-60871100D03*
X69469000Y-53721000D03*
D48*
X64947800Y-58966100D03*
X64947800Y-64046100D03*
D49*
X64947800Y-61506100D03*
D50*
X85083200Y-43139500D03*
D51*
X85583200Y-43114500D03*
X86083200Y-43114500D03*
X86583200Y-43114500D03*
X87083200Y-43114500D03*
X87583200Y-43114500D03*
X88083200Y-43114500D03*
X88583200Y-43114500D03*
X89083200Y-43114500D03*
X89583200Y-43114500D03*
X90083200Y-43114500D03*
D50*
X90583200Y-43139500D03*
D52*
X91158200Y-42564500D03*
D53*
X91133200Y-42064500D03*
X91133200Y-41564500D03*
X91133200Y-41064500D03*
X91133200Y-40564500D03*
X91133200Y-40064500D03*
X91133200Y-39564500D03*
X91133200Y-39064500D03*
X91133200Y-38564500D03*
X91133200Y-38064500D03*
X91133200Y-37564500D03*
D52*
X91158200Y-37064500D03*
D50*
X90583200Y-36489500D03*
D51*
X90083200Y-36514500D03*
X89583200Y-36514500D03*
X89083200Y-36514500D03*
X88583200Y-36514500D03*
X88083200Y-36514500D03*
X87583200Y-36514500D03*
X87083200Y-36514500D03*
X86583200Y-36514500D03*
X86083200Y-36514500D03*
X85583200Y-36514500D03*
D50*
X85083200Y-36489500D03*
D52*
X84508200Y-37064500D03*
D53*
X84533200Y-37564500D03*
X84533200Y-38064500D03*
X84533200Y-38564500D03*
X84533200Y-39064500D03*
X84533200Y-39564500D03*
X84533200Y-40064500D03*
X84533200Y-40564500D03*
X84533200Y-41064500D03*
X84533200Y-41564500D03*
X84533200Y-42064500D03*
D52*
X84508200Y-42564500D03*
D54*
X87833200Y-39814500D03*
D48*
X64858900Y-32740600D03*
X64858900Y-37820600D03*
D49*
X64858900Y-35280600D03*
D55*
X112852200Y-55867300D03*
X112877600Y-49364900D03*
D14*
X83921600Y-25387309D03*
X81371705Y-25387987D03*
X77895270Y-40322310D03*
X88595200Y-45796200D03*
X87204479Y-25951560D03*
X94436294Y-28132896D03*
X111760000Y-45783500D03*
X84340700Y-33167281D03*
X85792130Y-33601979D03*
X86688055Y-33616825D03*
X87173589Y-33142326D03*
X73428797Y-41892291D03*
X88646000Y-49644300D03*
X81513680Y-39245540D03*
D45*
X89763600Y-33401000D03*
D14*
X90360500Y-33976256D03*
X90754200Y-34497462D03*
X93408500Y-38932686D03*
X93409821Y-41650165D03*
X82778600Y-45542200D03*
X89763600Y-28359100D03*
X92329000Y-28359100D03*
X79654400Y-31572200D03*
X100147120Y-38920420D03*
X96822260Y-43365420D03*
X74580957Y-37417394D03*
X79734016Y-45257798D03*
X81626673Y-33417612D03*
X79462285Y-32675828D03*
X87358998Y-45681687D03*
X98452560Y-59243423D03*
X97586800Y-55219591D03*
X106241919Y-50306743D03*
X107604715Y-48693388D03*
X68217603Y-62964098D03*
X82803278Y-33374878D03*
X106093457Y-25298409D03*
X110959900Y-30924500D03*
X94348309Y-68694300D03*
X75389023Y-33724932D03*
X104851200Y-29502100D03*
X78723942Y-41356229D03*
X86702900Y-46875700D03*
X91593588Y-51576904D03*
X78191334Y-45379639D03*
X105544914Y-61285401D03*
X100639229Y-66124471D03*
X107567388Y-42547878D03*
X114757200Y-44284900D03*
X114769900Y-42405300D03*
X107340400Y-52311300D03*
X86720068Y-47650929D03*
X86772678Y-48781695D03*
X76771491Y-56965682D03*
X106420572Y-41541629D03*
X95639194Y-54961720D03*
X108496100Y-55003700D03*
X108851700Y-63195200D03*
X105460800Y-69608700D03*
X102908100Y-69596000D03*
X97205800Y-66573400D03*
X69037200Y-27724100D03*
D45*
X74686923Y-30732223D03*
X79616300Y-25971500D03*
X90512900Y-25920700D03*
D14*
X82207100Y-25958800D03*
X84709000Y-25946100D03*
X79241211Y-36487771D03*
X114642900Y-46697900D03*
X84747100Y-69202300D03*
X83388200Y-69202300D03*
X72181791Y-42852403D03*
X71678800Y-48463200D03*
X71678800Y-45466000D03*
X78473300Y-48196500D03*
X79705200Y-48183800D03*
X80878680Y-46926500D03*
X80878680Y-48186340D03*
X80878680Y-49430940D03*
X91605100Y-54368700D03*
X93586300Y-50723800D03*
X93548200Y-49466500D03*
X93522800Y-47752000D03*
X93522800Y-46443900D03*
X87541100Y-50215800D03*
X86677500Y-52235100D03*
X86677500Y-53949600D03*
X86677500Y-55422800D03*
X81747360Y-54033420D03*
X79669640Y-55359300D03*
X81346040Y-59738260D03*
X82092800Y-58547000D03*
X92430600Y-69570600D03*
X78719680Y-40434260D03*
X78727300Y-39243000D03*
X85445799Y-44548713D03*
X84505800Y-43141900D03*
X91695649Y-36699809D03*
X68249800Y-60248800D03*
X71361300Y-59118500D03*
X72199500Y-59194700D03*
X72301100Y-57746900D03*
X71010949Y-65173017D03*
X98513900Y-66586100D03*
X95669100Y-66509900D03*
X108813600Y-61988700D03*
X107480100Y-66141600D03*
X106095800Y-66141600D03*
X104724200Y-66141600D03*
X103339900Y-66141600D03*
X101981000Y-66116200D03*
X97599500Y-53924200D03*
X97586800Y-56642000D03*
X107746800Y-35140900D03*
X111455200Y-42697400D03*
X102082600Y-37617400D03*
X102082600Y-36322000D03*
X79616300Y-27190700D03*
X79616300Y-28397200D03*
X82194400Y-28384500D03*
X82207100Y-27190700D03*
X84772500Y-28397200D03*
X84709000Y-27152600D03*
X90525600Y-27127200D03*
X80314800Y-36461700D03*
X80302100Y-35242500D03*
X88049100Y-28892500D03*
X88061800Y-30137100D03*
X88061800Y-31381700D03*
X90639900Y-28892500D03*
X90639900Y-30137100D03*
X90639900Y-31381700D03*
X93141800Y-31381700D03*
X93141800Y-30149800D03*
X93141800Y-28930600D03*
X97835720Y-33535620D03*
X95758000Y-36309300D03*
X95755460Y-35026600D03*
X99250500Y-40944800D03*
X97965260Y-40934640D03*
X96665199Y-40948059D03*
X99763580Y-44625260D03*
X99761040Y-43367960D03*
X99758500Y-42113200D03*
X98849180Y-46103540D03*
X98831400Y-47353220D03*
X76880720Y-45354240D03*
X103471162Y-54788586D03*
X103976429Y-46723464D03*
X106117758Y-46735165D03*
X100191580Y-51275841D03*
X110109000Y-50812700D03*
X102830131Y-55477206D03*
X72847200Y-36309300D03*
X99521863Y-25984376D03*
X115062000Y-49568100D03*
X109131100Y-47459900D03*
X109220000Y-45593000D03*
D45*
X72809421Y-60998266D03*
D14*
X101384100Y-25298409D03*
X82245200Y-39743380D03*
X111088718Y-67688069D03*
X99764581Y-62455522D03*
X98922003Y-62779805D03*
X98515466Y-60555855D03*
X114668300Y-55930800D03*
X106412261Y-67825303D03*
X98452559Y-57698473D03*
X94576900Y-60439300D03*
X106349800Y-52285900D03*
X107530909Y-54978300D03*
X111039736Y-65155871D03*
X106260900Y-61036200D03*
X94861380Y-39644320D03*
X103954904Y-52039739D03*
X105321100Y-56045100D03*
X105321100Y-58888500D03*
D45*
X94254320Y-40162480D03*
D14*
X106255486Y-60158757D03*
D45*
X93657420Y-40637460D03*
D14*
X104057027Y-56228827D03*
X110832541Y-62922231D03*
X93116400Y-62331600D03*
D45*
X73228200Y-62306200D03*
D14*
X95807241Y-54145732D03*
X97675623Y-52552997D03*
X105052517Y-55234183D03*
X104533700Y-57061100D03*
D45*
X73228200Y-61645800D03*
D14*
X107165120Y-70933248D03*
X97225873Y-70771104D03*
X96930777Y-68092880D03*
X97866200Y-63715900D03*
X101389866Y-63680848D03*
X82852260Y-62981840D03*
X107980270Y-54030467D03*
X83045300Y-39243000D03*
X101626768Y-54861480D03*
X99517200Y-55283100D03*
X102012477Y-55518664D03*
X99580700Y-53911500D03*
X72986900Y-28422600D03*
X94856300Y-72250300D03*
X105100807Y-62224369D03*
X99987100Y-63474600D03*
X95669100Y-64135000D03*
X97586800Y-59855100D03*
X104192437Y-35376094D03*
X108419900Y-33959800D03*
D56*
X74648060Y-35242500D02*
X74091800Y-35255200D01*
D57*
X72974200Y-35242500D02*
X74091800Y-35255200D01*
X72974200Y-35242500D02*
X72127200Y-35242500D01*
X71027200Y-35242500D02*
X64858900Y-35280600D01*
X81373592Y-25975240D02*
X81371705Y-25973353D01*
X81371705Y-25819039D02*
X81371705Y-25387987D01*
X83921600Y-25960411D02*
X83921600Y-25818361D01*
X81371705Y-25973353D02*
X81371705Y-25819039D01*
X83921298Y-25960713D02*
X83921600Y-25960411D01*
X83921600Y-25818361D02*
X83921600Y-25387309D01*
D58*
X88641100Y-46393100D02*
X88641100Y-45842100D01*
X88641100Y-45842100D02*
X88595200Y-45796200D01*
D59*
X77591490Y-40322310D02*
X77895270Y-40322310D01*
X76943600Y-40970200D02*
X77591490Y-40322310D01*
X76893600Y-40970200D02*
X76943600Y-40970200D01*
D58*
X88087200Y-45288200D02*
X88595200Y-45796200D01*
X88087200Y-44831000D02*
X88087200Y-45288200D01*
D57*
X86452800Y-25933400D02*
X87186319Y-25933400D01*
X87186319Y-25933400D02*
X87204479Y-25951560D01*
X94859467Y-28924912D02*
X94859467Y-28556069D01*
X94859467Y-28556069D02*
X94436294Y-28132896D01*
D59*
X112405200Y-45789700D02*
X111766200Y-45789700D01*
X111766200Y-45789700D02*
X111760000Y-45783500D01*
D58*
X85107333Y-33933914D02*
X84340700Y-33167281D01*
X84340700Y-33167281D02*
X82803463Y-31630044D01*
X85254614Y-33933914D02*
X85107333Y-33933914D01*
X82803463Y-31630044D02*
X82803463Y-31580044D01*
X86093300Y-34772600D02*
X85254614Y-33933914D01*
X86046129Y-33855978D02*
X85792130Y-33601979D01*
X85538131Y-33347980D02*
X85792130Y-33601979D01*
X81360892Y-29170741D02*
X85538131Y-33347980D01*
X81360892Y-28400940D02*
X81360892Y-29170741D01*
X86583200Y-34393049D02*
X86046129Y-33855978D01*
X86583200Y-36514500D02*
X86583200Y-34393049D01*
X83926198Y-28386414D02*
X83926198Y-30418588D01*
X83926198Y-30418588D02*
X85776220Y-32268610D01*
X85776220Y-32268610D02*
X85776220Y-32704990D01*
X85776220Y-32704990D02*
X86434056Y-33362826D01*
X86434056Y-33362826D02*
X86688055Y-33616825D01*
X86942054Y-33870824D02*
X86688055Y-33616825D01*
X87083200Y-34011970D02*
X86942054Y-33870824D01*
X87083200Y-36514500D02*
X87083200Y-34011970D01*
X86919590Y-32888327D02*
X87173589Y-33142326D01*
X86450292Y-32419029D02*
X86919590Y-32888327D01*
X87583200Y-36514500D02*
X87583200Y-33551937D01*
X86450292Y-28394341D02*
X86450292Y-32419029D01*
X87427588Y-33396325D02*
X87173589Y-33142326D01*
X87583200Y-33551937D02*
X87427588Y-33396325D01*
D59*
X112405200Y-45789700D02*
X113032600Y-45789700D01*
X113032600Y-45789700D02*
X113737300Y-45085000D01*
X112433100Y-47447200D02*
X112433100Y-47385059D01*
X81366360Y-38590220D02*
X81366360Y-38614600D01*
X81366360Y-38614600D02*
X80594200Y-39243000D01*
X90360500Y-33976256D02*
X90338856Y-33976256D01*
D58*
X89077800Y-34899600D02*
X90360500Y-33976256D01*
X90360500Y-33976256D02*
X92341700Y-32550100D01*
X89573100Y-35356800D02*
X90754200Y-34497462D01*
X90754200Y-34497462D02*
X93395800Y-32575500D01*
D59*
X92001340Y-38933120D02*
X93408500Y-38932686D01*
X93408500Y-38932686D02*
X96681082Y-38931678D01*
X92826840Y-41066720D02*
X93167200Y-41138842D01*
X93409821Y-41650165D02*
X93409821Y-41290955D01*
X93409821Y-41290955D02*
X93257708Y-41138842D01*
X93257708Y-41138842D02*
X93167200Y-41138842D01*
X82661760Y-45819060D02*
X82661760Y-45659040D01*
X82661760Y-45659040D02*
X82778600Y-45542200D01*
X112405200Y-45789700D02*
X112405200Y-47419300D01*
X112405200Y-47419300D02*
X112433100Y-47447200D01*
D57*
X89778840Y-28892500D02*
X89763600Y-28359100D01*
X92333765Y-28883349D02*
X92329000Y-28359100D01*
X81373592Y-27194440D02*
X81373592Y-25975240D01*
X81360892Y-28400940D02*
X81373592Y-27194440D01*
X80403162Y-31580043D02*
X79654400Y-31572200D01*
D58*
X81609663Y-31580045D02*
X80403162Y-31580043D01*
X82803463Y-31580044D02*
X81609663Y-31580045D01*
D59*
X83926198Y-27179914D02*
X83921298Y-25960713D01*
X83926198Y-28386414D02*
X83926198Y-27179914D01*
X86458093Y-27149740D02*
X86450292Y-28394341D01*
X86452800Y-25933400D02*
X86458093Y-27149740D01*
D58*
X89763600Y-33401000D02*
X89778840Y-31379160D01*
X88582500Y-34226500D02*
X89763600Y-33401000D01*
X92341700Y-32550100D02*
X92333765Y-31375090D01*
X89083200Y-36514500D02*
X89077800Y-34899600D01*
X94195900Y-32575500D02*
X94863187Y-31381092D01*
X93395800Y-32575500D02*
X94195900Y-32575500D01*
X89583200Y-36514500D02*
X89573100Y-35356800D01*
D59*
X89778840Y-31379160D02*
X89778840Y-30139640D01*
X89778840Y-30139640D02*
X89778840Y-28892500D01*
X92330045Y-30133030D02*
X92333765Y-28883349D01*
X92333765Y-31375090D02*
X92330045Y-30133030D01*
X94859467Y-30156812D02*
X94859467Y-28924912D01*
X94863187Y-31381092D02*
X94859467Y-30156812D01*
X91757500Y-39062660D02*
X92001340Y-38933120D01*
X91133200Y-39064500D02*
X91757500Y-39062660D01*
X99245420Y-38921600D02*
X100147120Y-38920420D01*
X97961241Y-38931678D02*
X99245420Y-38921600D01*
X96681082Y-38931678D02*
X97961241Y-38931678D01*
X97753961Y-43368888D02*
X96822260Y-43365420D01*
X97753961Y-43368888D02*
X97757861Y-44626188D01*
X97757861Y-42111589D02*
X97753961Y-43368888D01*
X91133200Y-41064500D02*
X92826840Y-41066720D01*
D58*
X88649900Y-48768000D02*
X88646000Y-49644300D01*
X88658700Y-47650400D02*
X88649900Y-48768000D01*
X88641100Y-46393100D02*
X88658700Y-47650400D01*
X88083200Y-43114500D02*
X88087200Y-44831000D01*
D59*
X82667303Y-46922532D02*
X82661760Y-45819060D01*
X82663270Y-48175884D02*
X82659370Y-49433184D01*
X82667303Y-46922532D02*
X82663270Y-48175884D01*
X81234280Y-44996100D02*
X82667303Y-46922532D01*
X81234280Y-44081700D02*
X81234280Y-44996100D01*
X82814160Y-42852340D02*
X81234280Y-44081700D01*
X82816700Y-42087800D02*
X82814160Y-42852340D01*
D58*
X76893600Y-40970200D02*
X76880720Y-43347640D01*
D59*
X80594200Y-39243000D02*
X81513680Y-39245540D01*
X80597547Y-40424563D02*
X80594200Y-39243000D01*
X82537300Y-38595300D02*
X81366360Y-38590220D01*
D58*
X73423600Y-40970200D02*
X72181791Y-40972803D01*
D59*
X73423600Y-40970200D02*
X73428797Y-41892291D01*
X83019900Y-41973500D02*
X82816700Y-42087800D01*
X83883500Y-41567100D02*
X83019900Y-41973500D01*
X84061300Y-41567100D02*
X83883500Y-41567100D01*
X83527900Y-38595300D02*
X82537300Y-38595300D01*
X84035900Y-39065200D02*
X83527900Y-38595300D01*
X84533200Y-39064500D02*
X84035900Y-39065200D01*
X84533200Y-41564500D02*
X84061300Y-41567100D01*
D58*
X80597546Y-41846963D02*
X80597547Y-40424563D01*
X86093300Y-35928300D02*
X86093300Y-34772600D01*
X86083200Y-36514500D02*
X86093300Y-35928300D01*
X88583200Y-36514500D02*
X88582500Y-34226500D01*
D60*
X73736200Y-37414200D02*
X74577763Y-37414200D01*
X74577763Y-37414200D02*
X74580957Y-37417394D01*
D59*
X79712820Y-45236602D02*
X79734016Y-45257798D01*
X79712820Y-44448820D02*
X79712820Y-45236602D01*
D57*
X81615430Y-33417612D02*
X81626673Y-33417612D01*
X81609663Y-33411845D02*
X81615430Y-33417612D01*
X81609663Y-32680045D02*
X81609663Y-33411845D01*
X79466500Y-32680043D02*
X79462285Y-32675828D01*
X80403162Y-32680043D02*
X79466500Y-32680043D01*
D58*
X87583200Y-45457485D02*
X87358998Y-45681687D01*
X87583200Y-43114500D02*
X87583200Y-45457485D01*
X99822600Y-59355100D02*
X98564237Y-59355100D01*
X98564237Y-59355100D02*
X98452560Y-59243423D01*
D61*
X98121900Y-55283100D02*
X97650309Y-55283100D01*
X97650309Y-55283100D02*
X97586800Y-55219591D01*
D58*
X106036200Y-49891700D02*
X106241919Y-50097419D01*
X105181400Y-49891700D02*
X106036200Y-49891700D01*
X106241919Y-50097419D02*
X106241919Y-50306743D01*
D59*
X107530827Y-48619500D02*
X107604715Y-48693388D01*
X106921300Y-48619500D02*
X107530827Y-48619500D01*
D60*
X68217603Y-62861857D02*
X68217603Y-62964098D01*
X69073360Y-62006100D02*
X68217603Y-62861857D01*
X69298360Y-62006100D02*
X69073360Y-62006100D01*
D57*
X66241814Y-58953400D02*
X66267214Y-58928000D01*
X82803278Y-32943826D02*
X82803278Y-33374878D01*
X105301620Y-25252680D02*
X106047728Y-25252680D01*
X82803278Y-32680229D02*
X82803278Y-32943826D01*
X106047728Y-25252680D02*
X106093457Y-25298409D01*
X82803463Y-32680044D02*
X82803278Y-32680229D01*
D58*
X112526700Y-31443900D02*
X111479300Y-31443900D01*
X111479300Y-31443900D02*
X110959900Y-30924500D01*
X94979400Y-68694300D02*
X94348309Y-68694300D01*
D62*
X75133200Y-33980755D02*
X75389023Y-33724932D01*
X75133200Y-35242500D02*
X75133200Y-33980755D01*
D59*
X103484680Y-29507180D02*
X104846120Y-29507180D01*
X104846120Y-29507180D02*
X104851200Y-29502100D01*
X78723942Y-41703558D02*
X78723942Y-41356229D01*
X78867347Y-41846963D02*
X78723942Y-41703558D01*
X79497547Y-41846963D02*
X78867347Y-41846963D01*
D58*
X87541100Y-46393100D02*
X87185500Y-46393100D01*
X87185500Y-46393100D02*
X86702900Y-46875700D01*
X91611678Y-51594994D02*
X91593588Y-51576904D01*
X91611678Y-52380740D02*
X91611678Y-51594994D01*
D59*
X78417420Y-45153553D02*
X78191334Y-45379639D01*
X78417420Y-44448820D02*
X78417420Y-45153553D01*
D61*
X105544914Y-61123414D02*
X105544914Y-61285401D01*
X105276600Y-60855100D02*
X105544914Y-61123414D01*
X104622600Y-60855100D02*
X105276600Y-60855100D01*
D58*
X100622100Y-66107342D02*
X100639229Y-66124471D01*
X100622100Y-65555700D02*
X100622100Y-66107342D01*
D63*
X107480100Y-43388100D02*
X107480100Y-42635166D01*
X107480100Y-42635166D02*
X107567388Y-42547878D01*
D59*
X114837300Y-45085000D02*
X114757200Y-44284900D01*
X114837300Y-43383200D02*
X114769900Y-42405300D01*
D58*
X108419900Y-52292500D02*
X107359200Y-52292500D01*
X107359200Y-52292500D02*
X107340400Y-52311300D01*
X86784097Y-47650400D02*
X86783568Y-47650929D01*
X86849873Y-48768000D02*
X86836178Y-48781695D01*
X87558700Y-47650400D02*
X86784097Y-47650400D01*
X87549900Y-48768000D02*
X86849873Y-48768000D01*
X76822300Y-56914873D02*
X76771491Y-56965682D01*
X76822300Y-56222900D02*
X76822300Y-56914873D01*
D59*
X106420643Y-41541700D02*
X106420572Y-41541629D01*
X107332600Y-41541700D02*
X106420643Y-41541700D01*
D61*
X95478600Y-55122314D02*
X95639194Y-54961720D01*
X95478600Y-56222899D02*
X95478600Y-55122314D01*
D58*
X108508800Y-56127400D02*
X108508800Y-55016400D01*
X108508800Y-55016400D02*
X108496100Y-55003700D01*
X108237200Y-63207900D02*
X108839000Y-63207900D01*
X108839000Y-63207900D02*
X108851700Y-63195200D01*
D59*
X106464100Y-69583300D02*
X105486200Y-69583300D01*
X105486200Y-69583300D02*
X105460800Y-69608700D01*
X103924100Y-69583300D02*
X102920800Y-69583300D01*
X102920800Y-69583300D02*
X102908100Y-69596000D01*
D58*
X97243900Y-65891500D02*
X97243900Y-66535300D01*
X97243900Y-66535300D02*
X97205800Y-66573400D01*
D57*
X69011800Y-25831800D02*
X69011800Y-27698700D01*
X69011800Y-27698700D02*
X69037200Y-27724100D01*
D60*
X74663300Y-30755846D02*
X74686923Y-30732223D01*
X74663300Y-31526300D02*
X74663300Y-30755846D01*
D57*
X82821298Y-25960713D02*
X82207100Y-25958800D01*
X85352800Y-25933400D02*
X84709000Y-25946100D01*
X89796800Y-25920700D02*
X90512900Y-25920700D01*
X80273592Y-25975240D02*
X79616300Y-25971500D01*
D60*
X79495210Y-36741770D02*
X79241211Y-36487771D01*
X79817940Y-37064500D02*
X79495210Y-36741770D01*
X84508200Y-37064500D02*
X79817940Y-37064500D01*
D59*
X114655600Y-47434500D02*
X114655600Y-46710600D01*
X114655600Y-46710600D02*
X114642900Y-46697900D01*
X78463105Y-47467767D02*
X78463105Y-48186305D01*
X78463105Y-48186305D02*
X78473300Y-48196500D01*
X79707705Y-47467766D02*
X79707705Y-48181295D01*
X79707705Y-48181295D02*
X79705200Y-48183800D01*
X91610000Y-53632100D02*
X91610000Y-54363800D01*
X91610000Y-54363800D02*
X91605100Y-54368700D01*
X87541100Y-50927000D02*
X87541100Y-50215800D01*
X82645160Y-58574940D02*
X82120740Y-58574940D01*
X82120740Y-58574940D02*
X82092800Y-58547000D01*
X106266640Y-69418200D02*
X106268868Y-69420428D01*
X91441650Y-36953808D02*
X91695649Y-36699809D01*
X91158200Y-37064500D02*
X91330958Y-37064500D01*
X91330958Y-37064500D02*
X91441650Y-36953808D01*
D60*
X69298360Y-61006100D02*
X69007100Y-61006100D01*
X69007100Y-61006100D02*
X68249800Y-60248800D01*
X70698360Y-60106100D02*
X70698360Y-59781440D01*
X70698360Y-59781440D02*
X71361300Y-59118500D01*
X71198360Y-60106100D02*
X71288100Y-60106100D01*
X71288100Y-60106100D02*
X72199500Y-59194700D01*
X71010949Y-65173017D02*
X70698360Y-64860428D01*
X70698360Y-64860428D02*
X70698360Y-62906100D01*
D58*
X98513900Y-65891500D02*
X98513900Y-66586100D01*
X95669100Y-65878800D02*
X95669100Y-66509900D01*
X108233300Y-62001400D02*
X108800900Y-62001400D01*
X108800900Y-62001400D02*
X108813600Y-61988700D01*
X107467400Y-65543000D02*
X107467400Y-66128900D01*
X107467400Y-66128900D02*
X107480100Y-66141600D01*
X106108500Y-65543000D02*
X106108500Y-66128900D01*
X106108500Y-66128900D02*
X106095800Y-66141600D01*
X104724200Y-65543000D02*
X104724200Y-66141600D01*
X103339900Y-65543000D02*
X103339900Y-66141600D01*
X101981000Y-65555700D02*
X101981000Y-66116200D01*
D61*
X98109200Y-53924200D02*
X97599500Y-53924200D01*
X98121900Y-56654700D02*
X97599500Y-56654700D01*
X97599500Y-56654700D02*
X97586800Y-56642000D01*
D59*
X107019600Y-35154300D02*
X107733400Y-35154300D01*
X107733400Y-35154300D02*
X107746800Y-35140900D01*
D63*
X111455200Y-43389700D02*
X111455200Y-42697400D01*
D57*
X101514060Y-37627560D02*
X102082600Y-37617400D01*
X101506860Y-36329620D02*
X102082600Y-36322000D01*
X80273592Y-27194440D02*
X79616300Y-27190700D01*
X80260892Y-28400940D02*
X79616300Y-28397200D01*
X82826198Y-28386414D02*
X82194400Y-28384500D01*
X82826198Y-27179914D02*
X82207100Y-27190700D01*
X85350292Y-28394341D02*
X84772500Y-28397200D01*
X85358093Y-27149740D02*
X84709000Y-27152600D01*
X89796800Y-27127200D02*
X90525600Y-27127200D01*
X81009400Y-36461700D02*
X80314800Y-36461700D01*
X81000600Y-35242500D02*
X80302100Y-35242500D01*
D59*
X88678840Y-28892500D02*
X88049100Y-28892500D01*
X88678840Y-30139640D02*
X88061800Y-30137100D01*
X88678840Y-31379160D02*
X88061800Y-31381700D01*
X91233765Y-28883349D02*
X90639900Y-28892500D01*
X91230045Y-30133030D02*
X90639900Y-30137100D01*
X91233765Y-31375090D02*
X90639900Y-31381700D01*
X93763187Y-31381092D02*
X93141800Y-31381700D01*
X93759467Y-30156812D02*
X93141800Y-30149800D01*
X93759467Y-28924912D02*
X93141800Y-28930600D01*
X97031380Y-33535620D02*
X97835720Y-33535620D01*
X94864100Y-36309300D02*
X95758000Y-36309300D01*
X94864100Y-35026600D02*
X95755460Y-35026600D01*
X99245420Y-40021600D02*
X99250500Y-40944800D01*
X97961241Y-40031678D02*
X97965260Y-40934640D01*
X96681082Y-40031678D02*
X96681082Y-40932176D01*
X96681082Y-40932176D02*
X96665199Y-40948059D01*
X98857861Y-44626188D02*
X99763580Y-44625260D01*
X98853961Y-43368888D02*
X99761040Y-43367960D01*
X98857861Y-42111589D02*
X99758500Y-42113200D01*
X97945120Y-46103540D02*
X98849180Y-46103540D01*
X97945120Y-47355760D02*
X98831400Y-47353220D01*
D58*
X92430600Y-68392000D02*
X92430600Y-69570600D01*
X87591900Y-55422800D02*
X86677500Y-55422800D01*
X87591900Y-53949600D02*
X86677500Y-53949600D01*
X92726600Y-50723800D02*
X93586300Y-50723800D01*
X92717799Y-49466500D02*
X93548200Y-49466500D01*
X92679700Y-47752000D02*
X93522800Y-47752000D01*
X92654300Y-46443900D02*
X93522800Y-46443900D01*
X87546000Y-52235100D02*
X86677500Y-52235100D01*
D59*
X86083200Y-43114500D02*
X86083200Y-43911312D01*
X86083200Y-43911312D02*
X85445799Y-44548713D01*
X83388200Y-68382300D02*
X83388200Y-69202300D01*
X84747100Y-68382300D02*
X84747100Y-69202300D01*
X81343320Y-60647580D02*
X81346040Y-59738260D01*
X82646520Y-54033420D02*
X81747360Y-54033420D01*
X80472280Y-55359300D02*
X79669640Y-55359300D01*
X81559370Y-49433184D02*
X80878680Y-49430940D01*
X81563270Y-48175884D02*
X80878680Y-48186340D01*
X81567303Y-46922532D02*
X80878680Y-46926500D01*
X79497547Y-40424563D02*
X78719680Y-40434260D01*
D58*
X72181791Y-42072803D02*
X72181791Y-42852403D01*
D59*
X85083200Y-43139500D02*
X84505800Y-43141900D01*
X84508200Y-42564500D02*
X84505800Y-43141900D01*
D58*
X72301100Y-56570800D02*
X72301100Y-57746900D01*
X79494200Y-39243000D02*
X78727300Y-39243000D01*
D57*
X71674700Y-47651500D02*
X71678800Y-48463200D01*
X71674700Y-46201500D02*
X71678800Y-45466000D01*
D58*
X76880720Y-44447640D02*
X76880720Y-45354240D01*
X88641100Y-50927000D02*
X88646000Y-52235100D01*
X89560400Y-50215800D02*
X88641100Y-50927000D01*
X89560400Y-46024800D02*
X89560400Y-50215800D01*
X88582500Y-44551600D02*
X89560400Y-46024800D01*
X88583200Y-43114500D02*
X88582500Y-44551600D01*
D59*
X83746520Y-55359300D02*
X83748880Y-56512460D01*
X83746520Y-54033420D02*
X83746520Y-55359300D01*
X83738720Y-52783740D02*
X83746520Y-54033420D01*
D58*
X103471162Y-55912482D02*
X103471162Y-55219638D01*
X102972600Y-57205100D02*
X102972600Y-56411044D01*
X102972600Y-56411044D02*
X103471162Y-55912482D01*
X103471162Y-55219638D02*
X103471162Y-54788586D01*
D59*
X74663300Y-32626300D02*
X74663300Y-32576300D01*
X74663300Y-32576300D02*
X77635100Y-29604500D01*
X77635100Y-29604500D02*
X77635100Y-27106878D01*
X77635100Y-27106878D02*
X80037533Y-24704445D01*
X80037533Y-24704445D02*
X92047467Y-24704445D01*
X92047467Y-24704445D02*
X95501921Y-28158899D01*
X102717600Y-35671012D02*
X102717600Y-46609000D01*
X95501921Y-28158899D02*
X95501921Y-32428643D01*
X95501921Y-32428643D02*
X95890079Y-32816801D01*
X95890079Y-32816801D02*
X99863389Y-32816801D01*
X99863389Y-32816801D02*
X102717600Y-35671012D01*
X103545377Y-46723464D02*
X103976429Y-46723464D01*
X102832064Y-46723464D02*
X103545377Y-46723464D01*
X102717600Y-46609000D02*
X102832064Y-46723464D01*
X106548810Y-46735165D02*
X106117758Y-46735165D01*
X109486909Y-46735165D02*
X106548810Y-46735165D01*
X110109000Y-50812700D02*
X110109000Y-47357256D01*
X110109000Y-47357256D02*
X109486909Y-46735165D01*
X102717600Y-46964600D02*
X102717600Y-46609000D01*
X102717600Y-48716141D02*
X102717600Y-48539327D01*
X102717600Y-48749821D02*
X100496379Y-50971042D01*
X102717600Y-48716141D02*
X102717600Y-48749821D01*
X100496379Y-50971042D02*
X100191580Y-51275841D01*
X102717600Y-48716141D02*
X102717600Y-46964600D01*
D60*
X74648060Y-34891980D02*
X74648060Y-32641540D01*
X74648060Y-32641540D02*
X74663300Y-32626300D01*
D61*
X102830131Y-55537563D02*
X102830131Y-55477206D01*
X102472600Y-57205100D02*
X102472600Y-55895094D01*
X102472600Y-55895094D02*
X102830131Y-55537563D01*
D59*
X72847200Y-36309300D02*
X73731300Y-36309300D01*
X73093400Y-36301500D02*
X73088500Y-36296600D01*
D60*
X74648060Y-35593020D02*
X74648060Y-35630940D01*
X74406760Y-35643640D02*
X73736200Y-36314200D01*
D59*
X108432600Y-41541700D02*
X109842300Y-41541700D01*
X109842300Y-41541700D02*
X110223300Y-41922700D01*
X108430100Y-43388100D02*
X108430100Y-41544200D01*
X108430100Y-41544200D02*
X108432600Y-41541700D01*
X113737300Y-43383200D02*
X113737300Y-39094500D01*
X113737300Y-39094500D02*
X113931700Y-38900100D01*
X113737300Y-39653300D02*
X113906300Y-39484300D01*
D63*
X112405200Y-43389700D02*
X113737300Y-43383200D01*
X112255300Y-41922700D02*
X112405200Y-43389700D01*
X110223300Y-41922700D02*
X112255300Y-41922700D01*
X110223300Y-41922700D02*
X110505200Y-43389700D01*
D59*
X82646520Y-55359300D02*
X81372280Y-55359300D01*
D58*
X88691900Y-53949600D02*
X88691900Y-55422800D01*
X90182700Y-53073300D02*
X88691900Y-53949600D01*
X90182700Y-45961300D02*
X90182700Y-53073300D01*
X89077800Y-44183300D02*
X90182700Y-45961300D01*
X89083200Y-43114500D02*
X89077800Y-44183300D01*
D59*
X83745160Y-58574940D02*
X83748880Y-59742500D01*
X83748880Y-57412460D02*
X83745160Y-58574940D01*
D58*
X91626600Y-50723800D02*
X91617799Y-49466500D01*
X90766900Y-48806100D02*
X91617799Y-49466500D01*
X90728800Y-45707300D02*
X90766900Y-48806100D01*
X89585800Y-43954700D02*
X90728800Y-45707300D01*
X89583200Y-43114500D02*
X89585800Y-43954700D01*
X83748880Y-60642500D02*
X83756500Y-61963300D01*
X84734400Y-60020200D02*
X83748880Y-60642500D01*
X84734400Y-59740800D02*
X84734400Y-60020200D01*
D59*
X83820516Y-60642500D02*
X83748880Y-60642500D01*
D58*
X84709000Y-44183300D02*
X84734400Y-59740800D01*
X85587840Y-43685460D02*
X84709000Y-44183300D01*
D59*
X85583200Y-43114500D02*
X85587840Y-43685460D01*
X83748880Y-60642500D02*
X82443320Y-60647580D01*
X99484680Y-26021559D02*
X99521863Y-25984376D01*
X99484680Y-27007180D02*
X99484680Y-26021559D01*
X115062000Y-49568100D02*
X113080800Y-49568100D01*
X113080800Y-49568100D02*
X112877600Y-49364900D01*
X112864900Y-49352200D02*
X112877600Y-49364900D01*
X109220000Y-45593000D02*
X108435000Y-45593000D01*
X108435000Y-45593000D02*
X108430100Y-45588100D01*
D60*
X72098360Y-61006100D02*
X72801587Y-61006100D01*
X72801587Y-61006100D02*
X72809421Y-60998266D01*
D59*
X109131100Y-47459900D02*
X108438100Y-47459900D01*
X108438100Y-47459900D02*
X108419900Y-47441700D01*
X108419900Y-47441700D02*
X106999100Y-47441700D01*
X106999100Y-47441700D02*
X106921300Y-47519500D01*
X108430100Y-47431500D02*
X108419900Y-47441700D01*
D58*
X91554300Y-46443900D02*
X91579700Y-47752000D01*
X91554300Y-45732700D02*
X91554300Y-46443900D01*
X90081100Y-43675300D02*
X91554300Y-45732700D01*
X90083200Y-43114500D02*
X90081100Y-43675300D01*
X92711678Y-52380740D02*
X92710000Y-53632100D01*
X94310200Y-51485800D02*
X92711678Y-52380740D01*
X94297500Y-46113700D02*
X94310200Y-51485800D01*
X93281500Y-45186600D02*
X94297500Y-46113700D01*
X91884500Y-45199300D02*
X93281500Y-45186600D01*
X90576400Y-43522900D02*
X91884500Y-45199300D01*
X90583200Y-43139500D02*
X90576400Y-43522900D01*
D59*
X80538320Y-45727620D02*
X79707705Y-46367766D01*
X80538320Y-43660060D02*
X80538320Y-45727620D01*
X82097880Y-42527220D02*
X80538320Y-43660060D01*
X82097880Y-41465500D02*
X82097880Y-42527220D01*
X82382360Y-41297860D02*
X82097880Y-41465500D01*
X83113880Y-41297860D02*
X82382360Y-41297860D01*
X83286600Y-41224200D02*
X83113880Y-41297860D01*
X84533200Y-41064500D02*
X83794600Y-41059100D01*
X83794600Y-41059100D02*
X83286600Y-41224200D01*
X79707705Y-46367766D02*
X78463105Y-46367767D01*
X83388200Y-66212900D02*
X83388200Y-67482300D01*
X84747100Y-66205100D02*
X84747100Y-67482300D01*
X81437480Y-42186860D02*
X79712820Y-43348820D01*
X81437480Y-41003220D02*
X81437480Y-42186860D01*
X81826100Y-40728900D02*
X81437480Y-41003220D01*
X83159600Y-40728900D02*
X81826100Y-40728900D01*
X83572941Y-40564500D02*
X83159600Y-40728900D01*
X84533200Y-40564500D02*
X83572941Y-40564500D01*
X79712820Y-43348820D02*
X78417420Y-43348820D01*
X96771460Y-45278040D02*
X96850200Y-45445680D01*
X96845120Y-46103540D02*
X96850200Y-45445680D01*
X92430600Y-41564560D02*
X96771460Y-45278040D01*
X91133200Y-41564500D02*
X92430600Y-41564560D01*
X96845120Y-47355760D02*
X96845120Y-46103540D01*
D57*
X102139660Y-25252680D02*
X101407860Y-25252680D01*
X101384100Y-25276440D02*
X101384100Y-25298409D01*
X101407860Y-25252680D02*
X101384100Y-25276440D01*
X82773520Y-40063420D02*
X82245200Y-39743380D01*
X83266280Y-40063420D02*
X82773520Y-40063420D01*
D58*
X84533200Y-40064500D02*
X83266280Y-40063420D01*
D60*
X116322885Y-57200800D02*
X116322885Y-36830637D01*
X116322885Y-64762645D02*
X116322885Y-57200800D01*
X116322885Y-57200800D02*
X116268500Y-57200800D01*
X116268500Y-57200800D02*
X114706400Y-58762900D01*
X116322885Y-36830637D02*
X116355701Y-36797821D01*
X116355701Y-36797821D02*
X116355701Y-35689979D01*
X116355701Y-29797821D02*
X116355701Y-28689979D01*
X116355701Y-28689979D02*
X116345137Y-28679415D01*
X116345137Y-28679415D02*
X116345137Y-27931464D01*
X116355701Y-35689979D02*
X116322885Y-35657163D01*
X116322885Y-35657163D02*
X116322885Y-29830637D01*
X116322885Y-29830637D02*
X116355701Y-29797821D01*
X116345137Y-27931464D02*
X115975278Y-27561605D01*
X115975278Y-27561605D02*
X112715040Y-27561605D01*
X112715040Y-27561605D02*
X109737814Y-24584379D01*
X103711021Y-24584379D02*
X103239660Y-25055740D01*
X109737814Y-24584379D02*
X103711021Y-24584379D01*
X116319300Y-67449700D02*
X116080931Y-67688069D01*
X116080931Y-67688069D02*
X111088718Y-67688069D01*
X116319300Y-67424300D02*
X116319300Y-67449700D01*
X116319300Y-66751202D02*
X116319300Y-67424300D01*
X116322885Y-64762645D02*
X116322885Y-66747617D01*
X116322885Y-66747617D02*
X116319300Y-66751202D01*
X116326387Y-64766147D02*
X116322885Y-64762645D01*
X99764581Y-62258319D02*
X99764581Y-62455522D01*
X100017800Y-62005100D02*
X99764581Y-62258319D01*
X100472600Y-62005100D02*
X100017800Y-62005100D01*
D57*
X103239660Y-25252680D02*
X103239660Y-25055740D01*
X103239660Y-25252680D02*
X103239660Y-26762160D01*
X103239660Y-26762160D02*
X103484680Y-27007180D01*
X104401620Y-25252680D02*
X103239660Y-25252680D01*
X103239660Y-25252680D02*
X103217034Y-25275306D01*
X103483734Y-27006233D02*
X103484680Y-27007180D01*
D58*
X82109400Y-36461700D02*
X82109400Y-35251300D01*
D59*
X82109400Y-35251300D02*
X82100600Y-35242500D01*
D58*
X85083200Y-36489500D02*
X82109400Y-36461700D01*
D57*
X78931502Y-34150300D02*
X78931439Y-34150363D01*
X83997800Y-34150300D02*
X78931502Y-34150300D01*
X84375836Y-34242834D02*
X83997800Y-34150300D01*
X85572176Y-35408694D02*
X85508676Y-35197874D01*
X85508676Y-35197874D02*
X85414696Y-34997214D01*
X85140376Y-34646694D02*
X84972736Y-34504454D01*
X84586656Y-34303794D02*
X84375836Y-34242834D01*
X85414696Y-34997214D02*
X85287696Y-34809254D01*
X85287696Y-34809254D02*
X85140376Y-34646694D01*
X84787316Y-34390154D02*
X84586656Y-34303794D01*
X84972736Y-34504454D02*
X84787316Y-34390154D01*
X85572176Y-35826276D02*
X85572176Y-35408694D01*
D59*
X85583200Y-36514500D02*
X85572176Y-35826276D01*
D64*
X85572600Y-36503900D02*
X85583200Y-36514500D01*
D58*
X98623795Y-62779805D02*
X98922003Y-62779805D01*
X98521100Y-63487300D02*
X98521100Y-62882500D01*
X98521100Y-62882500D02*
X98623795Y-62779805D01*
D61*
X97027345Y-60555855D02*
X98084414Y-60555855D01*
X96545400Y-61137800D02*
X96545400Y-61037800D01*
D58*
X98716221Y-60355100D02*
X98515466Y-60555855D01*
X99822600Y-60355100D02*
X98716221Y-60355100D01*
D61*
X96545400Y-61037800D02*
X97027345Y-60555855D01*
X98084414Y-60555855D02*
X98515466Y-60555855D01*
D59*
X107537481Y-67825303D02*
X108338303Y-67825303D01*
X108338303Y-67825303D02*
X109004100Y-68491100D01*
X109004100Y-68491100D02*
X109004100Y-69583300D01*
X107549507Y-67813277D02*
X107537481Y-67825303D01*
X107537481Y-67825303D02*
X106771471Y-67825303D01*
X106771471Y-67825303D02*
X106412261Y-67825303D01*
X114668300Y-55930800D02*
X112915700Y-55930800D01*
X112915700Y-55930800D02*
X112852200Y-55867300D01*
D58*
X98513900Y-64791500D02*
X97243900Y-64791500D01*
X98513900Y-64791500D02*
X98513900Y-63494500D01*
X98513900Y-63494500D02*
X98521100Y-63487300D01*
D61*
X96545400Y-61137800D02*
X95471400Y-61137800D01*
D60*
X98757358Y-58003272D02*
X98452559Y-57698473D01*
X99822600Y-58355100D02*
X99358146Y-58355100D01*
X99006318Y-58003272D02*
X98757358Y-58003272D01*
X99358146Y-58355100D02*
X99006318Y-58003272D01*
D58*
X96086674Y-67754500D02*
X95550776Y-67754500D01*
X95550776Y-67754500D02*
X94571400Y-66775124D01*
X94571400Y-66775124D02*
X94571400Y-61742600D01*
X94571400Y-61742600D02*
X94571400Y-61137800D01*
D59*
X96081000Y-71885774D02*
X96318526Y-72123300D01*
X96318526Y-72123300D02*
X98844100Y-72123300D01*
X96081000Y-70180200D02*
X96081000Y-71885774D01*
X96079400Y-68139500D02*
X96079400Y-67761774D01*
X96079400Y-67761774D02*
X96086674Y-67754500D01*
D58*
X96079400Y-68694300D02*
X96079400Y-68139500D01*
X96081000Y-70180200D02*
X96081000Y-68695900D01*
X96081000Y-68695900D02*
X96079400Y-68694300D01*
X96081000Y-70180200D02*
X96081000Y-70223800D01*
D61*
X94571400Y-61137800D02*
X94571400Y-60444800D01*
X94571400Y-60444800D02*
X94576900Y-60439300D01*
D59*
X109042200Y-34861500D02*
X109042200Y-38887400D01*
X109042200Y-38887400D02*
X109054900Y-38900100D01*
X109042200Y-39471600D02*
X109029500Y-39484300D01*
D57*
X108419900Y-48341700D02*
X108419900Y-49942500D01*
D59*
X108419900Y-50044100D02*
X108426500Y-50050700D01*
D58*
X106919600Y-58356500D02*
X108387900Y-58356500D01*
X108387900Y-58356500D02*
X108508800Y-58477400D01*
D61*
X108076501Y-58356500D02*
X108089201Y-58369200D01*
D58*
X106349800Y-52285900D02*
X105225600Y-52285900D01*
X105225600Y-52285900D02*
X105181400Y-52241700D01*
X106895900Y-56959500D02*
X106895900Y-55613309D01*
X106895900Y-55613309D02*
X107530909Y-54978300D01*
D61*
X96583500Y-58559700D02*
X95491799Y-58559700D01*
X95491799Y-58559700D02*
X95478600Y-58572899D01*
D60*
X68478400Y-61506100D02*
X69298360Y-61506100D01*
D57*
X67411600Y-61506100D02*
X68478400Y-61506100D01*
X64947800Y-61506100D02*
X67411600Y-61506100D01*
D56*
X69298360Y-61506100D02*
X69291801Y-61512659D01*
D58*
X111039736Y-65155871D02*
X114546171Y-65155871D01*
X114546171Y-65155871D02*
X114706400Y-65316100D01*
X114706400Y-65316100D02*
X114706400Y-66382900D01*
X106006901Y-60782201D02*
X106260900Y-61036200D01*
X105963604Y-60782201D02*
X106006901Y-60782201D01*
X105536503Y-60355100D02*
X105963604Y-60782201D01*
X104622600Y-60355100D02*
X105536503Y-60355100D01*
D59*
X94378780Y-39565580D02*
X94861380Y-39644320D01*
X91133200Y-39564500D02*
X94378780Y-39565580D01*
D61*
X104111067Y-55266119D02*
X104111067Y-52626954D01*
X104890048Y-56045100D02*
X104111067Y-55266119D01*
X105321100Y-56045100D02*
X104890048Y-56045100D01*
X104111067Y-52626954D02*
X103954904Y-52470791D01*
X103954904Y-52470791D02*
X103954904Y-52039739D01*
X114706400Y-63842900D02*
X115869956Y-62679344D01*
X115869956Y-62679344D02*
X115869956Y-60613040D01*
X111466221Y-59797939D02*
X111088269Y-59419987D01*
X115869956Y-60613040D02*
X115296666Y-60039750D01*
X115296666Y-60039750D02*
X111666340Y-60039750D01*
X111666340Y-60039750D02*
X111466221Y-59839631D01*
X111466221Y-59839631D02*
X111466221Y-59797939D01*
X105321100Y-58888500D02*
X105548678Y-58888500D01*
X107058959Y-59016880D02*
X107462066Y-59419987D01*
X105548678Y-58888500D02*
X105677058Y-59016880D01*
X105677058Y-59016880D02*
X107058959Y-59016880D01*
X107462066Y-59419987D02*
X111088269Y-59419987D01*
X111088269Y-59419987D02*
X111090998Y-59422716D01*
X104622600Y-58855100D02*
X105287700Y-58855100D01*
X105287700Y-58855100D02*
X105321100Y-58888500D01*
D59*
X93972380Y-40063420D02*
X94254320Y-40162480D01*
X91133200Y-40064500D02*
X93972380Y-40063420D01*
D61*
X111470200Y-62522100D02*
X113487200Y-62522100D01*
X109057200Y-60109100D02*
X111470200Y-62522100D01*
X108527000Y-60109100D02*
X109057200Y-60109100D01*
X113487200Y-62522100D02*
X114706400Y-61302900D01*
X108319000Y-60871100D02*
X106967829Y-60871100D01*
X106967829Y-60871100D02*
X106255486Y-60158757D01*
X108527000Y-60109100D02*
X108527000Y-60663100D01*
X108527000Y-60663100D02*
X108319000Y-60871100D01*
D58*
X106001487Y-59904758D02*
X106255486Y-60158757D01*
X105951829Y-59855100D02*
X106001487Y-59904758D01*
X104622600Y-59855100D02*
X105951829Y-59855100D01*
D59*
X93268800Y-40563800D02*
X93657420Y-40637460D01*
X91133200Y-40564500D02*
X93268800Y-40563800D01*
D58*
X103909494Y-56228827D02*
X104057027Y-56228827D01*
X103472600Y-56665721D02*
X103909494Y-56228827D01*
X103472600Y-57205100D02*
X103472600Y-56665721D01*
D59*
X110083601Y-63828889D02*
X110083601Y-63671171D01*
X110083601Y-63671171D02*
X110832541Y-62922231D01*
X93116400Y-62331600D02*
X93725999Y-62941199D01*
X93725999Y-62941199D02*
X93725999Y-72008999D01*
X110083601Y-72641461D02*
X110083601Y-63828889D01*
X93725999Y-72008999D02*
X94932500Y-73215500D01*
X109509562Y-73215500D02*
X110083601Y-72641461D01*
X94932500Y-73215500D02*
X109509562Y-73215500D01*
X110083601Y-63828889D02*
X110090942Y-63821548D01*
D60*
X72771000Y-62001400D02*
X73228200Y-62306200D01*
X72098360Y-62006100D02*
X72771000Y-62001400D01*
D58*
X108641983Y-53420857D02*
X106434791Y-53420857D01*
X111073697Y-57008387D02*
X111073697Y-55852571D01*
X111073697Y-55852571D02*
X108641983Y-53420857D01*
X106434791Y-53420857D02*
X105052517Y-54803131D01*
X105052517Y-54803131D02*
X105052517Y-55234183D01*
D59*
X111073697Y-57008387D02*
X112166400Y-58762900D01*
X97675623Y-52552997D02*
X96082888Y-54145732D01*
X96082888Y-54145732D02*
X95807241Y-54145732D01*
D58*
X103972600Y-57205100D02*
X104389700Y-57205100D01*
X104389700Y-57205100D02*
X104533700Y-57061100D01*
D60*
X72796400Y-61506100D02*
X73228200Y-61645800D01*
X72098360Y-61506100D02*
X72796400Y-61506100D01*
D59*
X99822600Y-61355100D02*
X99572600Y-61355100D01*
X99572600Y-61355100D02*
X98921338Y-62006362D01*
X98921338Y-62006362D02*
X98570979Y-62006362D01*
X98570979Y-62006362D02*
X97866200Y-62711141D01*
X97866200Y-62711141D02*
X97866200Y-63284848D01*
X97866200Y-63284848D02*
X97866200Y-63715900D01*
X107165120Y-70933248D02*
X107814048Y-70933248D01*
X107814048Y-70933248D02*
X109004100Y-72123300D01*
X96971874Y-70517105D02*
X97225873Y-70771104D01*
X96930777Y-70476008D02*
X96971874Y-70517105D01*
X96930777Y-68092880D02*
X96930777Y-70476008D01*
D61*
X99822600Y-60855100D02*
X99314485Y-60855100D01*
X99314485Y-60855100D02*
X98738422Y-61431163D01*
X98738422Y-61431163D02*
X97970463Y-61431163D01*
X97677100Y-61137800D02*
X97445400Y-61137800D01*
X97970463Y-61431163D02*
X97677100Y-61137800D01*
D59*
X97445400Y-61137800D02*
X97445400Y-61768000D01*
X96837490Y-67284590D02*
X99286052Y-67284590D01*
X97445400Y-61768000D02*
X96410422Y-62802978D01*
X96410422Y-62802978D02*
X96410422Y-66857522D01*
X96410422Y-66857522D02*
X96837490Y-67284590D01*
X99286052Y-67284590D02*
X99923601Y-67922139D01*
X105384599Y-71043799D02*
X105702101Y-71361301D01*
X99923601Y-67922139D02*
X99923601Y-69720463D01*
X99923601Y-69720463D02*
X101246937Y-71043799D01*
X101246937Y-71043799D02*
X105384599Y-71043799D01*
X105702101Y-71361301D02*
X106464100Y-72123300D01*
X83728560Y-44073660D02*
X83738720Y-51883740D01*
X83728560Y-44073660D02*
X83728560Y-42547540D01*
X83728560Y-42547540D02*
X83781900Y-42354500D01*
X83781900Y-42354500D02*
X84074000Y-42062400D01*
X84074000Y-42062400D02*
X84533200Y-42064500D01*
X111518700Y-48091800D02*
X113198300Y-48091800D01*
X113198300Y-48091800D02*
X113755600Y-47534500D01*
X113755600Y-47534500D02*
X113755600Y-47434500D01*
X111533100Y-47447200D02*
X111533100Y-48077400D01*
X111533100Y-48077400D02*
X111518700Y-48091800D01*
X110505200Y-45789700D02*
X110505200Y-46419300D01*
X110505200Y-46419300D02*
X111533100Y-47447200D01*
D58*
X101472600Y-63598114D02*
X101389866Y-63680848D01*
X101472600Y-62005100D02*
X101472600Y-63598114D01*
D59*
X82856500Y-61963300D02*
X82852260Y-62981840D01*
D61*
X104622600Y-58355100D02*
X106018200Y-58355100D01*
X106018200Y-58355100D02*
X106019600Y-58356500D01*
X104622600Y-59355100D02*
X104998266Y-59355100D01*
X104998266Y-59355100D02*
X105066456Y-59423290D01*
X105066456Y-59423290D02*
X106487190Y-59423290D01*
X106487190Y-59423290D02*
X107173000Y-60109100D01*
X107173000Y-60109100D02*
X107627000Y-60109100D01*
D59*
X107549218Y-54030467D02*
X107980270Y-54030467D01*
X105995900Y-55583785D02*
X107549218Y-54030467D01*
X105995900Y-56959500D02*
X105995900Y-55583785D01*
D61*
X104622600Y-57855100D02*
X105100300Y-57855100D01*
X105100300Y-57855100D02*
X105995900Y-56959500D01*
D59*
X83616800Y-39560500D02*
X83045300Y-39243000D01*
D58*
X84533200Y-39564500D02*
X83616800Y-39560500D01*
X100622100Y-64150900D02*
X100622100Y-64655700D01*
X100972600Y-62500274D02*
X100622100Y-62850774D01*
X100972600Y-62005100D02*
X100972600Y-62500274D01*
X100622100Y-62850774D02*
X100622100Y-64150900D01*
X102059290Y-64072610D02*
X102059290Y-62645185D01*
X101981000Y-64655700D02*
X101981000Y-64150900D01*
X101981000Y-64150900D02*
X102059290Y-64072610D01*
X102059290Y-62645185D02*
X101972600Y-62558495D01*
X101972600Y-62558495D02*
X101972600Y-62005100D01*
X102516501Y-63314801D02*
X102516501Y-62049001D01*
X103339900Y-64138200D02*
X102516501Y-63314801D01*
X102516501Y-62049001D02*
X102472600Y-62005100D01*
X103339900Y-64643000D02*
X103339900Y-64138200D01*
X102972600Y-62005100D02*
X102973712Y-62006212D01*
X102973712Y-62006212D02*
X102973712Y-62992512D01*
X104624200Y-64643000D02*
X104724200Y-64643000D01*
X102973712Y-62992512D02*
X104624200Y-64643000D01*
X103472600Y-62005100D02*
X103472600Y-62709900D01*
X103472600Y-62709900D02*
X104900899Y-64138199D01*
X104900899Y-64138199D02*
X105503700Y-64138200D01*
X105503700Y-64138200D02*
X106008500Y-64643000D01*
X106008500Y-64643000D02*
X106108500Y-64643000D01*
X103972600Y-62005100D02*
X103972600Y-62255100D01*
X103972600Y-62255100D02*
X105398490Y-63680990D01*
X105398490Y-63680990D02*
X106405390Y-63680990D01*
X106405390Y-63680990D02*
X107367400Y-64643000D01*
X107367400Y-64643000D02*
X107467400Y-64643000D01*
D60*
X99822600Y-57855100D02*
X99572600Y-57855100D01*
X99572600Y-57855100D02*
X99021900Y-57304400D01*
X99021900Y-57304400D02*
X99021900Y-56654700D01*
D61*
X101383569Y-55104679D02*
X101626768Y-54861480D01*
X101472600Y-57205100D02*
X101472600Y-56551100D01*
X101383569Y-56462069D02*
X101383569Y-55104679D01*
X101472600Y-56551100D02*
X101383569Y-56462069D01*
X99517200Y-55283100D02*
X99021900Y-55283100D01*
X101972600Y-55558541D02*
X102012477Y-55518664D01*
X101972600Y-57205100D02*
X101972600Y-55558541D01*
X99580700Y-53911500D02*
X99021900Y-53911500D01*
X99021900Y-53911500D02*
X99009200Y-53924200D01*
X99822600Y-58855100D02*
X99220190Y-58855100D01*
X97937500Y-58559700D02*
X97483500Y-58559700D01*
X99220190Y-58855100D02*
X98891887Y-58526797D01*
X98891887Y-58526797D02*
X97970403Y-58526797D01*
X97970403Y-58526797D02*
X97937500Y-58559700D01*
D59*
X72986900Y-28422600D02*
X75577700Y-25831800D01*
X75577700Y-25831800D02*
X76758800Y-25831800D01*
X95181000Y-71824000D02*
X94856300Y-72250300D01*
X95181000Y-70810400D02*
X95181000Y-71824000D01*
X95181000Y-70180200D02*
X95181000Y-70810400D01*
X95181000Y-70180200D02*
X95193665Y-70192865D01*
D57*
X74843640Y-62227460D02*
X74841100Y-56570800D01*
X74500740Y-64828420D02*
X74343260Y-64975740D01*
X73322181Y-65298320D02*
X72438260Y-65298320D01*
X74160380Y-65097659D02*
X73964800Y-65194179D01*
X74642980Y-64660780D02*
X74500740Y-64828420D01*
X72019159Y-65140840D02*
X71833740Y-65026540D01*
X74843640Y-62227460D02*
X74843640Y-64272160D01*
X74843640Y-64272160D02*
X74754740Y-64472820D01*
X71666100Y-64884300D02*
X71518780Y-64721740D01*
X71297800Y-64333120D02*
X71234300Y-64122300D01*
X74754740Y-64472820D02*
X74642980Y-64660780D01*
X71518780Y-64721740D02*
X71391780Y-64533780D01*
X74343260Y-64975740D02*
X74160380Y-65097659D01*
X71234300Y-64122300D02*
X71203820Y-63865759D01*
X73964800Y-65194179D02*
X73756520Y-65260220D01*
X71833740Y-65026540D02*
X71666100Y-64884300D01*
X73538080Y-65295780D02*
X73322181Y-65298320D01*
X73756520Y-65260220D02*
X73538080Y-65295780D01*
X72438260Y-65298320D02*
X72219820Y-65227200D01*
X72219820Y-65227200D02*
X72019159Y-65140840D01*
X71391780Y-64533780D02*
X71297800Y-64333120D01*
D60*
X71203820Y-63865759D02*
X71203820Y-62911560D01*
X71203820Y-62911560D02*
X71198360Y-62906100D01*
D57*
X71203820Y-63903860D02*
X71203820Y-63865759D01*
D58*
X109168004Y-31571100D02*
X106902800Y-31571100D01*
X106676795Y-31797105D02*
X105019600Y-33454300D01*
X106902800Y-31571100D02*
X106676795Y-31797105D01*
X112526700Y-32743900D02*
X111514200Y-32743900D01*
X111514200Y-32743900D02*
X111431600Y-32826500D01*
X111431600Y-32826500D02*
X110423404Y-32826500D01*
X110423404Y-32826500D02*
X109168004Y-31571100D01*
X105674401Y-35898141D02*
X104702277Y-36870265D01*
X105019600Y-33454300D02*
X105019600Y-34289999D01*
X100472600Y-56605100D02*
X100472600Y-57205100D01*
X105019600Y-34289999D02*
X105297225Y-34289999D01*
X105297225Y-34289999D02*
X105587801Y-34580575D01*
X105674401Y-34810459D02*
X105674401Y-35898141D01*
X105587801Y-34723859D02*
X105674401Y-34810459D01*
X105587801Y-34580575D02*
X105587801Y-34723859D01*
X104702277Y-36870265D02*
X104702277Y-47668086D01*
X104702277Y-47668086D02*
X100494000Y-51876363D01*
X100494000Y-51876363D02*
X100494000Y-56583700D01*
X100494000Y-56583700D02*
X100472600Y-56605100D01*
X108967196Y-32055900D02*
X107103610Y-32055900D01*
X107103610Y-32055900D02*
X107019600Y-32139910D01*
X107019600Y-32139910D02*
X107019600Y-33454300D01*
X111514200Y-33393900D02*
X111431600Y-33311300D01*
X112526700Y-33393900D02*
X111514200Y-33393900D01*
X111431600Y-33311300D02*
X110222596Y-33311300D01*
X110222596Y-33311300D02*
X108967196Y-32055900D01*
X106044992Y-34428908D02*
X106044992Y-34534485D01*
X107019600Y-33454300D02*
X106044992Y-34428908D01*
X106044992Y-34534485D02*
X106131592Y-34621085D01*
X105159468Y-37059639D02*
X105159468Y-47857460D01*
X106131592Y-34621085D02*
X106131592Y-36087515D01*
X106131592Y-36087515D02*
X105159468Y-37059639D01*
X105159468Y-47857460D02*
X100951200Y-52065728D01*
X100951200Y-52065728D02*
X100951200Y-56583700D01*
X100951200Y-56583700D02*
X100972600Y-56605100D01*
X100972600Y-56605100D02*
X100972600Y-57205100D01*
D57*
X70218300Y-40411400D02*
X70256400Y-40182800D01*
X70209700Y-46201500D02*
X70218300Y-40411400D01*
X71513700Y-38785800D02*
X72230711Y-38785800D01*
X71399400Y-38836600D02*
X71513700Y-38785800D01*
X71335900Y-38874700D02*
X71399400Y-38836600D01*
X71234300Y-38938200D02*
X71335900Y-38874700D01*
X71132700Y-38989000D02*
X71234300Y-38938200D01*
X71031100Y-39052500D02*
X71132700Y-38989000D01*
X70954900Y-39103300D02*
X71031100Y-39052500D01*
X70878700Y-39179500D02*
X70954900Y-39103300D01*
X70827900Y-39243000D02*
X70878700Y-39179500D01*
X70739000Y-39306500D02*
X70827900Y-39243000D01*
X70662800Y-39420800D02*
X70739000Y-39306500D01*
X70586600Y-39484300D02*
X70662800Y-39420800D01*
X70497700Y-39598600D02*
X70586600Y-39484300D01*
X70459600Y-39649400D02*
X70497700Y-39598600D01*
X70421500Y-39738300D02*
X70459600Y-39649400D01*
X70383400Y-39814500D02*
X70421500Y-39738300D01*
X70345300Y-39890700D02*
X70383400Y-39814500D01*
X70319900Y-39966900D02*
X70345300Y-39890700D01*
X70294500Y-40030400D02*
X70319900Y-39966900D01*
X70269100Y-40081200D02*
X70294500Y-40030400D01*
X70256400Y-40182800D02*
X70269100Y-40081200D01*
X72230711Y-38785800D02*
X75717400Y-38785800D01*
X72215556Y-38800955D02*
X72230711Y-38785800D01*
X75717400Y-38785800D02*
X76136500Y-38696900D01*
D60*
X76149200Y-35598100D02*
X76415900Y-35763200D01*
D57*
X77203300Y-36588700D02*
X77127100Y-36436300D01*
X76174600Y-38684200D02*
X76352400Y-38620700D01*
X77177900Y-37833300D02*
X77254100Y-37680900D01*
X76352400Y-38620700D02*
X76504800Y-38544500D01*
X77127100Y-36436300D02*
X77038200Y-36309300D01*
X76911200Y-38214300D02*
X77000100Y-38112700D01*
X76504800Y-38544500D02*
X76631800Y-38455599D01*
X76682600Y-38417500D02*
X76809600Y-38315900D01*
X76631800Y-38455599D02*
X76682600Y-38417500D01*
X77101700Y-37973000D02*
X77177900Y-37833300D01*
X76796900Y-36029900D02*
X76695300Y-35941000D01*
X76809600Y-38315900D02*
X76911200Y-38214300D01*
X77000100Y-38112700D02*
X77101700Y-37973000D01*
X77254100Y-37680900D02*
X77304901Y-37541200D01*
X76898500Y-36131500D02*
X76796900Y-36029900D01*
X77317600Y-36944300D02*
X77266800Y-36766500D01*
X77343000Y-37134800D02*
X77317600Y-36944300D01*
X77304901Y-37541200D02*
X77343000Y-37134800D01*
X77266800Y-36766500D02*
X77203300Y-36588700D01*
X77038200Y-36309300D02*
X77000100Y-36258500D01*
X77000100Y-36258500D02*
X76898500Y-36131500D01*
X76695300Y-35941000D02*
X76555600Y-35839400D01*
X76555600Y-35839400D02*
X76415900Y-35763200D01*
X76415900Y-35763200D02*
X76263500Y-35687000D01*
D60*
X75618340Y-35593020D02*
X76149200Y-35598100D01*
D57*
X70199885Y-59360878D02*
X70209700Y-47651500D01*
X70195466Y-47665734D02*
X70209700Y-47651500D01*
D60*
X70198360Y-60106100D02*
X70198360Y-59552900D01*
X70198360Y-59552900D02*
X70199885Y-59551375D01*
X70199885Y-59551375D02*
X70199885Y-59360878D01*
D58*
X85471000Y-62511052D02*
X83830251Y-64151801D01*
X83830251Y-64151801D02*
X83830251Y-64670849D01*
X83830251Y-64670849D02*
X83388200Y-65112900D01*
X86583200Y-43114500D02*
X86583200Y-43639500D01*
X86583200Y-43639500D02*
X86591900Y-43648200D01*
X86591900Y-43648200D02*
X86591900Y-44664252D01*
X86591900Y-44664252D02*
X85471000Y-45785152D01*
X85471000Y-45785152D02*
X85471000Y-62511052D01*
X86583200Y-43114500D02*
X86583200Y-43304500D01*
X86583200Y-43304500D02*
X86591900Y-43313200D01*
X84312849Y-64670849D02*
X84747100Y-65105100D01*
X85953600Y-62710948D02*
X84312849Y-64351699D01*
X84312849Y-64351699D02*
X84312849Y-64670849D01*
X87083200Y-43114500D02*
X87083200Y-43639500D01*
X87074500Y-43648200D02*
X87074500Y-44864148D01*
X87083200Y-43639500D02*
X87074500Y-43648200D01*
X87074500Y-44864148D02*
X85953600Y-45985048D01*
X85953600Y-45985048D02*
X85953600Y-62710948D01*
X87083200Y-43304500D02*
X87074500Y-43313200D01*
X87083200Y-43114500D02*
X87083200Y-43304500D01*
X95199200Y-45756448D02*
X95199200Y-52748000D01*
X95199200Y-52748000D02*
X90438351Y-57508849D01*
X90438351Y-57508849D02*
X88226900Y-59720300D01*
X91732100Y-42784648D02*
X91732100Y-43711748D01*
X91158200Y-42564500D02*
X91175601Y-42547099D01*
X92406852Y-44386500D02*
X93829252Y-44386500D01*
X91175601Y-42547099D02*
X91494551Y-42547099D01*
X91494551Y-42547099D02*
X91732100Y-42784648D01*
X91732100Y-43711748D02*
X92406852Y-44386500D01*
X93829252Y-44386500D02*
X95199200Y-45756448D01*
X95681800Y-45556552D02*
X95681800Y-52947899D01*
X95681800Y-52947899D02*
X90779600Y-57850099D01*
X90779600Y-57850099D02*
X90779600Y-59724200D01*
X92214700Y-42584752D02*
X92214700Y-43511852D01*
X91694448Y-42064500D02*
X92214700Y-42584752D01*
X91133200Y-42064500D02*
X91694448Y-42064500D01*
X92214700Y-43511852D02*
X92606748Y-43903900D01*
X92606748Y-43903900D02*
X94029148Y-43903900D01*
X94029148Y-43903900D02*
X95681800Y-45556552D01*
X97687639Y-37632640D02*
X98270060Y-37632640D01*
X91666900Y-38055800D02*
X97264479Y-38055800D01*
X91658200Y-38064500D02*
X91666900Y-38055800D01*
X91133200Y-38064500D02*
X91658200Y-38064500D01*
X97264479Y-38055800D02*
X97687639Y-37632640D01*
X97064580Y-37573200D02*
X97346389Y-37291391D01*
X91666900Y-37573200D02*
X97064580Y-37573200D01*
X91658200Y-37564500D02*
X91666900Y-37573200D01*
X97346389Y-37291391D02*
X98300540Y-36337240D01*
X91133200Y-37564500D02*
X91658200Y-37564500D01*
X84533200Y-37564500D02*
X79901366Y-37564500D01*
X75518200Y-39420800D02*
X74523600Y-40415400D01*
X74523600Y-40415400D02*
X74523600Y-40970200D01*
X79892043Y-37573823D02*
X78543929Y-37573823D01*
X79901366Y-37564500D02*
X79892043Y-37573823D01*
X78543929Y-37573823D02*
X76696952Y-39420800D01*
X76696952Y-39420800D02*
X75518200Y-39420800D01*
X74523600Y-41420200D02*
X74917300Y-41813900D01*
X73533000Y-44369900D02*
X73533000Y-46393100D01*
X74917300Y-41939592D02*
X73533000Y-43323892D01*
X74523600Y-40970200D02*
X74523600Y-41420200D01*
X74917300Y-41813900D02*
X74917300Y-41939592D01*
X73533000Y-43323892D02*
X73533000Y-44369900D01*
X74523600Y-40920199D02*
X74523600Y-40970200D01*
X74015599Y-44369899D02*
X76047600Y-46401900D01*
X75793600Y-40970200D02*
X75793600Y-41420200D01*
X75793600Y-41420200D02*
X75399900Y-41813900D01*
X74015599Y-43523789D02*
X74015599Y-44369899D01*
X75399900Y-41813900D02*
X75399900Y-42139488D01*
X75399900Y-42139488D02*
X74015599Y-43523789D01*
X84533200Y-38064500D02*
X84008200Y-38064500D01*
X84008200Y-38064500D02*
X83999500Y-38055800D01*
X76896848Y-39903400D02*
X76272899Y-39903400D01*
X83999500Y-38055800D02*
X78731748Y-38055800D01*
X78731748Y-38055800D02*
X78409800Y-38377748D01*
X75793600Y-40382699D02*
X75793600Y-40970200D01*
X78409800Y-38390448D02*
X76896848Y-39903400D01*
X78409800Y-38377748D02*
X78409800Y-38390448D01*
X76272899Y-39903400D02*
X75793600Y-40382699D01*
X75793600Y-40920200D02*
X75793600Y-40970200D01*
X88226900Y-60820300D02*
X90919300Y-63512700D01*
X90919300Y-63512700D02*
X90919300Y-63738300D01*
X90919300Y-63738300D02*
X89890600Y-64767000D01*
X89890600Y-64767000D02*
X89890600Y-65212000D01*
X90779600Y-62690501D02*
X91401900Y-63312801D01*
X90779600Y-60824200D02*
X90779600Y-62690501D01*
X91401900Y-63312801D02*
X91401900Y-63738300D01*
X91401900Y-63738300D02*
X92430600Y-64767000D01*
X92430600Y-64767000D02*
X92430600Y-65212000D01*
X76047600Y-47501900D02*
X73812400Y-49737100D01*
X73812400Y-49737100D02*
X73812400Y-51124600D01*
X73812400Y-51124600D02*
X74841100Y-52153300D01*
X74841100Y-52153300D02*
X74841100Y-53390800D01*
X73533000Y-47493100D02*
X73533000Y-49334001D01*
X73533000Y-49334001D02*
X73329800Y-49537201D01*
X73329800Y-49537201D02*
X73329800Y-51124600D01*
X72301100Y-52153300D02*
X72301100Y-53390800D01*
X73329800Y-51124600D02*
X72301100Y-52153300D01*
D59*
X99370060Y-37632640D02*
X100614060Y-37627560D01*
X99400540Y-36337240D02*
X100606860Y-36329620D01*
D60*
X76106020Y-34891980D02*
X76403199Y-34848800D01*
D57*
X77622400Y-34150300D02*
X77863700Y-34163000D01*
X77254100Y-34391600D02*
X77622400Y-34150300D01*
X76403199Y-34848800D02*
X76212700Y-34874200D01*
X76581000Y-34798000D02*
X76403199Y-34848800D01*
X76758800Y-34734500D02*
X76581000Y-34798000D01*
X76911201Y-34658300D02*
X76758800Y-34734500D01*
X77038200Y-34569400D02*
X76911201Y-34658300D01*
X77089000Y-34531300D02*
X77038200Y-34569400D01*
X77152500Y-34480500D02*
X77089000Y-34531300D01*
X77216000Y-34429700D02*
X77152500Y-34480500D01*
X77254100Y-34391600D02*
X77216000Y-34429700D01*
D60*
X75618340Y-34891980D02*
X76106020Y-34891980D01*
D58*
X93230700Y-33540700D02*
X93784420Y-33540700D01*
X90083640Y-35841940D02*
X93230700Y-33540700D01*
X90083200Y-36514500D02*
X90083640Y-35841940D01*
D59*
X94884420Y-33540700D02*
X96131380Y-33535620D01*
D58*
X73837800Y-55118000D02*
X76822300Y-55122900D01*
X73571100Y-54648100D02*
X73837800Y-55118000D01*
X73571100Y-53390800D02*
X73571100Y-54648100D01*
X92214700Y-35026600D02*
X93764100Y-35026600D01*
X90576400Y-36118800D02*
X92214700Y-35026600D01*
X90583200Y-36489500D02*
X90576400Y-36118800D01*
D59*
X93764100Y-35026600D02*
X93764100Y-36309300D01*
D58*
X105100807Y-62169493D02*
X105100807Y-62224369D01*
X105268900Y-62001400D02*
X105100807Y-62169493D01*
X99974400Y-63487300D02*
X99987100Y-63474600D01*
X99421100Y-63487300D02*
X99974400Y-63487300D01*
X107133300Y-62001400D02*
X107133300Y-63204000D01*
X107133300Y-63204000D02*
X107137200Y-63207900D01*
X104622600Y-61355100D02*
X105268900Y-62001400D01*
X105268900Y-62001400D02*
X107133300Y-62001400D01*
X87388700Y-27851100D02*
X88696800Y-27127200D01*
X87388700Y-32334200D02*
X87388700Y-27851100D01*
X88087200Y-33045400D02*
X87388700Y-32334200D01*
X88087200Y-34569400D02*
X88087200Y-33045400D01*
X88083200Y-36514500D02*
X88087200Y-34569400D01*
D59*
X88696800Y-27127200D02*
X88696800Y-25920700D01*
D61*
X97928210Y-59847790D02*
X97908200Y-59867800D01*
X99822600Y-59855100D02*
X99168600Y-59855100D01*
X99161290Y-59847790D02*
X97928210Y-59847790D01*
X99168600Y-59855100D02*
X99161290Y-59847790D01*
D58*
X95669100Y-64778800D02*
X95669100Y-64135000D01*
X97586800Y-59855100D02*
X97895500Y-59855100D01*
X97895500Y-59855100D02*
X97908200Y-59867800D01*
D57*
X71450200Y-70319900D02*
X88452960Y-70286880D01*
X71234300Y-70269100D02*
X71450200Y-70319900D01*
X71018400Y-70192900D02*
X71234300Y-70269100D01*
X70802500Y-70091300D02*
X71018400Y-70192900D01*
X70612000Y-69964300D02*
X70802500Y-70091300D01*
X70459600Y-69799200D02*
X70612000Y-69964300D01*
X70319900Y-69596000D02*
X70459600Y-69799200D01*
X70231000Y-69367400D02*
X70319900Y-69596000D01*
X70205600Y-69126100D02*
X70231000Y-69367400D01*
X70205600Y-68795900D02*
X70205600Y-69126100D01*
X70202719Y-68208819D02*
X70205600Y-68630800D01*
X88450420Y-70289420D02*
X88452960Y-70286880D01*
X89308940Y-69971920D02*
X89471500Y-69824600D01*
X89120980Y-70098920D02*
X89308940Y-69971920D01*
X88920320Y-70192900D02*
X89120980Y-70098920D01*
X88709500Y-70256400D02*
X88920320Y-70192900D01*
X88452960Y-70286880D02*
X88709500Y-70256400D01*
X89471500Y-69824600D02*
X89613740Y-69656960D01*
X88452960Y-70286880D02*
X88491060Y-70286880D01*
X70195440Y-67523360D02*
X70195440Y-65938400D01*
X70202719Y-68208819D02*
X70202719Y-67530639D01*
X70202719Y-67530639D02*
X70195440Y-67523360D01*
X70195440Y-65938400D02*
X70197980Y-63774320D01*
D60*
X70197980Y-63667640D02*
X70198360Y-62906100D01*
X70197980Y-63667640D02*
X70197980Y-63774320D01*
D57*
X89875360Y-69060060D02*
X89898220Y-68841620D01*
X89814400Y-69270880D02*
X89875360Y-69060060D01*
X89728040Y-69471540D02*
X89814400Y-69270880D01*
X89613740Y-69656960D02*
X89728040Y-69471540D01*
X89860120Y-68422480D02*
X89890600Y-68392000D01*
D58*
X112526700Y-34043900D02*
X109124600Y-34043900D01*
X109124600Y-34043900D02*
X109042200Y-33961500D01*
D59*
X104192437Y-35376094D02*
X104214231Y-35354300D01*
X104214231Y-35354300D02*
X105019600Y-35354300D01*
X109042200Y-33961500D02*
X108421600Y-33961500D01*
X108421600Y-33961500D02*
X108419900Y-33959800D01*
X109057800Y-33977100D02*
X109042200Y-33961500D01*
M02*
