G04 #@! TF.FileFunction,Paste,Top*
%FSLAX46Y46*%
G04 Gerber Fmt 4.6, Leading zero omitted, Abs format (unit mm)*
G04 Created by KiCad (PCBNEW 4.0.5) date 2017 September 25, Monday 02:54:35*
%MOMM*%
%LPD*%
G01*
G04 APERTURE LIST*
%ADD10C,0.100000*%
%ADD11C,0.150000*%
%ADD12C,0.300000*%
%ADD13C,0.400000*%
%ADD14C,0.381000*%
%ADD15C,0.101600*%
%ADD16R,0.394000X0.594000*%
%ADD17R,0.594000X0.394000*%
%ADD18R,0.324200X0.146400*%
%ADD19R,0.644240X0.146400*%
%ADD20R,0.146400X1.294480*%
%ADD21O,0.123540X0.494380*%
%ADD22C,0.143860*%
%ADD23R,2.153000X2.254600*%
%ADD24R,1.094000X1.244000*%
%ADD25R,0.754000X1.644000*%
%ADD26R,0.644000X1.054000*%
%ADD27R,0.544000X0.794000*%
%ADD28R,0.859000X0.794000*%
%ADD29R,0.244000X0.694000*%
%ADD30R,0.694000X0.244000*%
%ADD31R,0.489000X0.489000*%
%ADD32R,3.194000X3.194000*%
%ADD33R,0.294000X0.794000*%
%ADD34R,0.794000X0.294000*%
%ADD35R,0.594000X0.494000*%
%ADD36R,0.494000X0.594000*%
%ADD37R,0.694000X0.994000*%
%ADD38R,0.694000X0.594000*%
%ADD39R,1.344000X0.444000*%
%ADD40R,1.544000X1.494000*%
%ADD41R,1.594000X1.294000*%
%ADD42R,1.494000X1.494000*%
%ADD43R,4.058000X1.518000*%
%ADD44R,4.058000X1.264000*%
%ADD45R,0.314000X0.594000*%
%ADD46R,0.314000X0.694000*%
%ADD47R,0.594000X0.314000*%
%ADD48R,0.694000X0.314000*%
%ADD49R,5.094000X5.094000*%
%ADD50R,2.508600X1.518000*%
G04 APERTURE END LIST*
D10*
D11*
X57800000Y-83000000D02*
X57800000Y-115000000D01*
X165800000Y-115000000D01*
X165800000Y-83000000D01*
X57800000Y-83000000D01*
D10*
D11*
X10000000Y-10000000D02*
X10000000Y-117000000D01*
X167800000Y-117000000D01*
X167800000Y-10000000D01*
X10000000Y-10000000D01*
D10*
D11*
X12000000Y-12000000D02*
X12000000Y-115000000D01*
X165800000Y-115000000D01*
X165800000Y-12000000D01*
X12000000Y-12000000D01*
D10*
D11*
X60000000Y-12000000D02*
X60000000Y-10000000D01*
D10*
D11*
X110000000Y-12000000D02*
X110000000Y-10000000D01*
D10*
D11*
X160000000Y-12000000D02*
X160000000Y-10000000D01*
D10*
D11*
X35990476Y-11588095D02*
X35247619Y-11588095D01*
X35619048Y-11588095D02*
X35619048Y-10288095D01*
X35495238Y-10473810D01*
X35371429Y-10597619D01*
X35247619Y-10659524D01*
D10*
D11*
X85247619Y-10411905D02*
X85309524Y-10350000D01*
X85433333Y-10288095D01*
X85742857Y-10288095D01*
X85866667Y-10350000D01*
X85928571Y-10411905D01*
X85990476Y-10535714D01*
X85990476Y-10659524D01*
X85928571Y-10845238D01*
X85185714Y-11588095D01*
X85990476Y-11588095D01*
D10*
D11*
X135185714Y-10288095D02*
X135990476Y-10288095D01*
X135557143Y-10783333D01*
X135742857Y-10783333D01*
X135866667Y-10845238D01*
X135928571Y-10907143D01*
X135990476Y-11030952D01*
X135990476Y-11340476D01*
X135928571Y-11464286D01*
X135866667Y-11526190D01*
X135742857Y-11588095D01*
X135371429Y-11588095D01*
X135247619Y-11526190D01*
X135185714Y-11464286D01*
D10*
D11*
X60000000Y-115000000D02*
X60000000Y-117000000D01*
D10*
D11*
X110000000Y-115000000D02*
X110000000Y-117000000D01*
D10*
D11*
X160000000Y-115000000D02*
X160000000Y-117000000D01*
D10*
D11*
X35990476Y-116588095D02*
X35247619Y-116588095D01*
X35619048Y-116588095D02*
X35619048Y-115288095D01*
X35495238Y-115473810D01*
X35371429Y-115597619D01*
X35247619Y-115659524D01*
D10*
D11*
X85247619Y-115411905D02*
X85309524Y-115350000D01*
X85433333Y-115288095D01*
X85742857Y-115288095D01*
X85866667Y-115350000D01*
X85928571Y-115411905D01*
X85990476Y-115535714D01*
X85990476Y-115659524D01*
X85928571Y-115845238D01*
X85185714Y-116588095D01*
X85990476Y-116588095D01*
D10*
D11*
X135185714Y-115288095D02*
X135990476Y-115288095D01*
X135557143Y-115783333D01*
X135742857Y-115783333D01*
X135866667Y-115845238D01*
X135928571Y-115907143D01*
X135990476Y-116030952D01*
X135990476Y-116340476D01*
X135928571Y-116464286D01*
X135866667Y-116526190D01*
X135742857Y-116588095D01*
X135371429Y-116588095D01*
X135247619Y-116526190D01*
X135185714Y-116464286D01*
D10*
D11*
X10000000Y-60000000D02*
X12000000Y-60000000D01*
D10*
D11*
X10000000Y-110000000D02*
X12000000Y-110000000D01*
D10*
D11*
X10690476Y-35216667D02*
X11309524Y-35216667D01*
X10566667Y-35588095D02*
X11000000Y-34288095D01*
X11433333Y-35588095D01*
D10*
D11*
X11092857Y-84907143D02*
X11278571Y-84969048D01*
X11340476Y-85030952D01*
X11402381Y-85154762D01*
X11402381Y-85340476D01*
X11340476Y-85464286D01*
X11278571Y-85526190D01*
X11154762Y-85588095D01*
X10659524Y-85588095D01*
X10659524Y-84288095D01*
X11092857Y-84288095D01*
X11216667Y-84350000D01*
X11278571Y-84411905D01*
X11340476Y-84535714D01*
X11340476Y-84659524D01*
X11278571Y-84783333D01*
X11216667Y-84845238D01*
X11092857Y-84907143D01*
X10659524Y-84907143D01*
D10*
D11*
X167800000Y-60000000D02*
X165800000Y-60000000D01*
D10*
D11*
X167800000Y-110000000D02*
X165800000Y-110000000D01*
D10*
D11*
X166490476Y-35216667D02*
X167109524Y-35216667D01*
X166366667Y-35588095D02*
X166800000Y-34288095D01*
X167233333Y-35588095D01*
D10*
D11*
X166892857Y-84907143D02*
X167078571Y-84969048D01*
X167140476Y-85030952D01*
X167202381Y-85154762D01*
X167202381Y-85340476D01*
X167140476Y-85464286D01*
X167078571Y-85526190D01*
X166954762Y-85588095D01*
X166459524Y-85588095D01*
X166459524Y-84288095D01*
X166892857Y-84288095D01*
X167016667Y-84350000D01*
X167078571Y-84411905D01*
X167140476Y-84535714D01*
X167140476Y-84659524D01*
X167078571Y-84783333D01*
X167016667Y-84845238D01*
X166892857Y-84907143D01*
X166459524Y-84907143D01*
D10*
D11*
X81157143Y-110778571D02*
X81157143Y-109278571D01*
X81514286Y-109278571D01*
X81728571Y-109350000D01*
X81871429Y-109492857D01*
X81942857Y-109635714D01*
X82014286Y-109921429D01*
X82014286Y-110135714D01*
X81942857Y-110421429D01*
X81871429Y-110564286D01*
X81728571Y-110707143D01*
X81514286Y-110778571D01*
X81157143Y-110778571D01*
X83300000Y-110778571D02*
X83300000Y-109992857D01*
X83228571Y-109850000D01*
X83085714Y-109778571D01*
X82800000Y-109778571D01*
X82657143Y-109850000D01*
X83300000Y-110707143D02*
X83157143Y-110778571D01*
X82800000Y-110778571D01*
X82657143Y-110707143D01*
X82585714Y-110564286D01*
X82585714Y-110421429D01*
X82657143Y-110278571D01*
X82800000Y-110207143D01*
X83157143Y-110207143D01*
X83300000Y-110135714D01*
X83800000Y-109778571D02*
X84371429Y-109778571D01*
X84014286Y-109278571D02*
X84014286Y-110564286D01*
X84085714Y-110707143D01*
X84228572Y-110778571D01*
X84371429Y-110778571D01*
X85442857Y-110707143D02*
X85300000Y-110778571D01*
X85014286Y-110778571D01*
X84871429Y-110707143D01*
X84800000Y-110564286D01*
X84800000Y-109992857D01*
X84871429Y-109850000D01*
X85014286Y-109778571D01*
X85300000Y-109778571D01*
X85442857Y-109850000D01*
X85514286Y-109992857D01*
X85514286Y-110135714D01*
X84800000Y-110278571D01*
X86157143Y-110635714D02*
X86228571Y-110707143D01*
X86157143Y-110778571D01*
X86085714Y-110707143D01*
X86157143Y-110635714D01*
X86157143Y-110778571D01*
X86157143Y-109850000D02*
X86228571Y-109921429D01*
X86157143Y-109992857D01*
X86085714Y-109921429D01*
X86157143Y-109850000D01*
X86157143Y-109992857D01*
D10*
D11*
X57800000Y-111500000D02*
X165800000Y-111500000D01*
D10*
D11*
X59157143Y-113578571D02*
X59157143Y-112078571D01*
X60014286Y-113578571D02*
X59371429Y-112721429D01*
X60014286Y-112078571D02*
X59157143Y-112935714D01*
X60657143Y-113578571D02*
X60657143Y-112578571D01*
X60657143Y-112078571D02*
X60585714Y-112150000D01*
X60657143Y-112221429D01*
X60728571Y-112150000D01*
X60657143Y-112078571D01*
X60657143Y-112221429D01*
X62228572Y-113435714D02*
X62157143Y-113507143D01*
X61942857Y-113578571D01*
X61800000Y-113578571D01*
X61585715Y-113507143D01*
X61442857Y-113364286D01*
X61371429Y-113221429D01*
X61300000Y-112935714D01*
X61300000Y-112721429D01*
X61371429Y-112435714D01*
X61442857Y-112292857D01*
X61585715Y-112150000D01*
X61800000Y-112078571D01*
X61942857Y-112078571D01*
X62157143Y-112150000D01*
X62228572Y-112221429D01*
X63514286Y-113578571D02*
X63514286Y-112792857D01*
X63442857Y-112650000D01*
X63300000Y-112578571D01*
X63014286Y-112578571D01*
X62871429Y-112650000D01*
X63514286Y-113507143D02*
X63371429Y-113578571D01*
X63014286Y-113578571D01*
X62871429Y-113507143D01*
X62800000Y-113364286D01*
X62800000Y-113221429D01*
X62871429Y-113078571D01*
X63014286Y-113007143D01*
X63371429Y-113007143D01*
X63514286Y-112935714D01*
X64871429Y-113578571D02*
X64871429Y-112078571D01*
X64871429Y-113507143D02*
X64728572Y-113578571D01*
X64442858Y-113578571D01*
X64300000Y-113507143D01*
X64228572Y-113435714D01*
X64157143Y-113292857D01*
X64157143Y-112864286D01*
X64228572Y-112721429D01*
X64300000Y-112650000D01*
X64442858Y-112578571D01*
X64728572Y-112578571D01*
X64871429Y-112650000D01*
X66728572Y-112792857D02*
X67228572Y-112792857D01*
X67442858Y-113578571D02*
X66728572Y-113578571D01*
X66728572Y-112078571D01*
X67442858Y-112078571D01*
X68085715Y-113435714D02*
X68157143Y-113507143D01*
X68085715Y-113578571D01*
X68014286Y-113507143D01*
X68085715Y-113435714D01*
X68085715Y-113578571D01*
X68800001Y-113578571D02*
X68800001Y-112078571D01*
X69157144Y-112078571D01*
X69371429Y-112150000D01*
X69514287Y-112292857D01*
X69585715Y-112435714D01*
X69657144Y-112721429D01*
X69657144Y-112935714D01*
X69585715Y-113221429D01*
X69514287Y-113364286D01*
X69371429Y-113507143D01*
X69157144Y-113578571D01*
X68800001Y-113578571D01*
X70300001Y-113435714D02*
X70371429Y-113507143D01*
X70300001Y-113578571D01*
X70228572Y-113507143D01*
X70300001Y-113435714D01*
X70300001Y-113578571D01*
X70942858Y-113150000D02*
X71657144Y-113150000D01*
X70800001Y-113578571D02*
X71300001Y-112078571D01*
X71800001Y-113578571D01*
X72300001Y-113435714D02*
X72371429Y-113507143D01*
X72300001Y-113578571D01*
X72228572Y-113507143D01*
X72300001Y-113435714D01*
X72300001Y-113578571D01*
X75300001Y-113578571D02*
X75300001Y-112078571D01*
X75442858Y-113007143D02*
X75871429Y-113578571D01*
X75871429Y-112578571D02*
X75300001Y-113150000D01*
X76514287Y-113578571D02*
X76514287Y-112578571D01*
X76514287Y-112078571D02*
X76442858Y-112150000D01*
X76514287Y-112221429D01*
X76585715Y-112150000D01*
X76514287Y-112078571D01*
X76514287Y-112221429D01*
X77871430Y-113507143D02*
X77728573Y-113578571D01*
X77442859Y-113578571D01*
X77300001Y-113507143D01*
X77228573Y-113435714D01*
X77157144Y-113292857D01*
X77157144Y-112864286D01*
X77228573Y-112721429D01*
X77300001Y-112650000D01*
X77442859Y-112578571D01*
X77728573Y-112578571D01*
X77871430Y-112650000D01*
X79157144Y-113578571D02*
X79157144Y-112792857D01*
X79085715Y-112650000D01*
X78942858Y-112578571D01*
X78657144Y-112578571D01*
X78514287Y-112650000D01*
X79157144Y-113507143D02*
X79014287Y-113578571D01*
X78657144Y-113578571D01*
X78514287Y-113507143D01*
X78442858Y-113364286D01*
X78442858Y-113221429D01*
X78514287Y-113078571D01*
X78657144Y-113007143D01*
X79014287Y-113007143D01*
X79157144Y-112935714D01*
X80514287Y-113578571D02*
X80514287Y-112078571D01*
X80514287Y-113507143D02*
X80371430Y-113578571D01*
X80085716Y-113578571D01*
X79942858Y-113507143D01*
X79871430Y-113435714D01*
X79800001Y-113292857D01*
X79800001Y-112864286D01*
X79871430Y-112721429D01*
X79942858Y-112650000D01*
X80085716Y-112578571D01*
X80371430Y-112578571D01*
X80514287Y-112650000D01*
X83014287Y-112578571D02*
X83014287Y-113578571D01*
X82657144Y-112007143D02*
X82300001Y-113078571D01*
X83228573Y-113078571D01*
X83800001Y-113435714D02*
X83871429Y-113507143D01*
X83800001Y-113578571D01*
X83728572Y-113507143D01*
X83800001Y-113435714D01*
X83800001Y-113578571D01*
X84800001Y-112078571D02*
X84942858Y-112078571D01*
X85085715Y-112150000D01*
X85157144Y-112221429D01*
X85228573Y-112364286D01*
X85300001Y-112650000D01*
X85300001Y-113007143D01*
X85228573Y-113292857D01*
X85157144Y-113435714D01*
X85085715Y-113507143D01*
X84942858Y-113578571D01*
X84800001Y-113578571D01*
X84657144Y-113507143D01*
X84585715Y-113435714D01*
X84514287Y-113292857D01*
X84442858Y-113007143D01*
X84442858Y-112650000D01*
X84514287Y-112364286D01*
X84585715Y-112221429D01*
X84657144Y-112150000D01*
X84800001Y-112078571D01*
X85942858Y-113435714D02*
X86014286Y-113507143D01*
X85942858Y-113578571D01*
X85871429Y-113507143D01*
X85942858Y-113435714D01*
X85942858Y-113578571D01*
X87371430Y-112078571D02*
X86657144Y-112078571D01*
X86585715Y-112792857D01*
X86657144Y-112721429D01*
X86800001Y-112650000D01*
X87157144Y-112650000D01*
X87300001Y-112721429D01*
X87371430Y-112792857D01*
X87442858Y-112935714D01*
X87442858Y-113292857D01*
X87371430Y-113435714D01*
X87300001Y-113507143D01*
X87157144Y-113578571D01*
X86800001Y-113578571D01*
X86657144Y-113507143D01*
X86585715Y-113435714D01*
D10*
D11*
X57800000Y-108500000D02*
X165800000Y-108500000D01*
D10*
D12*
X145014286Y-110778571D02*
X144514286Y-110064286D01*
X144157143Y-110778571D02*
X144157143Y-109278571D01*
X144728571Y-109278571D01*
X144871429Y-109350000D01*
X144942857Y-109421429D01*
X145014286Y-109564286D01*
X145014286Y-109778571D01*
X144942857Y-109921429D01*
X144871429Y-109992857D01*
X144728571Y-110064286D01*
X144157143Y-110064286D01*
X146228571Y-110707143D02*
X146085714Y-110778571D01*
X145800000Y-110778571D01*
X145657143Y-110707143D01*
X145585714Y-110564286D01*
X145585714Y-109992857D01*
X145657143Y-109850000D01*
X145800000Y-109778571D01*
X146085714Y-109778571D01*
X146228571Y-109850000D01*
X146300000Y-109992857D01*
X146300000Y-110135714D01*
X145585714Y-110278571D01*
X146800000Y-109778571D02*
X147157143Y-110778571D01*
X147514285Y-109778571D01*
X148085714Y-110635714D02*
X148157142Y-110707143D01*
X148085714Y-110778571D01*
X148014285Y-110707143D01*
X148085714Y-110635714D01*
X148085714Y-110778571D01*
X148085714Y-109850000D02*
X148157142Y-109921429D01*
X148085714Y-109992857D01*
X148014285Y-109921429D01*
X148085714Y-109850000D01*
X148085714Y-109992857D01*
D10*
D11*
X59085714Y-110707143D02*
X59300000Y-110778571D01*
X59657143Y-110778571D01*
X59800000Y-110707143D01*
X59871429Y-110635714D01*
X59942857Y-110492857D01*
X59942857Y-110350000D01*
X59871429Y-110207143D01*
X59800000Y-110135714D01*
X59657143Y-110064286D01*
X59371429Y-109992857D01*
X59228571Y-109921429D01*
X59157143Y-109850000D01*
X59085714Y-109707143D01*
X59085714Y-109564286D01*
X59157143Y-109421429D01*
X59228571Y-109350000D01*
X59371429Y-109278571D01*
X59728571Y-109278571D01*
X59942857Y-109350000D01*
X60585714Y-110778571D02*
X60585714Y-109778571D01*
X60585714Y-109278571D02*
X60514285Y-109350000D01*
X60585714Y-109421429D01*
X60657142Y-109350000D01*
X60585714Y-109278571D01*
X60585714Y-109421429D01*
X61157143Y-109778571D02*
X61942857Y-109778571D01*
X61157143Y-110778571D01*
X61942857Y-110778571D01*
X63085714Y-110707143D02*
X62942857Y-110778571D01*
X62657143Y-110778571D01*
X62514286Y-110707143D01*
X62442857Y-110564286D01*
X62442857Y-109992857D01*
X62514286Y-109850000D01*
X62657143Y-109778571D01*
X62942857Y-109778571D01*
X63085714Y-109850000D01*
X63157143Y-109992857D01*
X63157143Y-110135714D01*
X62442857Y-110278571D01*
X63800000Y-110635714D02*
X63871428Y-110707143D01*
X63800000Y-110778571D01*
X63728571Y-110707143D01*
X63800000Y-110635714D01*
X63800000Y-110778571D01*
X63800000Y-109850000D02*
X63871428Y-109921429D01*
X63800000Y-109992857D01*
X63728571Y-109921429D01*
X63800000Y-109850000D01*
X63800000Y-109992857D01*
X65657143Y-109278571D02*
X65657143Y-110492857D01*
X65728571Y-110635714D01*
X65800000Y-110707143D01*
X65942857Y-110778571D01*
X66228571Y-110778571D01*
X66371429Y-110707143D01*
X66442857Y-110635714D01*
X66514286Y-110492857D01*
X66514286Y-109278571D01*
X67157143Y-110707143D02*
X67300000Y-110778571D01*
X67585715Y-110778571D01*
X67728572Y-110707143D01*
X67800000Y-110564286D01*
X67800000Y-110492857D01*
X67728572Y-110350000D01*
X67585715Y-110278571D01*
X67371429Y-110278571D01*
X67228572Y-110207143D01*
X67157143Y-110064286D01*
X67157143Y-109992857D01*
X67228572Y-109850000D01*
X67371429Y-109778571D01*
X67585715Y-109778571D01*
X67728572Y-109850000D01*
X69014286Y-110707143D02*
X68871429Y-110778571D01*
X68585715Y-110778571D01*
X68442858Y-110707143D01*
X68371429Y-110564286D01*
X68371429Y-109992857D01*
X68442858Y-109850000D01*
X68585715Y-109778571D01*
X68871429Y-109778571D01*
X69014286Y-109850000D01*
X69085715Y-109992857D01*
X69085715Y-110135714D01*
X68371429Y-110278571D01*
X69728572Y-110778571D02*
X69728572Y-109778571D01*
X69728572Y-110064286D02*
X69800000Y-109921429D01*
X69871429Y-109850000D01*
X70014286Y-109778571D01*
X70157143Y-109778571D01*
D10*
D11*
X144157143Y-113578571D02*
X144157143Y-112078571D01*
X145514286Y-113578571D02*
X145514286Y-112078571D01*
X145514286Y-113507143D02*
X145371429Y-113578571D01*
X145085715Y-113578571D01*
X144942857Y-113507143D01*
X144871429Y-113435714D01*
X144800000Y-113292857D01*
X144800000Y-112864286D01*
X144871429Y-112721429D01*
X144942857Y-112650000D01*
X145085715Y-112578571D01*
X145371429Y-112578571D01*
X145514286Y-112650000D01*
X146228572Y-113435714D02*
X146300000Y-113507143D01*
X146228572Y-113578571D01*
X146157143Y-113507143D01*
X146228572Y-113435714D01*
X146228572Y-113578571D01*
X146228572Y-112650000D02*
X146300000Y-112721429D01*
X146228572Y-112792857D01*
X146157143Y-112721429D01*
X146228572Y-112650000D01*
X146228572Y-112792857D01*
X148871429Y-113578571D02*
X148014286Y-113578571D01*
X148442858Y-113578571D02*
X148442858Y-112078571D01*
X148300001Y-112292857D01*
X148157143Y-112435714D01*
X148014286Y-112507143D01*
X150585714Y-112007143D02*
X149300000Y-113935714D01*
X151871429Y-113578571D02*
X151014286Y-113578571D01*
X151442858Y-113578571D02*
X151442858Y-112078571D01*
X151300001Y-112292857D01*
X151157143Y-112435714D01*
X151014286Y-112507143D01*
D10*
D11*
X57800000Y-104500000D02*
X165800000Y-104500000D01*
D10*
D13*
X59252381Y-105204762D02*
X60395238Y-105204762D01*
X59573810Y-107204762D02*
X59823810Y-105204762D01*
X60811905Y-107204762D02*
X60978571Y-105871429D01*
X61061905Y-105204762D02*
X60954762Y-105300000D01*
X61038095Y-105395238D01*
X61145239Y-105300000D01*
X61061905Y-105204762D01*
X61038095Y-105395238D01*
X61645238Y-105871429D02*
X62407143Y-105871429D01*
X62014286Y-105204762D02*
X61800000Y-106919048D01*
X61871430Y-107109524D01*
X62050001Y-107204762D01*
X62240477Y-107204762D01*
X63192858Y-107204762D02*
X63014287Y-107109524D01*
X62942857Y-106919048D01*
X63157143Y-105204762D01*
X64728572Y-107109524D02*
X64526191Y-107204762D01*
X64145239Y-107204762D01*
X63966667Y-107109524D01*
X63895238Y-106919048D01*
X63990476Y-106157143D01*
X64109524Y-105966667D01*
X64311905Y-105871429D01*
X64692857Y-105871429D01*
X64871429Y-105966667D01*
X64942857Y-106157143D01*
X64919048Y-106347619D01*
X63942857Y-106538095D01*
X65692857Y-107014286D02*
X65776192Y-107109524D01*
X65669048Y-107204762D01*
X65585715Y-107109524D01*
X65692857Y-107014286D01*
X65669048Y-107204762D01*
X65823810Y-105966667D02*
X65907144Y-106061905D01*
X65800000Y-106157143D01*
X65716667Y-106061905D01*
X65823810Y-105966667D01*
X65800000Y-106157143D01*
D10*
D11*
X59657143Y-102592857D02*
X59157143Y-102592857D01*
X59157143Y-103378571D02*
X59157143Y-101878571D01*
X59871429Y-101878571D01*
X60442857Y-103378571D02*
X60442857Y-102378571D01*
X60442857Y-101878571D02*
X60371428Y-101950000D01*
X60442857Y-102021429D01*
X60514285Y-101950000D01*
X60442857Y-101878571D01*
X60442857Y-102021429D01*
X61371429Y-103378571D02*
X61228571Y-103307143D01*
X61157143Y-103164286D01*
X61157143Y-101878571D01*
X62514285Y-103307143D02*
X62371428Y-103378571D01*
X62085714Y-103378571D01*
X61942857Y-103307143D01*
X61871428Y-103164286D01*
X61871428Y-102592857D01*
X61942857Y-102450000D01*
X62085714Y-102378571D01*
X62371428Y-102378571D01*
X62514285Y-102450000D01*
X62585714Y-102592857D01*
X62585714Y-102735714D01*
X61871428Y-102878571D01*
X63228571Y-103235714D02*
X63299999Y-103307143D01*
X63228571Y-103378571D01*
X63157142Y-103307143D01*
X63228571Y-103235714D01*
X63228571Y-103378571D01*
X63228571Y-102450000D02*
X63299999Y-102521429D01*
X63228571Y-102592857D01*
X63157142Y-102521429D01*
X63228571Y-102450000D01*
X63228571Y-102592857D01*
X65085714Y-103378571D02*
X65085714Y-101878571D01*
X65942857Y-103378571D01*
X65942857Y-101878571D01*
X66657143Y-103378571D02*
X66657143Y-102378571D01*
X66657143Y-101878571D02*
X66585714Y-101950000D01*
X66657143Y-102021429D01*
X66728571Y-101950000D01*
X66657143Y-101878571D01*
X66657143Y-102021429D01*
X68014286Y-102378571D02*
X68014286Y-103592857D01*
X67942857Y-103735714D01*
X67871429Y-103807143D01*
X67728572Y-103878571D01*
X67514286Y-103878571D01*
X67371429Y-103807143D01*
X68014286Y-103307143D02*
X67871429Y-103378571D01*
X67585715Y-103378571D01*
X67442857Y-103307143D01*
X67371429Y-103235714D01*
X67300000Y-103092857D01*
X67300000Y-102664286D01*
X67371429Y-102521429D01*
X67442857Y-102450000D01*
X67585715Y-102378571D01*
X67871429Y-102378571D01*
X68014286Y-102450000D01*
X69371429Y-102378571D02*
X69371429Y-103378571D01*
X68728572Y-102378571D02*
X68728572Y-103164286D01*
X68800000Y-103307143D01*
X68942858Y-103378571D01*
X69157143Y-103378571D01*
X69300000Y-103307143D01*
X69371429Y-103235714D01*
X70085715Y-102378571D02*
X70085715Y-103378571D01*
X70085715Y-102521429D02*
X70157143Y-102450000D01*
X70300001Y-102378571D01*
X70514286Y-102378571D01*
X70657143Y-102450000D01*
X70728572Y-102592857D01*
X70728572Y-103378571D01*
X71442858Y-103235714D02*
X71514286Y-103307143D01*
X71442858Y-103378571D01*
X71371429Y-103307143D01*
X71442858Y-103235714D01*
X71442858Y-103378571D01*
X72157144Y-103378571D02*
X72157144Y-101878571D01*
X72300001Y-102807143D02*
X72728572Y-103378571D01*
X72728572Y-102378571D02*
X72157144Y-102950000D01*
X73371430Y-103378571D02*
X73371430Y-102378571D01*
X73371430Y-101878571D02*
X73300001Y-101950000D01*
X73371430Y-102021429D01*
X73442858Y-101950000D01*
X73371430Y-101878571D01*
X73371430Y-102021429D01*
X74728573Y-103307143D02*
X74585716Y-103378571D01*
X74300002Y-103378571D01*
X74157144Y-103307143D01*
X74085716Y-103235714D01*
X74014287Y-103092857D01*
X74014287Y-102664286D01*
X74085716Y-102521429D01*
X74157144Y-102450000D01*
X74300002Y-102378571D01*
X74585716Y-102378571D01*
X74728573Y-102450000D01*
X76014287Y-103378571D02*
X76014287Y-102592857D01*
X75942858Y-102450000D01*
X75800001Y-102378571D01*
X75514287Y-102378571D01*
X75371430Y-102450000D01*
X76014287Y-103307143D02*
X75871430Y-103378571D01*
X75514287Y-103378571D01*
X75371430Y-103307143D01*
X75300001Y-103164286D01*
X75300001Y-103021429D01*
X75371430Y-102878571D01*
X75514287Y-102807143D01*
X75871430Y-102807143D01*
X76014287Y-102735714D01*
X77371430Y-103378571D02*
X77371430Y-101878571D01*
X77371430Y-103307143D02*
X77228573Y-103378571D01*
X76942859Y-103378571D01*
X76800001Y-103307143D01*
X76728573Y-103235714D01*
X76657144Y-103092857D01*
X76657144Y-102664286D01*
X76728573Y-102521429D01*
X76800001Y-102450000D01*
X76942859Y-102378571D01*
X77228573Y-102378571D01*
X77371430Y-102450000D01*
X77728573Y-103521429D02*
X78871430Y-103521429D01*
X79228573Y-102378571D02*
X79228573Y-103878571D01*
X79228573Y-102450000D02*
X79371430Y-102378571D01*
X79657144Y-102378571D01*
X79800001Y-102450000D01*
X79871430Y-102521429D01*
X79942859Y-102664286D01*
X79942859Y-103092857D01*
X79871430Y-103235714D01*
X79800001Y-103307143D01*
X79657144Y-103378571D01*
X79371430Y-103378571D01*
X79228573Y-103307143D01*
X81228573Y-103307143D02*
X81085716Y-103378571D01*
X80800002Y-103378571D01*
X80657144Y-103307143D01*
X80585716Y-103235714D01*
X80514287Y-103092857D01*
X80514287Y-102664286D01*
X80585716Y-102521429D01*
X80657144Y-102450000D01*
X80800002Y-102378571D01*
X81085716Y-102378571D01*
X81228573Y-102450000D01*
X81871430Y-103378571D02*
X81871430Y-101878571D01*
X81871430Y-102450000D02*
X82014287Y-102378571D01*
X82300001Y-102378571D01*
X82442858Y-102450000D01*
X82514287Y-102521429D01*
X82585716Y-102664286D01*
X82585716Y-103092857D01*
X82514287Y-103235714D01*
X82442858Y-103307143D01*
X82300001Y-103378571D01*
X82014287Y-103378571D01*
X81871430Y-103307143D01*
D10*
D11*
X57800000Y-98500000D02*
X165800000Y-98500000D01*
D10*
D11*
X59085714Y-100607143D02*
X59300000Y-100678571D01*
X59657143Y-100678571D01*
X59800000Y-100607143D01*
X59871429Y-100535714D01*
X59942857Y-100392857D01*
X59942857Y-100250000D01*
X59871429Y-100107143D01*
X59800000Y-100035714D01*
X59657143Y-99964286D01*
X59371429Y-99892857D01*
X59228571Y-99821429D01*
X59157143Y-99750000D01*
X59085714Y-99607143D01*
X59085714Y-99464286D01*
X59157143Y-99321429D01*
X59228571Y-99250000D01*
X59371429Y-99178571D01*
X59728571Y-99178571D01*
X59942857Y-99250000D01*
X60585714Y-100678571D02*
X60585714Y-99178571D01*
X61228571Y-100678571D02*
X61228571Y-99892857D01*
X61157142Y-99750000D01*
X61014285Y-99678571D01*
X60800000Y-99678571D01*
X60657142Y-99750000D01*
X60585714Y-99821429D01*
X62514285Y-100607143D02*
X62371428Y-100678571D01*
X62085714Y-100678571D01*
X61942857Y-100607143D01*
X61871428Y-100464286D01*
X61871428Y-99892857D01*
X61942857Y-99750000D01*
X62085714Y-99678571D01*
X62371428Y-99678571D01*
X62514285Y-99750000D01*
X62585714Y-99892857D01*
X62585714Y-100035714D01*
X61871428Y-100178571D01*
X63799999Y-100607143D02*
X63657142Y-100678571D01*
X63371428Y-100678571D01*
X63228571Y-100607143D01*
X63157142Y-100464286D01*
X63157142Y-99892857D01*
X63228571Y-99750000D01*
X63371428Y-99678571D01*
X63657142Y-99678571D01*
X63799999Y-99750000D01*
X63871428Y-99892857D01*
X63871428Y-100035714D01*
X63157142Y-100178571D01*
X64299999Y-99678571D02*
X64871428Y-99678571D01*
X64514285Y-99178571D02*
X64514285Y-100464286D01*
X64585713Y-100607143D01*
X64728571Y-100678571D01*
X64871428Y-100678571D01*
X65371428Y-100535714D02*
X65442856Y-100607143D01*
X65371428Y-100678571D01*
X65299999Y-100607143D01*
X65371428Y-100535714D01*
X65371428Y-100678571D01*
X65371428Y-99750000D02*
X65442856Y-99821429D01*
X65371428Y-99892857D01*
X65299999Y-99821429D01*
X65371428Y-99750000D01*
X65371428Y-99892857D01*
D10*
D11*
X77800000Y-108500000D02*
X77800000Y-111500000D01*
D10*
D11*
X141800000Y-108500000D02*
X141800000Y-115000000D01*
D14*
G36*
X100822600Y-59905100D02*
X100822600Y-59305100D01*
X101122600Y-59305100D01*
X101122600Y-59905100D01*
X100822600Y-59905100D01*
G37*
X100822600Y-59905100D02*
X100822600Y-59305100D01*
X101122600Y-59305100D01*
X101122600Y-59905100D01*
X100822600Y-59905100D01*
G36*
X101322600Y-59905100D02*
X101322600Y-59305100D01*
X101622600Y-59305100D01*
X101622600Y-59905100D01*
X101322600Y-59905100D01*
G37*
X101322600Y-59905100D02*
X101322600Y-59305100D01*
X101622600Y-59305100D01*
X101622600Y-59905100D01*
X101322600Y-59905100D01*
G36*
X101822600Y-59905100D02*
X101822600Y-59305100D01*
X102122600Y-59305100D01*
X102122600Y-59905100D01*
X101822600Y-59905100D01*
G37*
X101822600Y-59905100D02*
X101822600Y-59305100D01*
X102122600Y-59305100D01*
X102122600Y-59905100D01*
X101822600Y-59905100D01*
G36*
X102322600Y-59905100D02*
X102322600Y-59305100D01*
X102622600Y-59305100D01*
X102622600Y-59905100D01*
X102322600Y-59905100D01*
G37*
X102322600Y-59905100D02*
X102322600Y-59305100D01*
X102622600Y-59305100D01*
X102622600Y-59905100D01*
X102322600Y-59905100D01*
G36*
X102822600Y-59905100D02*
X102822600Y-59305100D01*
X103122600Y-59305100D01*
X103122600Y-59905100D01*
X102822600Y-59905100D01*
G37*
X102822600Y-59905100D02*
X102822600Y-59305100D01*
X103122600Y-59305100D01*
X103122600Y-59905100D01*
X102822600Y-59905100D01*
G36*
X103322600Y-59905100D02*
X103322600Y-59305100D01*
X103622600Y-59305100D01*
X103622600Y-59905100D01*
X103322600Y-59905100D01*
G37*
X103322600Y-59905100D02*
X103322600Y-59305100D01*
X103622600Y-59305100D01*
X103622600Y-59905100D01*
X103322600Y-59905100D01*
G36*
X100822600Y-60905100D02*
X100822600Y-60305100D01*
X101122600Y-60305100D01*
X101122600Y-60905100D01*
X100822600Y-60905100D01*
G37*
X100822600Y-60905100D02*
X100822600Y-60305100D01*
X101122600Y-60305100D01*
X101122600Y-60905100D01*
X100822600Y-60905100D01*
G36*
X101322600Y-60905100D02*
X101322600Y-60305100D01*
X101622600Y-60305100D01*
X101622600Y-60905100D01*
X101322600Y-60905100D01*
G37*
X101322600Y-60905100D02*
X101322600Y-60305100D01*
X101622600Y-60305100D01*
X101622600Y-60905100D01*
X101322600Y-60905100D01*
G36*
X101822600Y-60905100D02*
X101822600Y-60305100D01*
X102122600Y-60305100D01*
X102122600Y-60905100D01*
X101822600Y-60905100D01*
G37*
X101822600Y-60905100D02*
X101822600Y-60305100D01*
X102122600Y-60305100D01*
X102122600Y-60905100D01*
X101822600Y-60905100D01*
G36*
X102322600Y-60905100D02*
X102322600Y-60305100D01*
X102622600Y-60305100D01*
X102622600Y-60905100D01*
X102322600Y-60905100D01*
G37*
X102322600Y-60905100D02*
X102322600Y-60305100D01*
X102622600Y-60305100D01*
X102622600Y-60905100D01*
X102322600Y-60905100D01*
G36*
X102822600Y-60905100D02*
X102822600Y-60305100D01*
X103122600Y-60305100D01*
X103122600Y-60905100D01*
X102822600Y-60905100D01*
G37*
X102822600Y-60905100D02*
X102822600Y-60305100D01*
X103122600Y-60305100D01*
X103122600Y-60905100D01*
X102822600Y-60905100D01*
G36*
X103322600Y-60905100D02*
X103322600Y-60305100D01*
X103622600Y-60305100D01*
X103622600Y-60905100D01*
X103322600Y-60905100D01*
G37*
X103322600Y-60905100D02*
X103322600Y-60305100D01*
X103622600Y-60305100D01*
X103622600Y-60905100D01*
X103322600Y-60905100D01*
G36*
X100822600Y-58905100D02*
X100822600Y-58305100D01*
X101122600Y-58305100D01*
X101122600Y-58905100D01*
X100822600Y-58905100D01*
G37*
X100822600Y-58905100D02*
X100822600Y-58305100D01*
X101122600Y-58305100D01*
X101122600Y-58905100D01*
X100822600Y-58905100D01*
G36*
X101322600Y-58905100D02*
X101322600Y-58305100D01*
X101622600Y-58305100D01*
X101622600Y-58905100D01*
X101322600Y-58905100D01*
G37*
X101322600Y-58905100D02*
X101322600Y-58305100D01*
X101622600Y-58305100D01*
X101622600Y-58905100D01*
X101322600Y-58905100D01*
G36*
X101822600Y-58905100D02*
X101822600Y-58305100D01*
X102122600Y-58305100D01*
X102122600Y-58905100D01*
X101822600Y-58905100D01*
G37*
X101822600Y-58905100D02*
X101822600Y-58305100D01*
X102122600Y-58305100D01*
X102122600Y-58905100D01*
X101822600Y-58905100D01*
G36*
X102322600Y-58905100D02*
X102322600Y-58305100D01*
X102622600Y-58305100D01*
X102622600Y-58905100D01*
X102322600Y-58905100D01*
G37*
X102322600Y-58905100D02*
X102322600Y-58305100D01*
X102622600Y-58305100D01*
X102622600Y-58905100D01*
X102322600Y-58905100D01*
G36*
X102822600Y-58905100D02*
X102822600Y-58305100D01*
X103122600Y-58305100D01*
X103122600Y-58905100D01*
X102822600Y-58905100D01*
G37*
X102822600Y-58905100D02*
X102822600Y-58305100D01*
X103122600Y-58305100D01*
X103122600Y-58905100D01*
X102822600Y-58905100D01*
G36*
X103322600Y-58905100D02*
X103322600Y-58305100D01*
X103622600Y-58305100D01*
X103622600Y-58905100D01*
X103322600Y-58905100D01*
G37*
X103322600Y-58905100D02*
X103322600Y-58305100D01*
X103622600Y-58305100D01*
X103622600Y-58905100D01*
X103322600Y-58905100D01*
D15*
G36*
X100397600Y-62130100D02*
X100397600Y-61730100D01*
X100447600Y-61680100D01*
X100547600Y-61680100D01*
X100547600Y-62130100D01*
X100397600Y-62130100D01*
G37*
X100397600Y-62130100D02*
X100397600Y-61730100D01*
X100447600Y-61680100D01*
X100547600Y-61680100D01*
X100547600Y-62130100D01*
X100397600Y-62130100D01*
G36*
X100897600Y-62130100D02*
X100897600Y-61680100D01*
X101047600Y-61680100D01*
X101047600Y-62130100D01*
X100897600Y-62130100D01*
G37*
X100897600Y-62130100D02*
X100897600Y-61680100D01*
X101047600Y-61680100D01*
X101047600Y-62130100D01*
X100897600Y-62130100D01*
G36*
X101397600Y-62130100D02*
X101397600Y-61680100D01*
X101547600Y-61680100D01*
X101547600Y-62130100D01*
X101397600Y-62130100D01*
G37*
X101397600Y-62130100D02*
X101397600Y-61680100D01*
X101547600Y-61680100D01*
X101547600Y-62130100D01*
X101397600Y-62130100D01*
G36*
X101897600Y-62130100D02*
X101897600Y-61680100D01*
X102047600Y-61680100D01*
X102047600Y-62130100D01*
X101897600Y-62130100D01*
G37*
X101897600Y-62130100D02*
X101897600Y-61680100D01*
X102047600Y-61680100D01*
X102047600Y-62130100D01*
X101897600Y-62130100D01*
G36*
X102397600Y-62130100D02*
X102397600Y-61680100D01*
X102547600Y-61680100D01*
X102547600Y-62130100D01*
X102397600Y-62130100D01*
G37*
X102397600Y-62130100D02*
X102397600Y-61680100D01*
X102547600Y-61680100D01*
X102547600Y-62130100D01*
X102397600Y-62130100D01*
G36*
X102897600Y-62130100D02*
X102897600Y-61680100D01*
X103047600Y-61680100D01*
X103047600Y-62130100D01*
X102897600Y-62130100D01*
G37*
X102897600Y-62130100D02*
X102897600Y-61680100D01*
X103047600Y-61680100D01*
X103047600Y-62130100D01*
X102897600Y-62130100D01*
G36*
X103397600Y-62130100D02*
X103397600Y-61680100D01*
X103547600Y-61680100D01*
X103547600Y-62130100D01*
X103397600Y-62130100D01*
G37*
X103397600Y-62130100D02*
X103397600Y-61680100D01*
X103547600Y-61680100D01*
X103547600Y-62130100D01*
X103397600Y-62130100D01*
G36*
X104047600Y-62130100D02*
X104047600Y-61730100D01*
X103997600Y-61680100D01*
X103897600Y-61680100D01*
X103897600Y-62130100D01*
X104047600Y-62130100D01*
G37*
X104047600Y-62130100D02*
X104047600Y-61730100D01*
X103997600Y-61680100D01*
X103897600Y-61680100D01*
X103897600Y-62130100D01*
X104047600Y-62130100D01*
G36*
X104747600Y-61430100D02*
X104347600Y-61430100D01*
X104297600Y-61380100D01*
X104297600Y-61280100D01*
X104747600Y-61280100D01*
X104747600Y-61430100D01*
G37*
X104747600Y-61430100D02*
X104347600Y-61430100D01*
X104297600Y-61380100D01*
X104297600Y-61280100D01*
X104747600Y-61280100D01*
X104747600Y-61430100D01*
G36*
X104747600Y-60930100D02*
X104297600Y-60930100D01*
X104297600Y-60780100D01*
X104747600Y-60780100D01*
X104747600Y-60930100D01*
G37*
X104747600Y-60930100D02*
X104297600Y-60930100D01*
X104297600Y-60780100D01*
X104747600Y-60780100D01*
X104747600Y-60930100D01*
G36*
X104747600Y-60430100D02*
X104297600Y-60430100D01*
X104297600Y-60280100D01*
X104747600Y-60280100D01*
X104747600Y-60430100D01*
G37*
X104747600Y-60430100D02*
X104297600Y-60430100D01*
X104297600Y-60280100D01*
X104747600Y-60280100D01*
X104747600Y-60430100D01*
G36*
X104747600Y-59930100D02*
X104297600Y-59930100D01*
X104297600Y-59780100D01*
X104747600Y-59780100D01*
X104747600Y-59930100D01*
G37*
X104747600Y-59930100D02*
X104297600Y-59930100D01*
X104297600Y-59780100D01*
X104747600Y-59780100D01*
X104747600Y-59930100D01*
G36*
X104747600Y-59430100D02*
X104297600Y-59430100D01*
X104297600Y-59280100D01*
X104747600Y-59280100D01*
X104747600Y-59430100D01*
G37*
X104747600Y-59430100D02*
X104297600Y-59430100D01*
X104297600Y-59280100D01*
X104747600Y-59280100D01*
X104747600Y-59430100D01*
G36*
X104747600Y-58930100D02*
X104297600Y-58930100D01*
X104297600Y-58780100D01*
X104747600Y-58780100D01*
X104747600Y-58930100D01*
G37*
X104747600Y-58930100D02*
X104297600Y-58930100D01*
X104297600Y-58780100D01*
X104747600Y-58780100D01*
X104747600Y-58930100D01*
G36*
X104747600Y-58430100D02*
X104297600Y-58430100D01*
X104297600Y-58280100D01*
X104747600Y-58280100D01*
X104747600Y-58430100D01*
G37*
X104747600Y-58430100D02*
X104297600Y-58430100D01*
X104297600Y-58280100D01*
X104747600Y-58280100D01*
X104747600Y-58430100D01*
G36*
X104747600Y-57780100D02*
X104347600Y-57780100D01*
X104297600Y-57830100D01*
X104297600Y-57930100D01*
X104747600Y-57930100D01*
X104747600Y-57780100D01*
G37*
X104747600Y-57780100D02*
X104347600Y-57780100D01*
X104297600Y-57830100D01*
X104297600Y-57930100D01*
X104747600Y-57930100D01*
X104747600Y-57780100D01*
G36*
X104047600Y-57080100D02*
X104047600Y-57480100D01*
X103997600Y-57530100D01*
X103897600Y-57530100D01*
X103897600Y-57080100D01*
X104047600Y-57080100D01*
G37*
X104047600Y-57080100D02*
X104047600Y-57480100D01*
X103997600Y-57530100D01*
X103897600Y-57530100D01*
X103897600Y-57080100D01*
X104047600Y-57080100D01*
G36*
X103547600Y-57080100D02*
X103547600Y-57530100D01*
X103397600Y-57530100D01*
X103397600Y-57080100D01*
X103547600Y-57080100D01*
G37*
X103547600Y-57080100D02*
X103547600Y-57530100D01*
X103397600Y-57530100D01*
X103397600Y-57080100D01*
X103547600Y-57080100D01*
G36*
X103047600Y-57080100D02*
X103047600Y-57530100D01*
X102897600Y-57530100D01*
X102897600Y-57080100D01*
X103047600Y-57080100D01*
G37*
X103047600Y-57080100D02*
X103047600Y-57530100D01*
X102897600Y-57530100D01*
X102897600Y-57080100D01*
X103047600Y-57080100D01*
G36*
X102547600Y-57080100D02*
X102547600Y-57530100D01*
X102397600Y-57530100D01*
X102397600Y-57080100D01*
X102547600Y-57080100D01*
G37*
X102547600Y-57080100D02*
X102547600Y-57530100D01*
X102397600Y-57530100D01*
X102397600Y-57080100D01*
X102547600Y-57080100D01*
G36*
X102047600Y-57080100D02*
X102047600Y-57530100D01*
X101897600Y-57530100D01*
X101897600Y-57080100D01*
X102047600Y-57080100D01*
G37*
X102047600Y-57080100D02*
X102047600Y-57530100D01*
X101897600Y-57530100D01*
X101897600Y-57080100D01*
X102047600Y-57080100D01*
G36*
X101547600Y-57080100D02*
X101547600Y-57530100D01*
X101397600Y-57530100D01*
X101397600Y-57080100D01*
X101547600Y-57080100D01*
G37*
X101547600Y-57080100D02*
X101547600Y-57530100D01*
X101397600Y-57530100D01*
X101397600Y-57080100D01*
X101547600Y-57080100D01*
G36*
X101047600Y-57080100D02*
X101047600Y-57530100D01*
X100897600Y-57530100D01*
X100897600Y-57080100D01*
X101047600Y-57080100D01*
G37*
X101047600Y-57080100D02*
X101047600Y-57530100D01*
X100897600Y-57530100D01*
X100897600Y-57080100D01*
X101047600Y-57080100D01*
G36*
X100397600Y-57080100D02*
X100397600Y-57480100D01*
X100447600Y-57530100D01*
X100547600Y-57530100D01*
X100547600Y-57080100D01*
X100397600Y-57080100D01*
G37*
X100397600Y-57080100D02*
X100397600Y-57480100D01*
X100447600Y-57530100D01*
X100547600Y-57530100D01*
X100547600Y-57080100D01*
X100397600Y-57080100D01*
G36*
X99697600Y-57780100D02*
X100097600Y-57780100D01*
X100147600Y-57830100D01*
X100147600Y-57930100D01*
X99697600Y-57930100D01*
X99697600Y-57780100D01*
G37*
X99697600Y-57780100D02*
X100097600Y-57780100D01*
X100147600Y-57830100D01*
X100147600Y-57930100D01*
X99697600Y-57930100D01*
X99697600Y-57780100D01*
G36*
X99697600Y-58280100D02*
X100147600Y-58280100D01*
X100147600Y-58430100D01*
X99697600Y-58430100D01*
X99697600Y-58280100D01*
G37*
X99697600Y-58280100D02*
X100147600Y-58280100D01*
X100147600Y-58430100D01*
X99697600Y-58430100D01*
X99697600Y-58280100D01*
G36*
X99697600Y-58780100D02*
X100147600Y-58780100D01*
X100147600Y-58930100D01*
X99697600Y-58930100D01*
X99697600Y-58780100D01*
G37*
X99697600Y-58780100D02*
X100147600Y-58780100D01*
X100147600Y-58930100D01*
X99697600Y-58930100D01*
X99697600Y-58780100D01*
G36*
X99697600Y-59280100D02*
X100147600Y-59280100D01*
X100147600Y-59430100D01*
X99697600Y-59430100D01*
X99697600Y-59280100D01*
G37*
X99697600Y-59280100D02*
X100147600Y-59280100D01*
X100147600Y-59430100D01*
X99697600Y-59430100D01*
X99697600Y-59280100D01*
G36*
X99697600Y-59780100D02*
X100147600Y-59780100D01*
X100147600Y-59930100D01*
X99697600Y-59930100D01*
X99697600Y-59780100D01*
G37*
X99697600Y-59780100D02*
X100147600Y-59780100D01*
X100147600Y-59930100D01*
X99697600Y-59930100D01*
X99697600Y-59780100D01*
G36*
X99697600Y-60280100D02*
X100147600Y-60280100D01*
X100147600Y-60430100D01*
X99697600Y-60430100D01*
X99697600Y-60280100D01*
G37*
X99697600Y-60280100D02*
X100147600Y-60280100D01*
X100147600Y-60430100D01*
X99697600Y-60430100D01*
X99697600Y-60280100D01*
G36*
X99697600Y-60780100D02*
X100147600Y-60780100D01*
X100147600Y-60930100D01*
X99697600Y-60930100D01*
X99697600Y-60780100D01*
G37*
X99697600Y-60780100D02*
X100147600Y-60780100D01*
X100147600Y-60930100D01*
X99697600Y-60930100D01*
X99697600Y-60780100D01*
G36*
X99697600Y-61430100D02*
X100097600Y-61430100D01*
X100147600Y-61380100D01*
X100147600Y-61280100D01*
X99697600Y-61280100D01*
X99697600Y-61430100D01*
G37*
X99697600Y-61430100D02*
X100097600Y-61430100D01*
X100147600Y-61380100D01*
X100147600Y-61280100D01*
X99697600Y-61280100D01*
X99697600Y-61430100D01*
D14*
G36*
X106719600Y-35604300D02*
X106719600Y-34704300D01*
X107319600Y-34704300D01*
X107319600Y-35604300D01*
X106719600Y-35604300D01*
G37*
X106719600Y-35604300D02*
X106719600Y-34704300D01*
X107319600Y-34704300D01*
X107319600Y-35604300D01*
X106719600Y-35604300D01*
G36*
X106719600Y-33704300D02*
X106719600Y-33204300D01*
X107319600Y-33204300D01*
X107319600Y-33704300D01*
X106719600Y-33704300D01*
G37*
X106719600Y-33704300D02*
X106719600Y-33204300D01*
X107319600Y-33204300D01*
X107319600Y-33704300D01*
X106719600Y-33704300D01*
G36*
X104719600Y-33704300D02*
X104719600Y-33204300D01*
X105319600Y-33204300D01*
X105319600Y-33704300D01*
X104719600Y-33704300D01*
G37*
X104719600Y-33704300D02*
X104719600Y-33204300D01*
X105319600Y-33204300D01*
X105319600Y-33704300D01*
X104719600Y-33704300D01*
G36*
X104719600Y-35604300D02*
X104719600Y-35104300D01*
X105319600Y-35104300D01*
X105319600Y-35604300D01*
X104719600Y-35604300D01*
G37*
X104719600Y-35604300D02*
X104719600Y-35104300D01*
X105319600Y-35104300D01*
X105319600Y-35604300D01*
X104719600Y-35604300D01*
D12*
X85083200Y-43289500D02*
X85083200Y-42989500D01*
X85583200Y-43314500D02*
X85583200Y-42914500D01*
X86083200Y-43314500D02*
X86083200Y-42914500D01*
X86583200Y-43314500D02*
X86583200Y-42914500D01*
X87083200Y-43314500D02*
X87083200Y-42914500D01*
X87583200Y-43314500D02*
X87583200Y-42914500D01*
X88083200Y-43314500D02*
X88083200Y-42914500D01*
X88583200Y-43314500D02*
X88583200Y-42914500D01*
X89083200Y-43314500D02*
X89083200Y-42914500D01*
X89583200Y-43314500D02*
X89583200Y-42914500D01*
X90083200Y-43314500D02*
X90083200Y-42914500D01*
X90583200Y-43289500D02*
X90583200Y-42989500D01*
X91308200Y-42564500D02*
X91008200Y-42564500D01*
X91333200Y-42064500D02*
X90933200Y-42064500D01*
X91333200Y-41564500D02*
X90933200Y-41564500D01*
X91333200Y-41064500D02*
X90933200Y-41064500D01*
X91333200Y-40564500D02*
X90933200Y-40564500D01*
X91333200Y-40064500D02*
X90933200Y-40064500D01*
X91333200Y-39564500D02*
X90933200Y-39564500D01*
X91333200Y-39064500D02*
X90933200Y-39064500D01*
X91333200Y-38564500D02*
X90933200Y-38564500D01*
X91333200Y-38064500D02*
X90933200Y-38064500D01*
X91333200Y-37564500D02*
X90933200Y-37564500D01*
X91308200Y-37064500D02*
X91008200Y-37064500D01*
X90583200Y-36339500D02*
X90583200Y-36639500D01*
X90083200Y-36314500D02*
X90083200Y-36714500D01*
X89583200Y-36314500D02*
X89583200Y-36714500D01*
X89083200Y-36314500D02*
X89083200Y-36714500D01*
X88583200Y-36314500D02*
X88583200Y-36714500D01*
X88083200Y-36314500D02*
X88083200Y-36714500D01*
X87583200Y-36314500D02*
X87583200Y-36714500D01*
X87083200Y-36314500D02*
X87083200Y-36714500D01*
X86583200Y-36314500D02*
X86583200Y-36714500D01*
X86083200Y-36314500D02*
X86083200Y-36714500D01*
X85583200Y-36314500D02*
X85583200Y-36714500D01*
X85083200Y-36339500D02*
X85083200Y-36639500D01*
X84358200Y-37064500D02*
X84658200Y-37064500D01*
X84333200Y-37564500D02*
X84733200Y-37564500D01*
X84333200Y-38064500D02*
X84733200Y-38064500D01*
X84333200Y-38564500D02*
X84733200Y-38564500D01*
X84333200Y-39064500D02*
X84733200Y-39064500D01*
X84333200Y-39564500D02*
X84733200Y-39564500D01*
X84333200Y-40064500D02*
X84733200Y-40064500D01*
X84333200Y-40564500D02*
X84733200Y-40564500D01*
X84333200Y-41064500D02*
X84733200Y-41064500D01*
X84333200Y-41564500D02*
X84733200Y-41564500D01*
X84333200Y-42064500D02*
X84733200Y-42064500D01*
X84358200Y-42564500D02*
X84658200Y-42564500D01*
D14*
G36*
X85333200Y-42314500D02*
X85333200Y-37314500D01*
X90333200Y-37314500D01*
X90333200Y-42314500D01*
X85333200Y-42314500D01*
G37*
X85333200Y-42314500D02*
X85333200Y-37314500D01*
X90333200Y-37314500D01*
X90333200Y-42314500D01*
X85333200Y-42314500D01*
D16*
X95181000Y-70180200D03*
X96081000Y-70180200D03*
X94571400Y-61137800D03*
X95471400Y-61137800D03*
X96583500Y-58559700D03*
X97483500Y-58559700D03*
X97445400Y-61137800D03*
X96545400Y-61137800D03*
X99009200Y-53924200D03*
X98109200Y-53924200D03*
X99021900Y-55283100D03*
X98121900Y-55283100D03*
X99021900Y-56654700D03*
X98121900Y-56654700D03*
D17*
X107467400Y-64643000D03*
X107467400Y-65543000D03*
X106108500Y-64643000D03*
X106108500Y-65543000D03*
X104724200Y-64643000D03*
X104724200Y-65543000D03*
X103339900Y-64643000D03*
X103339900Y-65543000D03*
X101981000Y-64655700D03*
X101981000Y-65555700D03*
X100622100Y-64655700D03*
X100622100Y-65555700D03*
D16*
X106895900Y-56959500D03*
X105995900Y-56959500D03*
X108527000Y-60109100D03*
X107627000Y-60109100D03*
X99421100Y-63487300D03*
X98521100Y-63487300D03*
X106919600Y-58356500D03*
X106019600Y-58356500D03*
X96131380Y-33535620D03*
X97031380Y-33535620D03*
X100606860Y-36329620D03*
X101506860Y-36329620D03*
X100614060Y-37627560D03*
X101514060Y-37627560D03*
X104401620Y-25252680D03*
X105301620Y-25252680D03*
D17*
X84747100Y-67482300D03*
X84747100Y-68382300D03*
X83388200Y-67482300D03*
X83388200Y-68382300D03*
D16*
X83756500Y-61963300D03*
X82856500Y-61963300D03*
X113755600Y-47434500D03*
X114655600Y-47434500D03*
X112433100Y-47447200D03*
X111533100Y-47447200D03*
D17*
X108419900Y-48341700D03*
X108419900Y-47441700D03*
X83748880Y-60642500D03*
X83748880Y-59742500D03*
X83748880Y-57412460D03*
X83748880Y-56512460D03*
D16*
X80472280Y-55359300D03*
X81372280Y-55359300D03*
D17*
X83738720Y-52783740D03*
X83738720Y-51883740D03*
X109042200Y-33961500D03*
X109042200Y-34861500D03*
D18*
X75618340Y-35593020D03*
D19*
X75458320Y-35242500D03*
D18*
X75618340Y-34891980D03*
X74648060Y-34891980D03*
X74648060Y-35242500D03*
X74648060Y-35593020D03*
D20*
X75133200Y-35242500D03*
D21*
X75067160Y-35242500D03*
D22*
X75154413Y-35419407D02*
X75330427Y-35243393D01*
X75320267Y-35241607D02*
X75144253Y-35065593D01*
D23*
X109054900Y-38900100D03*
X113931700Y-38900100D03*
D24*
X108419900Y-49942500D03*
X108419900Y-52292500D03*
X108508800Y-58477400D03*
X108508800Y-56127400D03*
X105181400Y-52241700D03*
X105181400Y-49891700D03*
X95478600Y-58572899D03*
X95478600Y-56222899D03*
D25*
X74841100Y-53390800D03*
X73571100Y-53390800D03*
X72301100Y-53390800D03*
X72301100Y-56570800D03*
X74841100Y-56570800D03*
D26*
X108430100Y-43388100D03*
X107480100Y-43388100D03*
X106530100Y-43388100D03*
X106530100Y-45588100D03*
X108430100Y-45588100D03*
D27*
X112405200Y-43389700D03*
X111455200Y-43389700D03*
X110505200Y-43389700D03*
X110505200Y-45789700D03*
X112405200Y-45789700D03*
D28*
X71674700Y-47651500D03*
X71674700Y-46201500D03*
X70209700Y-47651500D03*
X70209700Y-46201500D03*
D29*
X70198360Y-62906100D03*
X70698360Y-62906100D03*
X71198360Y-62906100D03*
D30*
X72098360Y-62006100D03*
X72098360Y-61506100D03*
X72098360Y-61006100D03*
D29*
X71198360Y-60106100D03*
X70698360Y-60106100D03*
X70198360Y-60106100D03*
D30*
X69298360Y-61006100D03*
X69298360Y-61506100D03*
X69298360Y-62006100D03*
D31*
X71110860Y-61093600D03*
X70285860Y-61093600D03*
X71110860Y-61918600D03*
X70285860Y-61918600D03*
D32*
X102222600Y-59605100D03*
D33*
X100472600Y-62005100D03*
X100972600Y-62005100D03*
X101472600Y-62005100D03*
X101972600Y-62005100D03*
X102472600Y-62005100D03*
X102972600Y-62005100D03*
X103472600Y-62005100D03*
X103972600Y-62005100D03*
D34*
X104622600Y-61355100D03*
X104622600Y-60855100D03*
X104622600Y-60355100D03*
X104622600Y-59855100D03*
X104622600Y-59355100D03*
X104622600Y-58855100D03*
X104622600Y-58355100D03*
X104622600Y-57855100D03*
D33*
X103972600Y-57205100D03*
X103472600Y-57205100D03*
X102972600Y-57205100D03*
X102472600Y-57205100D03*
X101972600Y-57205100D03*
X101472600Y-57205100D03*
X100972600Y-57205100D03*
X100472600Y-57205100D03*
D34*
X99822600Y-57855100D03*
X99822600Y-58355100D03*
X99822600Y-58855100D03*
X99822600Y-59355100D03*
X99822600Y-59855100D03*
X99822600Y-60355100D03*
X99822600Y-60855100D03*
X99822600Y-61355100D03*
D35*
X72127200Y-35242500D03*
X71027200Y-35242500D03*
X82663270Y-48175884D03*
X81563270Y-48175884D03*
X88641100Y-50927000D03*
X87541100Y-50927000D03*
X82659370Y-49433184D03*
X81559370Y-49433184D03*
X83746520Y-54033420D03*
X82646520Y-54033420D03*
D36*
X74663300Y-31526300D03*
X74663300Y-32626300D03*
X73736200Y-36314200D03*
X73736200Y-37414200D03*
D35*
X88646000Y-52235100D03*
X87546000Y-52235100D03*
X108432600Y-41541700D03*
X107332600Y-41541700D03*
X82667303Y-46922532D03*
X81567303Y-46922532D03*
X83746520Y-55359300D03*
X82646520Y-55359300D03*
X88691900Y-53949600D03*
X87591900Y-53949600D03*
X113737300Y-43383200D03*
X114837300Y-43383200D03*
X88691900Y-55422800D03*
X87591900Y-55422800D03*
X83745160Y-58574940D03*
X82645160Y-58574940D03*
X91626600Y-50723800D03*
X92726600Y-50723800D03*
X82443320Y-60647580D03*
X81343320Y-60647580D03*
X91617799Y-49466500D03*
X92717799Y-49466500D03*
D36*
X106921300Y-47519500D03*
X106921300Y-48619500D03*
D35*
X88641100Y-46393100D03*
X87541100Y-46393100D03*
X91579700Y-47752000D03*
X92679700Y-47752000D03*
X88658700Y-47650400D03*
X87558700Y-47650400D03*
X91554300Y-46443900D03*
X92654300Y-46443900D03*
X113737300Y-45085000D03*
X114837300Y-45085000D03*
X88649900Y-48768000D03*
X87549900Y-48768000D03*
X92710000Y-53632100D03*
X91610000Y-53632100D03*
X97757861Y-44626188D03*
X98857861Y-44626188D03*
D36*
X96681082Y-38931678D03*
X96681082Y-40031678D03*
X78463105Y-46367767D03*
X78463105Y-47467767D03*
X83388200Y-65112900D03*
X83388200Y-66212900D03*
X84747100Y-65105100D03*
X84747100Y-66205100D03*
D35*
X97753961Y-43368888D03*
X98853961Y-43368888D03*
D36*
X97961241Y-38931678D03*
X97961241Y-40031678D03*
D35*
X92711678Y-52380740D03*
X91611678Y-52380740D03*
D36*
X79707705Y-46367766D03*
X79707705Y-47467766D03*
D35*
X97757861Y-42111589D03*
X98857861Y-42111589D03*
D36*
X99245420Y-38921600D03*
X99245420Y-40021600D03*
X79712820Y-43348820D03*
X79712820Y-44448820D03*
X78417420Y-43348820D03*
X78417420Y-44448820D03*
D35*
X96845120Y-46103540D03*
X97945120Y-46103540D03*
D36*
X88226900Y-59720300D03*
X88226900Y-60820300D03*
X90779600Y-59724200D03*
X90779600Y-60824200D03*
D35*
X96845120Y-47355760D03*
X97945120Y-47355760D03*
X102139660Y-25252680D03*
X103239660Y-25252680D03*
D36*
X76880720Y-43347640D03*
X76880720Y-44447640D03*
D35*
X98270060Y-37632640D03*
X99370060Y-37632640D03*
X80594200Y-39243000D03*
X79494200Y-39243000D03*
X98300540Y-36337240D03*
X99400540Y-36337240D03*
X80597547Y-41846963D03*
X79497547Y-41846963D03*
D36*
X72181791Y-42072803D03*
X72181791Y-40972803D03*
X76047600Y-47501900D03*
X76047600Y-46401900D03*
X73533000Y-47493100D03*
X73533000Y-46393100D03*
D35*
X80597547Y-40424563D03*
X79497547Y-40424563D03*
X81009400Y-36461700D03*
X82109400Y-36461700D03*
X77783600Y-34163000D03*
X78883600Y-34163000D03*
X93784420Y-33540700D03*
X94884420Y-33540700D03*
D36*
X76822300Y-56222900D03*
X76822300Y-55122900D03*
D35*
X81000600Y-35242500D03*
X82100600Y-35242500D03*
X93764100Y-35026600D03*
X94864100Y-35026600D03*
X93764100Y-36309300D03*
X94864100Y-36309300D03*
X94863187Y-31381092D03*
X93763187Y-31381092D03*
D36*
X82803463Y-31580044D03*
X82803463Y-32680044D03*
D35*
X81360892Y-28400940D03*
X80260892Y-28400940D03*
X94859467Y-30156812D03*
X93759467Y-30156812D03*
D36*
X81609663Y-31580045D03*
X81609663Y-32680045D03*
D35*
X81373592Y-27194440D03*
X80273592Y-27194440D03*
X94859467Y-28924912D03*
X93759467Y-28924912D03*
D36*
X80403162Y-31580043D03*
X80403162Y-32680043D03*
D35*
X81373592Y-25975240D03*
X80273592Y-25975240D03*
X92333765Y-31375090D03*
X91233765Y-31375090D03*
X107137200Y-63207900D03*
X108237200Y-63207900D03*
X92330045Y-30133030D03*
X91230045Y-30133030D03*
X92333765Y-28883349D03*
X91233765Y-28883349D03*
X83926198Y-28386414D03*
X82826198Y-28386414D03*
X86450292Y-28394341D03*
X85350292Y-28394341D03*
X88696800Y-25920700D03*
X89796800Y-25920700D03*
X89778840Y-31379160D03*
X88678840Y-31379160D03*
X107133300Y-62001400D03*
X108233300Y-62001400D03*
X83926198Y-27179914D03*
X82826198Y-27179914D03*
X86458093Y-27149740D03*
X85358093Y-27149740D03*
X88696800Y-27127200D03*
X89796800Y-27127200D03*
X89778840Y-30139640D03*
X88678840Y-30139640D03*
X83921298Y-25960713D03*
X82821298Y-25960713D03*
X86452800Y-25933400D03*
X85352800Y-25933400D03*
X89778840Y-28892500D03*
X88678840Y-28892500D03*
D36*
X95669100Y-64778800D03*
X95669100Y-65878800D03*
X97243900Y-64791500D03*
X97243900Y-65891500D03*
X98513900Y-64791500D03*
X98513900Y-65891500D03*
D35*
X96079400Y-68694300D03*
X94979400Y-68694300D03*
D37*
X107019600Y-35154300D03*
D38*
X107019600Y-33454300D03*
X105019600Y-33454300D03*
X105019600Y-35354300D03*
D35*
X76893600Y-40970200D03*
X75793600Y-40970200D03*
X73423600Y-40970200D03*
X74523600Y-40970200D03*
D25*
X92430600Y-65212000D03*
X91160600Y-65212000D03*
X89890600Y-65212000D03*
X89890600Y-68392000D03*
X92430600Y-68392000D03*
D39*
X112526700Y-34043900D03*
X112526700Y-33393900D03*
X112526700Y-32743900D03*
X112526700Y-32093900D03*
X112526700Y-31443900D03*
D40*
X115201700Y-33743900D03*
X115201700Y-31743900D03*
X115201700Y-35793900D03*
X115201700Y-29693900D03*
D41*
X103484680Y-29507180D03*
X99484680Y-29507180D03*
X103484680Y-27007180D03*
X99484680Y-27007180D03*
D42*
X69011800Y-25831800D03*
X76758800Y-25831800D03*
D43*
X64947800Y-58966100D03*
X64947800Y-64046100D03*
D44*
X64947800Y-61506100D03*
D45*
X85083200Y-43139500D03*
D46*
X85583200Y-43114500D03*
X86083200Y-43114500D03*
X86583200Y-43114500D03*
X87083200Y-43114500D03*
X87583200Y-43114500D03*
X88083200Y-43114500D03*
X88583200Y-43114500D03*
X89083200Y-43114500D03*
X89583200Y-43114500D03*
X90083200Y-43114500D03*
D45*
X90583200Y-43139500D03*
D47*
X91158200Y-42564500D03*
D48*
X91133200Y-42064500D03*
X91133200Y-41564500D03*
X91133200Y-41064500D03*
X91133200Y-40564500D03*
X91133200Y-40064500D03*
X91133200Y-39564500D03*
X91133200Y-39064500D03*
X91133200Y-38564500D03*
X91133200Y-38064500D03*
X91133200Y-37564500D03*
D47*
X91158200Y-37064500D03*
D45*
X90583200Y-36489500D03*
D46*
X90083200Y-36514500D03*
X89583200Y-36514500D03*
X89083200Y-36514500D03*
X88583200Y-36514500D03*
X88083200Y-36514500D03*
X87583200Y-36514500D03*
X87083200Y-36514500D03*
X86583200Y-36514500D03*
X86083200Y-36514500D03*
X85583200Y-36514500D03*
D45*
X85083200Y-36489500D03*
D47*
X84508200Y-37064500D03*
D48*
X84533200Y-37564500D03*
X84533200Y-38064500D03*
X84533200Y-38564500D03*
X84533200Y-39064500D03*
X84533200Y-39564500D03*
X84533200Y-40064500D03*
X84533200Y-40564500D03*
X84533200Y-41064500D03*
X84533200Y-41564500D03*
X84533200Y-42064500D03*
D47*
X84508200Y-42564500D03*
D49*
X87833200Y-39814500D03*
D43*
X64858900Y-32740600D03*
X64858900Y-37820600D03*
D44*
X64858900Y-35280600D03*
D50*
X112852200Y-55867300D03*
X112877600Y-49364900D03*
M02*
