M48
;DRILL file {KiCad 4.0.5} date 2017 September 25, Monday 02:54:55
;FORMAT={-:-/ absolute / metric / decimal}
FMAT,2
METRIC,TZ
T1C0.279
T2C0.305
T3C0.330
T4C0.381
T5C0.900
T6C1.016
T7C1.200
T8C2.540
%
G90
G05
M71
T1
X74.581Y-37.417
X86.72Y-47.651
X86.773Y-48.782
X105.101Y-62.224
T2
X63.513Y-37.846
X63.652Y-32.804
X63.703Y-59.068
X63.792Y-64.11
X64.935Y-32.804
X64.935Y-37.846
X65.087Y-59.131
X65.113Y-64.11
X66.18Y-32.829
X66.205Y-37.846
X66.345Y-64.11
X66.383Y-59.157
X67.627Y-34.48
X68.218Y-62.964
X68.25Y-60.249
X68.275Y-36.017
X68.897Y-34.48
X69.037Y-27.724
X69.202Y-64.237
X69.202Y-65.507
X69.202Y-66.777
X69.202Y-68.047
X69.228Y-39.23
X69.228Y-40.5
X69.228Y-41.77
X69.228Y-43.04
X69.228Y-44.31
X69.317Y-69.151
X69.469Y-48.641
X69.469Y-49.911
X69.469Y-51.181
X69.469Y-52.451
X69.469Y-53.721
X69.469Y-54.991
X69.469Y-56.261
X69.469Y-57.531
X69.532Y-70.193
X69.545Y-36.017
X70.307Y-71.12
X71.006Y-40.97
X71.006Y-42.24
X71.006Y-43.51
X71.006Y-44.78
X71.006Y-49.098
X71.006Y-50.368
X71.006Y-51.638
X71.006Y-52.908
X71.006Y-54.178
X71.006Y-55.448
X71.006Y-56.718
X71.011Y-65.173
X71.082Y-37.706
X71.26Y-67.31
X71.272Y-66.23
X71.298Y-68.796
X71.31Y-39.891
X71.361Y-59.118
X71.628Y-71.26
X71.679Y-45.466
X71.679Y-48.463
X72.182Y-42.852
X72.2Y-59.195
X72.276Y-39.472
X72.301Y-57.747
X72.39Y-37.719
X72.847Y-36.309
X72.936Y-71.247
X72.987Y-28.423
X73.177Y-69.177
X73.266Y-39.472
X73.429Y-41.892
X74.206Y-71.247
X74.447Y-69.177
X75.389Y-33.725
X75.476Y-71.247
X75.717Y-69.177
X76.022Y-37.808
X76.136Y-36.462
X76.543Y-37.135
X76.746Y-71.247
X76.771Y-56.966
X76.881Y-45.354
X76.987Y-69.177
X77.895Y-40.322
X78.016Y-36.131
X78.016Y-71.247
X78.156Y-36.906
X78.191Y-45.38
X78.257Y-69.177
X78.473Y-48.197
X78.72Y-40.434
X78.724Y-41.356
X78.727Y-39.243
X79.241Y-36.488
X79.286Y-71.247
X79.462Y-32.676
X79.527Y-69.177
X79.616Y-27.191
X79.616Y-28.397
X79.654Y-31.572
X79.67Y-55.359
X79.705Y-48.184
X79.734Y-45.258
X80.302Y-35.242
X80.315Y-36.462
X80.556Y-71.247
X80.797Y-69.177
X80.879Y-46.926
X80.879Y-48.186
X80.879Y-49.431
X81.346Y-59.738
X81.372Y-25.388
X81.514Y-39.246
X81.627Y-33.418
X81.747Y-54.033
X81.826Y-71.247
X82.067Y-69.177
X82.093Y-58.547
X82.194Y-28.384
X82.207Y-25.959
X82.207Y-27.191
X82.245Y-39.743
X82.779Y-45.542
X82.803Y-33.375
X82.852Y-62.982
X83.045Y-39.243
X83.096Y-71.247
X83.388Y-69.202
X83.922Y-25.387
X84.341Y-33.167
X84.366Y-71.247
X84.506Y-43.142
X84.709Y-25.946
X84.709Y-27.153
X84.747Y-69.202
X84.772Y-28.397
X85.446Y-44.549
X85.636Y-71.247
X85.792Y-33.602
X85.979Y-37.91
X85.979Y-39.179
X85.979Y-40.45
X85.979Y-41.719
X86.677Y-52.235
X86.677Y-53.95
X86.677Y-55.423
X86.688Y-33.617
X86.703Y-46.876
X86.906Y-71.247
X87.174Y-33.142
X87.204Y-25.952
X87.249Y-37.91
X87.249Y-39.179
X87.249Y-40.45
X87.249Y-41.719
X87.359Y-45.682
X87.541Y-50.216
X88.049Y-28.892
X88.062Y-30.137
X88.062Y-31.382
X88.176Y-71.247
X88.519Y-37.91
X88.519Y-39.179
X88.519Y-40.45
X88.519Y-41.719
X88.595Y-45.796
X88.646Y-49.644
X89.764Y-28.359
X89.789Y-37.91
X89.789Y-39.179
X89.789Y-40.45
X89.789Y-41.719
X90.361Y-33.976
X90.526Y-27.127
X90.64Y-28.892
X90.64Y-30.137
X90.64Y-31.382
X90.754Y-34.497
X91.594Y-51.577
X91.605Y-54.369
X91.696Y-36.7
X92.329Y-28.359
X92.431Y-69.571
X93.116Y-62.332
X93.142Y-28.931
X93.142Y-30.15
X93.142Y-31.382
X93.408Y-38.933
X93.41Y-41.65
X93.523Y-46.444
X93.523Y-47.752
X93.548Y-49.466
X93.586Y-50.724
X94.348Y-68.694
X94.436Y-28.133
X94.577Y-60.439
X94.856Y-72.25
X94.861Y-39.644
X95.639Y-54.962
X95.669Y-64.135
X95.669Y-66.51
X95.755Y-35.027
X95.758Y-36.309
X95.807Y-54.146
X96.665Y-40.948
X96.822Y-43.365
X96.931Y-68.093
X97.206Y-66.573
X97.226Y-70.771
X97.587Y-55.22
X97.587Y-56.642
X97.587Y-59.855
X97.599Y-53.924
X97.676Y-52.553
X97.836Y-33.536
X97.866Y-63.716
X97.965Y-40.935
X98.453Y-57.698
X98.453Y-59.243
X98.514Y-66.586
X98.515Y-60.556
X98.831Y-47.353
X98.849Y-46.104
X98.922Y-62.78
X99.251Y-40.945
X99.517Y-55.283
X99.522Y-25.984
X99.581Y-53.911
X99.758Y-42.113
X99.761Y-43.368
X99.764Y-44.625
X99.765Y-62.456
X99.987Y-63.475
X100.147Y-38.92
X100.192Y-51.276
X100.639Y-66.124
X100.978Y-58.331
X100.978Y-59.601
X100.978Y-60.871
X101.384Y-25.298
X101.39Y-63.681
X101.627Y-54.861
X101.981Y-66.116
X102.012Y-55.519
X102.083Y-36.322
X102.083Y-37.617
X102.248Y-58.331
X102.248Y-59.601
X102.248Y-60.871
X102.83Y-55.477
X102.908Y-69.596
X103.34Y-66.142
X103.471Y-54.789
X103.518Y-58.331
X103.518Y-59.601
X103.518Y-60.871
X103.955Y-52.04
X103.976Y-46.723
X104.057Y-56.229
X104.192Y-35.376
X104.534Y-57.061
X104.724Y-66.142
X104.851Y-29.502
X105.053Y-55.234
X105.321Y-56.045
X105.321Y-58.889
X105.461Y-69.609
X105.545Y-61.285
X106.093Y-25.298
X106.096Y-66.142
X106.118Y-46.735
X106.242Y-50.307
X106.255Y-60.159
X106.261Y-61.036
X106.35Y-52.286
X106.412Y-67.825
X106.421Y-41.542
X107.165Y-70.933
X107.34Y-52.311
X107.48Y-66.142
X107.531Y-54.978
X107.567Y-42.548
X107.605Y-48.693
X107.747Y-35.141
X107.98Y-54.03
X108.42Y-33.96
X108.496Y-55.004
X108.814Y-61.989
X108.852Y-63.195
X109.131Y-47.46
X109.22Y-45.593
X110.109Y-50.813
X110.833Y-62.922
X110.96Y-30.924
X111.04Y-65.156
X111.089Y-67.688
X111.455Y-42.697
X111.76Y-45.783
X114.643Y-46.698
X114.668Y-55.931
X114.757Y-44.285
X114.77Y-42.405
X115.062Y-49.568
T3
X72.809Y-60.998
X73.228Y-61.646
X73.228Y-62.306
X74.687Y-30.732
X79.616Y-25.971
X89.764Y-33.401
X90.513Y-25.921
X93.657Y-40.637
X94.254Y-40.162
T4
X63.856Y-28.143
X63.856Y-70.879
X64.287Y-26.899
X64.287Y-69.634
X64.338Y-29.566
X64.338Y-72.301
X65.684Y-26.289
X65.684Y-30.099
X65.684Y-69.025
X65.684Y-72.834
X67.056Y-26.797
X67.056Y-29.515
X67.056Y-69.532
X67.056Y-72.25
X67.564Y-28.143
X67.564Y-70.879
X106.401Y-27.826
X106.832Y-26.581
X106.883Y-29.248
X108.229Y-25.971
X108.229Y-29.781
X109.601Y-26.479
X109.601Y-29.197
X110.109Y-27.826
X111.646Y-70.904
X112.078Y-69.659
X112.128Y-72.326
X113.474Y-69.05
X113.474Y-72.86
X114.846Y-69.558
X114.846Y-72.276
X115.354Y-70.904
T5
X112.502Y-30.244
X112.502Y-35.244
T6
X98.844Y-69.583
X98.844Y-72.123
X101.384Y-69.583
X101.384Y-72.123
X103.924Y-69.583
X103.924Y-72.123
X106.464Y-69.583
X106.464Y-72.123
X109.004Y-69.583
X109.004Y-72.123
X112.166Y-58.763
X112.166Y-61.303
X112.166Y-63.843
X112.166Y-66.383
X114.706Y-58.763
X114.706Y-61.303
X114.706Y-63.843
X114.706Y-66.383
T7
X115.202Y-29.244
X115.202Y-36.244
T8
X65.71Y-28.143
X65.71Y-70.879
X108.255Y-27.826
X113.5Y-70.904
T0
M30
