M48
;DRILL file {KiCad 4.0.5} date 2017 May 10, Wednesday 00:20:31
;FORMAT={-:-/ absolute / inch / decimal}
FMAT,2
INCH,TZ
T1C0.012
T2C0.013
T3C0.015
T4C0.035
T5C0.040
T6C0.047
T7C0.100
%
G90
G05
M72
T1
X4.739Y-2.116
X4.7645Y-2.1765
X4.789Y-2.116
X4.8005Y-3.2915
X4.8005Y-3.3415
X4.8005Y-3.3915
X4.8005Y-3.4415
X4.8075Y-2.3325
X4.8075Y-2.3825
X4.8075Y-2.4325
X4.8075Y-2.4825
X4.8075Y-2.5325
X4.808Y-2.7245
X4.808Y-2.7745
X4.808Y-2.8245
X4.808Y-2.8745
X4.808Y-2.9245
X4.808Y-2.9745
X4.808Y-3.0245
X4.808Y-3.0745
X4.8145Y-2.1765
X4.865Y-2.2485
X4.8685Y-2.7425
X4.8685Y-2.7925
X4.8685Y-2.8425
X4.8685Y-2.8925
X4.8685Y-2.9425
X4.8685Y-2.9925
X4.8685Y-3.0425
X4.8695Y-3.407
X4.87Y-3.3645
X4.871Y-3.459
X4.873Y-2.3605
X4.873Y-2.4105
X4.873Y-2.4605
X4.873Y-2.5105
X4.885Y-2.318
X4.911Y-2.24
X4.9135Y-3.4815
X4.923Y-2.3015
X4.9365Y-3.5565
X4.962Y-2.3015
X4.9635Y-3.4815
X4.9865Y-3.5565
X5.0135Y-3.4815
X5.0365Y-3.5565
X5.0635Y-3.4815
X5.0645Y-2.2425
X5.069Y-2.1895
X5.085Y-2.216
X5.0865Y-3.5565
X5.1135Y-3.4815
X5.127Y-2.15
X5.1365Y-3.5565
X5.143Y-2.1765
X5.1485Y-2.207
X5.1635Y-3.4815
X5.1865Y-3.5565
X5.2135Y-3.4815
X5.2365Y-3.5565
X5.2635Y-3.4815
X5.2865Y-3.5565
X5.3135Y-3.4815
X5.3365Y-3.5565
X5.3865Y-3.5565
X5.4365Y-3.5565
X5.454Y-2.243
X5.454Y-2.293
X5.454Y-2.343
X5.454Y-2.393
X5.4865Y-3.5565
X5.504Y-2.243
X5.504Y-2.293
X5.504Y-2.343
X5.504Y-2.393
X5.5365Y-3.5565
X5.554Y-2.243
X5.554Y-2.293
X5.554Y-2.343
X5.554Y-2.393
X5.5865Y-3.5565
X5.604Y-2.243
X5.604Y-2.293
X5.604Y-2.343
X5.604Y-2.393
X6.0515Y-3.0545
X6.0515Y-3.1045
X6.0515Y-3.1545
X6.1015Y-3.0545
X6.1015Y-3.1045
X6.1015Y-3.1545
X6.1515Y-3.0545
X6.1515Y-3.1045
X6.1515Y-3.1545
T2
X4.6285Y-1.991
X4.6285Y-2.289
X4.629Y-3.033
X4.629Y-3.3255
X4.6535Y-1.85
X4.7225Y-2.045
X4.723Y-2.244
X4.7275Y-3.0755
X4.7295Y-3.276
X4.762Y-3.1275
X4.7645Y-3.205
X4.8707Y-3.3214
X4.8845Y-3.083
X4.897Y-2.5455
X4.897Y-2.6635
X4.9168Y-2.4426
X4.9175Y-3.086
X4.9215Y-3.029
X4.9415Y-3.157
X4.9525Y-2.1845
X4.958Y-3.1825
X4.958Y-3.2085
X4.9659Y-2.4048
X5.009Y-2.2275
X5.0145Y-1.8495
X5.015Y-1.965
X5.033Y-2.1875
X5.0995Y-2.999
X5.1018Y-2.5411
X5.1483Y-2.3682
X5.1629Y-2.5399
X5.1645Y-2.653
X5.1742Y-2.3474
X5.1745Y-2.3005
X5.1845Y-2.403
X5.1947Y-2.192
X5.2095Y-1.778
X5.2095Y-1.826
X5.2095Y-1.8735
X5.211Y-1.9985
X5.2116Y-2.935
X5.213Y-2.6525
X5.2133Y-2.5393
X5.2365Y-2.143
X5.237Y-2.191
X5.2405Y-2.0695
X5.2592Y-2.603
X5.2592Y-2.6526
X5.2592Y-2.7016
X5.2776Y-3.1074
X5.279Y-1.753
X5.2842Y-2.3006
X5.288Y-2.0695
X5.2934Y-2.8828
X5.307Y-3.0605
X5.311Y-1.873
X5.3115Y-1.7775
X5.3115Y-1.826
X5.313Y-2.3202
X5.334Y-2.5485
X5.335Y-2.0695
X5.3369Y-3.2351
X5.3445Y-2.3005
X5.358Y-3.48
X5.379Y-1.753
X5.3955Y-2.0613
X5.402Y-2.454
X5.41Y-1.777
X5.41Y-1.8245
X5.4115Y-3.48
X5.4125Y-1.8735
X5.439Y-2.5094
X5.4526Y-2.0784
X5.4785Y-1.753
X5.4875Y-2.812
X5.4875Y-2.8795
X5.4875Y-2.9375
X5.4879Y-2.079
X5.4885Y-2.582
X5.4885Y-2.6315
X5.4885Y-2.6848
X5.507Y-2.0603
X5.5215Y-2.7325
X5.523Y-2.5345
X5.5407Y-2.558
X5.5415Y-1.893
X5.542Y-1.942
X5.542Y-1.991
X5.565Y-2.71
X5.609Y-1.872
X5.609Y-2.0705
X5.6325Y-2.0931
X5.6385Y-1.776
X5.639Y-1.8235
X5.6435Y-1.893
X5.6435Y-1.942
X5.6435Y-1.991
X5.648Y-2.1137
X5.6485Y-2.8175
X5.6815Y-2.896
X5.6851Y-2.2004
X5.71Y-1.872
X5.714Y-3.4945
X5.741Y-3.2095
X5.742Y-1.8945
X5.742Y-1.9425
X5.742Y-1.991
X5.7525Y-2.2883
X5.7526Y-2.3953
X5.757Y-2.584
X5.757Y-2.6355
X5.758Y-2.703
X5.7595Y-2.7525
X5.7623Y-2.3554
X5.775Y-2.939
X5.7858Y-2.3367
X5.7875Y-3.46
X5.795Y-3.6205
X5.7985Y-3.135
X5.8095Y-1.872
X5.8097Y-2.3163
X5.8115Y-3.594
X5.8415Y-3.2805
X5.8415Y-3.374
X5.8449Y-2.1345
X5.845Y-2.185
X5.8554Y-2.9548
X5.8807Y-2.3676
X5.8869Y-2.4628
X5.8885Y-2.8255
X5.902Y-3.3765
X5.917Y-2.9315
X5.917Y-2.9855
X5.917Y-3.112
X5.9175Y-2.8785
X5.9268Y-2.0758
X5.928Y-3.264
X5.93Y-3.4335
X5.9319Y-2.3671
X5.95Y-1.819
X5.9535Y-3.377
X5.9545Y-3.2265
X5.9635Y-3.0421
X5.9644Y-3.0844
X5.966Y-2.6198
X5.9667Y-2.5706
X5.9705Y-3.1362
X5.9825Y-2.3675
X5.993Y-2.932
X5.9955Y-2.878
X6.0025Y-2.4135
X6.0026Y-2.4629
X6.0027Y-2.5124
X6.01Y-3.1975
X6.0115Y-3.2545
X6.0178Y-2.2878
X6.0202Y-2.7722
X6.0365Y-3.3595
X6.0385Y-3.5325
X6.0665Y-1.7495
X6.0667Y-3.2626
X6.076Y-2.9135
X6.0881Y-2.9388
X6.09Y-3.3585
X6.094Y-2.1855
X6.094Y-2.2365
X6.1139Y-2.9361
X6.1435Y-3.3595
X6.1509Y-2.9103
X6.171Y-2.9685
X6.1751Y-2.6216
X6.182Y-2.8295
X6.1905Y-3.002
X6.198Y-3.3595
X6.2025Y-3.2095
X6.21Y-2.1275
X6.2109Y-2.9301
X6.2215Y-2.962
X6.2215Y-3.0739
X6.225Y-3.1602
X6.234Y-1.9175
X6.2515Y-2.757
X6.2519Y-1.75
X6.252Y-3.3595
X6.2552Y-2.5887
X6.2583Y-3.124
X6.2585Y-3.1585
X6.2588Y-3.4886
X6.301Y-2.3655
X6.3065Y-2.4325
X6.3065Y-3.3595
X6.307Y-2.6695
X6.316Y-2.912
X6.317Y-2.139
X6.3435Y-2.0925
X6.3492Y-3.4886
X6.3535Y-3.292
X6.359Y-3.196
X6.3605Y-3.2435
X6.37Y-3.446
X6.3715Y-2.624
X6.375Y-2.5505
X6.379Y-3.5514
X6.41Y-1.9915
X6.41Y-2.756
X6.443Y-3.311
X6.447Y-2.6985
X6.459Y-2.998
X6.4595Y-3.053
X6.463Y-2.4365
X6.507Y-3.2679
X6.5382Y-3.4108
X6.5885Y-2.594
X6.5895Y-2.9575
X6.5935Y-3.0665
X6.596Y-2.5075
X6.635Y-2.4635
T3
X4.613Y-3.534
X4.63Y-3.485
X4.632Y-3.59
X4.685Y-3.461
X4.685Y-3.611
X4.728Y-1.9395
X4.739Y-3.481
X4.739Y-3.588
X4.745Y-1.8905
X4.747Y-1.9955
X4.759Y-3.534
X4.8Y-1.8665
X4.8Y-2.0165
X4.854Y-1.8865
X4.854Y-1.9935
X4.874Y-1.9395
X6.264Y-1.851
X6.281Y-1.802
X6.283Y-1.907
X6.336Y-1.778
X6.336Y-1.928
X6.39Y-1.798
X6.39Y-1.905
X6.41Y-1.851
X6.4755Y-3.5535
X6.4925Y-3.5045
X6.4945Y-3.6095
X6.5475Y-3.4805
X6.5475Y-3.6305
X6.6015Y-3.5005
X6.6015Y-3.6075
X6.6215Y-3.5535
T4
X6.4497Y-1.9436
X6.4497Y-2.1404
T5
X6.005Y-3.4885
X6.005Y-3.5885
X6.105Y-3.4885
X6.105Y-3.5885
X6.205Y-3.4885
X6.205Y-3.5885
X6.305Y-3.4885
X6.305Y-3.5885
X6.405Y-3.4885
X6.405Y-3.5885
X6.494Y-3.111
X6.494Y-3.211
X6.494Y-3.311
X6.494Y-3.411
X6.594Y-3.111
X6.594Y-3.211
X6.594Y-3.311
X6.594Y-3.411
T6
X6.556Y-1.9042
X6.556Y-2.1798
T7
X4.686Y-3.534
X4.801Y-1.9395
X6.337Y-1.851
X6.5485Y-3.5535
T0
M30
