G04 #@! TF.FileFunction,Soldermask,Top*
%FSLAX46Y46*%
G04 Gerber Fmt 4.6, Leading zero omitted, Abs format (unit mm)*
G04 Created by KiCad (PCBNEW 4.0.5) date 2017 May 10, Wednesday 00:20:23*
%MOMM*%
%LPD*%
G01*
G04 APERTURE LIST*
%ADD10C,0.100000*%
%ADD11C,0.150000*%
%ADD12C,0.300000*%
%ADD13C,0.400000*%
%ADD14C,0.381000*%
%ADD15C,0.500000*%
%ADD16C,0.101600*%
%ADD17R,2.914600X1.924000*%
%ADD18R,0.800000X1.000000*%
%ADD19R,1.000000X0.800000*%
%ADD20R,0.730200X0.552400*%
%ADD21R,1.050240X0.552400*%
%ADD22R,0.552400X1.700480*%
%ADD23O,0.529540X0.900380*%
%ADD24C,0.549860*%
%ADD25R,2.559000X2.660600*%
%ADD26R,1.650000X1.500000*%
%ADD27R,1.500000X1.650000*%
%ADD28R,4.464000X1.924000*%
%ADD29R,4.464000X1.670000*%
%ADD30R,1.924000X1.924000*%
%ADD31C,1.924000*%
%ADD32R,2.580000X2.000000*%
%ADD33R,1.160000X2.050000*%
%ADD34R,1.050000X1.460000*%
%ADD35R,0.950000X1.200000*%
%ADD36R,1.265000X1.200000*%
%ADD37R,0.520000X0.800000*%
%ADD38R,0.520000X0.900000*%
%ADD39R,0.800000X0.520000*%
%ADD40R,0.900000X0.520000*%
%ADD41R,5.300000X5.300000*%
%ADD42R,2.000000X1.700000*%
%ADD43R,0.650000X1.100000*%
%ADD44R,1.100000X0.650000*%
%ADD45R,1.225000X1.225000*%
%ADD46R,3.400000X3.400000*%
%ADD47R,0.500000X1.000000*%
%ADD48R,1.000000X0.500000*%
%ADD49R,1.000000X0.900000*%
%ADD50R,0.900000X1.000000*%
%ADD51R,1.100000X1.400000*%
%ADD52R,1.100000X1.000000*%
%ADD53R,1.750000X0.850000*%
%ADD54C,1.808000*%
%ADD55C,2.200000*%
%ADD56R,1.950000X1.900000*%
%ADD57C,5.480000*%
%ADD58C,0.908000*%
G04 APERTURE END LIST*
D10*
D11*
X177002200Y-166007200D02*
X177002200Y-198007200D01*
X285002200Y-198007200D01*
X285002200Y-166007200D01*
X177002200Y-166007200D01*
D10*
D11*
X10000000Y-10000000D02*
X10000000Y-200007200D01*
X287002200Y-200007200D01*
X287002200Y-10000000D01*
X10000000Y-10000000D01*
D10*
D11*
X12000000Y-12000000D02*
X12000000Y-198007200D01*
X285002200Y-198007200D01*
X285002200Y-12000000D01*
X12000000Y-12000000D01*
D10*
D11*
X60000000Y-12000000D02*
X60000000Y-10000000D01*
D10*
D11*
X110000000Y-12000000D02*
X110000000Y-10000000D01*
D10*
D11*
X160000000Y-12000000D02*
X160000000Y-10000000D01*
D10*
D11*
X210000000Y-12000000D02*
X210000000Y-10000000D01*
D10*
D11*
X260000000Y-12000000D02*
X260000000Y-10000000D01*
D10*
D11*
X35990476Y-11588095D02*
X35247619Y-11588095D01*
X35619048Y-11588095D02*
X35619048Y-10288095D01*
X35495238Y-10473810D01*
X35371429Y-10597619D01*
X35247619Y-10659524D01*
D10*
D11*
X85247619Y-10411905D02*
X85309524Y-10350000D01*
X85433333Y-10288095D01*
X85742857Y-10288095D01*
X85866667Y-10350000D01*
X85928571Y-10411905D01*
X85990476Y-10535714D01*
X85990476Y-10659524D01*
X85928571Y-10845238D01*
X85185714Y-11588095D01*
X85990476Y-11588095D01*
D10*
D11*
X135185714Y-10288095D02*
X135990476Y-10288095D01*
X135557143Y-10783333D01*
X135742857Y-10783333D01*
X135866667Y-10845238D01*
X135928571Y-10907143D01*
X135990476Y-11030952D01*
X135990476Y-11340476D01*
X135928571Y-11464286D01*
X135866667Y-11526190D01*
X135742857Y-11588095D01*
X135371429Y-11588095D01*
X135247619Y-11526190D01*
X135185714Y-11464286D01*
D10*
D11*
X185866667Y-10721429D02*
X185866667Y-11588095D01*
X185557143Y-10226190D02*
X185247619Y-11154762D01*
X186052381Y-11154762D01*
D10*
D11*
X235928571Y-10288095D02*
X235309524Y-10288095D01*
X235247619Y-10907143D01*
X235309524Y-10845238D01*
X235433333Y-10783333D01*
X235742857Y-10783333D01*
X235866667Y-10845238D01*
X235928571Y-10907143D01*
X235990476Y-11030952D01*
X235990476Y-11340476D01*
X235928571Y-11464286D01*
X235866667Y-11526190D01*
X235742857Y-11588095D01*
X235433333Y-11588095D01*
X235309524Y-11526190D01*
X235247619Y-11464286D01*
D10*
D11*
X285866667Y-10288095D02*
X285619048Y-10288095D01*
X285495238Y-10350000D01*
X285433333Y-10411905D01*
X285309524Y-10597619D01*
X285247619Y-10845238D01*
X285247619Y-11340476D01*
X285309524Y-11464286D01*
X285371429Y-11526190D01*
X285495238Y-11588095D01*
X285742857Y-11588095D01*
X285866667Y-11526190D01*
X285928571Y-11464286D01*
X285990476Y-11340476D01*
X285990476Y-11030952D01*
X285928571Y-10907143D01*
X285866667Y-10845238D01*
X285742857Y-10783333D01*
X285495238Y-10783333D01*
X285371429Y-10845238D01*
X285309524Y-10907143D01*
X285247619Y-11030952D01*
D10*
D11*
X60000000Y-198007200D02*
X60000000Y-200007200D01*
D10*
D11*
X110000000Y-198007200D02*
X110000000Y-200007200D01*
D10*
D11*
X160000000Y-198007200D02*
X160000000Y-200007200D01*
D10*
D11*
X210000000Y-198007200D02*
X210000000Y-200007200D01*
D10*
D11*
X260000000Y-198007200D02*
X260000000Y-200007200D01*
D10*
D11*
X35990476Y-199595295D02*
X35247619Y-199595295D01*
X35619048Y-199595295D02*
X35619048Y-198295295D01*
X35495238Y-198481010D01*
X35371429Y-198604819D01*
X35247619Y-198666724D01*
D10*
D11*
X85247619Y-198419105D02*
X85309524Y-198357200D01*
X85433333Y-198295295D01*
X85742857Y-198295295D01*
X85866667Y-198357200D01*
X85928571Y-198419105D01*
X85990476Y-198542914D01*
X85990476Y-198666724D01*
X85928571Y-198852438D01*
X85185714Y-199595295D01*
X85990476Y-199595295D01*
D10*
D11*
X135185714Y-198295295D02*
X135990476Y-198295295D01*
X135557143Y-198790533D01*
X135742857Y-198790533D01*
X135866667Y-198852438D01*
X135928571Y-198914343D01*
X135990476Y-199038152D01*
X135990476Y-199347676D01*
X135928571Y-199471486D01*
X135866667Y-199533390D01*
X135742857Y-199595295D01*
X135371429Y-199595295D01*
X135247619Y-199533390D01*
X135185714Y-199471486D01*
D10*
D11*
X185866667Y-198728629D02*
X185866667Y-199595295D01*
X185557143Y-198233390D02*
X185247619Y-199161962D01*
X186052381Y-199161962D01*
D10*
D11*
X235928571Y-198295295D02*
X235309524Y-198295295D01*
X235247619Y-198914343D01*
X235309524Y-198852438D01*
X235433333Y-198790533D01*
X235742857Y-198790533D01*
X235866667Y-198852438D01*
X235928571Y-198914343D01*
X235990476Y-199038152D01*
X235990476Y-199347676D01*
X235928571Y-199471486D01*
X235866667Y-199533390D01*
X235742857Y-199595295D01*
X235433333Y-199595295D01*
X235309524Y-199533390D01*
X235247619Y-199471486D01*
D10*
D11*
X285866667Y-198295295D02*
X285619048Y-198295295D01*
X285495238Y-198357200D01*
X285433333Y-198419105D01*
X285309524Y-198604819D01*
X285247619Y-198852438D01*
X285247619Y-199347676D01*
X285309524Y-199471486D01*
X285371429Y-199533390D01*
X285495238Y-199595295D01*
X285742857Y-199595295D01*
X285866667Y-199533390D01*
X285928571Y-199471486D01*
X285990476Y-199347676D01*
X285990476Y-199038152D01*
X285928571Y-198914343D01*
X285866667Y-198852438D01*
X285742857Y-198790533D01*
X285495238Y-198790533D01*
X285371429Y-198852438D01*
X285309524Y-198914343D01*
X285247619Y-199038152D01*
D10*
D11*
X10000000Y-60000000D02*
X12000000Y-60000000D01*
D10*
D11*
X10000000Y-110000000D02*
X12000000Y-110000000D01*
D10*
D11*
X10000000Y-160000000D02*
X12000000Y-160000000D01*
D10*
D11*
X10690476Y-35216667D02*
X11309524Y-35216667D01*
X10566667Y-35588095D02*
X11000000Y-34288095D01*
X11433333Y-35588095D01*
D10*
D11*
X11092857Y-84907143D02*
X11278571Y-84969048D01*
X11340476Y-85030952D01*
X11402381Y-85154762D01*
X11402381Y-85340476D01*
X11340476Y-85464286D01*
X11278571Y-85526190D01*
X11154762Y-85588095D01*
X10659524Y-85588095D01*
X10659524Y-84288095D01*
X11092857Y-84288095D01*
X11216667Y-84350000D01*
X11278571Y-84411905D01*
X11340476Y-84535714D01*
X11340476Y-84659524D01*
X11278571Y-84783333D01*
X11216667Y-84845238D01*
X11092857Y-84907143D01*
X10659524Y-84907143D01*
D10*
D11*
X11402381Y-135464286D02*
X11340476Y-135526190D01*
X11154762Y-135588095D01*
X11030952Y-135588095D01*
X10845238Y-135526190D01*
X10721429Y-135402381D01*
X10659524Y-135278571D01*
X10597619Y-135030952D01*
X10597619Y-134845238D01*
X10659524Y-134597619D01*
X10721429Y-134473810D01*
X10845238Y-134350000D01*
X11030952Y-134288095D01*
X11154762Y-134288095D01*
X11340476Y-134350000D01*
X11402381Y-134411905D01*
D10*
D11*
X10659524Y-185588095D02*
X10659524Y-184288095D01*
X10969048Y-184288095D01*
X11154762Y-184350000D01*
X11278571Y-184473810D01*
X11340476Y-184597619D01*
X11402381Y-184845238D01*
X11402381Y-185030952D01*
X11340476Y-185278571D01*
X11278571Y-185402381D01*
X11154762Y-185526190D01*
X10969048Y-185588095D01*
X10659524Y-185588095D01*
D10*
D11*
X287002200Y-60000000D02*
X285002200Y-60000000D01*
D10*
D11*
X287002200Y-110000000D02*
X285002200Y-110000000D01*
D10*
D11*
X287002200Y-160000000D02*
X285002200Y-160000000D01*
D10*
D11*
X285692676Y-35216667D02*
X286311724Y-35216667D01*
X285568867Y-35588095D02*
X286002200Y-34288095D01*
X286435533Y-35588095D01*
D10*
D11*
X286095057Y-84907143D02*
X286280771Y-84969048D01*
X286342676Y-85030952D01*
X286404581Y-85154762D01*
X286404581Y-85340476D01*
X286342676Y-85464286D01*
X286280771Y-85526190D01*
X286156962Y-85588095D01*
X285661724Y-85588095D01*
X285661724Y-84288095D01*
X286095057Y-84288095D01*
X286218867Y-84350000D01*
X286280771Y-84411905D01*
X286342676Y-84535714D01*
X286342676Y-84659524D01*
X286280771Y-84783333D01*
X286218867Y-84845238D01*
X286095057Y-84907143D01*
X285661724Y-84907143D01*
D10*
D11*
X286404581Y-135464286D02*
X286342676Y-135526190D01*
X286156962Y-135588095D01*
X286033152Y-135588095D01*
X285847438Y-135526190D01*
X285723629Y-135402381D01*
X285661724Y-135278571D01*
X285599819Y-135030952D01*
X285599819Y-134845238D01*
X285661724Y-134597619D01*
X285723629Y-134473810D01*
X285847438Y-134350000D01*
X286033152Y-134288095D01*
X286156962Y-134288095D01*
X286342676Y-134350000D01*
X286404581Y-134411905D01*
D10*
D11*
X285661724Y-185588095D02*
X285661724Y-184288095D01*
X285971248Y-184288095D01*
X286156962Y-184350000D01*
X286280771Y-184473810D01*
X286342676Y-184597619D01*
X286404581Y-184845238D01*
X286404581Y-185030952D01*
X286342676Y-185278571D01*
X286280771Y-185402381D01*
X286156962Y-185526190D01*
X285971248Y-185588095D01*
X285661724Y-185588095D01*
D10*
D11*
X200359343Y-193785771D02*
X200359343Y-192285771D01*
X200716486Y-192285771D01*
X200930771Y-192357200D01*
X201073629Y-192500057D01*
X201145057Y-192642914D01*
X201216486Y-192928629D01*
X201216486Y-193142914D01*
X201145057Y-193428629D01*
X201073629Y-193571486D01*
X200930771Y-193714343D01*
X200716486Y-193785771D01*
X200359343Y-193785771D01*
X202502200Y-193785771D02*
X202502200Y-193000057D01*
X202430771Y-192857200D01*
X202287914Y-192785771D01*
X202002200Y-192785771D01*
X201859343Y-192857200D01*
X202502200Y-193714343D02*
X202359343Y-193785771D01*
X202002200Y-193785771D01*
X201859343Y-193714343D01*
X201787914Y-193571486D01*
X201787914Y-193428629D01*
X201859343Y-193285771D01*
X202002200Y-193214343D01*
X202359343Y-193214343D01*
X202502200Y-193142914D01*
X203002200Y-192785771D02*
X203573629Y-192785771D01*
X203216486Y-192285771D02*
X203216486Y-193571486D01*
X203287914Y-193714343D01*
X203430772Y-193785771D01*
X203573629Y-193785771D01*
X204645057Y-193714343D02*
X204502200Y-193785771D01*
X204216486Y-193785771D01*
X204073629Y-193714343D01*
X204002200Y-193571486D01*
X204002200Y-193000057D01*
X204073629Y-192857200D01*
X204216486Y-192785771D01*
X204502200Y-192785771D01*
X204645057Y-192857200D01*
X204716486Y-193000057D01*
X204716486Y-193142914D01*
X204002200Y-193285771D01*
X205359343Y-193642914D02*
X205430771Y-193714343D01*
X205359343Y-193785771D01*
X205287914Y-193714343D01*
X205359343Y-193642914D01*
X205359343Y-193785771D01*
X205359343Y-192857200D02*
X205430771Y-192928629D01*
X205359343Y-193000057D01*
X205287914Y-192928629D01*
X205359343Y-192857200D01*
X205359343Y-193000057D01*
D10*
D11*
X177002200Y-194507200D02*
X285002200Y-194507200D01*
D10*
D11*
X178359343Y-196585771D02*
X178359343Y-195085771D01*
X179216486Y-196585771D02*
X178573629Y-195728629D01*
X179216486Y-195085771D02*
X178359343Y-195942914D01*
X179859343Y-196585771D02*
X179859343Y-195585771D01*
X179859343Y-195085771D02*
X179787914Y-195157200D01*
X179859343Y-195228629D01*
X179930771Y-195157200D01*
X179859343Y-195085771D01*
X179859343Y-195228629D01*
X181430772Y-196442914D02*
X181359343Y-196514343D01*
X181145057Y-196585771D01*
X181002200Y-196585771D01*
X180787915Y-196514343D01*
X180645057Y-196371486D01*
X180573629Y-196228629D01*
X180502200Y-195942914D01*
X180502200Y-195728629D01*
X180573629Y-195442914D01*
X180645057Y-195300057D01*
X180787915Y-195157200D01*
X181002200Y-195085771D01*
X181145057Y-195085771D01*
X181359343Y-195157200D01*
X181430772Y-195228629D01*
X182716486Y-196585771D02*
X182716486Y-195800057D01*
X182645057Y-195657200D01*
X182502200Y-195585771D01*
X182216486Y-195585771D01*
X182073629Y-195657200D01*
X182716486Y-196514343D02*
X182573629Y-196585771D01*
X182216486Y-196585771D01*
X182073629Y-196514343D01*
X182002200Y-196371486D01*
X182002200Y-196228629D01*
X182073629Y-196085771D01*
X182216486Y-196014343D01*
X182573629Y-196014343D01*
X182716486Y-195942914D01*
X184073629Y-196585771D02*
X184073629Y-195085771D01*
X184073629Y-196514343D02*
X183930772Y-196585771D01*
X183645058Y-196585771D01*
X183502200Y-196514343D01*
X183430772Y-196442914D01*
X183359343Y-196300057D01*
X183359343Y-195871486D01*
X183430772Y-195728629D01*
X183502200Y-195657200D01*
X183645058Y-195585771D01*
X183930772Y-195585771D01*
X184073629Y-195657200D01*
X185930772Y-195800057D02*
X186430772Y-195800057D01*
X186645058Y-196585771D02*
X185930772Y-196585771D01*
X185930772Y-195085771D01*
X186645058Y-195085771D01*
X187287915Y-196442914D02*
X187359343Y-196514343D01*
X187287915Y-196585771D01*
X187216486Y-196514343D01*
X187287915Y-196442914D01*
X187287915Y-196585771D01*
X188002201Y-196585771D02*
X188002201Y-195085771D01*
X188359344Y-195085771D01*
X188573629Y-195157200D01*
X188716487Y-195300057D01*
X188787915Y-195442914D01*
X188859344Y-195728629D01*
X188859344Y-195942914D01*
X188787915Y-196228629D01*
X188716487Y-196371486D01*
X188573629Y-196514343D01*
X188359344Y-196585771D01*
X188002201Y-196585771D01*
X189502201Y-196442914D02*
X189573629Y-196514343D01*
X189502201Y-196585771D01*
X189430772Y-196514343D01*
X189502201Y-196442914D01*
X189502201Y-196585771D01*
X190145058Y-196157200D02*
X190859344Y-196157200D01*
X190002201Y-196585771D02*
X190502201Y-195085771D01*
X191002201Y-196585771D01*
X191502201Y-196442914D02*
X191573629Y-196514343D01*
X191502201Y-196585771D01*
X191430772Y-196514343D01*
X191502201Y-196442914D01*
X191502201Y-196585771D01*
X194502201Y-196585771D02*
X194502201Y-195085771D01*
X194645058Y-196014343D02*
X195073629Y-196585771D01*
X195073629Y-195585771D02*
X194502201Y-196157200D01*
X195716487Y-196585771D02*
X195716487Y-195585771D01*
X195716487Y-195085771D02*
X195645058Y-195157200D01*
X195716487Y-195228629D01*
X195787915Y-195157200D01*
X195716487Y-195085771D01*
X195716487Y-195228629D01*
X197073630Y-196514343D02*
X196930773Y-196585771D01*
X196645059Y-196585771D01*
X196502201Y-196514343D01*
X196430773Y-196442914D01*
X196359344Y-196300057D01*
X196359344Y-195871486D01*
X196430773Y-195728629D01*
X196502201Y-195657200D01*
X196645059Y-195585771D01*
X196930773Y-195585771D01*
X197073630Y-195657200D01*
X198359344Y-196585771D02*
X198359344Y-195800057D01*
X198287915Y-195657200D01*
X198145058Y-195585771D01*
X197859344Y-195585771D01*
X197716487Y-195657200D01*
X198359344Y-196514343D02*
X198216487Y-196585771D01*
X197859344Y-196585771D01*
X197716487Y-196514343D01*
X197645058Y-196371486D01*
X197645058Y-196228629D01*
X197716487Y-196085771D01*
X197859344Y-196014343D01*
X198216487Y-196014343D01*
X198359344Y-195942914D01*
X199716487Y-196585771D02*
X199716487Y-195085771D01*
X199716487Y-196514343D02*
X199573630Y-196585771D01*
X199287916Y-196585771D01*
X199145058Y-196514343D01*
X199073630Y-196442914D01*
X199002201Y-196300057D01*
X199002201Y-195871486D01*
X199073630Y-195728629D01*
X199145058Y-195657200D01*
X199287916Y-195585771D01*
X199573630Y-195585771D01*
X199716487Y-195657200D01*
X202216487Y-195585771D02*
X202216487Y-196585771D01*
X201859344Y-195014343D02*
X201502201Y-196085771D01*
X202430773Y-196085771D01*
X203002201Y-196442914D02*
X203073629Y-196514343D01*
X203002201Y-196585771D01*
X202930772Y-196514343D01*
X203002201Y-196442914D01*
X203002201Y-196585771D01*
X204002201Y-195085771D02*
X204145058Y-195085771D01*
X204287915Y-195157200D01*
X204359344Y-195228629D01*
X204430773Y-195371486D01*
X204502201Y-195657200D01*
X204502201Y-196014343D01*
X204430773Y-196300057D01*
X204359344Y-196442914D01*
X204287915Y-196514343D01*
X204145058Y-196585771D01*
X204002201Y-196585771D01*
X203859344Y-196514343D01*
X203787915Y-196442914D01*
X203716487Y-196300057D01*
X203645058Y-196014343D01*
X203645058Y-195657200D01*
X203716487Y-195371486D01*
X203787915Y-195228629D01*
X203859344Y-195157200D01*
X204002201Y-195085771D01*
X205145058Y-196442914D02*
X205216486Y-196514343D01*
X205145058Y-196585771D01*
X205073629Y-196514343D01*
X205145058Y-196442914D01*
X205145058Y-196585771D01*
X206573630Y-195085771D02*
X205859344Y-195085771D01*
X205787915Y-195800057D01*
X205859344Y-195728629D01*
X206002201Y-195657200D01*
X206359344Y-195657200D01*
X206502201Y-195728629D01*
X206573630Y-195800057D01*
X206645058Y-195942914D01*
X206645058Y-196300057D01*
X206573630Y-196442914D01*
X206502201Y-196514343D01*
X206359344Y-196585771D01*
X206002201Y-196585771D01*
X205859344Y-196514343D01*
X205787915Y-196442914D01*
D10*
D11*
X177002200Y-191507200D02*
X285002200Y-191507200D01*
D10*
D12*
X264216486Y-193785771D02*
X263716486Y-193071486D01*
X263359343Y-193785771D02*
X263359343Y-192285771D01*
X263930771Y-192285771D01*
X264073629Y-192357200D01*
X264145057Y-192428629D01*
X264216486Y-192571486D01*
X264216486Y-192785771D01*
X264145057Y-192928629D01*
X264073629Y-193000057D01*
X263930771Y-193071486D01*
X263359343Y-193071486D01*
X265430771Y-193714343D02*
X265287914Y-193785771D01*
X265002200Y-193785771D01*
X264859343Y-193714343D01*
X264787914Y-193571486D01*
X264787914Y-193000057D01*
X264859343Y-192857200D01*
X265002200Y-192785771D01*
X265287914Y-192785771D01*
X265430771Y-192857200D01*
X265502200Y-193000057D01*
X265502200Y-193142914D01*
X264787914Y-193285771D01*
X266002200Y-192785771D02*
X266359343Y-193785771D01*
X266716485Y-192785771D01*
X267287914Y-193642914D02*
X267359342Y-193714343D01*
X267287914Y-193785771D01*
X267216485Y-193714343D01*
X267287914Y-193642914D01*
X267287914Y-193785771D01*
X267287914Y-192857200D02*
X267359342Y-192928629D01*
X267287914Y-193000057D01*
X267216485Y-192928629D01*
X267287914Y-192857200D01*
X267287914Y-193000057D01*
D10*
D11*
X178287914Y-193714343D02*
X178502200Y-193785771D01*
X178859343Y-193785771D01*
X179002200Y-193714343D01*
X179073629Y-193642914D01*
X179145057Y-193500057D01*
X179145057Y-193357200D01*
X179073629Y-193214343D01*
X179002200Y-193142914D01*
X178859343Y-193071486D01*
X178573629Y-193000057D01*
X178430771Y-192928629D01*
X178359343Y-192857200D01*
X178287914Y-192714343D01*
X178287914Y-192571486D01*
X178359343Y-192428629D01*
X178430771Y-192357200D01*
X178573629Y-192285771D01*
X178930771Y-192285771D01*
X179145057Y-192357200D01*
X179787914Y-193785771D02*
X179787914Y-192785771D01*
X179787914Y-192285771D02*
X179716485Y-192357200D01*
X179787914Y-192428629D01*
X179859342Y-192357200D01*
X179787914Y-192285771D01*
X179787914Y-192428629D01*
X180359343Y-192785771D02*
X181145057Y-192785771D01*
X180359343Y-193785771D01*
X181145057Y-193785771D01*
X182287914Y-193714343D02*
X182145057Y-193785771D01*
X181859343Y-193785771D01*
X181716486Y-193714343D01*
X181645057Y-193571486D01*
X181645057Y-193000057D01*
X181716486Y-192857200D01*
X181859343Y-192785771D01*
X182145057Y-192785771D01*
X182287914Y-192857200D01*
X182359343Y-193000057D01*
X182359343Y-193142914D01*
X181645057Y-193285771D01*
X183002200Y-193642914D02*
X183073628Y-193714343D01*
X183002200Y-193785771D01*
X182930771Y-193714343D01*
X183002200Y-193642914D01*
X183002200Y-193785771D01*
X183002200Y-192857200D02*
X183073628Y-192928629D01*
X183002200Y-193000057D01*
X182930771Y-192928629D01*
X183002200Y-192857200D01*
X183002200Y-193000057D01*
X184787914Y-193357200D02*
X185502200Y-193357200D01*
X184645057Y-193785771D02*
X185145057Y-192285771D01*
X185645057Y-193785771D01*
X186787914Y-192785771D02*
X186787914Y-193785771D01*
X186430771Y-192214343D02*
X186073628Y-193285771D01*
X187002200Y-193285771D01*
D10*
D11*
X263359343Y-196585771D02*
X263359343Y-195085771D01*
X264716486Y-196585771D02*
X264716486Y-195085771D01*
X264716486Y-196514343D02*
X264573629Y-196585771D01*
X264287915Y-196585771D01*
X264145057Y-196514343D01*
X264073629Y-196442914D01*
X264002200Y-196300057D01*
X264002200Y-195871486D01*
X264073629Y-195728629D01*
X264145057Y-195657200D01*
X264287915Y-195585771D01*
X264573629Y-195585771D01*
X264716486Y-195657200D01*
X265430772Y-196442914D02*
X265502200Y-196514343D01*
X265430772Y-196585771D01*
X265359343Y-196514343D01*
X265430772Y-196442914D01*
X265430772Y-196585771D01*
X265430772Y-195657200D02*
X265502200Y-195728629D01*
X265430772Y-195800057D01*
X265359343Y-195728629D01*
X265430772Y-195657200D01*
X265430772Y-195800057D01*
X268073629Y-196585771D02*
X267216486Y-196585771D01*
X267645058Y-196585771D02*
X267645058Y-195085771D01*
X267502201Y-195300057D01*
X267359343Y-195442914D01*
X267216486Y-195514343D01*
X269787914Y-195014343D02*
X268502200Y-196942914D01*
X271073629Y-196585771D02*
X270216486Y-196585771D01*
X270645058Y-196585771D02*
X270645058Y-195085771D01*
X270502201Y-195300057D01*
X270359343Y-195442914D01*
X270216486Y-195514343D01*
D10*
D11*
X177002200Y-187507200D02*
X285002200Y-187507200D01*
D10*
D13*
X178454581Y-188211962D02*
X179597438Y-188211962D01*
X178776010Y-190211962D02*
X179026010Y-188211962D01*
X180014105Y-190211962D02*
X180180771Y-188878629D01*
X180264105Y-188211962D02*
X180156962Y-188307200D01*
X180240295Y-188402438D01*
X180347439Y-188307200D01*
X180264105Y-188211962D01*
X180240295Y-188402438D01*
X180847438Y-188878629D02*
X181609343Y-188878629D01*
X181216486Y-188211962D02*
X181002200Y-189926248D01*
X181073630Y-190116724D01*
X181252201Y-190211962D01*
X181442677Y-190211962D01*
X182395058Y-190211962D02*
X182216487Y-190116724D01*
X182145057Y-189926248D01*
X182359343Y-188211962D01*
X183930772Y-190116724D02*
X183728391Y-190211962D01*
X183347439Y-190211962D01*
X183168867Y-190116724D01*
X183097438Y-189926248D01*
X183192676Y-189164343D01*
X183311724Y-188973867D01*
X183514105Y-188878629D01*
X183895057Y-188878629D01*
X184073629Y-188973867D01*
X184145057Y-189164343D01*
X184121248Y-189354819D01*
X183145057Y-189545295D01*
X184895057Y-190021486D02*
X184978392Y-190116724D01*
X184871248Y-190211962D01*
X184787915Y-190116724D01*
X184895057Y-190021486D01*
X184871248Y-190211962D01*
X185026010Y-188973867D02*
X185109344Y-189069105D01*
X185002200Y-189164343D01*
X184918867Y-189069105D01*
X185026010Y-188973867D01*
X185002200Y-189164343D01*
D10*
D11*
X178859343Y-185600057D02*
X178359343Y-185600057D01*
X178359343Y-186385771D02*
X178359343Y-184885771D01*
X179073629Y-184885771D01*
X179645057Y-186385771D02*
X179645057Y-185385771D01*
X179645057Y-184885771D02*
X179573628Y-184957200D01*
X179645057Y-185028629D01*
X179716485Y-184957200D01*
X179645057Y-184885771D01*
X179645057Y-185028629D01*
X180573629Y-186385771D02*
X180430771Y-186314343D01*
X180359343Y-186171486D01*
X180359343Y-184885771D01*
X181716485Y-186314343D02*
X181573628Y-186385771D01*
X181287914Y-186385771D01*
X181145057Y-186314343D01*
X181073628Y-186171486D01*
X181073628Y-185600057D01*
X181145057Y-185457200D01*
X181287914Y-185385771D01*
X181573628Y-185385771D01*
X181716485Y-185457200D01*
X181787914Y-185600057D01*
X181787914Y-185742914D01*
X181073628Y-185885771D01*
X182430771Y-186242914D02*
X182502199Y-186314343D01*
X182430771Y-186385771D01*
X182359342Y-186314343D01*
X182430771Y-186242914D01*
X182430771Y-186385771D01*
X182430771Y-185457200D02*
X182502199Y-185528629D01*
X182430771Y-185600057D01*
X182359342Y-185528629D01*
X182430771Y-185457200D01*
X182430771Y-185600057D01*
X184287914Y-186385771D02*
X184287914Y-184885771D01*
X185145057Y-186385771D01*
X185145057Y-184885771D01*
X185859343Y-186385771D02*
X185859343Y-185385771D01*
X185859343Y-184885771D02*
X185787914Y-184957200D01*
X185859343Y-185028629D01*
X185930771Y-184957200D01*
X185859343Y-184885771D01*
X185859343Y-185028629D01*
X187216486Y-185385771D02*
X187216486Y-186600057D01*
X187145057Y-186742914D01*
X187073629Y-186814343D01*
X186930772Y-186885771D01*
X186716486Y-186885771D01*
X186573629Y-186814343D01*
X187216486Y-186314343D02*
X187073629Y-186385771D01*
X186787915Y-186385771D01*
X186645057Y-186314343D01*
X186573629Y-186242914D01*
X186502200Y-186100057D01*
X186502200Y-185671486D01*
X186573629Y-185528629D01*
X186645057Y-185457200D01*
X186787915Y-185385771D01*
X187073629Y-185385771D01*
X187216486Y-185457200D01*
X188573629Y-185385771D02*
X188573629Y-186385771D01*
X187930772Y-185385771D02*
X187930772Y-186171486D01*
X188002200Y-186314343D01*
X188145058Y-186385771D01*
X188359343Y-186385771D01*
X188502200Y-186314343D01*
X188573629Y-186242914D01*
X189287915Y-185385771D02*
X189287915Y-186385771D01*
X189287915Y-185528629D02*
X189359343Y-185457200D01*
X189502201Y-185385771D01*
X189716486Y-185385771D01*
X189859343Y-185457200D01*
X189930772Y-185600057D01*
X189930772Y-186385771D01*
X190645058Y-186242914D02*
X190716486Y-186314343D01*
X190645058Y-186385771D01*
X190573629Y-186314343D01*
X190645058Y-186242914D01*
X190645058Y-186385771D01*
X191359344Y-186385771D02*
X191359344Y-184885771D01*
X191502201Y-185814343D02*
X191930772Y-186385771D01*
X191930772Y-185385771D02*
X191359344Y-185957200D01*
X192573630Y-186385771D02*
X192573630Y-185385771D01*
X192573630Y-184885771D02*
X192502201Y-184957200D01*
X192573630Y-185028629D01*
X192645058Y-184957200D01*
X192573630Y-184885771D01*
X192573630Y-185028629D01*
X193930773Y-186314343D02*
X193787916Y-186385771D01*
X193502202Y-186385771D01*
X193359344Y-186314343D01*
X193287916Y-186242914D01*
X193216487Y-186100057D01*
X193216487Y-185671486D01*
X193287916Y-185528629D01*
X193359344Y-185457200D01*
X193502202Y-185385771D01*
X193787916Y-185385771D01*
X193930773Y-185457200D01*
X195216487Y-186385771D02*
X195216487Y-185600057D01*
X195145058Y-185457200D01*
X195002201Y-185385771D01*
X194716487Y-185385771D01*
X194573630Y-185457200D01*
X195216487Y-186314343D02*
X195073630Y-186385771D01*
X194716487Y-186385771D01*
X194573630Y-186314343D01*
X194502201Y-186171486D01*
X194502201Y-186028629D01*
X194573630Y-185885771D01*
X194716487Y-185814343D01*
X195073630Y-185814343D01*
X195216487Y-185742914D01*
X196573630Y-186385771D02*
X196573630Y-184885771D01*
X196573630Y-186314343D02*
X196430773Y-186385771D01*
X196145059Y-186385771D01*
X196002201Y-186314343D01*
X195930773Y-186242914D01*
X195859344Y-186100057D01*
X195859344Y-185671486D01*
X195930773Y-185528629D01*
X196002201Y-185457200D01*
X196145059Y-185385771D01*
X196430773Y-185385771D01*
X196573630Y-185457200D01*
X196930773Y-186528629D02*
X198073630Y-186528629D01*
X198430773Y-185385771D02*
X198430773Y-186885771D01*
X198430773Y-185457200D02*
X198573630Y-185385771D01*
X198859344Y-185385771D01*
X199002201Y-185457200D01*
X199073630Y-185528629D01*
X199145059Y-185671486D01*
X199145059Y-186100057D01*
X199073630Y-186242914D01*
X199002201Y-186314343D01*
X198859344Y-186385771D01*
X198573630Y-186385771D01*
X198430773Y-186314343D01*
X200430773Y-186314343D02*
X200287916Y-186385771D01*
X200002202Y-186385771D01*
X199859344Y-186314343D01*
X199787916Y-186242914D01*
X199716487Y-186100057D01*
X199716487Y-185671486D01*
X199787916Y-185528629D01*
X199859344Y-185457200D01*
X200002202Y-185385771D01*
X200287916Y-185385771D01*
X200430773Y-185457200D01*
X201073630Y-186385771D02*
X201073630Y-184885771D01*
X201073630Y-185457200D02*
X201216487Y-185385771D01*
X201502201Y-185385771D01*
X201645058Y-185457200D01*
X201716487Y-185528629D01*
X201787916Y-185671486D01*
X201787916Y-186100057D01*
X201716487Y-186242914D01*
X201645058Y-186314343D01*
X201502201Y-186385771D01*
X201216487Y-186385771D01*
X201073630Y-186314343D01*
D10*
D11*
X177002200Y-181507200D02*
X285002200Y-181507200D01*
D10*
D11*
X178287914Y-183614343D02*
X178502200Y-183685771D01*
X178859343Y-183685771D01*
X179002200Y-183614343D01*
X179073629Y-183542914D01*
X179145057Y-183400057D01*
X179145057Y-183257200D01*
X179073629Y-183114343D01*
X179002200Y-183042914D01*
X178859343Y-182971486D01*
X178573629Y-182900057D01*
X178430771Y-182828629D01*
X178359343Y-182757200D01*
X178287914Y-182614343D01*
X178287914Y-182471486D01*
X178359343Y-182328629D01*
X178430771Y-182257200D01*
X178573629Y-182185771D01*
X178930771Y-182185771D01*
X179145057Y-182257200D01*
X179787914Y-183685771D02*
X179787914Y-182185771D01*
X180430771Y-183685771D02*
X180430771Y-182900057D01*
X180359342Y-182757200D01*
X180216485Y-182685771D01*
X180002200Y-182685771D01*
X179859342Y-182757200D01*
X179787914Y-182828629D01*
X181716485Y-183614343D02*
X181573628Y-183685771D01*
X181287914Y-183685771D01*
X181145057Y-183614343D01*
X181073628Y-183471486D01*
X181073628Y-182900057D01*
X181145057Y-182757200D01*
X181287914Y-182685771D01*
X181573628Y-182685771D01*
X181716485Y-182757200D01*
X181787914Y-182900057D01*
X181787914Y-183042914D01*
X181073628Y-183185771D01*
X183002199Y-183614343D02*
X182859342Y-183685771D01*
X182573628Y-183685771D01*
X182430771Y-183614343D01*
X182359342Y-183471486D01*
X182359342Y-182900057D01*
X182430771Y-182757200D01*
X182573628Y-182685771D01*
X182859342Y-182685771D01*
X183002199Y-182757200D01*
X183073628Y-182900057D01*
X183073628Y-183042914D01*
X182359342Y-183185771D01*
X183502199Y-182685771D02*
X184073628Y-182685771D01*
X183716485Y-182185771D02*
X183716485Y-183471486D01*
X183787913Y-183614343D01*
X183930771Y-183685771D01*
X184073628Y-183685771D01*
X184573628Y-183542914D02*
X184645056Y-183614343D01*
X184573628Y-183685771D01*
X184502199Y-183614343D01*
X184573628Y-183542914D01*
X184573628Y-183685771D01*
X184573628Y-182757200D02*
X184645056Y-182828629D01*
X184573628Y-182900057D01*
X184502199Y-182828629D01*
X184573628Y-182757200D01*
X184573628Y-182900057D01*
D10*
D11*
X197002200Y-191507200D02*
X197002200Y-194507200D01*
D10*
D11*
X261002200Y-191507200D02*
X261002200Y-198007200D01*
D13*
X137788200Y-62479200D02*
X137788200Y-62179200D01*
X138288200Y-62504200D02*
X138288200Y-62104200D01*
X138788200Y-62504200D02*
X138788200Y-62104200D01*
X139288200Y-62504200D02*
X139288200Y-62104200D01*
X139788200Y-62504200D02*
X139788200Y-62104200D01*
X140288200Y-62504200D02*
X140288200Y-62104200D01*
X140788200Y-62504200D02*
X140788200Y-62104200D01*
X141288200Y-62504200D02*
X141288200Y-62104200D01*
X141788200Y-62504200D02*
X141788200Y-62104200D01*
X142288200Y-62504200D02*
X142288200Y-62104200D01*
X142788200Y-62504200D02*
X142788200Y-62104200D01*
X143288200Y-62479200D02*
X143288200Y-62179200D01*
X144013200Y-61754200D02*
X143713200Y-61754200D01*
X144038200Y-61254200D02*
X143638200Y-61254200D01*
X144038200Y-60754200D02*
X143638200Y-60754200D01*
X144038200Y-60254200D02*
X143638200Y-60254200D01*
X144038200Y-59754200D02*
X143638200Y-59754200D01*
X144038200Y-59254200D02*
X143638200Y-59254200D01*
X144038200Y-58754200D02*
X143638200Y-58754200D01*
X144038200Y-58254200D02*
X143638200Y-58254200D01*
X144038200Y-57754200D02*
X143638200Y-57754200D01*
X144038200Y-57254200D02*
X143638200Y-57254200D01*
X144038200Y-56754200D02*
X143638200Y-56754200D01*
X144013200Y-56254200D02*
X143713200Y-56254200D01*
X143288200Y-55529200D02*
X143288200Y-55829200D01*
X142788200Y-55504200D02*
X142788200Y-55904200D01*
X142288200Y-55504200D02*
X142288200Y-55904200D01*
X141788200Y-55504200D02*
X141788200Y-55904200D01*
X141288200Y-55504200D02*
X141288200Y-55904200D01*
X140788200Y-55504200D02*
X140788200Y-55904200D01*
X140288200Y-55504200D02*
X140288200Y-55904200D01*
X139788200Y-55504200D02*
X139788200Y-55904200D01*
X139288200Y-55504200D02*
X139288200Y-55904200D01*
X138788200Y-55504200D02*
X138788200Y-55904200D01*
X138288200Y-55504200D02*
X138288200Y-55904200D01*
X137788200Y-55529200D02*
X137788200Y-55829200D01*
X137063200Y-56254200D02*
X137363200Y-56254200D01*
X137038200Y-56754200D02*
X137438200Y-56754200D01*
X137038200Y-57254200D02*
X137438200Y-57254200D01*
X137038200Y-57754200D02*
X137438200Y-57754200D01*
X137038200Y-58254200D02*
X137438200Y-58254200D01*
X137038200Y-58754200D02*
X137438200Y-58754200D01*
X137038200Y-59254200D02*
X137438200Y-59254200D01*
X137038200Y-59754200D02*
X137438200Y-59754200D01*
X137038200Y-60254200D02*
X137438200Y-60254200D01*
X137038200Y-60754200D02*
X137438200Y-60754200D01*
X137038200Y-61254200D02*
X137438200Y-61254200D01*
X137063200Y-61754200D02*
X137363200Y-61754200D01*
D14*
G36*
X137938200Y-61604200D02*
X137938200Y-56404200D01*
X143138200Y-56404200D01*
X143138200Y-61604200D01*
X137938200Y-61604200D01*
G37*
X137938200Y-61604200D02*
X137938200Y-56404200D01*
X143138200Y-56404200D01*
X143138200Y-61604200D01*
X137938200Y-61604200D01*
D15*
G36*
X153602600Y-80119800D02*
X153602600Y-77469800D01*
X156252600Y-77469800D01*
X156252600Y-80119800D01*
X153602600Y-80119800D01*
G37*
X153602600Y-80119800D02*
X153602600Y-77469800D01*
X156252600Y-77469800D01*
X156252600Y-80119800D01*
X153602600Y-80119800D01*
D16*
G36*
X153077600Y-81344800D02*
X153077600Y-80894800D01*
X153127600Y-80844800D01*
X153277600Y-80844800D01*
X153277600Y-81344800D01*
X153077600Y-81344800D01*
G37*
X153077600Y-81344800D02*
X153077600Y-80894800D01*
X153127600Y-80844800D01*
X153277600Y-80844800D01*
X153277600Y-81344800D01*
X153077600Y-81344800D01*
G36*
X153577600Y-81344800D02*
X153577600Y-80844800D01*
X153777600Y-80844800D01*
X153777600Y-81344800D01*
X153577600Y-81344800D01*
G37*
X153577600Y-81344800D02*
X153577600Y-80844800D01*
X153777600Y-80844800D01*
X153777600Y-81344800D01*
X153577600Y-81344800D01*
G36*
X154077600Y-81344800D02*
X154077600Y-80844800D01*
X154277600Y-80844800D01*
X154277600Y-81344800D01*
X154077600Y-81344800D01*
G37*
X154077600Y-81344800D02*
X154077600Y-80844800D01*
X154277600Y-80844800D01*
X154277600Y-81344800D01*
X154077600Y-81344800D01*
G36*
X154577600Y-81344800D02*
X154577600Y-80844800D01*
X154777600Y-80844800D01*
X154777600Y-81344800D01*
X154577600Y-81344800D01*
G37*
X154577600Y-81344800D02*
X154577600Y-80844800D01*
X154777600Y-80844800D01*
X154777600Y-81344800D01*
X154577600Y-81344800D01*
G36*
X155077600Y-81344800D02*
X155077600Y-80844800D01*
X155277600Y-80844800D01*
X155277600Y-81344800D01*
X155077600Y-81344800D01*
G37*
X155077600Y-81344800D02*
X155077600Y-80844800D01*
X155277600Y-80844800D01*
X155277600Y-81344800D01*
X155077600Y-81344800D01*
G36*
X155577600Y-81344800D02*
X155577600Y-80844800D01*
X155777600Y-80844800D01*
X155777600Y-81344800D01*
X155577600Y-81344800D01*
G37*
X155577600Y-81344800D02*
X155577600Y-80844800D01*
X155777600Y-80844800D01*
X155777600Y-81344800D01*
X155577600Y-81344800D01*
G36*
X156077600Y-81344800D02*
X156077600Y-80844800D01*
X156277600Y-80844800D01*
X156277600Y-81344800D01*
X156077600Y-81344800D01*
G37*
X156077600Y-81344800D02*
X156077600Y-80844800D01*
X156277600Y-80844800D01*
X156277600Y-81344800D01*
X156077600Y-81344800D01*
G36*
X156777600Y-81344800D02*
X156777600Y-80894800D01*
X156727600Y-80844800D01*
X156577600Y-80844800D01*
X156577600Y-81344800D01*
X156777600Y-81344800D01*
G37*
X156777600Y-81344800D02*
X156777600Y-80894800D01*
X156727600Y-80844800D01*
X156577600Y-80844800D01*
X156577600Y-81344800D01*
X156777600Y-81344800D01*
G36*
X157477600Y-80644800D02*
X157027600Y-80644800D01*
X156977600Y-80594800D01*
X156977600Y-80444800D01*
X157477600Y-80444800D01*
X157477600Y-80644800D01*
G37*
X157477600Y-80644800D02*
X157027600Y-80644800D01*
X156977600Y-80594800D01*
X156977600Y-80444800D01*
X157477600Y-80444800D01*
X157477600Y-80644800D01*
G36*
X157477600Y-80144800D02*
X156977600Y-80144800D01*
X156977600Y-79944800D01*
X157477600Y-79944800D01*
X157477600Y-80144800D01*
G37*
X157477600Y-80144800D02*
X156977600Y-80144800D01*
X156977600Y-79944800D01*
X157477600Y-79944800D01*
X157477600Y-80144800D01*
G36*
X157477600Y-79644800D02*
X156977600Y-79644800D01*
X156977600Y-79444800D01*
X157477600Y-79444800D01*
X157477600Y-79644800D01*
G37*
X157477600Y-79644800D02*
X156977600Y-79644800D01*
X156977600Y-79444800D01*
X157477600Y-79444800D01*
X157477600Y-79644800D01*
G36*
X157477600Y-79144800D02*
X156977600Y-79144800D01*
X156977600Y-78944800D01*
X157477600Y-78944800D01*
X157477600Y-79144800D01*
G37*
X157477600Y-79144800D02*
X156977600Y-79144800D01*
X156977600Y-78944800D01*
X157477600Y-78944800D01*
X157477600Y-79144800D01*
G36*
X157477600Y-78644800D02*
X156977600Y-78644800D01*
X156977600Y-78444800D01*
X157477600Y-78444800D01*
X157477600Y-78644800D01*
G37*
X157477600Y-78644800D02*
X156977600Y-78644800D01*
X156977600Y-78444800D01*
X157477600Y-78444800D01*
X157477600Y-78644800D01*
G36*
X157477600Y-78144800D02*
X156977600Y-78144800D01*
X156977600Y-77944800D01*
X157477600Y-77944800D01*
X157477600Y-78144800D01*
G37*
X157477600Y-78144800D02*
X156977600Y-78144800D01*
X156977600Y-77944800D01*
X157477600Y-77944800D01*
X157477600Y-78144800D01*
G36*
X157477600Y-77644800D02*
X156977600Y-77644800D01*
X156977600Y-77444800D01*
X157477600Y-77444800D01*
X157477600Y-77644800D01*
G37*
X157477600Y-77644800D02*
X156977600Y-77644800D01*
X156977600Y-77444800D01*
X157477600Y-77444800D01*
X157477600Y-77644800D01*
G36*
X157477600Y-76944800D02*
X157027600Y-76944800D01*
X156977600Y-76994800D01*
X156977600Y-77144800D01*
X157477600Y-77144800D01*
X157477600Y-76944800D01*
G37*
X157477600Y-76944800D02*
X157027600Y-76944800D01*
X156977600Y-76994800D01*
X156977600Y-77144800D01*
X157477600Y-77144800D01*
X157477600Y-76944800D01*
G36*
X156777600Y-76244800D02*
X156777600Y-76694800D01*
X156727600Y-76744800D01*
X156577600Y-76744800D01*
X156577600Y-76244800D01*
X156777600Y-76244800D01*
G37*
X156777600Y-76244800D02*
X156777600Y-76694800D01*
X156727600Y-76744800D01*
X156577600Y-76744800D01*
X156577600Y-76244800D01*
X156777600Y-76244800D01*
G36*
X156277600Y-76244800D02*
X156277600Y-76744800D01*
X156077600Y-76744800D01*
X156077600Y-76244800D01*
X156277600Y-76244800D01*
G37*
X156277600Y-76244800D02*
X156277600Y-76744800D01*
X156077600Y-76744800D01*
X156077600Y-76244800D01*
X156277600Y-76244800D01*
G36*
X155777600Y-76244800D02*
X155777600Y-76744800D01*
X155577600Y-76744800D01*
X155577600Y-76244800D01*
X155777600Y-76244800D01*
G37*
X155777600Y-76244800D02*
X155777600Y-76744800D01*
X155577600Y-76744800D01*
X155577600Y-76244800D01*
X155777600Y-76244800D01*
G36*
X155277600Y-76244800D02*
X155277600Y-76744800D01*
X155077600Y-76744800D01*
X155077600Y-76244800D01*
X155277600Y-76244800D01*
G37*
X155277600Y-76244800D02*
X155277600Y-76744800D01*
X155077600Y-76744800D01*
X155077600Y-76244800D01*
X155277600Y-76244800D01*
G36*
X154777600Y-76244800D02*
X154777600Y-76744800D01*
X154577600Y-76744800D01*
X154577600Y-76244800D01*
X154777600Y-76244800D01*
G37*
X154777600Y-76244800D02*
X154777600Y-76744800D01*
X154577600Y-76744800D01*
X154577600Y-76244800D01*
X154777600Y-76244800D01*
G36*
X154277600Y-76244800D02*
X154277600Y-76744800D01*
X154077600Y-76744800D01*
X154077600Y-76244800D01*
X154277600Y-76244800D01*
G37*
X154277600Y-76244800D02*
X154277600Y-76744800D01*
X154077600Y-76744800D01*
X154077600Y-76244800D01*
X154277600Y-76244800D01*
G36*
X153777600Y-76244800D02*
X153777600Y-76744800D01*
X153577600Y-76744800D01*
X153577600Y-76244800D01*
X153777600Y-76244800D01*
G37*
X153777600Y-76244800D02*
X153777600Y-76744800D01*
X153577600Y-76744800D01*
X153577600Y-76244800D01*
X153777600Y-76244800D01*
G36*
X153077600Y-76244800D02*
X153077600Y-76694800D01*
X153127600Y-76744800D01*
X153277600Y-76744800D01*
X153277600Y-76244800D01*
X153077600Y-76244800D01*
G37*
X153077600Y-76244800D02*
X153077600Y-76694800D01*
X153127600Y-76744800D01*
X153277600Y-76744800D01*
X153277600Y-76244800D01*
X153077600Y-76244800D01*
G36*
X152377600Y-76944800D02*
X152827600Y-76944800D01*
X152877600Y-76994800D01*
X152877600Y-77144800D01*
X152377600Y-77144800D01*
X152377600Y-76944800D01*
G37*
X152377600Y-76944800D02*
X152827600Y-76944800D01*
X152877600Y-76994800D01*
X152877600Y-77144800D01*
X152377600Y-77144800D01*
X152377600Y-76944800D01*
G36*
X152377600Y-77444800D02*
X152877600Y-77444800D01*
X152877600Y-77644800D01*
X152377600Y-77644800D01*
X152377600Y-77444800D01*
G37*
X152377600Y-77444800D02*
X152877600Y-77444800D01*
X152877600Y-77644800D01*
X152377600Y-77644800D01*
X152377600Y-77444800D01*
G36*
X152377600Y-77944800D02*
X152877600Y-77944800D01*
X152877600Y-78144800D01*
X152377600Y-78144800D01*
X152377600Y-77944800D01*
G37*
X152377600Y-77944800D02*
X152877600Y-77944800D01*
X152877600Y-78144800D01*
X152377600Y-78144800D01*
X152377600Y-77944800D01*
G36*
X152377600Y-78444800D02*
X152877600Y-78444800D01*
X152877600Y-78644800D01*
X152377600Y-78644800D01*
X152377600Y-78444800D01*
G37*
X152377600Y-78444800D02*
X152877600Y-78444800D01*
X152877600Y-78644800D01*
X152377600Y-78644800D01*
X152377600Y-78444800D01*
G36*
X152377600Y-78944800D02*
X152877600Y-78944800D01*
X152877600Y-79144800D01*
X152377600Y-79144800D01*
X152377600Y-78944800D01*
G37*
X152377600Y-78944800D02*
X152877600Y-78944800D01*
X152877600Y-79144800D01*
X152377600Y-79144800D01*
X152377600Y-78944800D01*
G36*
X152377600Y-79444800D02*
X152877600Y-79444800D01*
X152877600Y-79644800D01*
X152377600Y-79644800D01*
X152377600Y-79444800D01*
G37*
X152377600Y-79444800D02*
X152877600Y-79444800D01*
X152877600Y-79644800D01*
X152377600Y-79644800D01*
X152377600Y-79444800D01*
G36*
X152377600Y-79944800D02*
X152877600Y-79944800D01*
X152877600Y-80144800D01*
X152377600Y-80144800D01*
X152377600Y-79944800D01*
G37*
X152377600Y-79944800D02*
X152877600Y-79944800D01*
X152877600Y-80144800D01*
X152377600Y-80144800D01*
X152377600Y-79944800D01*
G36*
X152377600Y-80644800D02*
X152827600Y-80644800D01*
X152877600Y-80594800D01*
X152877600Y-80444800D01*
X152377600Y-80444800D01*
X152377600Y-80644800D01*
G37*
X152377600Y-80644800D02*
X152827600Y-80644800D01*
X152877600Y-80594800D01*
X152877600Y-80444800D01*
X152377600Y-80444800D01*
X152377600Y-80644800D01*
D17*
X165557200Y-75057000D03*
X165582600Y-68554600D03*
D18*
X147886000Y-89369900D03*
X148786000Y-89369900D03*
X147276400Y-80327500D03*
X148176400Y-80327500D03*
X149288500Y-77749400D03*
X150188500Y-77749400D03*
X150150400Y-80327500D03*
X149250400Y-80327500D03*
X151714200Y-73113900D03*
X150814200Y-73113900D03*
X151726900Y-74472800D03*
X150826900Y-74472800D03*
X151726900Y-75844400D03*
X150826900Y-75844400D03*
D19*
X160172400Y-83832700D03*
X160172400Y-84732700D03*
X158813500Y-83832700D03*
X158813500Y-84732700D03*
X157429200Y-83832700D03*
X157429200Y-84732700D03*
X156044900Y-83832700D03*
X156044900Y-84732700D03*
X154686000Y-83845400D03*
X154686000Y-84745400D03*
X153327100Y-83845400D03*
X153327100Y-84745400D03*
D18*
X159600900Y-76149200D03*
X158700900Y-76149200D03*
X161232000Y-79298800D03*
X160332000Y-79298800D03*
X152126100Y-82677000D03*
X151226100Y-82677000D03*
X159624600Y-77546200D03*
X158724600Y-77546200D03*
X148836380Y-52725320D03*
X149736380Y-52725320D03*
X153311860Y-55519320D03*
X154211860Y-55519320D03*
X153319060Y-56817260D03*
X154219060Y-56817260D03*
X157106620Y-44442380D03*
X158006620Y-44442380D03*
D19*
X137452100Y-86672000D03*
X137452100Y-87572000D03*
X136093200Y-86672000D03*
X136093200Y-87572000D03*
D18*
X136461500Y-81153000D03*
X135561500Y-81153000D03*
X166460600Y-66624200D03*
X167360600Y-66624200D03*
X165138100Y-66636900D03*
X164238100Y-66636900D03*
D19*
X161124900Y-67531400D03*
X161124900Y-66631400D03*
X136453880Y-79832200D03*
X136453880Y-78932200D03*
X136453880Y-76602160D03*
X136453880Y-75702160D03*
D18*
X133177280Y-74549000D03*
X134077280Y-74549000D03*
D19*
X136443720Y-71973440D03*
X136443720Y-71073440D03*
X161747200Y-53151200D03*
X161747200Y-54051200D03*
D20*
X128323340Y-54782720D03*
D21*
X128163320Y-54432200D03*
D20*
X128323340Y-54081680D03*
X127353060Y-54081680D03*
X127353060Y-54432200D03*
X127353060Y-54782720D03*
D22*
X127838200Y-54432200D03*
D23*
X127772160Y-54432200D03*
D24*
X127859413Y-54609107D02*
X128035427Y-54433093D01*
X128025267Y-54431307D02*
X127849253Y-54255293D01*
D25*
X161759900Y-58089800D03*
X166636700Y-58089800D03*
D26*
X161131500Y-69240400D03*
X158781500Y-69240400D03*
X160794201Y-77558900D03*
X163144201Y-77558900D03*
X160788100Y-76149200D03*
X163138100Y-76149200D03*
D27*
X148183600Y-77762599D03*
X148183600Y-75412599D03*
D28*
X117563900Y-51930300D03*
X117563900Y-57010300D03*
D29*
X117563900Y-54470300D03*
D28*
X117576600Y-78143100D03*
X117576600Y-83223100D03*
D29*
X117576600Y-80683100D03*
D30*
X167487600Y-86639400D03*
D31*
X164947600Y-86639400D03*
X167487600Y-84099400D03*
X164947600Y-84099400D03*
X167487600Y-81559400D03*
X164947600Y-81559400D03*
X167487600Y-79019400D03*
X164947600Y-79019400D03*
D30*
X162687000Y-88607900D03*
D31*
X162687000Y-91147900D03*
X160147000Y-88607900D03*
X160147000Y-91147900D03*
X157607000Y-88607900D03*
X157607000Y-91147900D03*
X155067000Y-88607900D03*
X155067000Y-91147900D03*
X152527000Y-88607900D03*
X152527000Y-91147900D03*
D32*
X118193600Y-44932600D03*
X127373600Y-44932600D03*
D33*
X127546100Y-72580500D03*
X126276100Y-72580500D03*
X125006100Y-72580500D03*
X125006100Y-75760500D03*
X127546100Y-75760500D03*
D34*
X161135100Y-62577800D03*
X160185100Y-62577800D03*
X159235100Y-62577800D03*
X159235100Y-64777800D03*
X161135100Y-64777800D03*
D35*
X165110200Y-62579400D03*
X164160200Y-62579400D03*
X163210200Y-62579400D03*
X163210200Y-64979400D03*
X165110200Y-64979400D03*
D36*
X124379700Y-66841200D03*
X124379700Y-65391200D03*
X122914700Y-66841200D03*
X122914700Y-65391200D03*
D37*
X137788200Y-62329200D03*
D38*
X138288200Y-62304200D03*
X138788200Y-62304200D03*
X139288200Y-62304200D03*
X139788200Y-62304200D03*
X140288200Y-62304200D03*
X140788200Y-62304200D03*
X141288200Y-62304200D03*
X141788200Y-62304200D03*
X142288200Y-62304200D03*
X142788200Y-62304200D03*
D37*
X143288200Y-62329200D03*
D39*
X143863200Y-61754200D03*
D40*
X143838200Y-61254200D03*
X143838200Y-60754200D03*
X143838200Y-60254200D03*
X143838200Y-59754200D03*
X143838200Y-59254200D03*
X143838200Y-58754200D03*
X143838200Y-58254200D03*
X143838200Y-57754200D03*
X143838200Y-57254200D03*
X143838200Y-56754200D03*
D39*
X143863200Y-56254200D03*
D37*
X143288200Y-55679200D03*
D38*
X142788200Y-55704200D03*
X142288200Y-55704200D03*
X141788200Y-55704200D03*
X141288200Y-55704200D03*
X140788200Y-55704200D03*
X140288200Y-55704200D03*
X139788200Y-55704200D03*
X139288200Y-55704200D03*
X138788200Y-55704200D03*
X138288200Y-55704200D03*
D37*
X137788200Y-55679200D03*
D39*
X137213200Y-56254200D03*
D40*
X137238200Y-56754200D03*
X137238200Y-57254200D03*
X137238200Y-57754200D03*
X137238200Y-58254200D03*
X137238200Y-58754200D03*
X137238200Y-59254200D03*
X137238200Y-59754200D03*
X137238200Y-60254200D03*
X137238200Y-60754200D03*
X137238200Y-61254200D03*
D39*
X137213200Y-61754200D03*
D41*
X140538200Y-59004200D03*
D42*
X156189680Y-48696880D03*
X152189680Y-48696880D03*
X156189680Y-46196880D03*
X152189680Y-46196880D03*
D43*
X122903360Y-82095800D03*
X123403360Y-82095800D03*
X123903360Y-82095800D03*
D44*
X124803360Y-81195800D03*
X124803360Y-80695800D03*
X124803360Y-80195800D03*
D43*
X123903360Y-79295800D03*
X123403360Y-79295800D03*
X122903360Y-79295800D03*
D44*
X122003360Y-80195800D03*
X122003360Y-80695800D03*
X122003360Y-81195800D03*
D45*
X123815860Y-80283300D03*
X122990860Y-80283300D03*
X123815860Y-81108300D03*
X122990860Y-81108300D03*
D46*
X154927600Y-78794800D03*
D47*
X153177600Y-81194800D03*
X153677600Y-81194800D03*
X154177600Y-81194800D03*
X154677600Y-81194800D03*
X155177600Y-81194800D03*
X155677600Y-81194800D03*
X156177600Y-81194800D03*
X156677600Y-81194800D03*
D48*
X157327600Y-80544800D03*
X157327600Y-80044800D03*
X157327600Y-79544800D03*
X157327600Y-79044800D03*
X157327600Y-78544800D03*
X157327600Y-78044800D03*
X157327600Y-77544800D03*
X157327600Y-77044800D03*
D47*
X156677600Y-76394800D03*
X156177600Y-76394800D03*
X155677600Y-76394800D03*
X155177600Y-76394800D03*
X154677600Y-76394800D03*
X154177600Y-76394800D03*
X153677600Y-76394800D03*
X153177600Y-76394800D03*
D48*
X152527600Y-77044800D03*
X152527600Y-77544800D03*
X152527600Y-78044800D03*
X152527600Y-78544800D03*
X152527600Y-79044800D03*
X152527600Y-79544800D03*
X152527600Y-80044800D03*
X152527600Y-80544800D03*
D49*
X124832200Y-54432200D03*
X123732200Y-54432200D03*
X135368270Y-67365584D03*
X134268270Y-67365584D03*
X141346100Y-70116700D03*
X140246100Y-70116700D03*
X135364370Y-68622884D03*
X134264370Y-68622884D03*
X136451520Y-73223120D03*
X135351520Y-73223120D03*
D50*
X127368300Y-50716000D03*
X127368300Y-51816000D03*
X126682500Y-55491200D03*
X126682500Y-56591200D03*
D49*
X141351000Y-71424800D03*
X140251000Y-71424800D03*
X161137600Y-60731400D03*
X160037600Y-60731400D03*
X135372303Y-66112232D03*
X134272303Y-66112232D03*
X136451520Y-74549000D03*
X135351520Y-74549000D03*
X141396900Y-73139300D03*
X140296900Y-73139300D03*
X166442300Y-62572900D03*
X167542300Y-62572900D03*
X141396900Y-74612500D03*
X140296900Y-74612500D03*
X136450160Y-77764640D03*
X135350160Y-77764640D03*
X144331600Y-69913500D03*
X145431600Y-69913500D03*
X135148320Y-79837280D03*
X134048320Y-79837280D03*
X144322799Y-68656200D03*
X145422799Y-68656200D03*
D50*
X159626300Y-66709200D03*
X159626300Y-67809200D03*
D49*
X141346100Y-65582800D03*
X140246100Y-65582800D03*
X144284700Y-66941700D03*
X145384700Y-66941700D03*
X141363700Y-66840100D03*
X140263700Y-66840100D03*
X144259300Y-65633600D03*
X145359300Y-65633600D03*
X166442300Y-64274700D03*
X167542300Y-64274700D03*
X141354900Y-67957700D03*
X140254900Y-67957700D03*
X145415000Y-72821800D03*
X144315000Y-72821800D03*
X150462861Y-63815888D03*
X151562861Y-63815888D03*
D50*
X149386082Y-58121378D03*
X149386082Y-59221378D03*
X131168105Y-65557467D03*
X131168105Y-66657467D03*
X136093200Y-84302600D03*
X136093200Y-85402600D03*
X137452100Y-84294800D03*
X137452100Y-85394800D03*
D49*
X150458961Y-62558588D03*
X151558961Y-62558588D03*
D50*
X150666241Y-58121378D03*
X150666241Y-59221378D03*
D49*
X145416678Y-71570440D03*
X144316678Y-71570440D03*
D50*
X132412705Y-65557466D03*
X132412705Y-66657466D03*
D49*
X150462861Y-61301289D03*
X151562861Y-61301289D03*
D50*
X151950420Y-58111300D03*
X151950420Y-59211300D03*
X132417820Y-62538520D03*
X132417820Y-63638520D03*
X131122420Y-62538520D03*
X131122420Y-63638520D03*
D49*
X149550120Y-65293240D03*
X150650120Y-65293240D03*
D50*
X140931900Y-78910000D03*
X140931900Y-80010000D03*
X143484600Y-78913900D03*
X143484600Y-80013900D03*
D49*
X149550120Y-66545460D03*
X150650120Y-66545460D03*
X154844660Y-44442380D03*
X155944660Y-44442380D03*
D50*
X129585720Y-62537340D03*
X129585720Y-63637340D03*
D49*
X150975060Y-56822340D03*
X152075060Y-56822340D03*
X133299200Y-58432700D03*
X132199200Y-58432700D03*
X151005540Y-55526940D03*
X152105540Y-55526940D03*
X133302547Y-61036663D03*
X132202547Y-61036663D03*
D50*
X124886791Y-61262503D03*
X124886791Y-60162503D03*
X128752600Y-66691600D03*
X128752600Y-65591600D03*
X126238000Y-66682800D03*
X126238000Y-65582800D03*
D49*
X133302547Y-59614263D03*
X132202547Y-59614263D03*
X133714400Y-55651400D03*
X134814400Y-55651400D03*
X130488600Y-53352700D03*
X131588600Y-53352700D03*
X146489420Y-52730400D03*
X147589420Y-52730400D03*
D50*
X129527300Y-75412600D03*
X129527300Y-74312600D03*
D49*
X133705600Y-54432200D03*
X134805600Y-54432200D03*
X146469100Y-54216300D03*
X147569100Y-54216300D03*
X146469100Y-55499000D03*
X147569100Y-55499000D03*
X147568187Y-50570792D03*
X146468187Y-50570792D03*
D50*
X135508463Y-50769744D03*
X135508463Y-51869744D03*
D49*
X134065892Y-47590640D03*
X132965892Y-47590640D03*
X147564467Y-49346512D03*
X146464467Y-49346512D03*
D50*
X134314663Y-50769745D03*
X134314663Y-51869745D03*
D49*
X134078592Y-46384140D03*
X132978592Y-46384140D03*
X147564467Y-48114612D03*
X146464467Y-48114612D03*
D50*
X133108162Y-50769743D03*
X133108162Y-51869743D03*
D49*
X134078592Y-45164940D03*
X132978592Y-45164940D03*
X145038765Y-50564790D03*
X143938765Y-50564790D03*
X159842200Y-82397600D03*
X160942200Y-82397600D03*
X145035045Y-49322730D03*
X143935045Y-49322730D03*
X145038765Y-48073049D03*
X143938765Y-48073049D03*
X136631198Y-47576114D03*
X135531198Y-47576114D03*
X139155292Y-47584041D03*
X138055292Y-47584041D03*
X141401800Y-45110400D03*
X142501800Y-45110400D03*
X142483840Y-50568860D03*
X141383840Y-50568860D03*
X159838300Y-81191100D03*
X160938300Y-81191100D03*
X136631198Y-46369614D03*
X135531198Y-46369614D03*
X139163093Y-46339440D03*
X138063093Y-46339440D03*
X141401800Y-46316900D03*
X142501800Y-46316900D03*
X142483840Y-49329340D03*
X141383840Y-49329340D03*
X136626298Y-45150413D03*
X135526298Y-45150413D03*
X139157800Y-45123100D03*
X138057800Y-45123100D03*
X142483840Y-48082200D03*
X141383840Y-48082200D03*
D50*
X148374100Y-83968500D03*
X148374100Y-85068500D03*
X149948900Y-83981200D03*
X149948900Y-85081200D03*
X151218900Y-83981200D03*
X151218900Y-85081200D03*
D49*
X148784400Y-87884000D03*
X147684400Y-87884000D03*
D51*
X159724600Y-54344000D03*
D52*
X159724600Y-52644000D03*
X157724600Y-52644000D03*
X157724600Y-54544000D03*
D49*
X129598600Y-60159900D03*
X128498600Y-60159900D03*
X126128600Y-60159900D03*
X127228600Y-60159900D03*
D33*
X145135600Y-84401700D03*
X143865600Y-84401700D03*
X142595600Y-84401700D03*
X142595600Y-87581700D03*
X145135600Y-87581700D03*
D53*
X163847400Y-53166800D03*
X163847400Y-52516800D03*
X163847400Y-51866800D03*
X163847400Y-51216800D03*
X163847400Y-50566800D03*
D54*
X163822400Y-54366800D03*
X163822400Y-49366800D03*
D55*
X166522400Y-55366800D03*
X166522400Y-48366800D03*
D56*
X166522400Y-52866800D03*
X166522400Y-50866800D03*
X166522400Y-54916800D03*
X166522400Y-48816800D03*
D57*
X119024400Y-89763600D03*
D58*
X120878600Y-89763600D03*
X118999000Y-87909400D03*
X118999000Y-91719400D03*
X120370600Y-91135200D03*
X117602000Y-88519000D03*
X117652800Y-91186000D03*
X117170200Y-89763600D03*
X120370600Y-88417400D03*
D57*
X121945400Y-49263300D03*
D58*
X123799600Y-49263300D03*
X121920000Y-47409100D03*
X121920000Y-51219100D03*
X123291600Y-50634900D03*
X120523000Y-48018700D03*
X120573800Y-50685700D03*
X120091200Y-49263300D03*
X123291600Y-47917100D03*
D57*
X166331900Y-90258900D03*
D58*
X168186100Y-90258900D03*
X166306500Y-88404700D03*
X166306500Y-92214700D03*
X167678100Y-91630500D03*
X164909500Y-89014300D03*
X164960300Y-91681300D03*
X164477700Y-90258900D03*
X167678100Y-88912700D03*
D57*
X160959800Y-47015400D03*
D58*
X162814000Y-47015400D03*
X160934400Y-45161200D03*
X160934400Y-48971200D03*
X162306000Y-48387000D03*
X159537400Y-45770800D03*
X159588200Y-48437800D03*
X159105600Y-47015400D03*
X162306000Y-45669200D03*
M02*
